<svg width="63" height="64" viewBox="0 0 63 64" fill="none" xmlns="http://www.w3.org/2000/svg">
<g clip-path="url(#clip0_250_436)">
<path d="M48.7584 42.5973C51.0034 45.6252 53.3185 48.7234 55.6337 51.8216C51.0034 57.3139 45.2506 60.8346 38.3051 62.3133C30.588 63.9329 23.2918 62.7358 16.206 58.7926C22.5201 54.0749 28.6938 49.4275 34.9377 44.7802C36.3408 46.1181 37.6737 47.4559 39.0067 48.7234C40.48 50.1317 39.9187 50.2021 41.8129 49.1459C44.4087 47.6672 46.5835 45.6252 48.2673 43.1607C48.3374 43.0198 48.4777 42.879 48.5479 42.7382C48.4777 42.7382 48.5479 42.7382 48.7584 42.5973ZM21.1871 48.7938C19.4332 50.1317 17.8196 51.3287 16.206 52.5962C15.0134 53.5116 13.8207 54.3565 12.6281 55.2719C12.137 55.6944 11.7862 55.6944 11.225 55.2015C5.89312 50.4133 2.52564 44.4985 1.26283 37.4571C2.45238e-05 30.3453 1.12252 23.5855 4.49 17.1778C4.56016 17.037 4.70047 16.8257 4.77063 16.6849C4.77063 16.6145 4.84078 16.6145 4.98109 16.5441C9.61138 22.6701 14.3118 28.7962 18.9421 34.9222C18.8018 35.1334 18.7317 35.2743 18.5913 35.4151C17.1882 36.8938 15.7851 38.3725 14.3118 39.7808C13.8909 40.2033 13.8207 40.5553 14.1014 41.0482C15.5746 43.8648 17.6092 46.1885 20.1348 48.0897C20.4855 48.3009 20.7662 48.5122 21.1871 48.7938ZM47.3553 5.06655C45.1103 6.68608 42.8653 8.30561 40.6203 9.85472C36.7617 12.6009 32.9031 15.4174 29.1147 18.1636C28.6236 18.5157 28.2729 18.5861 27.8519 18.0932C26.5891 16.7553 25.2562 15.5583 23.9933 14.2204C23.6426 13.8683 23.2918 13.7979 22.8007 14.0092C19.784 15.5583 17.3987 17.7411 15.4343 20.4873C15.294 20.6281 15.1537 20.8393 15.0134 21.0506C13.8909 19.5719 12.8386 18.234 11.7862 16.8257C10.6637 15.347 9.61138 13.8683 8.55905 12.46C8.20827 11.9671 8.13811 11.6151 8.6292 11.1222C14.0312 5.13696 20.696 1.61625 28.6938 0.771281C35.0078 0.0671389 41.0412 1.3346 46.6537 4.36241C46.8642 4.50324 47.0746 4.57365 47.2851 4.71448C47.2851 4.92572 47.2851 4.99614 47.3553 5.06655ZM58.7907 47.3151C57.3174 45.4139 55.9844 43.6536 54.6515 41.8932C51.5646 37.8092 48.4778 33.6547 45.3207 29.5707C44.8998 29.0074 44.8998 28.6553 45.3909 28.1624C46.7239 26.8246 47.9867 25.4867 49.3196 24.1488C49.6704 23.7967 49.8107 23.4447 49.5301 22.9518C47.9867 19.9944 45.882 17.5299 43.1459 15.5583C42.9354 15.4174 42.725 15.2062 42.4443 15.0654C42.6548 14.8541 42.8653 14.7133 43.0056 14.5725C45.6715 12.5305 48.3374 10.5589 51.0034 8.51685C51.4243 8.16478 51.7751 8.02395 52.2662 8.51685C58.931 14.5725 62.5089 22.1068 62.8597 31.1902C63 36.4713 61.8074 41.4707 59.4221 46.1885C59.2116 46.4701 59.0011 46.8222 58.7907 47.3151Z" fill="#231815"/>
</g>
<defs>
<clipPath id="clip0_250_436">
<rect width="63" height="64" fill="white"/>
</clipPath>
</defs>
</svg>
