<svg width="68" height="64" viewBox="0 0 68 64" fill="none" xmlns="http://www.w3.org/2000/svg">
<g clip-path="url(#clip0_221_4812)">
<path d="M16.1822 35.2616L17.9813 21.7439L2.37634 10.9104L16.6344 15.7402L20.0017 10.5737L32.2971 2.94409L59.399 17.8761L60.8036 40.6591L48.7295 57.4384L39.1856 58.9008L44.1211 49.8665V41.169L40.5325 34.3764L36.8862 31.9615L31.2773 37.7438V43.8629L26.8998 47.9615L21.339 48.635L18.8761 50.0301L14.8353 48.7408L13.1517 42.6795L16.1822 38.4173V35.2616Z" fill="white"/>
<path d="M41.1002 10.7949C38.1274 10.1792 34.8755 10.3427 34.8755 10.3427C34.8755 10.3427 33.8076 15.2784 27.1885 16.5773C27.2366 16.5773 35.9338 19.5502 41.1002 10.7949Z" fill="#94A6C3"/>
<path d="M43.7939 55.5815C47.3825 52.7721 50.0764 48.9044 51.3174 44.5267C51.3752 44.3632 51.8754 44.0746 52.2122 43.8533C52.7702 43.5165 53.3378 43.2375 53.4436 42.7853C53.6649 41.4961 53.7804 40.1491 53.7804 38.8022C53.7804 38.3019 53.2705 37.7919 52.7702 37.2916C52.3757 36.9549 51.9813 36.5604 51.9813 36.2814C51.4233 31.1726 49.0662 26.4005 45.3044 22.9272L44.91 23.3217C48.5563 26.7468 50.9134 31.4035 51.4233 36.3391C51.481 36.7913 51.9235 37.2339 52.3757 37.6861C52.7702 38.0228 53.2224 38.5328 53.2224 38.754C53.2224 40.0433 53.1069 41.3325 52.8856 42.6218C52.8279 42.843 52.3276 43.074 51.9332 43.2952C51.3752 43.5743 50.8653 43.8533 50.7594 44.3055C49.4125 49.0776 46.3242 53.2339 42.2258 55.9278C42.9569 54.3596 45.2563 49.2507 46.4878 46.6626L46.2665 38.3596L39.1375 31.4612L35.0967 32.0192L30.6615 39.2062C30.6615 39.2062 32.7396 41.8424 29.8149 44.9308C26.9575 47.9615 24.7062 48.635 24.7062 48.635L22.6281 47.5093C23.2439 46.7204 24.4849 45.5466 25.4374 44.7577C27.0633 43.4107 28.6893 43.2952 28.6893 41.8424C28.7566 38.8022 25.4951 39.6392 25.4951 39.6392L24.3118 40.7649L23.8115 44.9212L21.3486 48.0096L21.0696 47.9519L17.0288 47.0571C17.0288 47.0571 19.5014 45.7679 19.8958 44.3055C20.2903 42.9008 19.1069 38.2441 19.0492 37.9651C19.1069 38.0228 20.2325 38.9753 20.7328 40.5436C21.6276 38.0709 22.8109 35.7138 23.1477 35.4925C23.4844 35.2712 28.0254 32.8563 28.0254 32.8563L26.5149 36.8394L27.6406 36.2237L30.3344 29.6043C30.3344 29.6043 32.9705 28.3151 34.9332 28.3151C38.464 28.2574 43.6881 23.9375 41.331 16.1924C42.0045 16.4714 53.6745 22.3115 55.6949 33.7607C57.2054 42.564 52.2122 50.8094 43.7939 55.5815Z" fill="#94A6C3"/>
<path d="M30.4403 12.0265C31.7295 10.5063 31.2292 8.26459 31.2292 8.26459L27.4674 13.8256C27.4097 13.8256 28.8047 13.8833 30.4403 12.0265Z" fill="#1B314F"/>
<path d="M17.8081 42.3908L18.2603 40.1491C18.2603 40.1491 16.4035 43.4011 16.2399 43.8533C16.0668 44.3632 16.3554 45.2579 17.0769 45.2002C17.8081 45.1425 18.7029 44.0745 18.7029 43.2952C18.7029 42.285 17.8081 42.3908 17.8081 42.3908Z" fill="#1B314F"/>
<path d="M51.1443 6.69633C51.1443 6.69633 53.9536 6.81178 56.8687 7.14852C50.2976 1.98196 44.073 0.471434 39.022 0.471434C32.0662 0.471434 27.352 3.33854 27.0633 3.5021L29.2569 0.0192392C29.2569 0.0192392 20.5019 -0.827424 17.4137 8.43776C16.6247 6.47504 15.9032 3.60793 15.9032 3.60793C15.9032 3.60793 11.3525 7.60072 13.4884 14.2201C8.26425 12.3151 0.808111 9.66927 0.519486 9.62116C0.125032 9.56344 0.00958197 9.73662 0.00958197 9.73662C0.00958197 9.73662 -0.105868 9.90018 0.230861 10.1888C0.856215 10.6795 12.6417 19.3866 15.2297 21.0704C14.6717 23.0908 14.6717 24.0433 15.2297 24.9958C16.0186 26.285 16.0667 26.9585 15.9609 27.911C15.8455 28.8635 14.8353 37.1185 14.614 38.1287C14.3927 39.1389 12.0356 42.7276 12.1414 43.7955C12.2569 44.8635 13.7096 49.4047 15.0085 49.9146C15.9609 50.2513 18.318 50.9826 19.8862 50.9826C20.4442 50.9826 20.9541 50.8671 21.1754 50.6458C22.1279 49.8088 22.4069 49.6356 23.0803 49.6356C23.138 49.6356 23.1958 49.6356 23.2439 49.6356C23.5229 49.6356 23.8596 49.6933 24.2541 49.6933C25.1488 49.6933 26.3322 49.5201 27.1692 48.7408C28.4006 47.5093 30.5365 45.8256 31.2099 45.0367C32.0566 43.9687 32.4991 42.5159 32.2778 41.0535C32.1047 39.7066 32.8358 38.5231 33.6825 37.3494C34.7504 35.9447 36.713 33.4239 36.713 33.4239C40.5902 36.3295 43.0051 40.7649 43.0051 45.7005C43.0051 54.4558 35.3757 61.5274 25.9473 61.5274C24.485 61.5274 23.0899 61.3638 21.6853 61.0271C26.0051 62.5376 29.6514 63.0475 32.6338 63.0475C38.9739 63.0475 42.3412 60.748 42.3412 60.748C42.3412 60.748 41.1675 62.2682 39.2529 64C39.3107 64 39.3107 64 39.3107 64C49.807 62.5376 54.9156 53.8978 54.9156 53.8978C54.9156 53.8978 54.5212 56.7072 54.0209 58.6121C67.9807 48.1155 65.6236 34.9826 65.5659 34.54C65.6813 34.7035 67.086 36.3873 67.8075 37.2916C70.0588 14.1624 51.1443 6.69633 51.1443 6.69633ZM29.6514 43.632C29.4301 43.911 28.4776 44.7577 27.8042 45.3734C27.1307 45.9892 26.3995 46.6049 25.8415 47.1726C25.6202 47.3939 25.168 47.5093 24.4946 47.5093C24.2733 47.5093 24.0424 47.5093 23.8789 47.5093C23.7634 47.5093 23.6576 47.5093 23.5421 47.5093C23.4267 47.5093 23.3689 47.5093 23.3208 47.5093C23.1477 47.5093 22.9841 47.5093 22.8109 47.5093C23.6576 46.3836 26.1205 43.8052 26.9671 43.2471C27.9773 42.5737 28.4872 41.9002 27.8619 40.7264C27.2461 39.543 25.6202 39.8316 25.6202 39.8316C25.6202 39.8316 26.5727 39.4372 27.4193 39.4372C26.3514 39.1581 25.0045 39.4372 24.3888 40.0529C23.7153 40.6687 23.8307 42.8623 23.5517 44.2574C23.2727 45.7198 22.3203 46.451 20.8579 47.798C20.069 48.5292 19.511 48.7504 19.0588 48.7504C18.1064 48.5869 16.9807 48.2983 16.1918 48.0192C15.6338 47.288 14.7872 44.8731 14.5659 43.8629C14.7294 43.3049 15.4029 42.1215 15.7396 41.448C16.4131 40.1587 16.8075 39.4275 16.923 38.7541C17.1443 37.8016 17.8755 31.9038 18.1545 29.4408C18.8856 30.3933 19.8958 31.9711 19.6649 32.9814C21.2908 30.6819 20.1171 28.4305 19.5495 27.5358C19.0492 26.641 18.3757 24.8418 18.9337 22.9369C19.4918 21.0319 21.5121 15.7498 21.5121 15.7498C21.5121 15.7498 22.1856 16.9333 23.138 16.7023C24.0905 16.4811 31.7776 4.91641 31.7776 4.91641C31.7776 4.91641 33.8557 9.4576 31.6621 12.7769C29.4205 16.0866 27.2269 16.7023 27.2269 16.7023C27.2269 16.7023 30.3152 17.2604 33.1726 15.1822C34.3463 17.9339 35.4719 20.7913 35.5297 21.1858C35.3565 21.5803 33.1148 26.9681 32.8936 27.3049C32.7781 27.4203 31.9988 27.6416 31.4312 27.7571C30.4787 28.0361 29.9207 28.2093 29.6898 28.3728C29.2954 28.7096 27.4963 33.6452 26.6593 36.0601C25.6491 36.3391 24.6389 36.9068 23.9077 38.0228C24.3022 37.7438 25.5336 37.5707 26.438 37.4648C27.2269 37.4071 29.6321 38.6963 30.2575 41.1112C30.2575 41.169 30.2575 41.169 30.2575 41.2267C30.3825 42.1118 30.1035 42.9585 29.6514 43.632ZM24.3791 44.3055C24.889 43.5743 24.8313 42.3428 24.889 41.9483C24.9468 41.5538 25.0526 40.8226 25.5048 40.7168C25.957 40.6013 27.0249 40.7745 27.0249 41.5538C27.0249 42.285 26.236 42.4486 25.6779 42.9585C25.2739 43.3434 24.485 44.19 24.3791 44.3055ZM46.7668 33.5779C47.3248 30.7204 47.3825 28.2477 47.219 26.2273C49.4029 29.1425 50.7498 32.6831 51.1443 36.3295C51.202 36.7817 51.6446 37.2243 52.0967 37.6765C52.4912 38.0132 52.9434 38.4654 52.9434 38.7444C52.9434 40.0337 52.8279 41.3229 52.6066 42.6218C52.5489 42.7853 52.0486 43.074 51.6542 43.2952C51.0962 43.5743 50.5863 43.8533 50.4804 44.3055C49.249 48.6254 46.6032 52.445 43.0724 55.1389C48.2869 49.6933 50.8075 40.7072 46.7668 33.5779ZM43.236 55.6392C46.8822 52.8298 49.6915 48.9044 50.923 44.469C50.9807 44.3055 51.481 44.0168 51.8177 43.7955C52.3757 43.5165 52.9434 43.1798 53.0492 42.7276C53.2705 41.4384 53.3859 40.0914 53.3859 38.7444C53.3859 38.2441 52.876 37.7342 52.3757 37.2339C52.0967 36.8972 51.6446 36.5027 51.6446 36.2237C51.1924 32.1251 49.5665 28.2574 47.0458 25.0535C45.9202 18.3187 41.4369 16.2405 41.3214 16.1828C41.4369 16.356 44.352 20.5604 42.3316 25.4961C40.2535 30.4895 34.9236 29.7102 34.4714 29.7583C34.0192 29.7583 32.2875 32 30.0939 36.1563C29.8149 36.0409 28.6315 35.7619 27.2846 35.9928C28.2948 33.1834 29.8149 29.2002 30.0939 28.8635C30.2094 28.748 31.0464 28.5268 31.614 28.3632C32.6819 28.0842 33.1822 27.911 33.3554 27.6897C33.4708 27.5165 34.0288 26.2273 34.5868 24.8803C35.0967 24.8803 36.3859 24.7649 36.4918 24.7072C36.6072 24.5917 37.6751 21.8497 37.6751 21.5129C37.6751 21.2339 35.4816 15.7883 34.6446 13.7102C35.039 13.258 35.4335 12.6999 35.8183 12.0842C47.3248 13.3253 56.3107 23.0908 56.3107 34.9248C56.3107 44.0168 50.9807 51.9351 43.236 55.6392Z" fill="#1B314F"/>
<path d="M28.3045 25.3325C29.3724 24.101 28.8144 21.8016 26.8421 21.4071C27.352 20.2333 28.0736 17.8761 28.0736 17.8761C28.0736 17.8761 22.3492 26.8527 21.8489 27.0259C21.339 27.199 20.8387 25.2267 20.8387 25.2267C19.7708 29.3253 22.6378 29.8833 22.9746 28.5941C24.5428 28.19 27.2366 26.5063 28.3045 25.3325Z" fill="#1B314F"/>
<path d="M23.4171 27.5165L26.3322 22.5232C26.3322 22.5232 28.0159 23.3698 27.1692 24.7168C26.1109 26.285 23.4171 27.5165 23.4171 27.5165Z" fill="#FFD923"/>
<path d="M59.5048 50.6458C58.6582 51.7715 57.7057 52.9453 56.5897 54.071C63.8246 40.1491 56.9264 27.4107 56.6474 26.9104C57.1573 27.4203 57.6576 27.9783 58.1098 28.4786C63.661 34.6458 64.3345 43.911 59.5048 50.6458Z" fill="#D82122"/>
<path d="M66.2394 32.7408C63.7091 25.9483 60.1206 20.166 52.2123 14.9513C44.5829 9.90018 36.386 10.2946 35.9338 10.3524C35.8761 10.3524 35.8184 10.3524 35.8184 10.3524C36.0974 10.2369 36.3764 10.1792 36.6554 10.1311C38.3967 9.57306 40.6384 9.12086 42.8897 8.84185C48.845 7.98556 54.8484 10.006 58.9468 14.3355C59.0046 14.3933 59.0046 14.3933 59.0623 14.451C63.7188 19.3866 66.1336 25.5538 66.2394 32.7408Z" fill="#D82122"/>
<path d="M50.4131 4.9549C42.0526 3.38665 36.665 4.16596 32.7878 5.62838C32.6723 5.17619 32.2779 4.28142 31.9411 3.55021C30.777 4.9549 29.5359 6.6386 28.7566 7.70655C26.6208 9.16897 25.7261 10.5737 25.7261 10.5737C26.9575 6.35959 30.5557 3.22309 34.9332 2.43415C36.1647 2.21287 37.5116 2.09741 38.974 2.09741C42.8415 2.15514 46.7091 3.10763 50.4131 4.9549Z" fill="#D82122"/>
<path d="M19.4918 15.7306C12.9304 15.5093 15.1143 7.87012 15.2298 7.42755C15.2298 7.48528 15.6723 13.4312 19.4918 15.7306Z" fill="#D82122"/>
<path d="M25.9474 1.98196C20.8965 5.01263 21.9067 12.2477 21.9067 12.2477C17.077 4.9068 25.553 2.15515 25.9474 1.98196Z" fill="#D82122"/>
<path d="M17.6446 17.751C17.9814 18.0301 18.3181 18.54 17.9236 19.2712C17.7024 19.6657 17.3656 19.6079 16.8557 19.3866C16.1823 19.0499 12.1415 16.6927 8.49524 14.2778C12.6514 15.7402 16.8557 17.3085 17.5292 17.6452C17.5292 17.6452 17.5869 17.7029 17.6446 17.751Z" fill="white"/>
</g>
<defs>
<clipPath id="clip0_221_4812">
<rect width="68" height="64" fill="white"/>
</clipPath>
</defs>
</svg>
