<svg width="64" height="64" viewBox="0 0 64 64" fill="none" xmlns="http://www.w3.org/2000/svg">
<g clip-path="url(#clip0_176_7)">
<path d="M64 32.0168C64 14.3118 49.6882 0 32.0168 0C14.3454 0 0 14.3118 0 32.0168C0 49.7218 14.3118 64.0336 32.0168 64.0336C49.7218 64.0336 64 49.6882 64 32.0168Z" fill="#9391F7"/>
<path d="M26.0367 33.5622C28.7915 33.1255 30.6393 30.5386 30.2026 27.7837C29.7658 25.0289 27.1789 23.1811 24.4241 23.6179C21.6692 24.0546 19.8215 26.6415 20.2582 29.3963C20.7286 32.1512 23.3154 33.999 26.0367 33.5622ZM39.2062 33.5622C41.9611 33.1255 43.8089 30.5386 43.3721 27.7837C42.9354 25.0289 40.3485 23.1811 37.5936 23.6179C34.8388 24.0546 32.991 26.6415 33.4278 29.3963C33.8645 32.1512 36.4514 33.999 39.2062 33.5622Z" fill="white"/>
<path d="M31.8153 7.82782C18.1418 7.82782 7.05518 19.116 7.05518 33.0247H13.3712C13.3712 22.5764 21.5686 14.1438 31.7817 14.1438C42.0284 14.1438 50.1922 22.61 50.1922 33.0247H56.5082C56.5754 19.116 45.4888 7.82782 31.8153 7.82782Z" fill="white"/>
</g>
<defs>
<clipPath id="clip0_176_7">
<rect width="64" height="64" fill="white"/>
</clipPath>
</defs>
</svg>
