<svg width="64" height="64" viewBox="0 0 64 64" fill="none" xmlns="http://www.w3.org/2000/svg">
<g clip-path="url(#clip0_230_1448)">
<path fill-rule="evenodd" clip-rule="evenodd" d="M26.9952 0.397047C5.47839 3.75266 -6.41281 27.3572 3.59679 46.8377C15.36 69.7122 48.6144 69.7122 60.3776 46.8377C72.3712 23.4765 52.8896 -3.62457 26.9952 0.397047ZM39.1296 5.03343C58.5216 10.1693 66.304 33.8891 53.7216 49.5273C37.6704 69.4945 5.46559 58.9922 4.14719 33.3512C3.18719 14.6392 20.992 0.230547 39.1296 5.03343ZM38.2848 18.0076C37.3376 18.8785 17.8688 42.1757 17.0624 43.4052C16.0256 44.9806 17.4592 47.1707 19.2256 46.7224C19.6864 46.6072 23.2704 42.5856 28.7744 36.0024L37.5936 25.4745L37.76 35.695C37.9392 47.017 37.9008 46.8377 40.064 46.8377C42.2784 46.8377 42.2528 47.0682 42.2528 32.0576C42.2528 18.9938 42.2272 18.5455 41.6128 17.918C40.7552 17.0727 39.2704 17.1111 38.2848 18.0076Z" fill="black"/>
</g>
<defs>
<clipPath id="clip0_230_1448">
<rect width="64" height="64" fill="white"/>
</clipPath>
</defs>
</svg>
