<svg width="64" height="63" viewBox="0 0 64 63" fill="none" xmlns="http://www.w3.org/2000/svg">
<g clip-path="url(#clip0_242_620)">
<path d="M52.6205 52.0551C63.94 40.7326 63.9159 22.3509 52.5666 10.9986C41.2173 -0.353809 22.8406 -0.377978 11.5211 10.9446C0.201642 22.2671 0.22581 40.6488 11.5751 52.0011C22.9244 63.3535 41.3011 63.3777 52.6205 52.0551Z" fill="url(#paint0_linear_242_620)"/>
<path d="M59.6259 40.7103C64.7133 25.5279 56.5006 9.08401 41.2824 3.98182C26.0642 -1.12037 9.60319 7.05123 4.51578 22.2336C-0.571638 37.416 7.64102 53.8599 22.8592 58.9621C38.0775 64.0643 54.5385 55.8927 59.6259 40.7103Z" fill="url(#paint1_radial_242_620)" fill-opacity="0.8"/>
<path d="M42.376 39.0688L39.4603 36.1523L31.2517 44.363L34.1674 47.2796L42.376 39.0688Z" fill="white"/>
<path d="M30.0196 47.2796L32.9353 44.363L24.7268 36.1523L21.811 39.0688L30.0196 47.2796Z" fill="white"/>
<path d="M24.5785 41.8337L27.4942 38.9171L24.5785 36.0006L21.6627 38.9171L24.5785 41.8337Z" fill="white"/>
<path d="M32.0979 49.3519L35.0136 46.4354L32.0979 43.5189L29.1821 46.4354L32.0979 49.3519Z" fill="white"/>
<path d="M39.5538 41.8928L42.4695 38.9763L39.5538 36.0598L36.6381 38.9763L39.5538 41.8928Z" fill="white"/>
<path d="M36.7682 39.1064L39.684 36.1899L33.4773 29.9815L30.5615 32.898L36.7682 39.1064Z" fill="white"/>
<path d="M21.7584 23.9334L24.6742 26.8499L32.8827 18.6391L29.967 15.7226L21.7584 23.9334Z" fill="white"/>
<path d="M34.1115 15.7226L31.1958 18.6391L39.4044 26.8499L42.3201 23.9334L34.1115 15.7226Z" fill="white"/>
<path d="M39.5517 21.1674L36.636 24.0839L39.5517 27.0005L42.4675 24.0839L39.5517 21.1674Z" fill="white"/>
<path d="M32.0387 13.6492L29.1229 16.5657L32.0387 19.4822L34.9544 16.5657L32.0387 13.6492Z" fill="white"/>
<path d="M24.5774 21.1072L21.6616 24.0237L24.5774 26.9402L27.4931 24.0237L24.5774 21.1072Z" fill="white"/>
<path d="M27.363 23.8936L24.4473 26.8101L30.654 33.0185L33.5697 30.102L27.363 23.8936Z" fill="white"/>
<path d="M26.333 31.3817C29.1864 32.427 31.3495 34.5542 32.0957 37.1459C32.8364 34.5585 34.9996 32.4313 37.8583 31.3817C35.005 30.3364 32.8418 28.2092 32.0957 25.6175C31.3549 28.2049 29.1918 30.3321 26.333 31.3817Z" fill="white"/>
<path opacity="0.4" d="M21.7605 23.9312L24.6762 26.8478L32.8848 18.637L29.9691 15.7204L21.7605 23.9312Z" fill="url(#paint2_linear_242_620)"/>
<path opacity="0.4" d="M34.1147 15.7237L31.199 18.6402L39.4075 26.851L42.3233 23.9345L34.1147 15.7237Z" fill="url(#paint3_linear_242_620)"/>
<path d="M39.5634 21.1653L36.6477 24.0818L39.5634 26.9983L42.4792 24.0818L39.5634 21.1653Z" fill="white"/>
<path d="M32.0451 13.647L29.1294 16.5636L32.0451 19.4801L34.9609 16.5636L32.0451 13.647Z" fill="white"/>
<path opacity="0.4" d="M27.3737 23.8914L24.458 26.8079L30.6647 33.0163L33.5804 30.0998L27.3737 23.8914Z" fill="url(#paint4_linear_242_620)"/>
<path d="M24.5849 21.1082L21.6692 24.0248L24.5849 26.9413L27.5007 24.0248L24.5849 21.1082Z" fill="white"/>
<path opacity="0.4" d="M42.3825 39.0709L39.4668 36.1544L31.2582 44.3652L34.1739 47.2817L42.3825 39.0709Z" fill="url(#paint5_linear_242_620)"/>
<path opacity="0.4" d="M30.0293 47.2785L32.945 44.362L24.7364 36.1512L21.8207 39.0677L30.0293 47.2785Z" fill="url(#paint6_linear_242_620)"/>
<path d="M24.5849 41.8315L27.5007 38.915L24.5849 35.9985L21.6692 38.915L24.5849 41.8315Z" fill="white"/>
<path d="M32.0999 49.354L35.0157 46.4375L32.0999 43.521L29.1842 46.4375L32.0999 49.354Z" fill="white"/>
<path opacity="0.4" d="M36.7703 39.1086L39.686 36.192L33.4793 29.9837L30.5636 32.9002L36.7703 39.1086Z" fill="url(#paint7_linear_242_620)"/>
<path d="M26.3373 31.3817C29.1907 32.427 31.3538 34.5542 32.0999 37.1459C32.8407 34.5585 35.0039 32.4313 37.8626 31.3817C35.0092 30.3364 32.8461 28.2092 32.0999 25.6175C31.3592 28.2049 29.196 30.3321 26.3373 31.3817Z" fill="white"/>
<path d="M39.5614 41.895L42.4771 38.9785L39.5614 36.0619L36.6456 38.9785L39.5614 41.895Z" fill="white"/>
<path d="M32.0592 13.6459L29.1434 16.5625L32.0592 19.479L34.9749 16.5625L32.0592 13.6459Z" fill="white"/>
</g>
<defs>
<linearGradient id="paint0_linear_242_620" x1="-5.20081" y1="59.9839" x2="68.4997" y2="3.6933" gradientUnits="userSpaceOnUse">
<stop offset="0.18" stop-color="#EC9066"/>
<stop offset="0.68" stop-color="#8F1A00"/>
</linearGradient>
<radialGradient id="paint1_radial_242_620" cx="0" cy="0" r="1" gradientTransform="matrix(42.9059 -26.9221 -32.5017 -51.8262 -43.1696 82.1469)" gradientUnits="userSpaceOnUse">
<stop offset="0.33" stop-color="white" stop-opacity="0"/>
<stop offset="0.71" stop-color="white"/>
</radialGradient>
<linearGradient id="paint2_linear_242_620" x1="24.8784" y1="24.0022" x2="36.4437" y2="11.1552" gradientUnits="userSpaceOnUse">
<stop offset="0.06" stop-color="#111111"/>
<stop offset="0.43" stop-color="#7A7A7A" stop-opacity="0.82"/>
<stop offset="0.8" stop-color="#DAD9D9" stop-opacity="0.66"/>
<stop offset="0.98" stop-color="white" stop-opacity="0.6"/>
</linearGradient>
<linearGradient id="paint3_linear_242_620" x1="31.9365" y1="16.1119" x2="48.5939" y2="33.9754" gradientUnits="userSpaceOnUse">
<stop offset="0.06" stop-color="#111111"/>
<stop offset="0.43" stop-color="#7A7A7A" stop-opacity="0.82"/>
<stop offset="0.8" stop-color="#DAD9D9" stop-opacity="0.66"/>
<stop offset="0.98" stop-color="white" stop-opacity="0.6"/>
</linearGradient>
<linearGradient id="paint4_linear_242_620" x1="32.9612" y1="32.5066" x2="22.3908" y2="21.6488" gradientUnits="userSpaceOnUse">
<stop offset="0.06" stop-color="#111111"/>
<stop offset="0.43" stop-color="#7A7A7A" stop-opacity="0.82"/>
<stop offset="0.8" stop-color="#DAD9D9" stop-opacity="0.66"/>
<stop offset="0.98" stop-color="white" stop-opacity="0.6"/>
</linearGradient>
<linearGradient id="paint5_linear_242_620" x1="32.3548" y1="45.903" x2="43.5239" y2="35.4412" gradientUnits="userSpaceOnUse">
<stop offset="0.06" stop-color="#111111"/>
<stop offset="0.43" stop-color="#7A7A7A" stop-opacity="0.82"/>
<stop offset="0.8" stop-color="#DAD9D9" stop-opacity="0.66"/>
<stop offset="0.98" stop-color="white" stop-opacity="0.6"/>
</linearGradient>
<linearGradient id="paint6_linear_242_620" x1="25.3557" y1="39.6366" x2="36.3089" y2="50.8534" gradientUnits="userSpaceOnUse">
<stop offset="0.06" stop-color="#111111"/>
<stop offset="0.43" stop-color="#9E9D9E" stop-opacity="0.82"/>
<stop offset="0.93" stop-color="#111111"/>
</linearGradient>
<linearGradient id="paint7_linear_242_620" x1="31.3667" y1="30.7601" x2="42.5909" y2="42.0597" gradientUnits="userSpaceOnUse">
<stop offset="0.06" stop-color="#111111"/>
<stop offset="0.43" stop-color="#7A7A7A" stop-opacity="0.82"/>
<stop offset="0.8" stop-color="#DAD9D9" stop-opacity="0.66"/>
<stop offset="0.98" stop-color="white" stop-opacity="0.6"/>
</linearGradient>
<clipPath id="clip0_242_620">
<rect width="64" height="63" fill="white"/>
</clipPath>
</defs>
</svg>
