<svg width="63" height="64" viewBox="0 0 63 64" fill="none" xmlns="http://www.w3.org/2000/svg">
<g clip-path="url(#clip0_310_685)">
<path fill-rule="evenodd" clip-rule="evenodd" d="M0.517657 19.7322C-0.178574 20.2837 -0.178574 21.3513 0.517657 21.9207L4.15948 24.8209C4.67719 25.2301 5.40913 25.2301 5.90899 24.8209L26.6353 8.02463C26.9566 7.75774 27.153 7.36631 27.153 6.93928V1.40578C27.153 0.231471 25.7962 -0.409063 24.8857 0.320434L0.517657 19.7322ZM6.78374 36.6707C6.26603 37.08 5.53409 37.08 5.03423 36.6707L1.69589 34.0018C0.999663 33.4503 0.999663 32.3827 1.69589 31.8311L24.9036 13.0421C25.8141 12.2949 27.1887 12.9532 27.1887 14.1275V19.5009C27.1887 19.9279 26.9923 20.3193 26.671 20.5862L6.78374 36.6707ZM2.55279 43.6988C1.85656 44.2682 1.85656 45.3179 2.55279 45.8695L24.8857 63.6799C25.7962 64.4094 27.153 63.7689 27.153 62.5945V26.6891C27.153 25.5148 25.7784 24.8564 24.8679 25.6037L2.55279 43.6988ZM29.9736 62.1319C29.9736 63.3774 31.491 64.0002 32.3658 63.1105L62.6072 32.9699C63.1606 32.4183 63.1606 31.5465 62.6072 30.9949L32.3658 0.872005C31.491 0.000166858 29.9736 0.622908 29.9736 1.8506V62.1319Z" fill="#202723"/>
</g>
<defs>
<clipPath id="clip0_310_685">
<rect width="63" height="64" fill="white"/>
</clipPath>
</defs>
</svg>
