<svg width="64" height="64" viewBox="0 0 64 64" fill="none" xmlns="http://www.w3.org/2000/svg">
<g clip-path="url(#clip0_178_146)">
<path d="M64 32C64 14.3103 49.6552 0 32 0C14.3103 0 0 14.3103 0 32C0 49.6552 14.3103 64 32 64C49.6552 64 64 49.6552 64 32Z" fill="url(#paint0_radial_178_146)"/>
<path d="M53.7587 22C53.6207 22.7931 53.4828 23.1724 53.2759 23.5862C53.069 24.069 52.8621 24.5862 52.6552 25.6897C52.5863 26.1034 52.5173 26.4483 52.4828 26.7241V26.7586C52.4138 27.2069 52.3794 27.5172 52.2069 28.0345C52.069 28.4828 51.8276 29.2069 51.2414 29.9655C50.7587 30.5862 49.9656 31.6552 48.8966 31.7931C48.7932 31.7931 48.6207 31.7931 48.5173 31.7586C45.4828 30.2069 42.8966 29.069 42.0001 28.8276C40.9656 28.5172 41.1035 26.2414 41.2069 24.2414C41.2759 23.3448 41.3104 22.4828 41.2759 21.7586C41.138 19.2069 40.6897 16.4483 38.4828 15.1034C37.1725 14.3103 35.4483 14.069 33.8276 14.069C34.138 13.931 34.4483 13.7241 34.8276 13.5172C35.7932 12.9655 36.9656 12.2759 38.1725 12.1379C38.5518 12.1034 38.9311 12.069 39.3104 12C41.6897 11.7241 43.7587 11.4828 45.9311 12.2414C46.9311 12.5862 48.9311 13.6897 49.4483 14.7586C49.8276 15.4828 50.4483 16.069 51.6552 17.2069C52.3104 17.7931 52.7242 18.1379 53.0345 18.4138C53.4828 18.7586 53.5518 18.8621 53.6897 19.1034C54.1035 19.931 53.9656 20.7931 53.7587 22Z" fill="white"/>
<path d="M42.7586 32.4483C42.8965 32.4828 42.9655 32.6552 42.8621 32.7931C42.5517 33.2759 42.1724 33.9655 41.7241 34.7586C41.5172 35.1379 41.3103 35.5172 41.1379 35.7931C40.5517 36.7931 40.5172 37.6552 40.4827 38.3103C40.4483 39.0345 40.4138 39.3448 39.9655 39.6207C39.6207 39.8621 39.2414 39.931 36.7586 40.3103C36.3103 40.3793 36.1379 40.4483 35.9655 40.5517C35.931 40.5862 35.8621 40.5862 35.8276 40.6207C35.6896 40.6897 35.5517 40.5517 35.5517 40.4138C35.5862 40.069 35.5862 39.6207 35.5862 39.0345V38.931C35.5862 38.4483 35.5862 38.0345 35.5517 37.7241C35.5172 37.1034 35.5172 36.8276 35.6896 36.5517C35.8965 36.2069 36.069 36.1034 36.3103 35.931C36.6896 35.6896 37.2069 35.3793 37.931 34.3448C38.3448 33.7931 38.4138 33.4828 38.4827 33.2414C38.5172 33.1379 38.5172 33.1034 38.8276 32.8621C39.1379 32.6207 40.1379 31.8621 41.4138 32.069C41.8276 32.1379 42.2758 32.2759 42.7586 32.4483Z" fill="white"/>
<path d="M32.8622 43.8965C32.7932 43.9655 32.7587 44 32.6553 44C32.3794 44 32.207 43.931 32.1035 43.7931C31.8622 43.4828 31.8966 42.8621 31.9311 42.4828L33.0001 42.2069C33.0691 42.7931 33.1035 43.5862 32.8622 43.8965Z" fill="white"/>
<path d="M32.9312 40.1034C32.8967 40.2414 32.8967 40.4138 32.8967 40.6207C32.8967 40.6896 32.8967 40.7586 32.8967 40.8276C32.8967 41 32.8967 41.2759 32.8967 41.4138C32.5518 41.5172 32.276 41.5172 31.9312 41.5172C31.9312 41.4138 31.9312 41.2414 31.9312 41.1379C31.9312 41.069 31.9312 40.9655 31.9312 40.8965C31.9312 40.7931 31.9312 40.7241 31.9312 40.6207C31.9312 40.4138 31.9312 40.1034 31.9656 40C32.0691 40 32.1725 39.9655 32.276 39.931C32.4829 39.8965 32.7932 39.8276 32.9656 39.8621C32.9656 39.931 32.9656 40.0345 32.9312 40.1034Z" fill="white"/>
<path d="M31.0001 43.5862C30.9656 44.1379 30.7932 44.7931 30.276 44.8966C30.0346 44.931 29.9312 44.8621 29.8622 44.7931C29.5174 44.4828 29.4829 43.5172 29.5174 42.8276C29.7587 42.8276 30.0346 42.7931 30.3794 42.7241C30.5863 42.6897 30.7932 42.6207 30.9656 42.5862C31.0001 42.8621 31.0346 43.2069 31.0001 43.5862Z" fill="white"/>
<path d="M30.7585 41.6552L29.6206 42.069C29.6896 41.6207 29.7585 41 29.793 40.5862C29.8275 40.3103 29.8965 40.2069 29.931 40.1724C29.931 40.1724 29.9654 40.1379 29.9999 40.1379C29.9999 40.1379 29.9999 40.1379 30.0344 40.1379H30.0689L30.793 40.1035C30.7585 40.4483 30.7585 41.2069 30.7585 41.6552Z" fill="white"/>
<path d="M28.8965 41.3104C28.8275 41.4828 28.7586 41.9655 28.7241 42.3104L27.3103 42.2759C27.3793 41.8276 27.5172 41.3793 27.6206 41.0345C27.7586 40.6897 27.862 40.4138 28 40.3448C28.1379 40.2759 28.4482 40.2414 28.6551 40.4138C28.9655 40.6207 29.0344 40.931 28.8965 41.3104Z" fill="white"/>
<path d="M28.3793 45.6896C28.2758 45.8276 28.1379 45.931 28 45.931C27.8275 45.9655 27.7241 45.8965 27.6206 45.8276C27.1724 45.4138 27.2068 44.069 27.2413 43.4138C27.8275 43.2759 28.4827 43.1724 28.7931 43.1379C28.7931 43.6552 28.8275 45.069 28.3793 45.6896Z" fill="white"/>
<path d="M26.5172 42.2069C26.4483 42.3793 26.3793 42.5517 26.3448 42.7241C26.1724 42.7931 25.6552 42.7241 25.1379 42.6207L25.4828 40.3793C26.069 40.2069 26.7586 40.1724 26.8966 40.3448C27.1379 40.5862 26.6897 41.7241 26.5172 42.2069Z" fill="white"/>
<path d="M25.862 46C25.5862 46.3448 25.1724 46.5172 24.5862 46.4828C24.1724 46.4828 24.0344 46.3103 23.9655 46.2069C23.6551 45.6897 23.9655 44.4828 24.2758 43.7241L26.2068 43.8276C26.2413 43.9655 26.2413 44.1379 26.2413 44.3103C26.2758 44.8965 26.2068 45.5862 25.862 46Z" fill="white"/>
<path d="M41.8622 29.6897C40.1035 29.2069 40.276 26.6552 40.4139 24.1724C40.4484 23.3103 40.5173 22.4828 40.4829 21.7931C40.3449 19.4828 39.9656 16.9655 38.1035 15.8276C36.1035 14.6207 32.8277 14.8966 30.8277 15.1379C30.1035 15.3448 29.4139 15.5172 28.8622 15.4828C27.6897 15.4138 26.7587 14.931 25.9311 14.4828C25.3104 14.1379 24.7587 13.8276 24.207 13.8276C24.1725 13.8276 24.138 13.8276 24.138 13.8276C22.5863 13.931 21.8622 14.3104 21.207 14.8966C21.0346 15.0345 20.8277 15.4483 20.1725 17.3448C19.8277 18.3103 19.7932 18.8276 19.7242 19.3103C19.6553 19.7586 19.6208 20.2414 19.3794 20.9655C19.207 21.4483 19.0691 21.8621 18.9656 22.2759C18.6553 23.3448 18.3794 24.2069 17.6208 25.2414C17.5173 25.3448 17.4139 25.5517 17.276 25.7241C17.1035 26 16.8966 26.3448 16.5863 26.7241C16.3794 27 15.9311 28.0345 15.9656 28.3448C16.0001 28.8621 16.1725 29.1724 16.3449 29.5172C16.5173 29.8621 16.7587 30.2759 16.7932 30.8621V30.9655C16.8622 31.8621 16.7242 32.3103 15.0346 33.8276C13.9656 34.7931 13.1725 35.7241 12.6553 36.4138C12.6208 36.4828 12.6553 36.5517 12.7587 36.5517C12.7932 36.5517 12.7932 36.5517 12.7932 36.5517C12.8277 36.5517 12.8622 36.5517 12.8966 36.5517C12.9311 36.5517 12.9656 36.5517 13.0001 36.5517C13.0346 36.5517 13.0691 36.5517 13.1035 36.5517C13.5173 36.5862 13.9311 36.7586 14.207 37.069C14.2415 37.1379 14.3449 37.1379 14.4139 37.1035C14.6897 37 15.0001 37 15.276 37.0345C15.6208 37.069 16.0001 37.1724 16.2415 37.4138C16.3104 37.4828 16.4139 37.5172 16.5173 37.4828C16.7932 37.4138 17.1035 37.4138 17.3794 37.5172C17.5863 37.5862 17.7932 37.7241 17.9311 37.8966C18.0346 38 18.207 38.0345 18.3449 37.9655C18.4139 37.931 18.5173 37.8621 18.6208 37.8276C19.0001 37.6897 19.4139 37.7586 19.7587 37.8966C19.9311 37.9655 20.1035 38 20.276 38.1379C20.5518 38.3448 20.7587 38.6207 20.8622 38.931C20.9311 39.1035 21.1725 39.1724 21.3104 39.0345C21.5863 38.8276 21.7932 38.7931 22.0001 38.8621C22.1035 38.8966 22.1725 38.9655 22.2415 39.069C22.3449 39.2069 22.5173 39.3448 22.6553 39.2759C23.2415 39.1035 23.9311 39.2069 24.4484 39.4828C24.6208 39.5862 24.8277 39.7241 24.9311 39.931V39.8276C24.9311 39.7931 24.9656 39.7586 25.0001 39.7241L25.1035 39.6897C25.3794 39.5862 26.8277 39.1724 27.3794 39.7586C27.4139 39.7931 27.4484 39.7931 27.4828 39.7586C27.5518 39.6897 27.6208 39.6207 27.6553 39.6207C28.0346 39.4138 28.6553 39.3793 29.0691 39.7586C29.138 39.8276 29.276 39.7931 29.3449 39.7241C29.3794 39.6552 29.4139 39.6207 29.4828 39.5862C29.6208 39.4483 29.8277 39.4138 30.0346 39.4138L30.8277 39.3793C31.0346 39.3793 31.6553 39.3103 31.8277 39.2759H31.8622C31.9311 39.2759 32.0346 39.2414 32.138 39.2069C32.5173 39.1379 32.9656 39.0345 33.3104 39.2069C33.6553 39.3793 33.6208 39.7586 33.5863 40.1035C33.5863 40.2414 33.5518 40.3793 33.5518 40.5172C33.5518 40.5862 33.5518 40.6552 33.5518 40.7241C33.5518 41.0345 33.5518 41.3103 33.5173 41.5172L33.5518 41.6897C33.5518 41.6897 33.5518 41.6897 33.5518 41.7241C33.5863 41.8621 33.7587 41.9655 33.8622 41.8621C34.138 41.6897 34.4139 41.4828 34.5173 41.3448V41.3103C34.5173 41.2759 34.5518 41.2069 34.5863 41.069C34.6208 40.7586 34.6897 40.1724 34.6897 38.9655C34.6897 38.8966 34.6897 38.8621 34.6897 38.8276C34.6897 38.3793 34.6897 38 34.6553 37.6897C34.6208 37.0345 34.5863 36.5172 34.9311 36C35.2415 35.4828 35.5518 35.3103 35.8622 35.1035C36.207 34.8966 36.5863 34.6552 37.2415 33.7586C37.5518 33.3103 37.5863 33.1379 37.6208 33C37.6897 32.6552 37.7932 32.4483 38.3104 32.1035C38.7242 31.7931 39.9311 30.8621 41.5863 31.1379C42.138 31.2414 43.0001 31.5172 43.8966 31.8621C43.9311 31.8621 43.9656 31.8966 44.0001 31.8966H44.0346C44.8277 32.2069 45.5518 32.5517 46.0691 32.8276C46.1725 32.8966 46.3104 32.8621 46.4139 32.7586C46.5863 32.5517 46.7587 32.4483 46.9311 32.3103C47.0001 32.2759 47.0691 32.2414 47.1035 32.2069C47.138 32.2069 47.138 32.1724 47.138 32.1724C47.276 32.069 47.276 31.7931 47.1035 31.7241C44.7932 30.5862 42.5863 29.8966 41.8622 29.6897ZM25.2415 30.2069C24.6897 32.5517 21.0346 35.1724 19.3794 35.1724H19.3449C19.3104 35.1724 19.276 35.1724 19.276 35.1724C19.2415 35.1724 19.207 35.1724 19.1725 35.1379C19.138 35.1379 19.138 35.1379 19.1035 35.1379C18.7932 35.0345 18.3794 34.8276 18.0691 34.5172C17.8622 34.3103 17.6897 34.0345 17.6208 33.7931C17.6208 33.7586 17.5863 33.6897 17.5863 33.6552C17.4829 33.2414 17.3794 32.7586 17.7242 31.931C17.7587 31.8276 17.8277 31.7241 17.8622 31.6207C17.8622 31.5862 17.8966 31.5517 17.8966 31.5172C17.9311 31.4138 17.9656 31.3448 18.0001 31.2759C18.0346 31.1379 18.1035 31.0345 18.138 30.9655C18.138 30.931 18.1725 30.8966 18.1725 30.8621C18.276 30.5862 18.276 30.4828 18.3104 30.3793C18.3104 30.3103 18.3449 30.1724 18.3794 30.0345C18.4829 29.5862 18.5518 29.2069 18.5863 28.8966C18.6553 28.3104 18.7587 27.7931 19.0691 27.3103C19.138 27.2414 19.1725 27.1724 19.2415 27.1035C19.276 27.069 19.276 27.069 19.3104 27.0345C19.3449 27 19.3449 27 19.3794 26.9655C19.4484 26.8966 19.5518 26.8621 19.6208 26.8276C19.6553 26.8276 19.6897 26.7931 19.7242 26.7931C19.7932 26.7586 19.8622 26.7586 19.9311 26.7241C20.2415 26.6552 20.5863 26.6552 21.0001 26.6897C21.4484 26.7241 21.8622 26.7931 22.207 26.8966C22.5173 26.9655 22.7932 27.069 23.0001 27.1724C23.0346 27.1724 23.0346 27.2069 23.0691 27.2069C23.1035 27.2414 23.138 27.2414 23.207 27.2759C23.276 27.3103 23.3104 27.3104 23.3794 27.3448C23.4484 27.3793 23.5173 27.4138 23.5863 27.4483L23.6553 27.4828C23.8966 27.5862 24.138 27.7241 24.3104 27.8621C24.4139 27.931 24.4828 28 24.5518 28.069C24.5863 28.1035 24.6208 28.1035 24.6208 28.1379C24.6553 28.1724 24.6553 28.1724 24.6897 28.2069C25.4139 28.8276 25.3794 29.6897 25.2415 30.2069ZM26.9656 21.2759L26.8966 21.6897C26.7242 22.6552 26.3449 23.9655 24.9656 24.3103C23.6208 24.6207 23.3104 24.6897 22.3794 24.7586C22.3449 24.7586 22.3449 24.7586 22.3104 24.7586C21.6208 24.7586 20.276 24.3103 20.0346 23.2414C19.8966 22.5517 20.207 22.0345 20.6897 21.2069C20.7587 21.069 20.8622 20.931 20.9656 20.7586C21.6553 19.6207 21.8966 18.7931 22.1035 18.1379C22.3104 17.4828 22.4829 16.9655 22.9311 16.5172C23.0346 16.4138 23.138 16.3103 23.276 16.2414C23.3449 16.1724 23.4484 16.1379 23.5518 16.069C23.6897 16 23.8277 15.9655 23.9656 15.8966C24.276 15.7931 24.6208 15.7586 24.9311 15.7586C25.5863 15.7586 26.2415 15.931 26.6897 16.3103C26.8966 16.4828 27.207 16.7931 27.3794 17.7931C27.4484 18.3103 27.3104 19.2414 26.9656 21.2759ZM36.8622 24.0345C36.3794 24.8621 36.138 25.3103 35.7242 25.6552C34.8966 26.3448 33.9656 26.4828 33.1725 26.4828C32.6208 26.4828 32.138 26.3793 31.8277 26.3448C31.0001 26.2069 29.5173 25.931 29.0001 24.7241C28.8966 24.4828 28.8966 24.3448 28.8966 24.1379C28.8966 23.9655 28.8966 23.6207 28.7932 22.8966V22.8621C28.7587 22.5172 28.7242 22.1379 28.7932 21.6552V21.5862C29.0691 20.1379 29.1725 19.931 29.207 19.7931C29.3449 19.5172 29.6897 19.3793 30.0001 19.5517C30.276 19.6897 30.3794 20.0345 30.276 20.3104C30.2415 20.3793 30.1725 20.6897 29.9311 21.8276V21.8966C29.8622 22.2069 29.8966 22.4483 29.9311 22.7586V22.7931C30.0346 23.6207 30.0346 23.9655 30.0346 24.1724C30.0346 24.2069 30.0346 24.2414 30.0346 24.2759V24.3103C30.138 24.5517 30.3449 24.6897 30.5863 24.8276C30.7587 24.8966 30.9311 24.7586 30.8966 24.5862C30.6553 23.3104 30.6553 21.8276 31.138 20.8966C31.3104 20.5862 31.5863 20.1035 31.8622 19.6207C31.8966 19.5862 31.9311 19.5172 31.9311 19.4828C31.9656 19.4483 31.9656 19.4138 32.0001 19.3793C32.138 19.1724 32.2415 19 32.3449 18.8276C32.3449 18.7931 32.3794 18.7931 32.3794 18.7586L32.4139 18.7241C32.4484 18.6897 32.4484 18.6552 32.4828 18.6207C32.4828 18.6207 32.4829 18.5862 32.5173 18.5862L32.5518 18.5517C32.5518 18.5172 32.5863 18.5172 32.5863 18.4828C32.6897 18.3448 32.7932 18.2069 32.8622 18.069C33.0001 17.8966 32.8277 17.6897 32.6553 17.7586C32.1725 17.9655 31.8622 18.2069 31.7932 18.2414C31.5518 18.4483 31.1725 18.4138 30.9656 18.1379C30.7587 17.8966 30.7932 17.5172 31.0691 17.3104C31.3794 17.069 32.9656 15.931 34.8622 16.4483C36.2415 16.8276 36.9311 17.8966 37.207 18.2759C37.4139 18.5862 38.1035 19.5517 38.0691 20.931C38.0691 21.931 37.6553 22.6897 36.8622 24.0345Z" fill="white"/>
<path d="M24.5173 16.9655C24.4138 17.2069 24.3104 17.4828 24.1724 17.7931C23.8966 18.5172 23.5517 19.3448 23.3793 19.6552C23.1035 20.1724 22.8966 20.5172 22.7242 20.7586C22.5173 21.069 22.3793 21.3103 22.2414 21.6552C22.0345 22.2414 22 22.8965 22.1379 23.6207C21.7586 23.5862 21.1724 23.3448 21.1035 23C21.069 22.7586 21.2069 22.5172 21.6207 21.7931C21.6897 21.6552 21.7931 21.4828 21.8966 21.3448C22.6207 20.1034 22.931 19.1724 23.1379 18.4828C23.3793 17.7586 23.4828 17.4483 23.8621 17.1724C24.1035 17.069 24.3104 17 24.5173 16.9655Z" fill="white"/>
<path d="M23.7932 43.0345C23.3794 43.8621 22.8967 44.6207 22.5863 45C22.3105 44.3103 21.8622 42.6896 22.0001 41.4138C22.0001 41.3793 22.0001 41.3448 22.0001 41.3103C22.0346 40.8965 22.138 40.5517 22.3449 40.2414C22.4829 40.0345 22.8277 39.931 23.207 39.931C23.4829 39.931 23.7932 40 24.0691 40.1379C24.207 40.2069 24.4139 40.3793 24.4139 40.8276C24.4829 41.4483 24.1725 42.2759 23.7932 43.0345Z" fill="white"/>
<path d="M45.8621 33.8276C45.8966 33.8621 45.8966 33.8965 45.8966 33.931C45.7932 34.1724 45.6208 34.3448 45.4483 34.5517C45.2414 34.7931 45.0001 35.069 44.7932 35.5172C44.4828 36.1379 44.3794 36.6896 44.3449 38.1379C44.2759 39.8276 44.3449 40.7586 44.4139 41.4483C44.4483 42.1034 44.4828 42.5172 44.3794 43.1724C44.138 44.4828 43.5863 45.3448 42.8621 46.4483C41.9656 47.8276 41.069 49.2414 39.5518 49.6897C39.4139 49.7241 39.4139 49.7241 39.0001 49.7241C38.6552 49.7241 38.069 49.7241 37.0001 49.7586C35.0001 49.8276 34.0001 49.8621 33.1725 50.0345C32.2759 50.2069 31.8276 50.4138 31.3449 50.5862C30.9311 50.7586 30.5518 50.8965 29.8276 51.069C29.3794 51.1724 28.7242 51.2414 26.4828 51.2759C24.138 51.2759 22.7242 51.2759 20.8966 51.069C18.3449 50.7931 17.069 50.6207 16.207 50.1724C14.207 49.1034 13.3449 47.1724 11.9656 44C11.9656 43.9655 12.0001 43.931 12.0345 43.931C12.1035 43.9655 12.1725 44 12.2414 44.0345C12.3104 44.069 12.3794 44.069 12.4139 44.069C12.5518 44.1034 12.6897 44.1034 12.8276 44.069C12.8621 44.069 12.8621 44.069 12.8966 44.0345C12.9311 44.0345 12.9656 44.0345 12.9656 44.069C13.069 44.3103 13.207 44.5172 13.4483 44.6552C13.6897 44.7931 13.9656 44.7931 14.207 44.7931C14.4828 44.7931 14.7587 44.7586 15.0345 44.7241C15.1725 44.7241 15.3104 44.7931 15.3794 44.8965C15.6207 45.5172 15.9311 45.931 16.4139 46C16.4483 46 16.4828 46 16.5173 46C16.6207 46 16.7932 45.9655 17.0001 45.8276C17.1725 45.6896 17.4483 45.7931 17.5863 45.9655C17.6897 46.1379 17.8276 46.2414 17.9656 46.3448C18.4483 46.8276 19.6207 47.069 20.5863 47.069C21.1035 47.069 21.5863 47 21.8621 46.8621C22.2759 46.6552 22.2759 46.3793 22.2414 46.2414C22.207 46.0345 22.1725 45.7931 22.138 45.5862C22.138 45.5517 22.1725 45.5517 22.1725 45.5862C22.2414 45.7241 22.3104 45.8621 22.4828 45.8965C22.5173 45.8965 22.5173 45.8965 22.5518 45.8965C22.8276 45.8965 23.2414 46 23.3104 46.2414C23.3449 46.3793 23.4139 46.4828 23.4828 46.6207C23.6552 46.8621 23.9656 47.1724 24.6207 47.2069H24.6552C25.4139 47.2069 26.0001 46.9655 26.3794 46.4828C26.4139 46.4483 26.4139 46.4138 26.4483 46.3793C26.5863 46.1724 27.0001 46.1724 27.1725 46.3448C27.3794 46.5172 27.6207 46.6207 27.8966 46.6207C27.9311 46.6207 28.0001 46.6207 28.0345 46.6207C28.3794 46.5862 28.6552 46.4138 28.8966 46.1034C29.0345 45.8965 29.138 45.6552 29.207 45.3793C29.2414 45.3103 29.3449 45.2759 29.4139 45.3448C29.5518 45.4828 29.7932 45.6207 30.138 45.6207C30.207 45.6207 30.3104 45.6207 30.4139 45.5862C31.069 45.4483 31.4139 44.8965 31.5518 44.3103C31.5518 44.2759 31.5863 44.2759 31.5863 44.3103C31.7587 44.5172 32.069 44.7586 32.5863 44.7586C32.6207 44.7586 32.6552 44.7586 32.6552 44.7586C32.9311 44.7586 33.1725 44.6207 33.3449 44.4138C33.5518 44.1379 33.6207 43.7241 33.6552 43.3448C33.6552 43.2414 33.7242 43.1379 33.8621 43.069C34.4139 42.8276 35.1035 42.3103 35.3104 41.9655C35.3104 41.9655 35.3104 41.931 35.3449 41.931C35.3794 41.8276 35.4828 41.7586 35.5518 41.7586C36.0001 41.6896 36.1725 41.5862 36.3449 41.5172C36.4828 41.4483 36.5863 41.4138 36.9311 41.3448C39.4483 40.9655 39.9311 40.8621 40.4828 40.5172C41.3104 39.9655 41.3449 39.2069 41.3794 38.4828C41.4139 37.8621 41.4483 37.1724 41.9311 36.3448C42.1035 36.0345 42.3104 35.6896 42.5173 35.2759C42.8966 34.5862 43.4139 33.6207 43.7932 33.1034C43.8621 33 44.0001 32.9655 44.1035 33.0345C44.9656 33.3448 45.7242 33.6896 45.8621 33.8276Z" fill="white"/>
<path d="M21.3794 41.3448C21.276 42.2069 21.207 43.3793 21.3449 44.8966C21.3794 45.3103 21.4484 45.7586 21.5174 46.2069C21.4139 46.2759 21.0346 46.3793 20.4139 46.3448C19.5174 46.3103 18.6208 46.1035 18.3449 45.7931L18.3105 45.7586C18.1036 45.5862 17.9312 45.4483 17.9312 45.1379C17.9312 45.0345 17.9656 44.931 18.0691 44.7586C18.138 44.6897 18.207 44.5862 18.276 44.4483C18.4139 44.2414 18.6208 44 18.8277 43.6552C19.4139 42.6897 19.6208 42.3793 19.8967 42C19.9312 41.9655 19.9312 41.931 19.9656 41.8966C20.138 41.6897 20.3105 41.4138 20.6208 40.9655C20.8277 40.6552 21.0001 40.3793 21.1725 40.1724C21.4139 39.8276 21.5863 39.6552 21.6898 39.5517C21.6898 39.6897 21.6553 39.8966 21.6208 40.1035C21.4829 40.5172 21.4139 40.8966 21.3794 41.3448Z" fill="white"/>
<path d="M20.9309 27.7586C20.9309 27.7931 20.9309 27.7931 20.9309 27.7586C20.793 27.931 20.6551 28.1379 20.4827 28.4828C20.0344 29.4483 20.0344 30 20.0344 30.4483C20.0344 30.6897 20.0344 30.8621 19.9654 31.069C19.9309 31.2069 19.862 31.3793 19.7585 31.5517C19.5171 32.1379 19.1723 32.8965 19.3103 33.931C19.1034 33.8276 18.793 33.5862 18.724 33.4828C18.724 33.4138 18.6896 33.3793 18.6896 33.3103C18.6206 33 18.5861 32.7931 18.7585 32.3103C19.3103 31.069 19.3792 30.7586 19.4137 30.4138C19.4137 30.3448 19.4482 30.2759 19.4482 30.1724C19.5516 29.6897 19.6206 29.2759 19.6551 28.931C19.724 28.4138 19.793 28.069 19.9654 27.8276C20.0344 27.7241 20.2068 27.6897 20.4482 27.6897C20.5516 27.6897 20.6551 27.6897 20.793 27.7241H20.8275C20.9309 27.7586 20.9309 27.7586 20.9309 27.7586Z" fill="white"/>
<path d="M20.2414 40.069C20.207 39.7586 20.1725 39.4828 20.0345 39.1724C20.0345 39.1724 20.0001 39.1034 20.0001 39.069C19.9656 39.0345 19.9656 39 19.9311 38.9655L19.8966 38.931C19.8621 38.8965 19.8621 38.8965 19.8277 38.8965L19.7932 38.8621C19.7587 38.8621 19.7587 38.8276 19.7242 38.8276H19.6897C19.5173 38.7586 19.3449 38.6896 19.138 38.6552C19.1035 38.6552 19.069 38.6552 19.069 38.6552C19.0346 38.6552 19.0345 38.6552 19.0001 38.6552H18.9656C18.9311 38.6552 18.8966 38.6896 18.8277 38.6896C18.7932 38.6896 18.7932 38.7241 18.7587 38.7241L18.7242 38.7586C18.6897 38.7931 18.6897 38.7931 18.6552 38.8276L18.6208 38.8621V38.8965C18.5518 39 18.4828 39.1034 18.4139 39.2069C18.2414 39.4483 18.069 39.7241 17.8966 39.9655C17.7242 40.2069 17.5863 40.4138 17.4139 40.6552C17.3104 40.7931 17.2414 40.8965 17.138 41.0345C17.138 41.069 17.1035 41.069 17.1035 41.1034C17.207 41.1379 17.3104 41.1379 17.4139 41.1724C17.6552 41.2069 17.8966 41.2414 18.1035 41.2759C18.5863 41.3448 19.1035 41.3793 19.5863 41.3448C19.6208 41.3448 19.6208 41.3448 19.6552 41.3448C19.7587 41.1724 19.9311 40.9655 20.1035 40.6896C20.207 40.5517 20.3104 40.4138 20.3794 40.2759C20.2759 40.2414 20.2414 40.1379 20.2414 40.069Z" fill="white"/>
<path d="M18.4829 42.1035C18.4484 42.4828 18.0346 43.4483 17.3794 44.3793C16.8277 45.1379 16.4829 45.3448 16.4139 45.3448C16.1381 45.3104 15.8967 44.6552 15.6898 44C15.6208 43.7241 15.5174 43.4828 15.4829 43.2414C15.345 42.7586 15.3105 42.069 15.345 41.6552C15.8967 41.9655 16.8622 42.0345 18.2415 42.0345C18.3105 42.069 18.4139 42.069 18.4829 42.1035Z" fill="white"/>
<path d="M17.5172 39C17.2758 39.3793 17.0344 39.7241 16.793 40.069C16.6551 40.2414 16.5517 40.4138 16.4137 40.5862C16.3448 40.6897 16.2413 40.7931 16.1723 40.8966C15.9655 40.8621 15.793 40.7931 15.5861 40.7586C15.4137 40.7241 15.2758 40.6552 15.1034 40.5862C15.0689 40.5862 15.0344 40.5517 14.9999 40.5517C14.9654 40.5172 14.931 40.4483 14.8965 40.4138C14.9654 40.3103 14.9999 40.1724 15.0689 40.069C15.1723 39.8621 15.2758 39.6552 15.4137 39.4483C15.6206 39.1035 15.862 38.7241 16.2413 38.4828C16.2758 38.4828 16.2758 38.4483 16.3103 38.4483C16.4482 38.3793 16.5861 38.3103 16.7586 38.2759C16.793 38.2759 16.8965 38.2759 16.9654 38.2759H16.9999C16.9999 38.2759 16.9999 38.2759 17.0344 38.2759C17.0689 38.2759 17.1034 38.3103 17.1723 38.3103C17.1723 38.3103 17.2068 38.3103 17.2068 38.3448C17.2413 38.3793 17.2758 38.3793 17.3103 38.4138C17.2413 38.3793 17.3792 38.5172 17.3792 38.4828C17.4482 38.6897 17.4827 38.7931 17.5172 39Z" fill="white"/>
<path d="M15.6552 38C15.207 38.3448 14.8966 38.8276 14.6552 39.3448C14.5173 39.6207 14.3794 39.8966 14.2415 40.1724C14.2415 40.2069 14.207 40.2414 14.207 40.2414C14.069 40.2069 13.9311 40.1724 13.8277 40.1379C13.6897 40.1034 13.5518 40.0345 13.4139 40C13.3449 39.9655 13.3104 39.931 13.2415 39.8966C13.3794 39.6552 13.5173 39.4138 13.6897 39.1724C13.8966 38.8621 14.138 38.5172 14.3794 38.2414C14.4828 38.1379 14.5863 38 14.6897 37.931C14.8277 37.8621 14.9656 37.8621 15.138 37.8966C15.3104 37.8966 15.4828 37.8966 15.6208 37.9655C15.5863 37.9655 15.6208 38 15.6552 38Z" fill="white"/>
<path d="M14.9656 43.8621C14.9311 43.8966 14.9311 43.8966 14.8967 43.931H14.8622C14.7587 43.931 14.6553 43.9655 14.5518 43.9655C14.3449 43.9655 14.138 44 13.9311 43.9655C13.8277 43.9655 13.7242 43.931 13.6553 43.8621C13.5863 43.7586 13.5518 43.5517 13.5173 43.4138C13.3794 42.6552 13.3794 41.8966 13.4484 41.1379C13.8277 41.2759 14.2415 41.3793 14.6553 41.4483C14.5518 42.1379 14.7242 43.1379 14.7932 43.4138C14.8967 43.5517 14.9311 43.7241 14.9656 43.8621Z" fill="white"/>
<path d="M13.7241 37.7586C13.3792 38.1724 13.0689 38.6207 12.793 39.1034C12.6896 39.2759 12.5516 39.4828 12.4482 39.6897C12.3103 39.6552 12.1723 39.5862 12.0689 39.5172C11.9654 39.4483 11.862 39.3793 11.793 39.3103C11.7585 39.2759 11.6896 39.2414 11.6551 39.2069C11.6551 39.2069 11.6206 39.2069 11.6206 39.1724C11.6551 39.069 11.7241 39 11.7241 38.931C11.793 38.7586 11.862 38.6207 11.9654 38.4828C12.1378 38.2069 12.3103 37.931 12.5172 37.6552C12.5861 37.5517 12.6551 37.4483 12.793 37.4138C12.8965 37.3793 13.0344 37.4138 13.1378 37.4138C13.3447 37.4483 13.5516 37.5862 13.7241 37.7586Z" fill="white"/>
<path d="M11.069 39.5862C11.1035 39.5517 11.069 39.5517 11.069 39.5862C11.2069 39.7241 11.3104 39.8276 11.4483 39.931C11.5173 39.9655 11.5518 40.0345 11.6207 40.069C11.6207 40.069 11.6207 40.069 11.6207 40.1035C11.4828 40.6897 11.3793 41.3103 11.3793 41.931C11.3793 41.9655 11.3449 41.9655 11.3449 41.931C11.1724 41.2069 10.9655 40.0345 11.069 39.5862Z" fill="white"/>
<path d="M12.7586 40.8621C12.6897 41.3793 12.6552 41.8966 12.6897 42.4138C12.6897 42.6897 12.7241 42.9655 12.7586 43.2759C12.6897 43.2759 12.6207 43.2759 12.5517 43.2759H12.5172H12.4828C12.4138 43.2414 12.4138 43.2414 12.3448 43.2069C12.2759 43.1724 12.2069 43.069 12.1379 42.9655C12 42.7241 11.9655 42.4483 11.9655 42.1724C11.931 41.6552 12 41.1035 12.1034 40.5862C12.1724 40.6207 12.2759 40.6552 12.3793 40.6897C12.5172 40.7586 12.6207 40.8276 12.7586 40.8621Z" fill="white"/>
<mask id="mask0_178_146" style="mask-type:luminance" maskUnits="userSpaceOnUse" x="0" y="0" width="64" height="64">
<path d="M64 32C64 14.3103 49.6552 0 32 0C14.3103 0 0 14.3103 0 32C0 49.6552 14.3103 64 32 64C49.6552 64 64 49.6552 64 32Z" fill="white"/>
</mask>
<g mask="url(#mask0_178_146)">
<g opacity="0.8">
<path opacity="0.8" d="M26.3449 67.7586C24 67.7586 21.7931 67.6207 19.9311 67.4828L19.4138 67.4483L18.8966 67.3793C18.6552 67.3448 18.3793 67.3103 18.069 67.2759C16.2759 67.069 12.9311 66.7241 9.24141 65L8.6552 64.7241L8.13796 64.4138C1.03451 60.4138 -1.58618 54.4483 -3.03446 51.2414C-3.1379 51.0345 -3.24135 50.7931 -3.3448 50.5517C-4.06894 49.069 -4.51721 47.7586 -4.89652 46.5172L-4.96549 46.2414L-5.03446 45.9655C-6.06894 42.3103 -6.31032 39.1724 -5.86204 36.0345C-5.37928 32.8966 -4.24135 30.069 -2.20687 27.069L-1.17239 25.3793C-0.965489 25.0345 -0.827558 24.6552 -0.72411 24.2759C0.0689935 20.3448 1.8621 17.5517 2.75865 16.2069C3.00003 14.5862 3.41382 13 3.96555 11.4483L4.03451 11.2069L4.13796 10.9655C4.13796 10.931 4.17244 10.8621 4.20692 10.7586C4.62072 9.55173 5.55175 6.75862 7.93106 3.79311L8.82761 2.75862L9.75865 1.93104C12.1035 -0.206893 14.9311 -1.7931 17.9655 -2.68965C19.6552 -3.20689 21.4138 -3.51724 23.2069 -3.62069H23.3793H23.6207C23.9311 -3.62069 24.2414 -3.65517 24.5173 -3.65517C25.6207 -3.65517 26.7242 -3.55172 27.8276 -3.37931C28.5173 -3.27586 29.2069 -3.34482 29.8621 -3.62069C31.7586 -4.41379 33.7242 -4.93103 35.7586 -5.20689C35.9311 -5.24138 36.069 -5.24138 36.2069 -5.27586C36.5173 -5.31034 37.0345 -5.37931 37.6552 -5.44827C38.7242 -5.55172 40.3793 -5.68965 42.138 -5.68965C45.6207 -5.68965 48.6207 -5.24138 51.3104 -4.31034L51.5518 -4.24138L51.7587 -4.17241C57.6897 -1.93103 60.6897 1.2069 62.8621 3.93104L62.9655 4.06897L63.2759 4.34483C65.2414 5.86207 66.8966 7.75862 68.2069 9.86207L68.6207 10.5172L68.9655 11.2069C71.8621 17.1035 70.9311 22.5862 70.5862 24.6207L70.5518 24.7241C70.3104 26.2414 69.8966 27.7241 69.3793 29.1724C69.1724 30.5517 68.8621 31.931 68.4138 33.2414C67.6552 35.5862 66.5173 37.8276 65.069 39.8276C64.2414 41 63.2759 42.1379 62.2414 43.1379C61.8621 43.4828 61.6207 43.9655 61.5518 44.4828C61.5173 44.7931 61.4483 45.1034 61.4138 45.4138C60.5518 49.9655 58.5862 53.1379 57.7586 54.4138L55.3104 57.931C52.3449 61.6207 48.8276 64.0345 44.5862 65.3448L43.5518 65.6552L42.4483 65.8621C41.1724 66.1034 39.8966 66.2069 38.5862 66.2069C38.4138 66.2069 38.2414 66.2069 38.0345 66.2069H37.9655H37.7586H37.5173C37.0345 66.2069 36.5518 66.3103 36.069 66.4483C33.2414 67.3448 30.138 67.7586 26.3449 67.7586Z" stroke="url(#paint1_linear_178_146)" stroke-width="1.0554" stroke-miterlimit="10"/>
<path opacity="0.8" d="M26.3449 65.3103C24.1035 65.3103 21.9311 65.1724 20.138 65.0345L19.7242 65L19.3104 64.931C19.0345 64.8966 18.7242 64.8621 18.4138 64.8276C16.6552 64.6552 13.7586 64.3104 10.5173 62.7931L10.0345 62.5517L9.58623 62.3104C3.27588 58.8276 0.965538 53.6207 -0.413772 50.5172C-0.51722 50.3104 -0.620668 50.0345 -0.758599 49.7931C-1.41377 48.4828 -1.82756 47.2414 -2.17239 46.1379L-2.24136 45.8966L-2.31032 45.6897C-3.20688 42.4138 -3.44825 39.6552 -3.03446 36.931C-2.62067 34.2414 -1.58619 31.7241 0.206918 29.1035L1.55175 26.931C1.79312 26.5517 1.96554 26.1035 2.0345 25.6552C2.68968 21.931 4.4483 19.3104 5.2414 18.1035L5.34485 17.9655L5.37933 17.8966C5.37933 17.8621 5.41381 17.8276 5.41381 17.7931C5.4483 17.6207 5.51726 17.4828 5.55175 17.3448C5.75864 15.8276 6.13795 14.3104 6.65519 12.8621L6.72416 12.6552L6.79313 12.4483C6.82761 12.3793 6.82761 12.3104 6.89657 12.1035C7.27588 10.9655 8.06899 8.58621 10.138 6.03449L10.8966 5.13794L11.6552 4.44828C13.6897 2.58621 16.138 1.2069 18.7586 0.448283C20.2759 7.35953e-06 21.7931 -0.275855 23.3793 -0.34482H23.5173H23.7242C24 -0.34482 24.2414 -0.379303 24.4828 -0.379303C25.6207 -0.379303 26.7242 -0.689648 27.8276 -0.482751C28.6897 -0.310337 29.5517 -0.413786 30.3449 -0.758613C31.8276 -1.41379 33.8276 -1.65516 36.1035 -1.96551C36.2759 -1.99999 36.4138 -1.99999 36.5173 -2.03448C36.8276 -2.06896 37.3104 -2.13792 37.8621 -2.17241C38.8621 -2.27585 40.4138 -2.3793 42.1035 -2.3793C45.2759 -2.3793 47.9655 -1.96551 50.3449 -1.17241L50.5517 -1.10344L50.7242 -1.03448C55.9655 0.965525 58.5517 3.58621 60.5862 6.17242C60.6897 6.31035 60.8276 6.44828 60.8621 6.51725L60.8966 6.55173L61.2759 6.89656L61.3104 6.96552C63.069 8.31035 64.5517 9.96553 65.6897 11.8276L66.0345 12.3793L66.3104 12.9655C68.7931 18.0345 68.0345 22.6897 67.6897 24.6552L67.6552 24.7586C67.4138 26.2069 67.0345 27.5862 66.5173 28.9655C66.3448 30.2759 66.0345 31.5862 65.6207 32.8276C64.9311 34.8966 63.9311 36.8621 62.6552 38.6552C61.7931 39.8966 60.7586 41.0345 59.6552 42.0345C59.138 42.5173 58.7931 43.1379 58.7242 43.8621C58.6552 44.3793 58.5862 44.8621 58.5173 45.3793C57.7586 49.4138 56.0345 52.1724 55.2069 53.4138L53.2069 56.3104C50.5517 59.7241 47.4138 61.931 43.6207 63.1035L42.7586 63.3793L41.8276 63.5517C40.7242 63.7586 39.5862 63.8621 38.4828 63.8276C38.3104 63.8276 38.138 63.8276 37.9655 63.8276H37.9311H37.8276C37.8276 63.8276 37.7931 63.8276 37.7242 63.8276H37.5173H37.3104H36.9311C36.4138 63.8621 35.8966 63.931 35.3793 64.1035C32.8621 64.931 29.9311 65.3103 26.3449 65.3103Z" stroke="url(#paint2_linear_178_146)" stroke-width="1.0554" stroke-miterlimit="10"/>
<path opacity="0.8" d="M26.3448 62.4483C24.2069 62.4483 22.1035 62.3103 20.3448 62.1724L20 62.1379L19.6552 62.1034C19.3448 62.069 19 62.0345 18.6552 62C17 61.8276 14.4828 61.5517 11.6552 60.2069L11.2759 60.0345L10.931 59.8276C5.51725 56.7931 3.51725 52.3103 2.2069 49.3448C2.10345 49.1034 1.96552 48.7931 1.86208 48.5517C1.27587 47.3793 0.896558 46.2759 0.586214 45.2414L0.517248 45.069L0.482765 44.8965C-0.310338 42.069 -0.517235 39.6552 -0.172407 37.3793C0.17242 35.069 1.10345 32.8965 2.68966 30.5862L2.89656 30.3103L3.10345 30.0345C3.24139 29.8621 3.34483 29.6897 3.48277 29.5517L4.27587 28.069C4.55173 27.5862 4.72414 27.069 4.79311 26.5172C5.31035 23.2069 6.89656 20.8276 7.6207 19.7241C7.65518 19.6552 7.72414 19.5862 7.75863 19.5517L7.93104 19.3103C8.00001 19.1724 8.06897 19 8.13794 18.7931C8.2069 18.5862 8.31035 18.2759 8.37932 18C8.55173 16.5862 8.89656 15.2069 9.37932 13.8621L9.44828 13.6897L9.51725 13.5172C9.55173 13.3793 9.6207 13.2759 9.68966 13.0345C10.0345 11.9655 10.6897 10 12.4483 7.86207L13.0345 7.13793L13.6552 6.58621C15.3793 5 17.4483 3.86207 19.6897 3.17241C21 2.7931 22.3103 2.55172 23.6897 2.48276H23.7931H23.9655C24.1724 2.48276 24.3793 2.48276 24.6207 2.48276C25.7931 2.48276 26.931 2.62069 28.069 2.93103C29.0345 3.17241 30.069 3.06896 30.9655 2.62069C32.4138 1.93103 34.3448 1.17241 36.5862 0.896551C36.7241 0.862068 36.8621 0.862068 36.9655 0.827585C37.2414 0.793102 37.6897 0.724137 38.2414 0.689654C39.1724 0.586206 40.6552 0.482758 42.2069 0.482758C45.0345 0.482758 47.4138 0.827585 49.5172 1.55172L49.6552 1.62069L49.7931 1.68965C54.6207 3.51724 56.7586 5.89655 58.4138 8C58.7931 8.44827 58.8276 8.51724 59.069 8.75862L59.3793 9.03448L59.4828 9.17241C60.2759 9.7931 61.8966 11.069 63.3103 13.3793L63.5862 13.8276L63.8276 14.2759C65.931 18.5172 65.2759 22.3793 64.9655 24.2414L64.931 24.3448C64.7241 25.6897 64.3448 27.0345 63.7931 28.3103V28.4138C63.6552 29.6207 63.3793 30.8276 63 31.9655C62.4138 33.7931 61.5517 35.4828 60.4138 37.0345C59.4828 38.3793 58.3448 39.5862 57.069 40.6207C56.7586 40.8621 56.5172 41.1724 56.3448 41.5172C56.1724 41.8621 56.069 42.2414 56.0345 42.6207C56 43.3793 55.8966 44.1379 55.7586 44.8965C55.1035 48.3793 53.5862 50.7931 52.8276 52L51.2759 54.2759C48.9655 57.3793 46.2069 59.3793 42.8621 60.4138L42.1724 60.6207L41.4138 60.7586C40.4828 60.931 39.5172 61 38.5517 61C38.4138 61 38.2414 61 38.069 61H38.0345H37.8621C37.8276 61 37.7586 61 37.5862 61H37.4138H37.2759L36.4828 61.0345C35.931 61.069 35.3793 61.1379 34.8621 61.3448C32.4828 62.1034 29.7586 62.4483 26.3448 62.4483Z" stroke="url(#paint3_linear_178_146)" stroke-width="0.9894" stroke-miterlimit="10"/>
<path opacity="0.8" d="M26.3449 59.5862C24.3104 59.5862 22.2759 59.4483 20.5863 59.3103L20.3449 59.2759L20.1035 59.2414C19.7587 59.2069 19.3794 59.1379 19.0346 59.1034C17.4828 58.931 15.3449 58.6897 12.9311 57.5862L12.6552 57.4483L12.3794 57.3103C7.79317 54.7241 6.10352 50.931 4.86214 48.1724C4.72421 47.8965 4.58628 47.5862 4.48283 47.3103C3.96559 46.2414 3.62076 45.2414 3.3449 44.3793L3.31041 44.2414L3.20697 44.1379C1.86214 39.3793 2.37938 36.0345 5.00007 32.2069L5.138 32L5.27593 31.7931C5.44834 31.5862 5.62076 31.3448 5.79317 31.1379C6.03455 30.8276 6.27593 30.4828 6.55179 30.1724C6.72421 29.9655 6.86214 29.7241 6.96559 29.4828L7.27593 28.7241C7.41386 28.3793 7.48283 28.0345 7.51731 27.6897C7.79317 24.6207 9.27593 22.4138 10.0001 21.3103C10.069 21.2414 10.138 21.1034 10.1725 21.069L10.3449 20.7931L10.4139 20.7241C10.5173 20.5517 10.6897 20.1379 10.8277 19.7241C10.8966 19.4483 11.0346 19 11.1725 18.6207V18.5862C11.3104 17.3103 11.6208 16.0345 12.069 14.8276L12.1035 14.7241L12.138 14.6207C12.207 14.4138 12.2759 14.2414 12.3449 14C12.6552 13.069 13.1725 11.4828 14.5863 9.72414L15.0346 9.17241L15.4828 8.75862C18.8277 5.72413 22.5518 5.48276 23.7932 5.37931H23.8621H24.0001C24.1725 5.37931 24.3449 5.37931 24.5173 5.37931C26.0001 5.37931 27.4483 5.68965 28.8277 6.27586C29.069 6.37931 29.3449 6.41379 29.5863 6.41379C29.8621 6.41379 30.1035 6.34482 30.3449 6.20689C31.6208 5.48276 33.9311 4.13793 36.8966 3.7931C37.0345 3.75862 37.1725 3.75862 37.2759 3.75862C37.5518 3.72413 37.9656 3.68965 38.4483 3.62069C39.3449 3.55172 40.6897 3.44827 42.138 3.44827C44.6552 3.44827 46.7242 3.75862 48.4828 4.34482L48.5863 4.37931L48.6897 4.41379C52.8276 5.96551 54.5863 7.93103 56.069 9.7931C56.4483 10.3103 56.6552 10.5172 57.069 10.931L57.3104 11.1379L57.4828 11.3448L57.6208 11.4483C58.3104 12 59.6208 13 60.7932 14.8965L61.0001 15.2414L61.1725 15.5862C62.8621 19.0345 62.3104 22.1379 62.0345 23.7931V23.8965C61.8276 25.1034 61.4828 26.3103 61.0001 27.4483L60.9656 27.5517C60.9656 27.5862 60.9656 27.5862 60.9311 27.6552C60.8966 27.7586 60.8966 27.8621 60.8966 27.9655L60.8621 28.1034C60.7587 29.1379 60.5173 30.1379 60.1725 31.1034C59.6552 32.6552 58.9311 34.1034 57.9656 35.4138C57.0345 36.7586 55.9656 37.8621 54.7932 38.7241C54.2759 39.1034 53.8621 39.5862 53.5518 40.1724C53.2414 40.7586 53.1035 41.3793 53.1035 42.0345C53.1035 42.8276 53.0001 43.6552 52.8621 44.4483C52.3104 47.4138 51.069 49.4138 50.2759 50.6207L49.138 52.3103C47.138 55.1034 44.7587 56.8966 41.8966 57.7931L41.7587 57.8276C41.5173 57.8965 41.2759 57.9655 41.0345 58L40.8621 58.0345C40.069 58.1724 39.2759 58.2414 38.4828 58.2414C38.3449 58.2414 38.207 58.2414 38.069 58.2414H38.0345C37.9656 58.2414 37.8966 58.2414 37.8277 58.2414C37.7587 58.2414 37.6208 58.2414 37.3449 58.2414H37.2414H37.138C36.7587 58.2414 36.2759 58.2759 35.8621 58.2759C35.2759 58.3103 34.7242 58.4138 34.1725 58.6207C32.1035 59.2414 29.5863 59.5862 26.3449 59.5862Z" stroke="url(#paint4_linear_178_146)" stroke-width="0.9235" stroke-miterlimit="10"/>
<path opacity="0.8" d="M26.3449 56.7241C24.3794 56.7241 22.4484 56.5862 20.7932 56.4483H20.6208L20.4484 56.4138C20.0691 56.3448 19.6553 56.3103 19.276 56.2759C17.8277 56.1035 16.0346 55.931 14.1036 55L13.8967 54.8966L13.7243 54.7931C9.96564 52.6897 8.55185 49.5172 7.4484 46.9655C7.31047 46.6552 7.17253 46.3448 7.0346 46C6.58633 45.1034 6.27598 44.2069 6.0346 43.4483L6.00012 43.3448L5.96564 43.2414C4.86219 39.3103 5.2415 36.8276 7.37943 33.7241L7.48288 33.5862L7.58633 33.4483C7.75874 33.2069 7.93116 33 8.10357 32.7586C8.65529 32.0345 9.20702 31.3103 10.0001 30.4483C10.1725 30.2759 10.276 30 10.3105 29.7586L10.3449 28.9655L10.3105 28.6552V28.3448C10.3794 25.7931 11.6553 23.8966 12.3449 22.8621C12.4139 22.7586 12.5174 22.6207 12.5518 22.5517L12.6553 22.3793L12.7587 22.2414C12.8967 22.0345 13.207 21.3103 13.4829 20.6552C13.5863 20.3793 13.7243 19.8276 13.8967 19.3793C13.9312 19.2414 13.9312 19.2069 13.9656 18.8966C14.0691 17.8276 14.3449 16.7586 14.6898 15.7586L14.7243 15.6897L14.7587 15.6207C14.8622 15.3448 14.9312 15.1379 15.0346 14.8621C15.3105 14.0345 15.7243 12.8276 16.7932 11.4828L17.1036 11.1034L17.4139 10.8276C19.7587 8.72414 22.276 8.31035 24.0001 8.2069H24.0691H24.1381C24.276 8.2069 24.3794 8.2069 24.5174 8.2069C25.9656 8.2069 27.7243 8.89655 28.6553 9.34483C28.8622 9.44828 29.1036 9.51724 29.3449 9.51724C29.5863 9.51724 29.8277 9.48276 30.0691 9.41379C30.6553 9.2069 31.207 8.96552 31.7243 8.68966C32.8967 8 34.8277 6.89655 37.2415 6.62069C37.3794 6.58621 37.4829 6.58621 37.5863 6.58621C37.8277 6.55173 38.207 6.51724 38.6898 6.44828C39.5174 6.37931 40.7587 6.27586 42.1036 6.27586C44.276 6.27586 46.0691 6.51724 47.5174 7.03448L47.5863 7.06897L47.6553 7.10345C51.1036 8.41379 52.4829 9.89655 53.7932 11.5862C54.207 12.1379 54.5174 12.5172 55.138 13.069L55.276 13.2069L55.4139 13.3448C55.5518 13.4828 55.6898 13.5862 55.8277 13.6897C56.4139 14.1379 57.4139 14.931 58.276 16.3793L58.4139 16.5862L58.5174 16.8276C59.7932 19.4138 59.3794 21.8621 59.138 23.3103V23.4138C58.9656 24.4138 58.6898 25.3793 58.276 26.3103C58.1725 26.5517 58.1036 26.7931 58.0346 27.069C58.0001 27.2414 57.9656 27.4138 57.9656 27.5517L57.9312 27.6897C57.8277 28.5172 57.6553 29.3448 57.3794 30.1379C56.9656 31.4138 56.3449 32.6207 55.5863 33.6897C54.4139 35.3448 53.0691 36.5172 51.4484 37.2759C51.0691 37.4483 50.7243 37.7241 50.4829 38.1035C50.2415 38.4483 50.1036 38.8966 50.0691 39.3103C50.0691 39.4828 50.0691 39.6207 50.0691 39.7241C50.138 40.9655 50.2415 42.3793 49.9656 43.8621C49.5174 46.2759 48.4829 47.8966 47.7243 49.1034C47.7243 49.1034 44.207 54 41.0001 55L40.6553 55.1035L40.276 55.1724C39.6553 55.2759 39.0346 55.3448 38.3794 55.3448C38.276 55.3448 38.138 55.3448 38.0001 55.3448C37.9312 55.3448 37.8277 55.3448 37.7243 55.3448C37.5863 55.3448 37.3794 55.3448 37.0691 55.3793H37.0001H36.9312C35.6898 55.4138 34.5518 55.4483 34.207 55.5172C34.0346 55.5517 33.8622 55.5862 33.6898 55.6552C32.0001 56.3793 29.6208 56.7241 26.3449 56.7241Z" stroke="url(#paint5_linear_178_146)" stroke-width="0.8575" stroke-miterlimit="10"/>
<path opacity="0.8" d="M26.3448 53.8966C24.4827 53.8966 22.6207 53.7586 21.0345 53.6552H20.9655H20.8965C20.4482 53.5862 20.0345 53.5517 19.6551 53.5172C18.3103 53.3793 16.8965 53.2069 15.3793 52.5173L15.2758 52.4828L15.1724 52.4483C12.2413 50.7931 11.1379 48.3448 10.1034 45.9655C9.96549 45.6207 9.79307 45.2759 9.62066 44.931C9.27583 44.2414 8.99997 43.4828 8.79307 42.7586V42.7242V42.6897C7.89652 39.5517 8.1379 37.9655 9.79307 35.5517L9.82756 35.4828L9.86204 35.4138C10.0689 35.1724 10.2413 34.931 10.4138 34.7241C11.2069 33.6897 11.8965 32.7931 13.4482 31.3448C13.5517 31.2414 13.6551 31.1035 13.6896 30.931C13.7241 30.7931 13.7241 30.6207 13.6551 30.4828L13.3793 29.6897C13.3103 29.4483 13.2758 29.1724 13.2758 28.931V28.7242V28.5517C13.3448 26.8276 14.2413 25.4828 14.8276 24.5862C14.931 24.4483 15 24.3104 15.0689 24.2069L15.1379 24.1035L15.2069 24C15.5172 23.5862 16.0345 22.3793 16.3103 21.6552C16.3793 21.4138 16.5517 20.8276 16.7241 20.3793C16.8276 20.0345 16.8965 19.6897 16.931 19.3448C17.0345 18.4828 17.2069 17.6207 17.5172 16.8276V16.7931V16.7586C17.6551 16.4138 17.7586 16.1379 17.8276 15.8621C18.0689 15.1379 18.3448 14.3104 19.1034 13.3793L19.2413 13.2069L19.3793 13.069C21.0345 11.5517 22.862 11.2759 24.2413 11.1724H24.2758H24.3103C24.3793 11.1724 24.4827 11.1724 24.5517 11.1724C25.931 11.1724 26.9655 11.7241 27.6551 12.1035L27.8276 12.1724H27.862C28.0689 12.2759 28.2069 12.3793 28.3793 12.4483C28.7931 12.6552 29.3103 12.7241 29.7586 12.5862C30.7241 12.3448 32.2069 11.7586 33.1724 11.2069H33.2069C34.2413 10.5862 35.8276 9.68967 37.6896 9.48277C37.7931 9.44829 37.931 9.44829 38.0344 9.44829C38.2413 9.4138 38.6207 9.37932 39.0344 9.34484C39.7931 9.27587 40.9655 9.17242 42.1724 9.17242C44.0344 9.17242 45.5172 9.37932 46.6551 9.75863H46.6896H46.7241C49.4827 10.7931 50.5172 11.8966 51.6207 13.3448C52.0689 13.931 52.5172 14.4828 53.3448 15.2069L53.4138 15.2759L53.4827 15.3448C53.6896 15.5517 53.931 15.7586 54.2069 15.9655C54.6896 16.3448 55.3793 16.8621 55.9655 17.8621L56.0345 17.9655L56.1034 18.069C56.9655 19.8621 56.6896 21.5517 56.4827 22.8276V22.931C56.3448 23.7241 56.1379 24.4828 55.7931 25.2414C55.6207 25.6552 55.4827 26.1035 55.4138 26.5517C55.3793 26.8276 55.3448 27.0345 55.3103 27.2069L55.2758 27.3448C55.2069 28 55.0689 28.6207 54.862 29.2414C54.5517 30.2414 54.0689 31.1724 53.4482 32.0345C52.4138 33.5517 51.2413 34.4828 49.6896 34.9655C48.931 35.2069 48.3103 35.6897 47.8965 36.3448L47.7586 36.5173L47.6207 36.6897C47.2413 37.1379 47.3448 38.8621 47.4138 39.8966C47.4827 41.0345 47.5517 42.2069 47.3448 43.3104C47 45.2069 46.1724 46.4828 45.4482 47.5862C45.4482 47.5862 42.7586 51.4828 40.3103 52.2069L40.1379 52.2759L39.9655 52.3104C39.5172 52.3793 39.0344 52.4483 38.5517 52.4483C38.4482 52.4483 38.3448 52.4483 38.2069 52.4483C38.1034 52.4483 38 52.4483 37.862 52.4483C37.6896 52.4483 37.4482 52.4483 37.0344 52.4828H37H36.9655C35.3448 52.5517 34.3448 52.5862 33.7931 52.6897C33.4138 52.7586 33.0689 52.8621 32.7241 53C31.2413 53.5862 29.2413 53.8966 26.3448 53.8966Z" stroke="url(#paint6_linear_178_146)" stroke-width="0.8575" stroke-miterlimit="10"/>
</g>
</g>
</g>
<defs>
<radialGradient id="paint0_radial_178_146" cx="0" cy="0" r="1" gradientUnits="userSpaceOnUse" gradientTransform="translate(32.0012 35.3432) rotate(90) scale(35.9467)">
<stop offset="0.1667" stop-color="#073183"/>
<stop offset="1" stop-color="#0054F9"/>
</radialGradient>
<linearGradient id="paint1_linear_178_146" x1="-4.48142" y1="-7.19479" x2="68.8385" y2="69.7587" gradientUnits="userSpaceOnUse">
<stop offset="0.2057" stop-color="#89D0FF"/>
<stop offset="0.3984" stop-color="#EBBF9A"/>
<stop offset="0.6015" stop-color="#EB8280"/>
<stop offset="0.8411" stop-color="#A281FF"/>
</linearGradient>
<linearGradient id="paint2_linear_178_146" x1="-1.63825" y1="-3.88368" x2="65.9547" y2="67.3492" gradientUnits="userSpaceOnUse">
<stop offset="0.2057" stop-color="#89D0FF"/>
<stop offset="0.3984" stop-color="#EBBF9A"/>
<stop offset="0.6015" stop-color="#EB80DA"/>
<stop offset="0.8411" stop-color="#A281FF"/>
</linearGradient>
<linearGradient id="paint3_linear_178_146" x1="1.23328" y1="-1.02083" x2="63.098" y2="64.49" gradientUnits="userSpaceOnUse">
<stop offset="0.2057" stop-color="#89D0FF"/>
<stop offset="0.3984" stop-color="#EBBF9A"/>
<stop offset="0.6015" stop-color="#EB8280"/>
<stop offset="0.8411" stop-color="#A281FF"/>
</linearGradient>
<linearGradient id="paint4_linear_178_146" x1="4.10096" y1="1.85196" x2="60.2247" y2="61.6231" gradientUnits="userSpaceOnUse">
<stop offset="0.2057" stop-color="#89D0FF"/>
<stop offset="0.3984" stop-color="#EBBF9A"/>
<stop offset="0.6015" stop-color="#EB80E7"/>
<stop offset="0.8411" stop-color="#A281FF"/>
</linearGradient>
<linearGradient id="paint5_linear_178_146" x1="6.95191" y1="4.73028" x2="57.3455" y2="58.7573" gradientUnits="userSpaceOnUse">
<stop offset="0.2057" stop-color="#89D0FF"/>
<stop offset="0.3984" stop-color="#EBBF9A"/>
<stop offset="0.6015" stop-color="#EB80D3"/>
<stop offset="0.8411" stop-color="#A281FF"/>
</linearGradient>
<linearGradient id="paint6_linear_178_146" x1="9.83969" y1="7.57398" x2="54.4982" y2="55.8786" gradientUnits="userSpaceOnUse">
<stop offset="0.2057" stop-color="#89D0FF"/>
<stop offset="0.3984" stop-color="#EBBF9A"/>
<stop offset="0.6015" stop-color="#A280EB"/>
<stop offset="0.8411" stop-color="#A281FF"/>
</linearGradient>
<clipPath id="clip0_178_146">
<rect width="64" height="64" fill="white"/>
</clipPath>
</defs>
</svg>
