<svg width="64" height="64" viewBox="0 0 64 64" fill="none" xmlns="http://www.w3.org/2000/svg">
<g clip-path="url(#clip0_250_418)">
<mask id="mask0_250_418" style="mask-type:luminance" maskUnits="userSpaceOnUse" x="0" y="0" width="64" height="64">
<path d="M64 0H0V64H64V0Z" fill="white"/>
</mask>
<g mask="url(#mask0_250_418)">
<path d="M64 32C64 49.6731 49.6731 64 32 64C14.3269 64 0 49.6731 0 32C0 14.3269 14.3269 0 32 0C49.6731 0 64 14.3269 64 32Z" fill="#1F267B"/>
<path fill-rule="evenodd" clip-rule="evenodd" d="M32.0309 12.4038L31.0055 14.1779C30.9826 14.2176 30.9596 14.2573 30.9367 14.2971L12.6741 45.8914H51.3879L32.0309 12.4038ZM25.5985 28.28L16.8055 43.4918C21.3788 43.3824 25.4917 42.8504 28.5621 41.3045C29.5412 40.8115 30.406 40.2192 31.1442 39.5077C29.1913 38.1746 27.7847 36.6402 26.8689 34.9243C25.7706 32.8666 25.4252 30.635 25.5938 28.34C25.5954 28.32 25.5969 28.3 25.5985 28.28ZM29.4513 43.5154H47.2391C44.8164 39.5421 42.1906 36.0686 39.242 33.9987C38.3388 33.3646 37.4161 32.8702 36.4681 32.5328C36.3058 35.0397 35.6842 37.1392 34.65 38.8774C33.4321 40.9243 31.6898 42.3898 29.6306 43.4266C29.5711 43.4565 29.5113 43.4861 29.4513 43.5154ZM40.6725 32.1014L32.0449 17.1754C29.8338 21.2238 28.2169 25.0808 27.9645 28.5128C27.9029 29.3498 27.9234 30.1546 28.0346 30.9267C30.1541 29.9382 32.1908 29.5366 34.146 29.6534C36.5157 29.795 38.6652 30.692 40.6079 32.0557C40.6295 32.0709 40.6509 32.0861 40.6725 32.1014ZM28.9665 33.8061C28.8682 33.6219 28.7773 33.4354 28.6937 33.2464C30.6412 32.2741 32.4013 31.9283 34.0053 32.0242C34.0423 32.0262 34.0793 32.0288 34.1161 32.0314C34.0108 34.385 33.4661 36.2104 32.6223 37.6387C30.8583 36.4621 29.693 35.1674 28.9665 33.8061Z" fill="#FAFAFA"/>
</g>
</g>
<defs>
<clipPath id="clip0_250_418">
<rect width="64" height="64" fill="white"/>
</clipPath>
</defs>
</svg>
