<svg width="64" height="64" viewBox="0 0 64 64" fill="none" xmlns="http://www.w3.org/2000/svg">
<g clip-path="url(#clip0_193_171)">
<path d="M32 64C49.6732 64 64 49.6732 64 32C64 14.3269 49.6732 0 32 0C14.3269 0 0 14.3269 0 32C0 49.6732 14.3269 64 32 64Z" fill="white"/>
<g clip-path="url(#clip1_193_171)">
<path d="M49.5656 21.4131H43.904C43.2497 21.4131 42.6222 21.1338 42.1815 20.6417L39.8848 18.0615C39.5377 17.6758 39.057 17.4497 38.5362 17.4497C38.0154 17.4497 37.5347 17.6758 37.1876 18.0615L35.2113 20.2826C34.5704 21.0008 33.6357 21.4264 32.6743 21.4264H1.68245C0.801168 23.9135 0.226998 26.5603 0 29.3134H29.256C29.7768 29.3134 30.2575 29.1006 30.618 28.7282L33.342 25.8953C33.6758 25.5362 34.1565 25.3367 34.6372 25.3367H34.744C35.2648 25.3367 35.7455 25.5628 36.0926 25.9485L38.3893 28.5287C38.83 29.0208 39.4575 29.3001 40.1118 29.3001H63.9866C63.7596 26.5603 63.1855 23.9002 62.3042 21.3998L49.5656 21.4131Z" fill="black"/>
<path d="M17.7059 45.9119C18.2266 45.9119 18.7073 45.6991 19.0678 45.3267L21.7918 42.4938C22.139 42.1347 22.6063 41.9352 23.1004 41.9352H23.2072C23.728 41.9352 24.222 42.1613 24.5558 42.5337L26.8525 45.1139C27.2932 45.606 27.9207 45.8853 28.575 45.8853H60.9422C62.1573 43.3849 63.0386 40.7116 63.5727 37.9052H32.5008C31.8465 37.9052 31.2189 37.6259 30.7783 37.1338L28.4816 34.5802C28.1344 34.1945 27.6537 33.9817 27.1329 33.9817C26.6122 33.9817 26.1181 34.2078 25.7843 34.5802L23.8081 36.8013C23.1672 37.5328 22.2325 37.9451 21.2577 37.9451H0.440674C0.974786 40.7515 1.85607 43.4248 3.07118 45.9252L17.7059 45.9119Z" fill="black"/>
<path d="M40.6593 12.7814C41.1801 12.7814 41.6608 12.5686 42.0213 12.1962L44.7453 9.36326C45.0791 9.00416 45.5598 8.80465 46.0539 8.80465H46.1607C46.6815 8.80465 47.1622 9.03076 47.5093 9.41646L49.806 12.01C50.2467 12.5021 50.8742 12.7814 51.5285 12.7814H57.6842C51.8223 5.01413 42.502 0 32.0067 0C21.5114 0 12.1778 5.01413 6.31592 12.7814H40.6593Z" fill="black"/>
<path d="M28.3079 53.8254H19.8956C19.2413 53.8254 18.6138 53.5461 18.1731 53.054L15.8764 50.4738C15.5293 50.0881 15.0486 49.8753 14.5278 49.8753C14.007 49.8753 13.513 50.1014 13.1792 50.4738L11.203 52.6949C10.562 53.4264 9.62733 53.8387 8.65257 53.8387H8.51904C14.3809 60.0898 22.7264 64.0133 32.0066 64.0133C41.2868 64.0133 49.619 60.0898 55.4942 53.8387L28.3079 53.8254Z" fill="black"/>
</g>
</g>
<defs>
<clipPath id="clip0_193_171">
<rect width="64" height="64" fill="white"/>
</clipPath>
<clipPath id="clip1_193_171">
<rect width="64" height="64" fill="white"/>
</clipPath>
</defs>
</svg>
