<svg width="64" height="64" viewBox="0 0 64 64" fill="none" xmlns="http://www.w3.org/2000/svg">
<g clip-path="url(#clip0_195_21)">
<path d="M5.78735 19.4716V44.5797C5.78735 46.1938 6.63283 47.6541 8.04196 48.474L29.7938 61.028C31.1773 61.8223 32.8938 61.8223 34.2773 61.028L56.0291 48.474C57.4127 47.6798 58.2837 46.1938 58.2837 44.5797V19.4716C58.2837 17.8575 57.4383 16.3971 56.0291 15.5773L34.2773 3.02323C32.8938 2.22899 31.1773 2.22899 29.7938 3.02323L8.04196 15.5773C6.65845 16.3715 5.81297 17.8575 5.81297 19.4716H5.78735Z" fill="#213147"/>
<path d="M36.7625 36.8935L33.6624 45.3995C33.5855 45.6301 33.5855 45.8863 33.6624 46.1425L38.9914 60.7718L45.166 57.2106L37.7617 36.8935C37.5823 36.4323 36.9418 36.4323 36.7625 36.8935Z" fill="#12AAFF"/>
<path d="M42.9883 22.5973C42.809 22.1361 42.1685 22.1361 41.9891 22.5973L38.8891 31.1033C38.8122 31.3339 38.8122 31.5901 38.8891 31.8463L47.6257 55.8014L53.8002 52.2402L42.9883 22.6229V22.5973Z" fill="#12AAFF"/>
<path d="M32.0228 3.97118C32.1765 3.97118 32.3302 4.02242 32.4583 4.09928L55.9779 17.6781C56.2598 17.8319 56.4135 18.1393 56.4135 18.4468V45.6045C56.4135 45.9119 56.2341 46.2194 55.9779 46.3731L32.4583 59.952C32.3302 60.0288 32.1765 60.0801 32.0228 60.0801C31.869 60.0801 31.7153 60.0288 31.5872 59.952L8.0676 46.3731C7.78577 46.2194 7.63205 45.9119 7.63205 45.6045V18.4211C7.63205 18.1137 7.81139 17.8062 8.0676 17.6525L31.5872 4.07366C31.7153 3.9968 31.869 3.94556 32.0228 3.94556V3.97118ZM32.0228 0C31.1773 0 30.3574 0.204964 29.5888 0.640512L6.0692 14.2194C4.55759 15.0905 3.63525 16.6789 3.63525 18.4211V45.5789C3.63525 47.3211 4.55759 48.9095 6.0692 49.7806L29.5888 63.3595C30.3318 63.795 31.1773 64 32.0228 64C32.8682 64 33.6881 63.795 34.4567 63.3595L57.9763 49.7806C59.4879 48.9095 60.4103 47.3211 60.4103 45.5789V18.4211C60.4103 16.6789 59.4879 15.0905 57.9763 14.2194L34.4311 0.640512C33.6881 0.204964 32.8426 0 31.9971 0H32.0228Z" fill="#9DCCED"/>
<path d="M16.4456 55.8271L18.6233 49.8831L22.9788 53.4956L18.9051 57.2362L16.4456 55.8271Z" fill="#213147"/>
<path d="M30.0243 16.4996H24.0547C23.6192 16.4996 23.2092 16.7814 23.0555 17.1914L10.2709 52.2402L16.4454 55.8015L30.5367 17.1914C30.6648 16.8327 30.4086 16.474 30.0499 16.474L30.0243 16.4996Z" fill="white"/>
<path d="M40.4775 16.4996H34.5079C34.0724 16.4996 33.6624 16.7814 33.5087 17.1914L18.905 57.2106L25.0796 60.7718L40.9643 17.1914C41.0924 16.8327 40.8362 16.474 40.4775 16.474V16.4996Z" fill="white"/>
</g>
<defs>
<clipPath id="clip0_195_21">
<rect width="64" height="64" fill="white"/>
</clipPath>
</defs>
</svg>
