<svg width="64" height="64" viewBox="0 0 64 64" fill="none" xmlns="http://www.w3.org/2000/svg">
<g clip-path="url(#clip0_274_13)">
<path d="M32 64C49.6732 64 64 49.6732 64 32C64 14.3269 49.6732 0 32 0C14.3269 0 0 14.3269 0 32C0 49.6732 14.3269 64 32 64Z" fill="black"/>
<path d="M9 32.4531C9 29.6087 11.2949 27.3052 14.1287 27.3052C16.9624 27.3052 19.2573 25.0017 19.2573 22.1573C19.2573 19.3128 21.5615 17 24.3953 17C27.229 17 29.5239 19.3035 29.5239 22.1479C29.5239 24.9924 27.229 27.2959 24.3953 27.2959C21.5615 27.2959 19.2666 29.5994 19.2666 32.4438C19.2666 35.2882 21.5615 37.5917 24.3953 37.5917C27.229 37.5917 29.5239 39.8952 29.5239 42.7397C29.5239 45.5841 27.229 47.8876 24.3953 47.8876C21.5615 47.8876 19.2666 45.5841 19.2666 42.7397C19.2666 39.8952 16.9717 37.5917 14.138 37.5917C11.3042 37.5917 9 35.2975 9 32.4531Z" fill="white"/>
<path d="M55 32.4531C55 35.2975 52.7051 37.6011 49.8713 37.6011C47.0376 37.6011 44.7427 39.9046 44.7427 42.749C44.7427 45.5934 42.4478 47.8969 39.614 47.8969C36.7802 47.8969 34.4854 45.5934 34.4854 42.749C34.4854 39.9046 36.7802 37.6011 39.614 37.6011C42.4478 37.6011 44.7427 35.2975 44.7427 32.4531C44.7427 29.6087 42.4478 27.3052 39.614 27.3052C36.7802 27.3052 34.4854 25.0017 34.4854 22.1573C34.4854 19.3128 36.771 17 39.6047 17C42.4385 17 44.7334 19.3035 44.7334 22.1479C44.7334 24.9924 47.0283 27.2959 49.862 27.2959C52.7051 27.3052 55 29.6087 55 32.4531Z" fill="white"/>
<path d="M37.0404 32.4531C37.0404 35.2136 34.8105 37.4612 32.0511 37.4612C29.2916 37.4612 27.0618 35.2229 27.0618 32.4531C27.0618 29.6926 29.2916 27.4451 32.0511 27.4451C34.8012 27.4451 37.0404 29.6833 37.0404 32.4531Z" fill="white"/>
</g>
<defs>
<clipPath id="clip0_274_13">
<rect width="64" height="64" fill="white"/>
</clipPath>
</defs>
</svg>
