<svg width="64" height="64" viewBox="0 0 64 64" fill="none" xmlns="http://www.w3.org/2000/svg">
<path d="M32 61.5849C48.3393 61.5849 61.5849 48.3393 61.5849 32C61.5849 15.6607 48.3393 2.4151 32 2.4151C15.6607 2.4151 2.4151 15.6607 2.4151 32C2.4151 48.3393 15.6607 61.5849 32 61.5849Z" stroke="#222326" stroke-width="2.5"/>
<path d="M37.6352 42.6667C37.434 42.4654 37.434 42.0629 37.2327 41.6604C37.2327 41.2579 37.0315 40.8553 37.0315 40.4528C36.6289 40.8553 36.2264 41.0566 35.8239 41.4591C35.4214 41.8616 34.8176 42.0629 34.4151 42.2642C33.8113 42.4654 33.4088 42.6667 32.6038 42.8679C32 43.0692 31.195 43.0692 30.5912 43.0692C29.3837 43.0692 28.3774 42.8679 27.3711 42.4654C26.3648 42.0629 25.5598 41.6604 24.7547 41.0566C23.9497 40.4528 23.5472 39.6478 23.1447 38.8428C22.7422 38.0377 22.5409 37.0314 22.5409 36.0252C22.5409 33.6101 23.5472 31.5975 25.3585 30.3899C27.1698 28.9811 29.9874 28.3774 33.6101 28.3774H37.0315V26.9686C37.0315 25.761 36.6289 24.956 36.0252 24.3522C35.2201 23.7484 34.2138 23.3459 32.805 23.3459C31.5975 23.3459 30.7925 23.5472 30.1887 24.1509C29.5849 24.7547 29.3837 25.3585 29.3837 26.1635H23.3459C23.3459 25.1572 23.5472 24.1509 23.9497 23.3459C24.3522 22.5409 24.956 21.7358 25.9623 20.9308C26.7673 20.327 27.7736 19.7233 28.9811 19.3208C30.1887 18.9182 31.5975 18.717 33.2076 18.717C34.6164 18.717 35.8239 18.9182 37.0315 19.3208C38.239 19.7233 39.2453 20.1258 40.2516 20.9308C41.0566 21.5346 41.8616 22.5409 42.2642 23.5472C42.6667 24.5535 43.0692 25.761 43.0692 27.1698V37.2327C43.0692 38.4403 43.0692 39.4465 43.2705 40.2516C43.4717 41.0566 43.673 41.8616 43.8742 42.2642V42.6667H37.6352ZM31.7988 38.4403C32.4025 38.4403 33.0063 38.4403 33.4088 38.239C34.0126 38.0377 34.4151 37.8365 34.8176 37.6352C35.2201 37.434 35.6227 37.2327 35.8239 36.8302C36.0252 36.6289 36.4277 36.2264 36.6289 36.0252V32H33.6101C32.6038 32 31.7988 32 31.195 32.2013C30.5912 32.4025 29.9874 32.6038 29.5849 33.0063C29.1824 33.4088 28.7799 33.6101 28.5786 34.2138C28.3774 34.6164 28.3774 35.2201 28.3774 35.6226C28.3774 36.4277 28.5786 37.0314 29.1824 37.6352C29.7862 38.239 30.7925 38.4403 31.7988 38.4403Z" fill="#222326"/>
</svg>
