<svg width="64" height="64" viewBox="0 0 64 64" fill="none" xmlns="http://www.w3.org/2000/svg">
<g clip-path="url(#clip0_249_381)">
<path d="M63.8933 29.8667C62.72 12.2667 47.4667 -1.06667 29.76 0.106659C21.0133 0.639992 13.3333 4.79999 7.99999 10.88L7.89332 10.9867C2.55999 17.1733 -0.426675 25.3867 0.106658 34.1333C0.213325 34.9867 0.213325 35.84 0.426658 36.5867V36.6933C0.533325 37.2267 0.639992 37.76 0.746658 38.2933C0.853325 38.8267 0.959992 39.2533 1.06666 39.7867C4.69332 54.5067 18.4533 64.96 34.1333 63.8933C51.84 62.72 65.1733 47.4667 63.8933 29.8667ZM56.96 30.2933C57.0667 32.4267 56.96 34.56 56.5333 36.5867C54.1867 30.9333 49.6 26.7733 45.5467 24.5333C46.4 14.9333 43.0933 10.88 39.36 10.24C36.48 9.70666 33.7067 11.6267 33.1733 14.5067C33.1733 14.6133 33.1733 14.72 33.1733 14.8267C32.7467 17.7067 34.88 20.48 37.76 20.8C37.9733 20.8 38.2933 20.8 38.5067 20.8C38.5067 21.12 38.5067 21.44 38.5067 21.8667C35.0933 21.0133 31.8933 20.8 29.0133 21.12C27.9467 21.2267 26.88 21.3333 25.7067 21.5467C26.0267 18.3467 27.3067 14.6133 29.6533 11.9467C31.8933 9.38666 35.3067 7.89333 39.04 8.31999C39.7867 8.42666 40.5333 8.53333 41.1733 8.74666H41.28C49.92 12.3733 56.32 20.48 56.96 30.2933ZM34.6667 35.2C33.8133 36.3733 32.96 37.44 31.8933 38.4C30.4 36.8 29.0133 34.9867 28.0533 32.96C28.0533 32.8533 27.9467 32.7467 27.9467 32.64C27.3067 31.36 26.88 29.9733 26.56 28.6933C28.8 28.16 31.04 27.9467 33.1733 28.0533H33.4933C34.88 28.16 36.2667 28.3733 37.6533 28.8C36.9067 31.04 35.9467 33.28 34.6667 35.2ZM23.68 8.42666C19.9467 13.3333 18.6667 19.3067 18.6667 23.8933C9.91999 27.9467 8.10666 32.8533 9.38666 36.3733C9.38666 36.48 9.49332 36.5867 9.49332 36.6933C10.6667 39.4667 13.76 40.7467 16.5333 39.5733C19.3067 38.4 20.5867 35.3067 19.4133 32.5333C19.3067 32.32 19.2 32.1067 19.0933 31.8933C19.4133 31.68 19.6267 31.5733 19.9467 31.36C20.9067 34.7733 22.4 37.5467 24 40C24.64 40.8533 25.28 41.8133 26.0267 42.56C23.04 43.84 19.3067 44.5867 15.7867 43.9467C12.3733 43.3067 9.49332 41.0667 7.89332 37.6533C7.57332 37.0133 7.35999 36.2667 7.25332 35.6267C7.14666 34.9867 7.14666 34.3467 7.03999 33.8133C6.29332 22.1867 13.3333 12.0533 23.68 8.42666ZM33.7067 56.96C26.88 57.3867 20.5867 55.1467 15.68 50.9867C21.76 51.84 27.6267 49.92 31.5733 47.5733C39.4667 53.12 44.5867 52.2667 47.04 49.3867C48.96 47.1467 48.7467 43.7333 46.5067 41.8133C46.4 41.7067 46.2933 41.7067 46.2933 41.6C43.9467 39.7867 40.64 40.2133 38.8267 42.56C38.72 42.7733 38.5067 42.9867 38.4 43.2C38.08 43.0933 37.76 42.88 37.44 42.6667C39.68 40.32 41.4933 37.76 42.88 34.7733C43.4133 33.8133 43.84 32.7467 44.16 31.7867C46.8267 33.7067 49.3867 36.5867 50.4533 40C51.52 43.3067 51.0933 46.9333 48.96 49.92C48.5333 50.4533 48 51.0933 47.4667 51.52C43.52 54.8267 38.72 56.64 33.7067 56.96Z" fill="url(#paint0_linear_249_381)"/>
<path opacity="0.9" d="M39.4667 10.24C38.8267 10.1333 38.2933 10.1333 37.6533 10.24C40.7467 11.9467 42.9867 16.5333 41.8133 25.7067C41.3867 28.6933 40.5333 31.5733 39.2533 34.24C38.08 36.6933 36.5867 38.9333 34.88 41.0667C35.7333 41.7067 36.5867 42.24 37.5467 42.7733C39.7867 40.4267 41.6 37.8667 42.9867 34.88C44.2667 32.2133 45.2267 29.3333 45.5467 26.3467C46.8267 15.4667 43.4133 10.9867 39.4667 10.24Z" fill="url(#paint1_radial_249_381)"/>
<path opacity="0.8" d="M41.8133 25.7067C42.9866 16.5333 40.7466 11.9467 37.6533 10.24C37.5466 10.24 37.44 10.24 37.3333 10.3467C40.32 12.0533 42.4533 16.7467 41.28 25.7067C40.8533 28.6933 40 31.5733 38.72 34.24C37.6533 36.5867 36.16 38.8267 34.4533 40.8533C34.56 40.96 34.6666 40.96 34.7733 41.0667C36.5866 39.04 38.08 36.6933 39.1466 34.24C40.5333 31.5733 41.3866 28.6933 41.8133 25.7067Z" fill="white"/>
<path opacity="0.5" d="M30.1867 46.5067C29.8667 46.2933 29.6534 46.08 29.3334 45.8667C24.8534 47.7867 18.56 48.96 12.3734 47.4667C13.3334 48.7467 14.5067 49.92 15.7867 50.9867C21.8667 51.84 27.7334 49.92 31.68 47.5733C31.1467 47.1467 30.6134 46.8267 30.1867 46.5067Z" fill="url(#paint2_radial_249_381)"/>
<path opacity="0.6" d="M29.3334 45.76C29.2267 45.6533 29.0134 45.5467 28.9067 45.44C24.32 47.2533 18.0267 48.32 11.84 46.8267C11.9467 47.04 12.16 47.2533 12.2667 47.4667C18.56 48.8533 24.7467 47.68 29.3334 45.76Z" fill="url(#paint3_linear_249_381)"/>
<path opacity="0.9" d="M9.38667 36.3733C9.38667 36.48 9.49333 36.5867 9.49333 36.6933C9.70667 37.2267 9.92 37.6533 10.24 37.9733C10.1333 34.4533 13.0133 30.1867 21.5467 26.6667C24.32 25.4933 27.3067 24.8533 30.2933 24.64C32.96 24.4267 35.7333 24.5333 38.4 25.0667C38.5067 23.8933 38.6133 22.8267 38.6133 21.8667C35.52 21.12 32.32 20.8 29.12 21.12C26.1333 21.3333 23.1467 21.9733 20.3733 23.1467C10.24 27.4133 8.10667 32.64 9.38667 36.3733Z" fill="url(#paint4_radial_249_381)"/>
<path opacity="0.8" d="M21.6533 26.6667C13.12 30.1867 10.24 34.4533 10.3467 37.9733C10.4533 38.08 10.4533 38.1867 10.56 38.2933C10.56 34.88 13.44 30.6133 21.8667 27.0933C24.64 25.92 27.6267 25.28 30.6133 25.0667C33.1733 24.8533 35.84 24.96 38.4 25.4933C38.4 25.3867 38.4 25.28 38.4 25.1733C35.7333 24.64 33.0667 24.5333 30.2933 24.7467C27.4133 24.8533 24.4267 25.4933 21.6533 26.6667Z" fill="white"/>
<path opacity="0.4" d="M45.44 26.3467C45.44 26.6667 45.3334 27.0933 45.2267 27.4133C49.0667 30.4 53.2267 35.2 55.1467 41.28C55.7867 39.7867 56.2134 38.1867 56.5334 36.5867C54.1867 30.9333 49.6 26.88 45.5467 24.5333C45.5467 25.1733 45.5467 25.7067 45.44 26.3467Z" fill="url(#paint5_radial_249_381)"/>
<path opacity="0.5" d="M45.2267 27.4133C45.2267 27.6267 45.12 27.7333 45.12 27.9467C48.96 30.9333 53.0133 35.84 54.8267 42.0267C54.9333 41.8133 55.04 41.6 55.1467 41.28C53.3333 35.2 49.1733 30.4 45.2267 27.4133Z" fill="url(#paint6_linear_249_381)"/>
<path opacity="0.9" d="M47.04 49.3867C47.4667 48.96 47.7867 48.4267 48 47.7867C45.0133 49.6 39.8933 49.1733 32.5333 43.6267C30.1867 41.8133 28.0533 39.5733 26.4533 37.12C24.8533 34.88 23.68 32.4267 22.8267 29.8667C21.76 30.2933 20.8 30.8267 19.9467 31.2533C20.8 34.3467 22.1867 37.2267 24.1067 39.8933C25.7067 42.3467 27.84 44.5867 30.1867 46.4C38.9333 53.12 44.48 52.3733 47.04 49.3867Z" fill="url(#paint7_radial_249_381)"/>
<path opacity="0.8" d="M32.5333 43.6267C39.8933 49.1733 45.0133 49.6 48 47.7867C48 47.68 48.1067 47.5733 48.1067 47.4667C45.12 49.1733 40 48.7467 32.7467 43.2C30.4 41.3867 28.2667 39.1467 26.6667 36.6933C25.1733 34.56 24 32.2133 23.1467 29.76C23.04 29.76 22.9333 29.8667 22.8267 29.8667C23.68 32.4267 24.96 34.88 26.4533 37.12C28.0533 39.5733 30.08 41.8133 32.5333 43.6267Z" fill="white"/>
<path opacity="0.3" d="M20.3733 23.1467C20.6933 23.04 21.0133 22.9333 21.3333 22.72C21.9733 17.92 24.1067 11.84 28.3733 7.14667C26.7733 7.36 25.1733 7.78667 23.5733 8.32C19.84 13.12 18.56 19.2 18.6667 23.7867C19.3067 23.68 19.84 23.36 20.3733 23.1467Z" fill="url(#paint8_radial_249_381)"/>
<path opacity="0.4" d="M21.44 22.8267C21.6533 22.72 21.76 22.72 21.9733 22.6133C22.72 17.7067 24.8533 11.7333 29.3333 7.14667C29.12 7.14667 28.8 7.25333 28.5867 7.25333C24.1067 11.9467 21.9733 17.92 21.44 22.8267Z" fill="url(#paint9_linear_249_381)"/>
<path opacity="0.4" d="M29.8666 0.106676C21.0133 0.64001 13.3333 4.80001 7.99998 10.88L7.89331 10.9867C8.95998 12.0533 12.3733 14.08 13.76 14.9333C16.5333 11.9467 19.9466 9.70668 23.7866 8.32001C24.1066 8.00001 24.32 7.57334 24.64 7.25334C28.2666 3.20001 33.1733 1.06668 38.9333 1.06668C39.5733 1.06668 40.8533 1.17334 40.8533 1.17334C37.2266 0.213343 33.4933 -0.213324 29.8666 0.106676Z" fill="url(#paint10_linear_249_381)"/>
<path opacity="0.4" d="M33.7067 56.96C26.88 57.3867 20.5867 55.1467 15.68 50.9867C15.2533 50.88 14.8267 50.88 14.2933 50.7733C8.96 49.7067 4.58667 46.5067 1.70667 41.4934C1.38667 40.96 1.06667 40.4267 0.853333 39.7867C4.69333 54.5067 18.4533 64.96 34.1333 63.8934C34.24 62.2934 33.8133 58.56 33.7067 56.96Z" fill="url(#paint11_linear_249_381)"/>
<path opacity="0.4" d="M63.8933 29.8667C62.9333 29.76 58.1333 30.1867 56.96 30.2933C57.0666 32.4267 56.96 34.56 56.5333 36.5867C56.7466 37.0133 56.8533 37.44 56.96 37.8667C58.6666 42.9867 58.1333 48.4267 55.2533 53.3333C54.9333 53.8667 54.6133 54.4 54.1866 54.9333C60.8 48.64 64.5333 39.5733 63.8933 29.8667Z" fill="url(#paint12_linear_249_381)"/>
<path opacity="0.5" d="M39.1467 8.32C39.8934 8.42667 40.64 8.53334 41.28 8.74667H41.3867C44.16 9.92 46.6134 11.4133 48.8534 13.44C49.92 12.2667 51.9467 10.88 51.9467 10.88C51.9467 10.88 48.8534 7.68 44.16 6.72C40.8534 6.08 33.3867 5.33334 28.6934 13.44C29.0134 12.9067 29.44 12.3733 29.8667 11.9467C32.1067 9.38667 35.52 7.89334 39.1467 8.32Z" fill="url(#paint13_linear_249_381)"/>
<path opacity="0.5" d="M48.96 50.0267C48.5333 50.56 48 51.2 47.4666 51.6267C47.4666 51.6267 47.4666 51.6267 47.36 51.7333C45.0133 53.5467 42.3466 54.9333 39.5733 55.7867C40.1066 57.28 40.2133 59.7333 40.2133 59.7333C40.2133 59.7333 44.48 58.6667 47.68 55.04C49.92 52.48 54.2933 46.4 49.7066 38.2933C49.7066 38.2933 49.7066 38.2933 49.7066 38.4C50.0266 38.9333 50.24 39.5733 50.4533 40.1067C51.52 43.3067 51.0933 47.04 48.96 50.0267Z" fill="url(#paint14_linear_249_381)"/>
<path opacity="0.5" d="M7.89332 37.6533C7.57332 37.0133 7.35998 36.2667 7.25332 35.6267V35.52C6.82665 32.5333 6.93332 29.5467 7.57332 26.6667C5.97332 26.3467 3.83998 25.28 3.83998 25.28C3.83998 25.28 2.66665 29.5467 4.15998 34.1333C5.22665 37.3333 8.42665 44.16 17.7066 44.2667C17.7066 44.2667 17.7066 44.2667 17.6 44.2667C16.96 44.2667 16.32 44.16 15.68 44.0533C12.3733 43.2 9.38665 41.0667 7.89332 37.6533Z" fill="url(#paint15_linear_249_381)"/>
<path opacity="0.6" d="M37.8667 20.8C38.08 20.8 38.4 20.8 38.6133 20.8C38.6133 20.8 38.4 17.4933 38.08 15.7867C37.6533 14.08 37.0133 12.9067 36.3733 12.2667C35.9467 11.84 34.4533 11.2 33.28 14.72C32.8533 17.7067 34.88 20.48 37.8667 20.8Z" fill="url(#paint16_linear_249_381)"/>
<path opacity="0.5" d="M19.4133 32.5333C19.3067 32.32 19.2 32.1067 19.0933 31.8933C19.0933 31.8933 16.32 33.7067 15.04 34.88C13.76 36.0533 13.12 37.2267 12.9067 38.08C12.8 38.72 13.0133 40.32 16.64 39.5733C19.3067 38.4 20.5867 35.3067 19.4133 32.5333Z" fill="url(#paint17_linear_249_381)"/>
<path opacity="0.6" d="M38.72 42.6667C38.6133 42.88 38.4 43.0933 38.2933 43.3067C38.2933 43.3067 41.28 44.8 42.9867 45.3333C44.6933 45.8667 45.9733 45.8667 46.8267 45.6533C47.4667 45.44 48.7467 44.48 46.2933 41.7067C43.9467 39.7867 40.5333 40.32 38.72 42.6667Z" fill="url(#paint18_linear_249_381)"/>
<path opacity="0.3" d="M37.6533 28.8C37.0133 31.04 36.0533 33.0667 34.88 34.88C34.7733 34.9867 34.7733 35.0933 34.6666 35.2C33.8133 36.3733 32.96 37.44 31.8933 38.4C32.64 39.1467 33.3866 39.8933 34.24 40.64C35.2 41.3867 36.2666 42.1333 37.3333 42.7733C39.5733 40.4267 41.3866 37.8667 42.7733 34.88C43.3066 33.92 43.6266 32.8533 44.0533 31.8933C42.88 31.04 41.8133 30.4 40.7466 29.9733C39.7866 29.5467 38.72 29.12 37.6533 28.8Z" fill="url(#paint19_linear_249_381)"/>
<path opacity="0.3" d="M15.68 50.9867C21.76 51.84 27.6267 49.92 31.5733 47.5733C31.04 47.2533 30.6133 46.9333 30.08 46.5067C28.5867 45.3333 27.2 44.0533 25.92 42.56C22.9333 43.84 19.2 44.5867 15.68 43.9467C12.2667 43.3067 9.38667 41.0667 7.78667 37.6533C7.46667 37.0133 7.25333 36.2667 7.14667 35.6267C8.10667 41.7067 11.2 47.1467 15.68 50.9867Z" fill="url(#paint20_linear_249_381)"/>
<path opacity="0.3" d="M31.8933 38.4C30.4 36.8 29.0133 34.9867 28.0533 32.96C28.0533 32.8533 27.9467 32.7467 27.9467 32.64C27.3067 31.36 26.88 29.9733 26.56 28.6933C25.4933 28.9067 24.4267 29.2267 23.4667 29.6533C22.2933 30.08 21.12 30.72 20.0533 31.2533C21.0133 34.6667 22.5067 37.44 24.1067 39.8933C24.7467 40.7467 25.3867 41.7067 26.1333 42.4533C27.4133 41.92 28.5867 41.28 29.44 40.5333C30.2933 40 31.1467 39.2533 31.8933 38.4Z" fill="url(#paint21_linear_249_381)"/>
<path opacity="0.3" d="M23.68 8.42667C19.9466 13.2267 18.6666 19.3067 18.7733 23.8933C19.3066 23.68 19.84 23.36 20.3733 23.1467C22.08 22.4 24 21.8667 25.8133 21.5467C26.1333 18.3467 27.4133 14.6133 29.76 11.9467C32 9.38667 35.4133 7.89334 39.1466 8.32001C39.8933 8.42667 40.64 8.53334 41.28 8.74667H41.3866C37.8666 7.36 34.0266 6.72 30.2933 6.93334C27.9466 7.14667 25.8133 7.68001 23.68 8.42667Z" fill="url(#paint22_linear_249_381)"/>
<path opacity="0.3" d="M56.5333 36.5867C54.2933 30.9333 49.7066 26.88 45.6533 24.5333C45.6533 25.0667 45.5466 25.7067 45.44 26.3467C45.2266 28.2667 44.8 30.08 44.16 31.8933C46.8266 33.8133 49.3866 36.6933 50.4533 40.1067C51.52 43.4133 51.0933 47.04 48.96 50.0267C48.5333 50.56 48 51.2 47.4666 51.6267C52.16 48 55.4666 42.6667 56.5333 36.5867Z" fill="url(#paint23_linear_249_381)"/>
<path opacity="0.3" d="M25.8133 25.3867C25.92 26.4533 26.1333 27.6267 26.4533 28.6933C28.6933 28.16 30.9333 27.9467 33.0667 28.0533H33.3867C34.7733 28.16 36.16 28.3733 37.5467 28.8C37.8667 27.7333 38.08 26.6667 38.2933 25.6C38.5067 24.2133 38.5067 22.9333 38.5067 21.8667C35.0933 21.0133 31.8933 20.8 29.0133 21.12C27.9467 21.2267 26.88 21.3333 25.7067 21.5467C25.7067 22.9333 25.7067 24.2133 25.8133 25.3867Z" fill="url(#paint24_linear_249_381)"/>
</g>
<defs>
<linearGradient id="paint0_linear_249_381" x1="10.1611" y1="53.8378" x2="50.96" y2="13.0335" gradientUnits="userSpaceOnUse">
<stop stop-color="#E6007A"/>
<stop offset="0.21" stop-color="#703AC2"/>
<stop offset="0.46" stop-color="#0070EB"/>
<stop offset="0.77" stop-color="#0297FB"/>
<stop offset="1" stop-color="#0AE2FF"/>
</linearGradient>
<radialGradient id="paint1_radial_249_381" cx="0" cy="0" r="1" gradientUnits="userSpaceOnUse" gradientTransform="translate(41.1202 25.5201) scale(12.1685)">
<stop stop-color="white"/>
<stop offset="1" stop-color="white" stop-opacity="0"/>
</radialGradient>
<radialGradient id="paint2_radial_249_381" cx="0" cy="0" r="1" gradientUnits="userSpaceOnUse" gradientTransform="translate(23.1324 48.0902) scale(7.08096 7.08096)">
<stop stop-color="white"/>
<stop offset="1" stop-color="white" stop-opacity="0"/>
</radialGradient>
<linearGradient id="paint3_linear_249_381" x1="12.5113" y1="46.8952" x2="19.3358" y2="46.8013" gradientUnits="userSpaceOnUse">
<stop stop-color="white" stop-opacity="0"/>
<stop offset="1" stop-color="white"/>
</linearGradient>
<radialGradient id="paint4_radial_249_381" cx="0" cy="0" r="1" gradientUnits="userSpaceOnUse" gradientTransform="translate(21.8369 27.3324) rotate(-120) scale(12.1685 12.1685)">
<stop stop-color="white"/>
<stop offset="1" stop-color="white" stop-opacity="0"/>
</radialGradient>
<radialGradient id="paint5_radial_249_381" cx="0" cy="0" r="1" gradientUnits="userSpaceOnUse" gradientTransform="translate(50.3767 31.6289) rotate(-120) scale(7.08094)">
<stop stop-color="white"/>
<stop offset="1" stop-color="white" stop-opacity="0"/>
</radialGradient>
<linearGradient id="paint6_linear_249_381" x1="54.6373" y1="41.4251" x2="51.144" y2="35.5627" gradientUnits="userSpaceOnUse">
<stop stop-color="white" stop-opacity="0"/>
<stop offset="1" stop-color="white"/>
</linearGradient>
<radialGradient id="paint7_radial_249_381" cx="0" cy="0" r="1" gradientUnits="userSpaceOnUse" gradientTransform="translate(32.4619 42.5762) rotate(120) scale(12.1685)">
<stop stop-color="white"/>
<stop offset="1" stop-color="white" stop-opacity="0"/>
</radialGradient>
<radialGradient id="paint8_radial_249_381" cx="0" cy="0" r="1" gradientUnits="userSpaceOnUse" gradientTransform="translate(22.4872 16.2851) rotate(120) scale(7.08094)">
<stop stop-color="white"/>
<stop offset="1" stop-color="white" stop-opacity="0"/>
</radialGradient>
<linearGradient id="paint9_linear_249_381" x1="28.8273" y1="7.66976" x2="25.5004" y2="13.6292" gradientUnits="userSpaceOnUse">
<stop stop-color="white" stop-opacity="0"/>
<stop offset="1" stop-color="white"/>
</linearGradient>
<linearGradient id="paint10_linear_249_381" x1="30.3218" y1="4.64598" x2="19.8941" y2="7.67958" gradientUnits="userSpaceOnUse">
<stop stop-color="#231F20"/>
<stop offset="1" stop-color="white"/>
</linearGradient>
<linearGradient id="paint11_linear_249_381" x1="10.6204" y1="44.405" x2="19.3393" y2="53.5058" gradientUnits="userSpaceOnUse">
<stop stop-color="#231F20"/>
<stop offset="1" stop-color="white"/>
</linearGradient>
<linearGradient id="paint12_linear_249_381" x1="57.4129" y1="43.0335" x2="60.4465" y2="33.8111" gradientUnits="userSpaceOnUse">
<stop stop-color="#231F20"/>
<stop offset="1" stop-color="white"/>
</linearGradient>
<linearGradient id="paint13_linear_249_381" x1="35.0696" y1="9.9215" x2="49.0461" y2="13.1204" gradientUnits="userSpaceOnUse">
<stop stop-color="#231F20"/>
<stop offset="1" stop-color="white"/>
</linearGradient>
<linearGradient id="paint14_linear_249_381" x1="49.5848" y1="45.6967" x2="39.8195" y2="56.2034" gradientUnits="userSpaceOnUse">
<stop stop-color="#231F20"/>
<stop offset="1" stop-color="white"/>
</linearGradient>
<linearGradient id="paint15_linear_249_381" x1="11.3408" y1="40.3867" x2="7.12745" y2="26.6811" gradientUnits="userSpaceOnUse">
<stop stop-color="#231F20"/>
<stop offset="1" stop-color="white"/>
</linearGradient>
<linearGradient id="paint16_linear_249_381" x1="38.1233" y1="15.0747" x2="33.7041" y2="19.5003" gradientUnits="userSpaceOnUse">
<stop stop-color="#231F20"/>
<stop offset="1" stop-color="white"/>
</linearGradient>
<linearGradient id="paint17_linear_249_381" x1="14.2802" y1="35.1553" x2="20.3197" y2="36.7777" gradientUnits="userSpaceOnUse">
<stop stop-color="#231F20"/>
<stop offset="1" stop-color="white"/>
</linearGradient>
<linearGradient id="paint18_linear_249_381" x1="43.5863" y1="45.7642" x2="41.9682" y2="39.7268" gradientUnits="userSpaceOnUse">
<stop stop-color="#231F20"/>
<stop offset="1" stop-color="white"/>
</linearGradient>
<linearGradient id="paint19_linear_249_381" x1="34.3871" y1="40.3904" x2="37.0431" y2="36.7275" gradientUnits="userSpaceOnUse">
<stop stop-color="#231F20"/>
<stop offset="1" stop-color="white"/>
</linearGradient>
<linearGradient id="paint20_linear_249_381" x1="25.2557" y1="38.8041" x2="19.949" y2="41.3342" gradientUnits="userSpaceOnUse">
<stop stop-color="#231F20"/>
<stop offset="1" stop-color="white"/>
</linearGradient>
<linearGradient id="paint21_linear_249_381" x1="23.3344" y1="29.9695" x2="24.9771" y2="33.3818" gradientUnits="userSpaceOnUse">
<stop stop-color="#231F20"/>
<stop offset="1" stop-color="white"/>
</linearGradient>
<linearGradient id="paint22_linear_249_381" x1="30.9649" y1="19.437" x2="29.831" y2="15.5213" gradientUnits="userSpaceOnUse">
<stop stop-color="#231F20"/>
<stop offset="1" stop-color="white"/>
</linearGradient>
<linearGradient id="paint23_linear_249_381" x1="43.2253" y1="37.3686" x2="46.5106" y2="38.1249" gradientUnits="userSpaceOnUse">
<stop stop-color="#231F20"/>
<stop offset="1" stop-color="white"/>
</linearGradient>
<linearGradient id="paint24_linear_249_381" x1="38.071" y1="26.2691" x2="33.9036" y2="25.5129" gradientUnits="userSpaceOnUse">
<stop stop-color="#231F20"/>
<stop offset="1" stop-color="white"/>
</linearGradient>
<clipPath id="clip0_249_381">
<rect width="64" height="64" fill="white"/>
</clipPath>
</defs>
</svg>
