<svg width="64" height="64" viewBox="0 0 64 64" fill="none" xmlns="http://www.w3.org/2000/svg">
<path d="M54 12H8V59H54V12Z" fill="white"/>
<path d="M30.8649 59C37.0007 59 42.8852 56.5241 47.2239 52.117C51.5626 47.7099 54 41.7326 54 35.5C54 29.2674 51.5626 23.2901 47.2239 18.883C42.8852 14.4759 37.0007 12 30.8649 12C24.7763 12.0722 18.9612 14.5797 14.6809 18.9787C10.4005 23.3777 8 29.3133 8 35.4984C8 41.6834 10.4005 47.6191 14.6809 52.0181C18.9612 56.417 24.7763 58.9278 30.8649 59Z" fill="#C4C4C4"/>
<path d="M59.8505 45.7094C59.0078 45.7959 52.0024 56.7338 40.4779 57.8815C29.5066 58.9714 25.7402 52.4253 20.2658 43.1929C17.0301 37.7367 11.4206 37.7367 3 42.353L12.2633 19.6886L31.6359 5C34.5822 11.1518 62.2692 45.4657 59.8505 45.7094Z" fill="#7E1BC6"/>
<path d="M40.3968 6C43.3699 12.2156 63.2335 44.7505 60.7927 44.9933C52.857 45.7832 48.894 55.0807 37.9334 53.8958C28.6409 52.8923 25.022 42.0473 19.9977 33.5494C16.7358 28.0395 10.2282 29.3118 3 30.16L15.3239 16.1748L40.3968 6Z" fill="#4912B2"/>
<path d="M56.7775 40.2568C52.1768 40.7199 49.6655 49.0992 41.3011 49.9416C29.7705 51.1024 27.0612 34.6492 22.0579 28.0512C19.0961 24.1413 14.9459 20.8937 7 20.8937L17.0354 12.4726L38.7867 7C41.7133 13.1736 59.1769 40.0125 56.7775 40.2568Z" fill="#7919C4"/>
<path d="M30.2354 32.977C26.8844 23.5576 20.1856 16.7056 16 13.7097L45.3054 9C48.2376 15.2763 61.1045 36.156 58.7031 36.4046C54.5143 36.8298 49.2576 47.3056 42.7922 47.9663C38.2964 48.4274 34.2292 44.1985 30.2354 32.977Z" fill="#BC28D9"/>
<path d="M34.9873 31.0364C32.6573 22.0194 27.9116 14.3383 25 11L50.8009 11.4145C53.7157 17.5364 59.8473 31.6294 57.4602 31.8718C51.4589 32.4744 47.6318 43.5416 43.7285 43.9784C41.3795 44.2367 37.8989 42.3077 34.9873 31.0364Z" fill="#D300D2"/>
<path d="M20.7718 39.1878C20.1729 39.1878 19.8031 38.5632 20.1107 38.0687L29.1962 23.3643C29.2669 23.2527 29.365 23.1608 29.4812 23.0971C29.5973 23.0334 29.7279 23 29.8605 23C29.9932 23 30.1237 23.0334 30.2399 23.0971C30.3561 23.1608 30.4542 23.2527 30.5249 23.3643L43.8945 44.8842C44.1923 45.3786 43.8258 46 43.217 46H24.4833C23.881 46 23.5047 45.3721 23.8123 44.8776L26.1459 41.2471C26.2168 41.1376 26.3141 41.0476 26.429 40.9851C26.5439 40.9226 26.6727 40.8896 26.8037 40.8892H33.1465C33.2808 40.8923 33.4135 40.8592 33.5305 40.7935C33.6475 40.7277 33.7445 40.6319 33.8112 40.5159C33.8779 40.3999 33.9119 40.2682 33.9095 40.1347C33.9071 40.0011 33.8685 39.8707 33.7978 39.7571L30.4987 34.4219C30.4316 34.3121 30.3372 34.2214 30.2245 34.1585C30.1119 34.0956 29.9848 34.0625 29.8556 34.0625C29.7264 34.0625 29.5994 34.0956 29.4867 34.1585C29.3741 34.2214 29.2797 34.3121 29.2125 34.4219L26.4961 38.8527C26.4222 38.9584 26.3232 39.0443 26.2078 39.1028C26.0925 39.1612 25.9644 39.1904 25.8349 39.1878H20.7718Z" fill="white"/>
</svg>
