<svg width="64" height="64" viewBox="0 0 64 64" fill="none" xmlns="http://www.w3.org/2000/svg">
<g clip-path="url(#clip0_165_18)">
<path d="M51.7366 10.9787H12.2209V46.8936H51.7366V10.9787Z" fill="white"/>
<path fill-rule="evenodd" clip-rule="evenodd" d="M63.9787 32C63.9787 49.6498 49.6615 63.9574 32 63.9574C14.3386 63.9574 0.0212402 49.6498 0.0212402 32C0.0212402 14.3504 14.3386 0.0425568 32 0.0425568C49.6615 0.0425568 63.9787 14.3504 63.9787 32ZM22.9381 44.7174H16.7319C15.4278 44.7174 14.7837 44.7174 14.3909 44.4664C13.9666 44.1915 13.7074 43.7362 13.676 43.2336C13.6524 42.7706 13.9745 42.2052 14.6187 41.0747L29.9425 14.0823C30.5945 12.9361 30.9245 12.363 31.3408 12.1511C31.7886 11.9234 32.3228 11.9234 32.7706 12.1511C33.187 12.363 33.517 12.9361 34.169 14.0823L37.3192 19.5778L37.3353 19.6059C38.0395 20.8355 38.3967 21.4591 38.5526 22.1136C38.7254 22.828 38.7254 23.5817 38.5526 24.2961C38.3955 24.9555 38.042 25.5836 37.3271 26.8319L29.2778 41.0512L29.257 41.0876C28.5481 42.3274 28.1889 42.9557 27.691 43.4298C27.1489 43.9481 26.4968 44.3247 25.7819 44.537C25.1299 44.7174 24.3993 44.7174 22.9381 44.7174ZM38.6107 44.7174H47.5035C48.8154 44.7174 49.4754 44.7175 49.8684 44.4587C50.2925 44.1838 50.5595 43.7204 50.5834 43.2183C50.6059 42.7702 50.2908 42.2268 49.6734 41.162C49.6521 41.1257 49.6308 41.0889 49.6091 41.0513L45.1547 33.4362L45.104 33.3504C44.478 32.2926 44.1621 31.7585 43.7563 31.552C43.3087 31.3243 42.782 31.3243 42.3344 31.552C41.9259 31.764 41.596 32.3214 40.9439 33.444L36.5053 41.0592L36.4901 41.0854C35.8404 42.2063 35.5157 42.7664 35.5391 43.226C35.5705 43.7285 35.8297 44.1915 36.2539 44.4664C36.6389 44.7174 37.2988 44.7174 38.6107 44.7174Z" fill="#E84142"/>
</g>
<defs>
<clipPath id="clip0_165_18">
<rect width="64" height="64" fill="white"/>
</clipPath>
</defs>
</svg>
