<svg width="64" height="64" viewBox="0 0 64 64" fill="none" xmlns="http://www.w3.org/2000/svg">
<g clip-path="url(#clip0_218_171)">
<path fill-rule="evenodd" clip-rule="evenodd" d="M32 0C49.6704 0 64 14.3296 64 32C64 49.6704 49.6704 64 32 64C14.3296 64 0 49.6704 0 32C0 14.3296 14.3296 0 32 0Z" fill="#0055D5"/>
<path fill-rule="evenodd" clip-rule="evenodd" d="M17.408 21.1712C17.408 21.1712 13.9648 18.4192 13.728 25.216C13.4912 30.4832 13.4976 40.7104 15.936 45.5424C16.9664 47.36 18.3424 46.8032 20.9024 44.992C23.1296 43.3472 31.1872 35.9232 34.5984 32.6656C38.0096 29.408 44.928 20.064 46.368 26.4128C46.9376 29.0816 47.6416 31.3472 47.104 37.2672C46.9376 39.0912 46.1568 40.4736 42.5984 38.0032C39.9104 36.2752 37.3568 34.4192 37.3568 34.4192C37.3568 34.4192 36.864 33.536 35.6992 34.9696C34.784 36.1152 34.3232 36.3968 35.7888 37.2672C37.2608 38.1376 44.704 43.2704 47.5584 44.0704C49.9136 44.7552 51.2576 44.7424 51.328 40.1152C51.3152 36.4416 51.104 25.9264 49.7664 21.4464C48.7552 18.656 47.2704 17.3888 44.064 20.5248C40.8576 23.6608 30.7456 33.4656 25.216 37.9072C21.5488 40.6592 19.9808 43.1424 18.5984 38.5536C17.6256 35.0784 16.3648 24.2624 20.3456 26.3232C22.8352 27.5136 24.0768 27.5072 23.104 28.256C22.1312 28.9984 19.3344 31.5648 19.3344 31.5648C19.3344 31.5648 18.4704 32.2624 18.8736 33.7728C19.2768 34.8288 19.2768 35.3536 21.4464 33.312C23.616 31.2704 25.216 29.728 25.216 29.728C25.216 29.728 25.5616 29.184 26.592 30.1888C27.6224 31.1936 27.7888 31.4752 27.7888 31.4752C27.7888 31.4752 28.064 32.224 29.1648 30.9248C30.272 29.6256 30.9824 28.832 28.8896 27.616C26.8032 26.3872 17.408 21.1712 17.408 21.1712Z" fill="white"/>
</g>
<defs>
<clipPath id="clip0_218_171">
<rect width="64" height="64" fill="white"/>
</clipPath>
</defs>
</svg>
