<svg width="64" height="64" viewBox="0 0 64 64" fill="none" xmlns="http://www.w3.org/2000/svg">
<g clip-path="url(#clip0_251_438)">
<path fill-rule="evenodd" clip-rule="evenodd" d="M32 0C49.6704 0 64 14.3296 64 32C64 49.6704 49.6704 64 32 64C14.3296 64 0 49.6704 0 32C0 14.3296 14.3296 0 32 0Z" fill="#1E1E1E"/>
<path d="M32.48 45.376C22.2464 45.376 13.952 42.4192 13.952 38.4576C13.952 36.3904 16.2112 34.528 19.8272 33.216C22.6496 35.0272 27.3856 35.9552 32.7552 35.9552C37.9968 35.9552 42.6304 34.8224 45.4784 33.088C48.8896 34.3872 51.008 36.1984 51.008 38.1952C51.008 42.1632 42.7136 45.376 32.48 45.376Z" fill="white"/>
<path d="M32.5888 35.0656C24.832 35.0656 18.5408 32.6336 18.5408 29.632C18.5408 27.968 20.48 26.4768 23.52 25.4848C25.6896 26.6176 28.9408 27.3408 32.5888 27.3408C36.2368 27.3408 39.488 26.6176 41.6576 25.4848C44.704 26.4832 46.6368 27.968 46.6368 29.632C46.6432 32.6336 40.352 35.0656 32.5888 35.0656Z" fill="white"/>
<path d="M32.5376 26.4384C26.5408 26.4384 21.6768 24.4288 21.6768 21.9584C21.6768 19.488 26.5408 17.4784 32.5376 17.4784C38.5344 17.4784 43.3984 19.488 43.3984 21.9584C43.3984 24.4288 38.5344 26.4384 32.5376 26.4384Z" fill="white"/>
</g>
<defs>
<clipPath id="clip0_251_438">
<rect width="64" height="64" fill="white"/>
</clipPath>
</defs>
</svg>
