<svg width="64" height="64" viewBox="0 0 64 64" fill="none" xmlns="http://www.w3.org/2000/svg">
<g clip-path="url(#clip0_324_509)">
<path d="M32 64C49.6731 64 64 49.6731 64 32C64 14.3269 49.6731 0 32 0C14.3269 0 0 14.3269 0 32C0 49.6731 14.3269 64 32 64Z" fill="#000D2B"/>
<path d="M31.8399 11.76L22.8039 17.054L31.8399 22.35L41.0459 17.054L31.8399 11.76ZM33.3259 40.028V50.618L45.5999 43.616V33.024L33.3259 40.028ZM42.5319 20.384V30.976L33.3239 36.272V25.68L42.5319 20.384ZM20.3679 30.976L29.5759 36.272V25.68L20.3679 20.384V30.976ZM20.3679 45.324L29.5759 50.618V40.028L20.3679 34.734V45.322V45.324Z" fill="white"/>
</g>
<defs>
<clipPath id="clip0_324_509">
<rect width="64" height="64" fill="white"/>
</clipPath>
</defs>
</svg>
