<svg width="64" height="64" viewBox="0 0 64 64" fill="none" xmlns="http://www.w3.org/2000/svg">
<g clip-path="url(#clip0_249_415)">
<path d="M32 64C49.6731 64 64 49.6731 64 32C64 14.3269 49.6731 0 32 0C14.3269 0 0 14.3269 0 32C0 49.6731 14.3269 64 32 64Z" fill="#8F8FFF"/>
<path d="M47.2508 21.4C46.7452 21.0278 46.184 20.7389 45.5672 20.5278C45.034 20.3445 44.4672 20.2279 43.8672 20.1667C43.806 19.5667 43.684 19 43.506 18.4723C43.2952 17.8612 43.0064 17.2945 42.6396 16.7889C42.4564 16.5389 42.256 16.2945 42.034 16.0723C40.7784 14.8223 39.0396 14.2223 37.0118 14.2223C32.6451 14.2223 26.9674 17.0056 22.0007 21.9667C18.6729 25.2945 16.184 29.1001 14.9896 32.6779C13.6674 36.6445 14.0618 39.9556 16.1062 42C16.3174 42.2112 16.5451 42.3944 16.784 42.5724C17.2896 42.9444 17.8507 43.2444 18.4674 43.4556C18.9951 43.6388 19.5674 43.7612 20.1729 43.828C20.234 44.428 20.3618 44.9944 20.5451 45.528C20.7562 46.1388 21.0507 46.7 21.4229 47.2056C21.6007 47.4444 21.7951 47.678 22.0062 47.8944C23.2562 49.1444 24.984 49.778 27.0451 49.778C28.3507 49.778 29.7896 49.5224 31.3285 49.0112C34.9062 47.8168 38.7118 45.328 42.0396 42C49.306 34.7334 51.8952 25.9334 47.934 21.9667C47.7228 21.7556 47.4952 21.5723 47.2616 21.4H47.2508ZM39.6784 39.6445C36.7118 42.6112 33.3674 44.8168 30.2729 45.85C29.084 46.2444 27.9951 46.4444 27.0562 46.4444C26.7451 46.4444 26.4507 46.4168 26.1729 46.3724C25.4174 46.2556 24.8007 45.978 24.3562 45.5332C24.2562 45.4332 24.1729 45.3168 24.0951 45.2C23.7951 44.778 23.6007 44.2444 23.5174 43.6224C23.384 42.6444 23.5118 41.4444 23.9118 40.0944C23.9562 39.9389 23.9951 39.7834 24.0507 39.6223C24.2229 39.1112 24.434 38.5889 24.6674 38.0667C25.034 37.25 25.4729 36.4223 25.9785 35.5945C27.1007 33.7556 28.5451 31.9223 30.2562 30.2112C32.0451 28.4223 33.8785 27.0001 35.6451 25.9167C36.1396 25.0223 36.5507 24.1389 36.834 23.2834C37.1118 22.4556 37.2174 21.8223 37.2451 21.3778C34.1674 22.65 30.9007 24.8501 27.9007 27.8556C24.9896 30.7612 22.7229 34.0389 21.4007 37.2056C21.2118 37.6612 21.0396 38.1167 20.8896 38.5667C20.8562 38.6667 20.8285 38.7612 20.8007 38.8612C20.6229 39.4167 20.484 39.9667 20.3785 40.4944C19.7507 40.4056 19.2229 40.2 18.8007 39.8945C18.6896 39.8112 18.5729 39.7389 18.4729 39.6445C18.0285 39.2 17.7562 38.5723 17.6396 37.8167C17.4674 36.7112 17.634 35.3167 18.1618 33.7334C19.1951 30.6334 21.4007 27.2945 24.3674 24.3278C28.934 19.7612 33.8174 17.5334 36.984 17.5334C37.3118 17.5334 37.6174 17.5612 37.9062 17.6112C38.6451 17.7334 39.2562 18.0056 39.684 18.4389C39.784 18.5389 39.8729 18.6612 39.9563 18.7834C40.2561 19.2112 40.4452 19.7445 40.5284 20.3723C40.656 21.3445 40.5284 22.5334 40.134 23.8667C40.084 24.0279 40.0452 24.1834 39.9896 24.35C39.8174 24.8612 39.6062 25.3778 39.3729 25.9C39.0062 26.7223 38.5674 27.5445 38.0618 28.3723C36.9396 30.2112 35.4951 32.0445 33.784 33.7556C32.0729 35.4667 30.2396 36.9112 28.4007 38.0334C27.9007 38.9334 27.4896 39.8223 27.2062 40.6832C26.9285 41.5224 26.8229 42.1612 26.7951 42.6112C29.9618 41.2888 33.234 39.0223 36.1451 36.1112C39.0507 33.2056 41.3172 29.9334 42.6396 26.7667C42.8284 26.3112 43.0008 25.85 43.156 25.4C43.1896 25.3 43.2172 25.2056 43.2452 25.1112C43.4228 24.5501 43.5616 24.0056 43.6672 23.4778C44.2952 23.5667 44.8228 23.7723 45.2452 24.0778C45.356 24.1612 45.4728 24.2334 45.5728 24.3278C46.0116 24.7667 46.2896 25.3945 46.406 26.1612C46.884 29.2501 44.6952 34.6389 39.6784 39.65V39.6445Z" fill="white"/>
</g>
<defs>
<clipPath id="clip0_249_415">
<rect width="64" height="64" fill="white"/>
</clipPath>
</defs>
</svg>
