<svg width="64" height="64" viewBox="0 0 64 64" fill="none" xmlns="http://www.w3.org/2000/svg">
<g clip-path="url(#clip0_146_1263)">
<path d="M32 64C49.6731 64 64 49.6731 64 32C64 14.3269 49.6731 0 32 0C14.3269 0 0 14.3269 0 32C0 49.6731 14.3269 64 32 64Z" fill="#0AC18E"/>
<path d="M41.9817 21.2548C40.3736 17.6081 36.6782 16.8284 32.1543 17.5838L30.7005 11.9472L27.2731 12.8325L28.7025 18.4528C27.801 18.6802 26.8751 18.8751 25.9574 19.135L24.5279 13.5472L21.1005 14.4325L22.5543 20.069C21.8152 20.2802 15.6345 21.864 15.6345 21.864L16.5767 25.535C16.5767 25.535 19.0944 24.8284 19.0701 24.8853C20.467 24.5198 21.1249 25.2183 21.4335 25.8761L25.4294 41.3239C25.4782 41.7706 25.397 42.534 24.4386 42.7939C24.4954 42.8264 21.9452 43.4355 21.9452 43.4355L22.3188 47.7157C22.3188 47.7157 28.4426 46.1482 29.2467 45.9452L30.7168 51.6467L34.1442 50.7614L32.6741 45.0193C33.6162 44.8 34.534 44.5726 35.4274 44.3371L36.8893 50.0467L40.3168 49.1614L38.8467 43.468C44.1259 42.1848 47.8538 38.8548 47.0904 33.7624C46.603 30.6924 43.2487 28.1746 40.4629 27.8904C42.1767 26.3716 43.0457 24.1543 41.9817 21.2548ZM40.333 34.6964C41.0152 39.7401 34.0061 40.3574 31.6914 40.9665L29.6772 33.4213C32 32.8122 39.1797 30.2538 40.333 34.6964ZM36.1096 24.4223C36.8325 28.9056 30.8386 29.4254 28.9056 29.9208L27.0701 23.0741C29.0112 22.5949 34.6396 20.2721 36.1096 24.4223Z" fill="white"/>
</g>
<defs>
<clipPath id="clip0_146_1263">
<rect width="64" height="64" fill="white"/>
</clipPath>
</defs>
</svg>
