<svg width="64" height="64" viewBox="0 0 64 64" fill="none" xmlns="http://www.w3.org/2000/svg">
<g clip-path="url(#clip0_369_872)">
<mask id="mask0_369_872" style="mask-type:luminance" maskUnits="userSpaceOnUse" x="0" y="0" width="64" height="64">
<path d="M0 0H64V64H0V0Z" fill="white"/>
</mask>
<g mask="url(#mask0_369_872)">
<path d="M64 0H0V64H64V0Z" fill="#FDC337"/>
<path d="M24.56 14H39.7947L46.8507 17.2053L53.6667 26.144L32.1733 49.84L11 26.144L17.6853 17.2107L24.56 14ZM24.8 15.0747L19.264 17.6587L24.8107 20.448H39.5547L45.248 17.6587L39.5627 15.072L24.8 15.0747ZM46.3467 18.3173L40.3173 21.272L42.8293 30.1787L52.136 25.9067L46.3467 18.3173ZM50.8053 27.6987L42.864 31.3467L35.0613 45.0613L50.8053 27.6987ZM32.176 47.9573L41.904 30.8613L39.272 21.5227H25.08L22.3333 30.8613L32.176 47.9573ZM21.416 30.1733L24.0373 21.2667L18.1947 18.32L12.5147 25.9093L21.416 30.1733ZM13.88 27.76L29.128 44.8213L21.368 31.344L13.88 27.76Z" fill="black"/>
<path d="M36.6934 27.184C36.5334 25.512 34.7734 24.9627 32.9521 24.8133V22.68H31.8774V24.8293H30.8028V22.68H29.7281V24.8133L26.5014 24.8427V26.9787C26.5014 26.9787 27.8481 26.9493 27.8188 26.9787C28.3974 26.9787 28.5921 27.2907 28.6534 27.5867V32.9947C28.6454 33.2853 28.4214 33.4267 28.1441 33.4267H26.5041L26.4988 35.576H29.7281V37.7253H30.8028V35.576H31.8774V37.7253H32.9521V35.576C35.3254 35.4267 37.3628 34.7147 37.5548 32.4773C37.7041 30.6827 36.8588 29.8827 35.5094 29.5573C36.3254 29.128 36.8428 28.4 36.6961 27.1707L36.6934 27.184ZM34.7521 32.048C34.7681 33.6747 31.7654 33.4267 30.8028 33.4267V30.6987C31.7654 30.6987 34.7388 30.224 34.7521 32.048ZM33.8321 27.8853C33.8321 29.6587 30.8028 29.128 30.8028 29.128V26.9787C31.5894 26.9787 33.8321 26.7867 33.8321 27.8853Z" fill="black"/>
</g>
</g>
<defs>
<clipPath id="clip0_369_872">
<rect width="64" height="64" rx="32" fill="white"/>
</clipPath>
</defs>
</svg>
