<svg width="64" height="64" viewBox="0 0 64 64" fill="none" xmlns="http://www.w3.org/2000/svg">
<g clip-path="url(#clip0_193_78)">
<path d="M32 64C49.6731 64 64 49.6731 64 32C64 14.3269 49.6731 0 32 0C14.3269 0 0 14.3269 0 32C0 49.6731 14.3269 64 32 64Z" fill="black"/>
<path d="M55.486 27.078C55.1697 25.5416 54.7021 24.0403 54.09 22.596C53.4868 21.1734 52.7488 19.8119 51.886 18.53C51.0305 17.2636 50.0546 16.0828 48.972 15.004C47.8926 13.9213 46.7111 12.9454 45.444 12.09C44.1602 11.2316 42.7998 10.4938 41.38 9.88601C38.4439 8.64074 35.2873 7.99899 32.098 7.99899C28.9088 7.99899 25.7521 8.64074 22.816 9.88601C19.9769 11.0835 17.3982 12.8226 15.224 15.006C14.1415 16.0841 13.1656 17.2643 12.31 18.53C11.4515 19.8144 10.7137 21.1756 10.106 22.596C8.86074 25.5321 8.21899 28.6888 8.21899 31.878C8.21899 35.0673 8.86074 38.2239 10.106 41.16C10.694 42.58 11.454 43.926 12.31 45.224C13.1656 46.491 14.1414 47.6725 15.224 48.752C16.3034 49.8347 17.4849 50.8106 18.752 51.666C20.024 52.522 21.396 53.258 22.816 53.87C25.7521 55.1153 28.9088 55.757 32.098 55.757C35.2873 55.757 38.4439 55.1153 41.38 53.87C42.8 53.282 44.146 52.522 45.444 51.666C46.7111 50.8106 47.8926 49.8347 48.972 48.752C50.0547 47.6726 51.0306 46.4911 51.886 45.224C52.742 43.952 53.478 42.58 54.09 41.16C55.9741 36.7166 56.461 31.8049 55.486 27.078ZM32.12 52.768C20.586 52.768 11.256 43.412 11.256 31.902C11.256 20.392 20.612 11.036 32.12 11.036C43.63 11.036 52.986 20.392 52.986 31.902C52.986 43.412 43.632 52.768 32.12 52.768Z" fill="white"/>
<path d="M32.49 50.956H33.054C33.152 50.956 33.248 50.956 33.346 50.93H33.372C33.47 50.93 33.542 50.93 33.64 50.906H33.714C33.788 50.906 33.862 50.906 33.934 50.882H34.008C34.082 50.882 34.156 50.858 34.254 50.858H34.302C34.4 50.858 34.498 50.832 34.596 50.832C34.694 50.832 34.768 50.808 34.866 50.784H34.914C34.988 50.784 35.062 50.76 35.134 50.76H35.184C35.282 50.734 35.356 50.734 35.454 50.71C35.648 50.686 35.844 50.636 36.016 50.588H36.066C36.138 50.564 36.236 50.564 36.31 50.538H36.334C36.53 50.49 36.702 50.44 36.898 50.392C35.0636 50.4502 33.2292 50.2775 31.438 49.878C28.742 49.29 26.172 48.238 23.992 46.424C22.2733 44.9938 20.8941 43.1994 19.954 41.1708C19.0138 39.1421 18.5363 36.9298 18.556 34.694C18.5736 31.3585 19.7605 28.1347 21.91 25.584C24.702 22.278 28.67 20.538 32.734 20.44H33.298V17.184H32.662C31.4256 17.2067 30.1947 17.3541 28.988 17.624C27.7736 17.8986 26.5917 18.3008 25.462 18.824C24.31 19.364 23.232 20.024 22.228 20.784C21.1905 21.5727 20.2458 22.4765 19.412 23.478C18.6269 24.405 17.9455 25.415 17.38 26.49C16.8205 27.5264 16.3688 28.6174 16.032 29.746C15.7016 30.8572 15.4805 31.9979 15.372 33.152L15.298 34.228V34.864C15.322 36.114 15.47 37.338 15.738 38.538C16.008 39.764 16.424 40.938 16.938 42.066C17.552 43.412 18.654 45.396 20.294 46.89C23.6426 49.5298 27.784 50.9624 32.048 50.956H32.49Z" fill="white"/>
<path d="M37.8281 47.82C36.6201 47.7769 35.417 47.6458 34.2281 47.428C29.1841 46.522 24.8481 43.436 23.2581 38.784C21.3221 33.126 24.2861 27.004 29.9181 25.144C30.9914 24.7843 32.1161 24.6019 33.2481 24.604C34.6941 24.604 36.1381 24.898 37.4621 25.436L38.8321 22.522C38.42 22.3568 38.0039 22.2021 37.5841 22.058C36.1809 21.6176 34.7187 21.3944 33.2481 21.396C31.7747 21.3988 30.3113 21.6385 28.9141 22.106C27.1308 22.6942 25.4884 23.6448 24.0901 24.898C23.4157 25.4987 22.8008 26.1632 22.2541 26.882C21.7136 27.5926 21.2459 28.3558 20.8581 29.16C20.0684 30.7768 19.6023 32.5324 19.4861 34.328C19.3641 36.188 19.6081 38.048 20.2201 39.812C20.8436 41.6266 21.8458 43.288 23.1601 44.686C24.3601 45.984 25.7561 46.964 27.4441 47.87C29.2081 48.8 31.3881 49.29 33.6641 49.61C35.1341 49.804 37.0941 49.854 38.2441 49.854C39.2481 49.486 39.6641 49.314 40.2041 49.094C40.6701 48.874 41.1341 48.654 41.6001 48.384C42.0661 48.114 42.1401 48.064 42.9221 47.552C42.9917 47.5087 43.0573 47.4591 43.1181 47.404C40.4241 47.87 39.7381 47.844 37.8281 47.82Z" fill="white"/>
<path d="M43.854 44.172C43.094 44.22 42.016 44.292 40.792 44.292C38.612 44.292 35.942 44.098 33.666 43.338C30.138 42.164 26.808 39.152 26.808 35.428C26.8072 34.5466 26.9802 33.6737 27.3171 32.8593C27.6541 32.0448 28.1483 31.3048 28.7715 30.6816C29.3948 30.0583 30.1348 29.5641 30.9492 29.2272C31.7637 28.8902 32.6366 28.7172 33.518 28.718C36.04 28.718 38.22 30.114 39.372 32.146L42.286 30.702C41.8291 29.8418 41.2422 29.0572 40.546 28.376C39.6235 27.4519 38.5278 26.7188 37.3217 26.2186C36.1156 25.7184 34.8227 25.461 33.517 25.461C32.2113 25.461 30.9183 25.7184 29.7122 26.2186C28.5061 26.7188 27.4105 27.4519 26.488 28.376C25.5642 29.2985 24.8314 30.394 24.3313 31.5999C23.8313 32.8058 23.574 34.0985 23.574 35.404C23.5805 36.7722 23.8735 38.1239 24.434 39.372C24.946 40.498 25.658 41.552 26.564 42.532C28.156 44.244 30.334 45.616 32.662 46.4C34.89 47.134 38.172 47.404 41.356 47.184C42.236 47.11 42.898 47.036 44.024 46.792C45.1106 45.9345 46.0969 44.957 46.964 43.878C46.204 43.952 44.808 44.098 43.854 44.172Z" fill="white"/>
</g>
<defs>
<clipPath id="clip0_193_78">
<rect width="64" height="64" fill="white"/>
</clipPath>
</defs>
</svg>
