<svg width="64" height="64" viewBox="0 0 64 64" fill="none" xmlns="http://www.w3.org/2000/svg">
<g clip-path="url(#clip0_230_1423)">
<path d="M32 64C49.6732 64 64 49.6732 64 32C64 14.3269 49.6732 0 32 0C14.3269 0 0 14.3269 0 32C0 49.6732 14.3269 64 32 64Z" fill="black"/>
<path fill-rule="evenodd" clip-rule="evenodd" d="M28.8347 14.8587H16V30.8587H28.8347C29.7476 30.3898 30.5208 29.6887 31.0765 28.8259C31.6322 27.9631 31.9507 26.9691 32 25.944C32 24.504 31.12 23.2347 30.6853 22.7787C31.736 22.1147 32 20.4453 32 19.6907C32 17.3387 30.6853 15.6907 28.8347 14.8587ZM19.4293 18.2853H26.856C27.3108 18.2853 27.7469 18.466 28.0685 18.7876C28.39 19.1091 28.5707 19.5452 28.5707 20C28.5707 20.4548 28.39 20.8909 28.0685 21.2125C27.7469 21.534 27.3108 21.7147 26.856 21.7147H19.4293V18.2853ZM26.8533 24H19.4293V27.4293H26.856C27.0812 27.4293 27.3041 27.385 27.5122 27.2988C27.7202 27.2126 27.9092 27.0863 28.0685 26.9271C28.2277 26.7679 28.354 26.5789 28.4401 26.3708C28.5263 26.1628 28.5707 25.9398 28.5707 25.7147C28.5707 25.4895 28.5263 25.2665 28.4401 25.0585C28.354 24.8505 28.2277 24.6614 28.0685 24.5022C27.9092 24.343 27.7202 24.2167 27.5122 24.1305C27.3041 24.0444 27.0812 24 26.856 24" fill="#EA580C"/>
<path d="M34.2853 27.384V14.8587H37.7147V25.8747L39.0853 27.4293H49.144V30.8587H37.5893L34.2853 27.384ZM16 45.5893V33.144H19.4293V44.184L20.9147 45.7147H27.2453L28.5707 44.184V33.144H32V45.5893L28.8453 49.144H19.3067L16 45.5893ZM34.2853 33.144H46.2293C47.544 33.656 49.144 35.8747 49.144 37.5893C49.144 39.624 48.136 40.536 47.624 40.9947L47.544 41.0747C48.08 41.416 49.144 42.4907 49.144 44.0347V49.144H45.7147V44.4C45.6453 43.864 44.984 42.4587 43.864 42.2853H37.7147V49.144H34.2853V33.144ZM43.4293 35.4293H37.7147V40H43.4293C44.0354 40 44.6167 39.7592 45.0453 39.3306C45.4739 38.9021 45.7147 38.3208 45.7147 37.7147C45.7147 37.1086 45.4739 36.5273 45.0453 36.0987C44.6167 35.6701 44.0354 35.4293 43.4293 35.4293Z" fill="#EA580C"/>
</g>
<defs>
<clipPath id="clip0_230_1423">
<rect width="64" height="64" fill="white"/>
</clipPath>
</defs>
</svg>
