<svg width="64" height="64" viewBox="0 0 64 64" fill="none" xmlns="http://www.w3.org/2000/svg">
<g clip-path="url(#clip0_196_157)">
<path d="M32 64C49.6731 64 64 49.6731 64 32C64 14.3269 49.6731 0 32 0C14.3269 0 0 14.3269 0 32C0 49.6731 14.3269 64 32 64Z" fill="#FDDE00"/>
<path d="M16.425 22.625C16.425 22.625 14.775 24.7125 15.325 34.15C15.325 34.15 11.7125 43.4 12.9375 48.125C14.1625 52.8375 18.9375 52.6 18.9375 52.6C18.9375 52.6 26.6 59.3375 32.475 53.4C38.3625 47.45 27.575 24.4125 27.575 24.4125L26.225 16.45C26.225 16.45 24.75 17.6125 24.9375 25.275C25.125 32.9375 21.9375 27.5375 21.9375 27.5375L16.425 22.625Z" fill="#3C2D0C"/>
<path d="M17.0375 30.9625L15.0125 36.6625L14.275 40.65C14.275 40.65 11.7625 49.5375 22.125 49.4125C22.125 49.4125 30.2125 56.65 35.4875 51.8L36.9 50.2625L39.35 46.4625L43.4 34.3875C43.4 34.3875 42.1125 26.1125 33.9625 22.6875C33.9625 22.6875 33.2875 22.325 32.0625 22.8125C32.0625 22.8125 28.6875 15.2125 26.55 16.1375C26.55 16.1375 24.7125 17.1125 26.3 24.6L23.425 25.8875C23.425 25.8875 20.275 19.9125 17.3625 21.1125C14.65 22.2 17.0375 30.9625 17.0375 30.9625Z" fill="#E78C19"/>
<path d="M27.5125 19.8625L27.7625 23.175C27.7625 23.175 27.95 25.075 29.9625 24.4C30.5375 24.2125 31.0375 23.8125 30.9875 23.1625C30.95 22.675 30.6125 22.225 30.3875 21.8125C29.975 21.025 29.6375 20.1875 29.15 19.425C28.9 19.0375 28.3875 18.175 27.825 18.275C27.825 18.275 27.4 18.15 27.5125 19.8625Z" fill="#EFB99D"/>
<path d="M18.6625 23.5875C18.7 23.5625 19.525 22.525 21.2375 25.05C22.95 27.575 22.775 27.25 22.775 27.25C22.775 27.25 23.7 28.2625 21.8125 29.5625C21.4 29.8625 20.95 30.1125 20.475 30.3125C20.175 30.425 19.8625 30.4875 19.55 30.4875C19.1875 30.475 19.025 30.2875 18.9375 29.95C18.65 28.85 18.325 27.75 18.1625 26.625C18.0375 25.75 17.7875 24.15 18.6625 23.5875Z" fill="#EFB99D"/>
<path d="M38.5625 28.675C38.5625 29.275 37.6874 29.7625 36.5999 29.7625C35.5124 29.7625 34.6375 29.275 34.6375 28.675C34.6375 28.075 35.5374 27.1875 36.6124 27.1875C37.6874 27.1875 38.5625 28.075 38.5625 28.675Z" fill="#FBFBFB"/>
<path d="M27.2444 33.3701C27.8258 32.3427 27.7613 31.2067 27.1004 30.8327C26.4395 30.4587 25.4325 30.9883 24.8511 32.0157C24.2697 33.0431 24.3341 34.1792 24.995 34.5532C25.6559 34.9272 26.663 34.3975 27.2444 33.3701Z" fill="#FBFBFB"/>
<path d="M30.025 38.3375L35.3875 35.55C35.3875 35.55 42.0625 32.0625 43.6875 34.75C45.3125 37.4375 43.6875 41.55 43.6875 41.55C43.6875 41.55 42.9875 46.3625 38.075 46.7875L35.4375 47.15L32.0625 47.2375C32.0625 47.2375 26.6375 47.55 22.65 44.6L21.3875 43.0625C21.3875 43.0625 18.85 39.575 20.625 37.0625C22.4 34.55 28.475 38.4375 28.475 38.4375C28.475 38.4375 29.325 38.9 30.025 38.3375Z" fill="#FBFBFB"/>
<path d="M42.1875 24.4375C42.8986 24.4375 43.475 23.8611 43.475 23.15C43.475 22.4389 42.8986 21.8625 42.1875 21.8625C41.4765 21.8625 40.9 22.4389 40.9 23.15C40.9 23.8611 41.4765 24.4375 42.1875 24.4375Z" fill="#E72D36"/>
<path d="M39.3376 21.275C40.0486 21.275 40.625 20.6986 40.625 19.9875C40.625 19.2764 40.0486 18.7 39.3376 18.7C38.6265 18.7 38.05 19.2764 38.05 19.9875C38.05 20.6986 38.6265 21.275 39.3376 21.275Z" fill="#E72D36"/>
<path d="M34.7751 20.2625C35.4861 20.2625 36.0625 19.6861 36.0625 18.975C36.0625 18.2639 35.4861 17.6875 34.7751 17.6875C34.064 17.6875 33.4875 18.2639 33.4875 18.975C33.4875 19.6861 34.064 20.2625 34.7751 20.2625Z" fill="#E72D36"/>
<path d="M35.7875 9.85001C36.0625 13.65 35.5125 17.0875 34.5875 17.0875C33.6625 17.0875 32.4375 13.375 32.4375 9.85001C32.4375 8.40001 33.2 8.16251 34.125 8.16251C35.0625 8.16251 35.6875 8.40001 35.7875 9.85001Z" fill="#E72D36"/>
<path d="M44.3125 12.2125C42.9125 15.75 40.925 18.6125 40.1 18.2125C39.275 17.8125 39.775 13.9375 41.3125 10.7625C41.95 9.44999 42.7375 9.57499 43.5625 9.97499C44.3875 10.3875 44.85 10.8625 44.3125 12.2125Z" fill="#E72D36"/>
<path d="M50.4125 19.1125C47.325 21.35 44.125 22.7 43.6375 21.9125C43.15 21.125 45.6625 18.1375 48.65 16.275C49.8875 15.5125 50.4875 16.0375 50.975 16.8125C51.45 17.6 51.5875 18.25 50.4125 19.1125Z" fill="#E72D36"/>
<path d="M29.775 34.6C29.6625 34.6125 29.55 34.625 29.4375 34.6375C29.45 34.675 29.4625 34.7125 29.4625 34.7625C29.4625 35.15 28.85 35.475 28.0875 35.5C28.0875 35.5375 28.075 35.5625 28.0875 35.6C28.125 36.075 28.95 36.4 29.9125 36.325C30.8875 36.25 31.65 35.8 31.6125 35.325C31.5625 34.85 30.75 34.525 29.775 34.6Z" fill="black"/>
<path d="M36.55 32.925C36.4375 32.9375 36.325 32.95 36.2125 32.9625C36.225 33 36.2375 33.0375 36.2375 33.0875C36.2375 33.475 35.625 33.8 34.8625 33.825C34.8625 33.8625 34.85 33.8875 34.8625 33.925C34.9 34.4 35.725 34.725 36.6875 34.65C37.6625 34.575 38.425 34.125 38.3875 33.65C38.35 33.175 37.525 32.85 36.55 32.925Z" fill="black"/>
<path d="M38.775 34.9125C38.775 34.9125 36.0875 35.7 36.25 37.2125C36.4125 38.725 39.65 39.5125 39.65 39.5125C39.65 39.5125 40.525 39.8625 41.025 39.025C41.525 38.2 42.2625 37.075 42.0625 35.4625C42.0625 35.4625 42 34.2625 38.775 34.9125Z" fill="black"/>
</g>
<defs>
<clipPath id="clip0_196_157">
<rect width="64" height="64" fill="white"/>
</clipPath>
</defs>
</svg>
