<svg width="64" height="64" viewBox="0 0 64 64" fill="none" xmlns="http://www.w3.org/2000/svg">
<rect width="64" height="64" rx="32" fill="black"/>
<path d="M47.4999 12L41 19L47.4999 26L54 19L47.4999 12Z" fill="#030206"/>
<path d="M47.5 12.3405L53.6838 19L47.5 25.6595L41.3162 19L47.5 12.3405ZM47.5 12L41 19L47.5 26L54 19L47.5 12Z" fill="#F3FF97"/>
<path d="M46.4999 12L40 18.5L46.4999 25L53 18.5L46.4999 12Z" fill="#030206"/>
<path d="M47.0001 11.3405L53.6596 18L47.0001 24.6595L40.3405 18L47.0001 11.3405ZM47.0001 11L40 18L47.0001 25L54 18L47.0001 11Z" fill="#F3FF97"/>
<path d="M46.0001 11L39 17.5L46.0001 24L53 17.5L46.0001 11Z" fill="#030206"/>
<path d="M46 11.3088L52.6595 17.4926L46 23.6764L39.3405 17.5L46 11.3088ZM46 11L39 17.5L46 24L53 17.5L46 11Z" fill="#F3FF97"/>
<path d="M45.5001 11L39 17.5L45.5001 24L52 17.5L45.5001 11Z" fill="#030206"/>
<path d="M45.5 11.3088L51.6838 17.4926L45.5 23.6764L39.3162 17.4926L45.5 11.3088ZM45.5 11L39 17.5L45.5 24L52 17.5L45.5 11Z" fill="#F3FF97"/>
<path d="M45.0001 11L39 17L45.0001 23L51 17L45.0001 11Z" fill="#030206"/>
<path d="M45.0001 11.2851L50.7082 16.9932L45.0001 22.7014L39.2919 16.9932L45.0001 11.2851ZM45.0001 11L39 17L45.0001 23L51 17L45.0001 11Z" fill="#F3FF97"/>
<path d="M44.0001 10L38 16.5L44.0001 23L50 16.5L44.0001 10Z" fill="#030206"/>
<path d="M44.5 10.3088L50.6838 16.4926L44.5 22.6764L38.3162 16.4926L44.5 10.3088ZM44.5 10L38 16.5L44.5 23L51 16.5L44.5 10Z" fill="#F3FF97"/>
<path d="M43.5001 10L37 16L43.5001 22L50 16L43.5001 10Z" fill="#030206"/>
<path d="M43.5001 10.2851L49.6839 15.9932L43.5001 21.7014L37.3162 15.9932L43.5001 10.2851ZM43.5001 10L37 16L43.5001 22L50 16L43.5001 10Z" fill="#F3FF97"/>
<path d="M42.5 9L36 15.5L42.5 22L49 15.5L42.5 9Z" fill="#030206"/>
<path d="M42.5 9.31617L48.6838 15.5L42.5 21.6838L36.3162 15.5L42.5 9.31617ZM42.5 9L36 15.5L42.5 22L49 15.5L42.5 9Z" fill="#F3FF97"/>
<path d="M41.5 9L35 15L41.5 21L48 15L41.5 9Z" fill="#030206"/>
<path d="M41.5 9.30883L47.6838 15.4926L41.5 21.6765L35.3162 15.4926L41.5 9.30883ZM41.5 9L35 15.5L41.5 22L48 15.5L41.5 9Z" fill="#F3FF97"/>
<path d="M41.5001 9L35 15L41.5001 21L48 15L41.5001 9Z" fill="#030206"/>
<path d="M41.5 9.28507L47.6838 14.9932L41.5 20.7081L35.3162 15L41.5 9.28507ZM41.5 9L35 15L41.5 21L48 15L41.5 9Z" fill="#F3FF97"/>
<path d="M40.4999 8L34 14.5L40.4999 21L47 14.5L40.4999 8Z" fill="#030206"/>
<path d="M40.5 8.30882L46.6838 14.4926L40.5 20.6764L34.3162 14.4926L40.5 8.30882ZM40.5 8L34 14.5L40.5 21L47 14.5L40.5 8Z" fill="#F3FF97"/>
<path d="M39 8L32 14L39 20L46 14L39 8Z" fill="#030206"/>
<path d="M39.0001 8.30882L45.6596 14.4927L39.0001 20.6765L32.3405 14.4927L39.0001 8.30882ZM39.0001 8L32 14.5L39.0001 21L46 14.5L39.0001 8Z" fill="#F3FF97"/>
<path d="M38.4999 8L32 14L38.4999 20L45 14L38.4999 8Z" fill="#030206"/>
<path d="M38.0001 8.28507L44.6596 13.9932L38.0001 19.7082L31.3405 14L38.0001 8.28507ZM38.0001 8L31 14L38.0001 20L45 14L38.0001 8Z" fill="#F3FF97"/>
<path d="M37.5001 8L31 14L37.5001 20L44 14L37.5001 8Z" fill="#030206"/>
<path d="M38 8.29186L44.6595 14L38 19.7082L31.3405 14L38 8.29186ZM38 8L31 14L38 20L45 14L38 8Z" fill="#F3FF97"/>
<path d="M37.0001 8L31 14L36.9999 20L43 14L37.0001 8Z" fill="#030206"/>
<path d="M37.5001 7.31617L43.6839 13.5L37.5001 19.6838L31.3162 13.5L37.5001 7.31617ZM37.5001 7L31 13.5L37.5001 20L44 13.5L37.5001 7Z" fill="#F3FF97"/>
<path d="M36.5001 7L30 13.5L36.5001 20L43 13.5L36.5001 7Z" fill="#030206"/>
<path d="M36.5001 7.30882L42.6839 13.4926L36.5001 19.6838L30.3162 13.5L36.5001 7.30882ZM36.5001 7L30 13.5L36.5001 20L43 13.5L36.5001 7Z" fill="#F3FF97"/>
<path d="M35.5001 7L29 13.5L35.5001 20L42 13.5L35.5001 7Z" fill="#030206"/>
<path d="M35.5 7.30882L41.6838 13.4926L35.5 19.6765L29.3162 13.4926L35.5 7.30882ZM35.5 7L29 13.5L35.5 20L42 13.5L35.5 7Z" fill="#F3FF97"/>
<path d="M34.5 7L28 13.5L34.5 20L41 13.5L34.5 7Z" fill="#030206"/>
<path d="M34.4963 7.31618L40.6836 13.5L34.4963 19.6838L28.309 13.5L34.4963 7.31618ZM34.4963 7L28 13.5L34.5037 20L41 13.5L34.4963 7Z" fill="#F3FF97"/>
<path d="M33.5 7L27 13.5L33.5 20L40 13.5L33.5 7Z" fill="#030206"/>
<path d="M33.4999 7.30882L39.6838 13.4926L33.4999 19.6765L27.3161 13.4926L33.4999 7.30882ZM33.4999 7L27 13.5L33.4999 20L40 13.5L33.4999 7Z" fill="#F3FF97"/>
<path d="M32.4999 8L26 14L32.4999 20L39 14L32.4999 8Z" fill="#030206"/>
<path d="M32.4999 7.30882L38.6838 13.4926L32.4999 19.6765L26.3161 13.4926L32.4999 7.30882ZM32.4999 7L26 13.5L32.4999 20L39 13.5L32.4999 7Z" fill="#F3FF97"/>
<path d="M31.9999 8L25 14L31.9999 20L39 14L31.9999 8Z" fill="#030206"/>
<path d="M32 7.31618L38.6595 13.5L32 19.6838L25.3405 13.5L32 7.31618ZM32 7L25 13.5L32 20L39 13.5L32 7Z" fill="#F3FF97"/>
<path d="M31.0001 8L24 14L31.0001 20L38 14L31.0001 8Z" fill="#030206"/>
<path d="M31.0001 8.28507L37.6596 13.9932L31.0001 19.7013L24.3405 13.9932L31.0001 8.28507ZM31.0001 8L24 14L31.0001 20L38 14L31.0001 8Z" fill="#F3FF97"/>
<path d="M30 8L23 14L30 20L37 14L30 8Z" fill="#030206"/>
<path d="M29.9999 8.29186L36.6595 14L29.9999 19.7081L23.3404 14L29.9999 8.29186ZM29.9999 8L23 14L29.9999 20L37 14L29.9999 8Z" fill="#F3FF97"/>
<path d="M29.4999 8L23 14.5L29.4999 21L36 14.5L29.4999 8Z" fill="#030206"/>
<path d="M29.5 8.30883L35.6838 14.4927L29.5 20.6765L23.3162 14.4927L29.5 8.30883ZM29.5 8L23 14.5L29.5 21L36 14.5L29.5 8Z" fill="#F3FF97"/>
<path d="M29 8L23 14.5L29 21L35 14.5L29 8Z" fill="#030206"/>
<path d="M28.5 8.31618L34.6838 14.5L28.5 20.6911L22.3162 14.5073L28.5 8.31618ZM28.5 8L22 14.5L28.5 21L35 14.5L28.5 8Z" fill="#F3FF97"/>
<path d="M28.4999 9L22 15L28.4999 21L35 15L28.4999 9Z" fill="#030206"/>
<path d="M28.5 9.28506L34.6838 14.9932L28.5 20.7013L22.3162 14.9932L28.5 9.28506ZM28.5 9L22 15L28.5 21L35 15L28.5 9Z" fill="#F3FF97"/>
<path d="M27.4999 9L21 15L27.4999 21L34 15L27.4999 9Z" fill="#030206"/>
<path d="M27.5 9.30883L33.6838 15.4927L27.5 21.6765L21.3162 15.4927L27.5 9.30883ZM27.5 9L21 15.5L27.5 22L34 15.5L27.5 9Z" fill="#F3FF97"/>
<path d="M26 10L20 16L26 22L32 16L26 10Z" fill="#030206"/>
<path d="M25.9932 9.31619L31.7081 15.5L26 21.6839L20.2851 15.5L25.9932 9.31619ZM25.9932 9L20 15.5L26 22L32 15.5L25.9932 9Z" fill="#F3FF97"/>
<path d="M24.9999 10L19 16L24.9999 22L31 16L24.9999 10Z" fill="#030206"/>
<path d="M25.5 10.3088L31.6838 16.4926L25.5 22.6764L19.3162 16.4926L25.5 10.3088ZM25.5 10L19 16.5L25.5 23L32 16.5L25.5 10Z" fill="#F3FF97"/>
<path d="M24.4999 11L18 17L24.4999 23L31 17L24.4999 11Z" fill="#030206"/>
<path d="M24.5 10.3088L30.6838 16.4926L24.5 22.6838L18.3162 16.5L24.5 10.3088ZM24.5 10L18 16.5L24.5 23L31 16.5L24.5 10Z" fill="#F3FF97"/>
<path d="M24.5 11L18 17L24.5 23L31 17L24.5 11Z" fill="#030206"/>
<path d="M23.9921 11.3162L30.6516 17.5L23.9921 23.6838L17.3326 17.5L23.9921 11.3162ZM23.9921 11L17 17.5L24.0001 24L31 17.5L23.9921 11Z" fill="#F3FF97"/>
<path d="M23.4999 11L17 17.5L23.4999 24L30 17.5L23.4999 11Z" fill="#030206"/>
<path d="M23.5001 11.3162L29.6839 17.5L23.5001 23.6912L17.3162 17.5074L23.5001 11.3162ZM23.5001 11L17 17.5L23.5001 24L30 17.5L23.5001 11Z" fill="#F3FF97"/>
<path d="M22.5 11L16 18L22.5 25L29 18L22.5 11Z" fill="#030206"/>
<path d="M23 11.3405L29.6596 18L23 24.6595L16.3405 18L23 11.3405ZM23 11L16 18L23 25L30 18L23 11Z" fill="#F3FF97"/>
<path d="M22 12L15 18.5L22 25L29 18.5L22 12Z" fill="#030206"/>
<path d="M22 12.3088L28.6595 18.4926L22 24.6838L15.3405 18.5L22 12.3088ZM22 12L15 18.5L22 25L29 18.5L22 12Z" fill="#F3FF97"/>
<path d="M21.5 13L15 19.5L21.5 26L28 19.5L21.5 13Z" fill="#030206"/>
<path d="M21 12.3326L27.6596 18.9921L21 25.6516L14.3405 18.9921L21 12.3326ZM21 12L14 19L21 26L28 19L21 12Z" fill="#F3FF97"/>
<path d="M20.5 13L14 20L20.5 27L27 20L20.5 13Z" fill="#030206"/>
<path d="M20.5 13.3326L26.6838 19.9921L20.5 26.6595L14.3162 20L20.5 13.3326ZM20.5 13L14 20L20.5 27L27 20L20.5 13Z" fill="#F3FF97"/>
<path d="M20.5 14L14 20.5L20.5 27L27 20.5L20.5 14Z" fill="#030206"/>
<path d="M20.5 14.3405L26.6839 21L20.5 27.6596L14.3162 21L20.5 14.3405ZM20.5 14L14 21L20.5 28L27 21L20.5 14Z" fill="#F3FF97"/>
<path d="M20 15L14 21.4999L20 28L26 21.4999L20 15Z" fill="#030206"/>
<path d="M20 15.3088L25.7082 21.4927L20 27.6765L14.2919 21.4927L20 15.3088ZM20 15L14 21.5L20 28L26 21.5L20 15Z" fill="#F3FF97"/>
<path d="M19 16L13 21.9999L19 28L25 21.9999L19 16Z" fill="#030206"/>
<path d="M19.5 15.3162L25.6838 21.5001L19.5 27.6839L13.3162 21.5001L19.5 15.3162ZM19.5 15L13 21.5001L19.5 28L26 21.5001L19.5 15Z" fill="#F3FF97"/>
<path d="M19 16L13 22.5L19 29L25 22.5L19 16Z" fill="#030206"/>
<path d="M19 16.3088L24.7081 22.4927L19 28.6765L13.2919 22.4927L19 16.3088ZM19 16L13 22.5L19 29L25 22.5L19 16Z" fill="#F3FF97"/>
<path d="M18.5 17L12 23.4999L18.5 30L25 23.4999L18.5 17Z" fill="#030206"/>
<path d="M18.5 17.3088L24.6839 23.4926L18.5 29.6764L12.3162 23.4926L18.5 17.3088ZM18.5 17L12 23.5L18.5 30L25 23.5L18.5 17Z" fill="#F3FF97"/>
<path d="M18 18L12 23.9999L18 30L24 23.9999L18 18Z" fill="#030206"/>
<path d="M18 18.3088L23.7082 24.4927L18 30.6765L12.2919 24.4927L18 18.3088ZM18 18L12 24.5001L18 31L24 24.5001L18 18Z" fill="#F3FF97"/>
<path d="M17.5 19L11 25L17.5 31L24 25L17.5 19Z" fill="#030206"/>
<path d="M17.5 19.2919L23.6838 25.0001L17.5 30.7082L11.3088 25.0001L17.5 19.2919ZM17.5 19L11 25.0001L17.5 31L24 25.0001L17.5 19Z" fill="#F3FF97"/>
<path d="M17 19L11 26.0001L17 33L23 26.0001L17 19Z" fill="#030206"/>
<path d="M17 19.3405L23.6595 26L17 32.6595L10.3326 26L17 19.3405ZM17 19L10 26L17 33L24 26L17 19Z" fill="#F3FF97"/>
<path d="M16.5 20L10 26.4999L16.5 33L23 26.4999L16.5 20Z" fill="#030206"/>
<path d="M16.5 20.3326L22.6838 26.9921L16.5 33.6516L10.3162 26.9921L16.5 20.3326ZM16.5 20L10 27L16.5 34L23 27L16.5 20Z" fill="#F3FF97"/>
<path d="M16.5 21L10 27.5L16.5 34L23 27.5L16.5 21Z" fill="#030206"/>
<path d="M16.5 20.3647L22.6839 27.4999L16.5 34.6351L10.3162 27.4999L16.5 20.3647ZM16.5 20L10 27.4999L16.5 35L23 27.4999L16.5 20Z" fill="#F3FF97"/>
<path d="M16.5 21L10 27.9999L16.5 35L23 27.9999L16.5 21Z" fill="#030206"/>
<path d="M16.5 21.3404L22.6839 27.9999L16.5 34.6675L10.3162 27.9999L16.5 21.3404ZM16.5 21L10 27.9999L16.5 35L23 27.9999L16.5 21Z" fill="#F3FF97"/>
<path d="M16.5 22L10 29L16.5 36L23 29L16.5 22Z" fill="#030206"/>
<path d="M16.5 22.3325L22.6838 28.992L16.5 35.6515L10.3162 28.992L16.5 22.3325ZM16.5 22L10 29L16.5 36L23 29L16.5 22Z" fill="#F3FF97"/>
<path d="M16.5 23L10 29.4999L16.5 36L23 29.4999L16.5 23Z" fill="#030206"/>
<path d="M16.5 23.3088L22.6838 29.4926L16.5 35.6765L10.3162 29.4926L16.5 23.3088ZM16.5 23L10 29.4999L16.5 36L23 29.4999L16.5 23Z" fill="#F3FF97"/>
<path d="M16.5 24L10 30.5001L16.5 37L23 30.5001L16.5 24Z" fill="#030206"/>
<path d="M16.5 24.3088L22.6838 30.4926L16.5 36.6838L10.3162 30.5L16.5 24.3088ZM16.5 24L10 30.5L16.5 37L23 30.5L16.5 24Z" fill="#F3FF97"/>
<path d="M16.5 25L10 31.4999L16.5 38L23 31.4999L16.5 25Z" fill="#030206"/>
<path d="M16.5 25.3088L22.6838 31.4926L16.5 37.6765L10.3162 31.4926L16.5 25.3088ZM16.5 25L10 31.4999L16.5 38L23 31.4999L16.5 25Z" fill="#F3FF97"/>
<path d="M16.5 26L10 32.5001L16.5 39L23 32.5001L16.5 26Z" fill="#030206"/>
<path d="M16.5 26.3088L22.6838 32.4926L16.5 38.6765L10.3162 32.4926L16.5 26.3088ZM16.5 26L10 32.5001L16.5 39L23 32.5001L16.5 26Z" fill="#F3FF97"/>
<path d="M16.5 27L10 33.5001L16.5 40L23 33.5001L16.5 27Z" fill="#030206"/>
<path d="M16.5 27.3088L22.6838 33.4926L16.5 39.6765L10.3162 33.4926L16.5 27.3088ZM16.5 27L10 33.5L16.5 40L23 33.5L16.5 27Z" fill="#F3FF97"/>
<path d="M16.5 28L10 34.5001L16.5 41L23 34.5001L16.5 28Z" fill="#030206"/>
<path d="M16.5 28.3162L22.6838 34.5L16.5 40.6838L10.3162 34.5L16.5 28.3162ZM16.5 28L10 34.5L16.5 41L23 34.5L16.5 28Z" fill="#F3FF97"/>
<path d="M16.5 28L10 35.0001L16.5 42L23 35.0001L16.5 28Z" fill="#030206"/>
<path d="M16.5 28.3405L22.6838 35L16.5 41.6595L10.3162 35L16.5 28.3405ZM16.5 28L10 35L16.5 42L23 35L16.5 28Z" fill="#F3FF97"/>
<path d="M16.5 29L10 35.9999L16.5 43L23 35.9999L16.5 29Z" fill="#030206"/>
<path d="M16.5 29.3325L22.6839 35.9921L16.5 42.6516L10.3162 35.9999L16.5 29.3325ZM16.5 29L10 35.9999L16.5 43L23 35.9999L16.5 29Z" fill="#F3FF97"/>
<path d="M16.5 30L10 36.5001L16.5 43L23 36.5001L16.5 30Z" fill="#030206"/>
<path d="M16.5 29.3563L22.6839 36.4915L16.5 43.6267L10.3162 36.4915L16.5 29.3563ZM16.5 29L10 36.5001L16.5 44L23 36.5001L16.5 29Z" fill="#F3FF97"/>
<path d="M16.5 31L10 37.5001L16.5 44L23 37.5001L16.5 31Z" fill="#030206"/>
<path d="M16.5 30.3325L22.6838 36.9921L16.5 43.6595L10.3162 36.9999L16.5 30.3325ZM16.5 30L10 36.9999L16.5 44L23 36.9999L16.5 30Z" fill="#F3FF97"/>
<path d="M17 31L11 38L17 45L23 38L17 31Z" fill="#030206"/>
<path d="M17 31.3325L23.6595 37.992L17 44.6515L10.3326 38L17 31.3325ZM17 31L10 38L17 45L24 38L17 31Z" fill="#F3FF97"/>
<path d="M17.5 33L11 39.0001L17.5 45L24 39.0001L17.5 33Z" fill="#030206"/>
<path d="M17.5 33.2919L23.6838 39L17.5 44.7081L11.3088 39L17.5 33.2919ZM17.5 33L11 39L17.5 45L24 39L17.5 33Z" fill="#F3FF97"/>
<path d="M18 34L12 40L18 46L24 40L18 34Z" fill="#030206"/>
<path d="M18 33.3088L23.7082 39.4926L18 45.6765L12.2919 39.4926L18 33.3088ZM18 33L12 39.5001L18 46L24 39.5001L18 33Z" fill="#F3FF97"/>
<path d="M18.5 34L12 40.5001L18.5 47L25 40.5001L18.5 34Z" fill="#030206"/>
<path d="M18.5 34.3162L24.6839 40.5L18.5 46.6838L12.3162 40.5L18.5 34.3162ZM18.5 34L12 40.5L18.5 47L25 40.5L18.5 34Z" fill="#F3FF97"/>
<path d="M19 35L13 41.5001L19 48L25 41.5001L19 35Z" fill="#030206"/>
<path d="M19 35.3162L24.7081 41.5L19 47.6838L13.2919 41.5L19 35.3162ZM19 35L13 41.5L19 48L25 41.5L19 35Z" fill="#F3FF97"/>
<path d="M19 36L13 42.0001L19 48L25 42.0001L19 36Z" fill="#030206"/>
<path d="M19.5 35.3325L25.6838 41.992L19.5 48.6515L13.3162 41.992L19.5 35.3325ZM19.5 35L13 42L19.5 49L26 42L19.5 35Z" fill="#F3FF97"/>
<path d="M20 36L14 42.5001L20 49L26 42.5001L20 36Z" fill="#030206"/>
<path d="M20 36.3161L25.7082 42.4999L20 48.6912L14.2919 42.5074L20 36.3161ZM20 36L14 42.4999L20 49L26 42.4999L20 36Z" fill="#F3FF97"/>
<path d="M20.5 37L14 43.5001L20.5 50L27 43.5001L20.5 37Z" fill="#030206"/>
<path d="M20.5 36.3404L26.6839 42.9999L20.5 49.6595L14.3162 42.9999L20.5 36.3404ZM20.5 36L14 42.9999L20.5 50L27 42.9999L20.5 36Z" fill="#F3FF97"/>
<path d="M20.5 37L14 44L20.5 51L27 44L20.5 37Z" fill="#030206"/>
<path d="M20.5 37.3405L26.6838 44.0001L20.5 50.6596L14.3162 44.0001L20.5 37.3405ZM20.5 37L14 44.0001L20.5 51L27 44.0001L20.5 37Z" fill="#F3FF97"/>
<path d="M21.5 38L15 44.5001L21.5 51L28 44.5001L21.5 38Z" fill="#030206"/>
<path d="M21 38.3325L27.6596 44.9921L21 51.6596L14.3405 45.0001L21 38.3325ZM21 38L14 45.0001L21 52L28 45.0001L21 38Z" fill="#F3FF97"/>
<path d="M22 39L15 45.4999L22 52L29 45.4999L22 39Z" fill="#030206"/>
<path d="M22 39.3161L28.6595 45.4999L22 51.6912L15.3405 45.5074L22 39.3161ZM22 39L15 45.4999L22 52L29 45.4999L22 39Z" fill="#F3FF97"/>
<path d="M22.5 39L16 46L22.5 53L29 46L22.5 39Z" fill="#030206"/>
<path d="M23 39.3405L29.6596 46L23 52.6595L16.3405 46L23 39.3405ZM23 39L16 46L23 53L30 46L23 39Z" fill="#F3FF97"/>
<path d="M23.4999 40L17 46.4999L23.4999 53L30 46.4999L23.4999 40Z" fill="#030206"/>
<path d="M23.5001 40.3088L29.6839 46.4926L23.5001 52.6838L17.3162 46.4999L23.5001 40.3088ZM23.5001 40L17 46.4999L23.5001 53L30 46.4999L23.5001 40Z" fill="#F3FF97"/>
<path d="M24.5 41L18 47L24.5 53L31 47L24.5 41Z" fill="#030206"/>
<path d="M23.9921 40.3088L30.6516 46.4926L23.9921 52.6765L17.3326 46.4926L23.9921 40.3088ZM23.9921 40L17 46.5001L24.0001 53L31 46.5001L23.9921 40Z" fill="#F3FF97"/>
<path d="M24.5 41L18 46.9999L24.5 53L31 46.9999L24.5 41Z" fill="#030206"/>
<path d="M24.5 41.3089L30.6838 47.4927L24.5 53.6838L18.3162 47.5L24.5 41.3089ZM24.5 41L18 47.5L24.5 54L31 47.5L24.5 41Z" fill="#F3FF97"/>
<path d="M25 42L19 48.0001L25 54L31 48.0001L25 42Z" fill="#030206"/>
<path d="M25.5 41.3162L31.6838 47.5L25.5 53.6838L19.3162 47.5L25.5 41.3162ZM25.5 41L19 47.5L25.5 54L32 47.5L25.5 41Z" fill="#F3FF97"/>
<path d="M26 42L20 48.0001L26 54L32 48.0001L26 42Z" fill="#030206"/>
<path d="M25.9932 42.3088L31.7081 48.4999L26 54.6838L20.2851 48.4999L25.9932 42.3088ZM25.9932 42L20 48.4999L26 55L32 48.4999L25.9932 42Z" fill="#F3FF97"/>
<path d="M27.5 43L21 49L27.5 55L34 49L27.5 43Z" fill="#030206"/>
<path d="M27.5 42.3088L33.6838 48.4926L27.5 54.6838L21.3162 48.5L27.5 42.3088ZM27.5 42L21 48.5L27.5 55L34 48.5L27.5 42Z" fill="#F3FF97"/>
<path d="M28.4999 43L22 48.9999L28.4999 55L35 48.9999L28.4999 43Z" fill="#030206"/>
<path d="M28.5 43.2919L34.6838 49L28.5 54.7081L22.3162 49L28.5 43.2919ZM28.5 43L22 49L28.5 55L35 49L28.5 43Z" fill="#F3FF97"/>
<path d="M29 43L23 49.5001L29 56L35 49.5001L29 43Z" fill="#030206"/>
<path d="M28.5 43.3088L34.6838 49.4926L28.5 55.6838L22.3162 49.5L28.5 43.3088ZM28.5 43L22 49.5L28.5 56L35 49.5L28.5 43Z" fill="#F3FF97"/>
<path d="M29.5 43L23 49.5L29.5 56L36 49.5L29.5 43Z" fill="#030206"/>
<path d="M29.5 43.3161L35.6838 49.5001L29.5 55.6839L23.3162 49.5001L29.5 43.3161ZM29.5 43L23 49.5001L29.5 56L36 49.5001L29.5 43Z" fill="#F3FF97"/>
<path d="M30 44L23 49.9999L30 56L37 49.9999L30 44Z" fill="#030206"/>
<path d="M29.9999 44.285L36.6595 49.9931L29.9999 55.7013L23.3404 49.9931L29.9999 44.285ZM29.9999 44L23 50L29.9999 56L37 50L29.9999 44Z" fill="#F3FF97"/>
<path d="M30.9999 44L24 50L30.9999 56L38 50L30.9999 44Z" fill="#030206"/>
<path d="M31.0001 44.2919L37.6596 50L31.0001 55.7081L24.3405 50L31.0001 44.2919ZM31.0001 44L24 50L31.0001 56L38 50L31.0001 44Z" fill="#F3FF97"/>
<path d="M32 44L25 49.9999L32 56L39 49.9999L32 44Z" fill="#030206"/>
<path d="M32 44.3088L38.6595 50.4926L32 56.6765L25.3405 50.4926L32 44.3088ZM32 44L25 50.4999L32 57L39 50.4999L32 44Z" fill="#F3FF97"/>
<path d="M32.5001 44L26 50.0001L32.5001 56L39 50.0001L32.5001 44Z" fill="#030206"/>
<path d="M32.4999 44.3161L38.6838 50.4999L32.4999 56.6912L26.3161 50.5074L32.4999 44.3161ZM32.4999 44L26 50.4999L32.4999 57L39 50.4999L32.4999 44Z" fill="#F3FF97"/>
<path d="M33.5 44L27 50.5L33.5 57L40 50.5L33.5 44Z" fill="#030206"/>
<path d="M33.4999 44.3088L39.6838 50.4926L33.4999 56.6765L27.3161 50.4926L33.4999 44.3088ZM33.4999 44L27 50.4999L33.4999 57L40 50.4999L33.4999 44Z" fill="#F3FF97"/>
<path d="M34.5001 44L28 50.4999L34.5001 57L41 50.4999L34.5001 44Z" fill="#030206"/>
<path d="M34.4963 44.3088L40.6836 50.4926L34.4963 56.6765L28.309 50.5001L34.4963 44.3088ZM34.4963 44L28 50.5001L34.5037 57L41 50.5001L34.4963 44Z" fill="#F3FF97"/>
<path d="M35.5001 44L29 50.5L35.5001 57L42 50.5L35.5001 44Z" fill="#030206"/>
<path d="M35.5 44.3162L41.6838 50.5L35.5 56.6911L29.3162 50.5073L35.5 44.3162ZM35.5 44L29 50.5L35.5 57L42 50.5L35.5 44Z" fill="#F3FF97"/>
<path d="M36.5001 44L30 50.5001L36.5001 57L43 50.5001L36.5001 44Z" fill="#030206"/>
<path d="M36.5001 44.3088L42.6839 50.4926L36.5001 56.6765L30.3162 50.4926L36.5001 44.3088ZM36.5001 44L30 50.4999L36.5001 57L43 50.4999L36.5001 44Z" fill="#F3FF97"/>
<path d="M36.9999 44L31 50.0001L36.9999 56L43 50.0001L36.9999 44Z" fill="#030206"/>
<path d="M37.5001 44.3088L43.6839 50.5L37.5001 56.6838L31.3162 50.5L37.5001 44.3088ZM37.5001 44L31 50.5L37.5001 57L44 50.5L37.5001 44Z" fill="#F3FF97"/>
<path d="M37.4999 44L31 50.0001L37.4999 56L44 50.0001L37.4999 44Z" fill="#030206"/>
<path d="M38 44.2919L44.6595 50L38 55.7081L31.3405 50L38 44.2919ZM38 44L31 50L38 56L45 50L38 44Z" fill="#F3FF97"/>
<path d="M38.4999 44L32 50.0001L38.4999 56L45 50.0001L38.4999 44Z" fill="#030206"/>
<path d="M38.0001 44.2919L44.6596 50.0001L38.0001 55.7082L31.3405 50.0001L38.0001 44.2919ZM38.0001 44L31 50.0001L38.0001 56L45 50.0001L38.0001 44Z" fill="#F3FF97"/>
<path d="M39 44L32 49.9999L39 56L46 49.9999L39 44Z" fill="#030206"/>
<path d="M39.0001 43.3162L45.6596 49.5L39.0001 55.6838L32.3405 49.5L39.0001 43.3162ZM39.0001 43L32 49.5L39.0001 56L46 49.5L39.0001 43Z" fill="#F3FF97"/>
<path d="M40.5 43L34 49.4999L40.5 56L47 49.4999L40.5 43Z" fill="#030206"/>
<path d="M40.5 43.309L46.6838 49.4963L40.5 55.6836L34.3162 49.4963L40.5 43.309ZM40.5 43L34 49.4963L40.5 56L47 49.4963L40.5 43Z" fill="#F3FF97"/>
<path d="M41.5001 43L35 49.0001L41.5001 55L48 49.0001L41.5001 43Z" fill="#030206"/>
<path d="M41.5 43.285L47.6838 48.9931L41.5 54.7081L35.3162 49L41.5 43.285ZM41.5 43L35 49L41.5 55L48 49L41.5 43Z" fill="#F3FF97"/>
<path d="M41.5001 43L35 49.0001L41.5001 55L48 49.0001L41.5001 43Z" fill="#030206"/>
<path d="M41.5 42.3089L47.6838 48.4927L41.5 54.6765L35.3162 48.4927L41.5 42.3089ZM41.5 42L35 48.5L41.5 55L48 48.5L41.5 42Z" fill="#F3FF97"/>
<path d="M42.5001 42L36 48.4999L42.5001 55L49 48.4999L42.5001 42Z" fill="#030206"/>
<path d="M42.5 42.3088L48.6838 48.4926L42.5 54.6765L36.3162 48.4926L42.5 42.3088ZM42.5 42L36 48.5001L42.5 55L49 48.5001L42.5 42Z" fill="#F3FF97"/>
<path d="M43.4999 42L37 48L43.4999 54L50 48L43.4999 42Z" fill="#030206"/>
<path d="M43.5001 42.285L49.6839 47.9932L43.5001 53.7014L37.3162 47.9932L43.5001 42.285ZM43.5001 42L37 48.0001L43.5001 54L50 48.0001L43.5001 42Z" fill="#F3FF97"/>
<path d="M44 41L38 47.5001L44 54L50 47.5001L44 41Z" fill="#030206"/>
<path d="M44.5 41.3089L50.6838 47.4927L44.5 53.6765L38.3162 47.4927L44.5 41.3089ZM44.5 41L38 47.5L44.5 54L51 47.5L44.5 41Z" fill="#F3FF97"/>
<path d="M45.0001 41L39 46.9999L45.0001 53L51 46.9999L45.0001 41Z" fill="#030206"/>
<path d="M45.0001 41.2852L50.7082 46.9933L45.0001 52.7014L39.2919 46.9933L45.0001 41.2852ZM45.0001 41L39 47L45.0001 53L51 47L45.0001 41Z" fill="#F3FF97"/>
<path d="M45.4999 40L39 46.4999L45.4999 53L52 46.4999L45.4999 40Z" fill="#030206"/>
<path d="M45.5 40.3162L51.6838 46.5001L45.5 52.6912L39.3162 46.5074L45.5 40.3162ZM45.5 40L39 46.5001L45.5 53L52 46.5001L45.5 40Z" fill="#F3FF97"/>
<path d="M46.0001 40L39 46.5L46.0001 53L53 46.5L46.0001 40Z" fill="#030206"/>
<path d="M46 40.3162L52.6595 46.5L46 52.6838L39.3405 46.5L46 40.3162ZM46 40L39 46.5L46 53L53 46.5L46 40Z" fill="#F3FF97"/>
<path d="M46.5001 39L40 45.4999L46.5001 52L53 45.4999L46.5001 39Z" fill="#030206"/>
<path d="M47.0001 39.3405L53.6596 46L47.0001 52.6595L40.3405 46L47.0001 39.3405ZM47.0001 39L40 46L47.0001 53L54 46L47.0001 39Z" fill="#F3FF97"/>
<path d="M47.5001 38L41 45L47.5001 52L54 45L47.5001 38Z" fill="#030206"/>
<path d="M47.5 38.3325L53.6838 44.992L47.5 51.6516L41.3162 44.992L47.5 38.3325ZM47.5 38L41 45L47.5 52L54 45L47.5 38Z" fill="#F3FF97"/>
</svg>
