<svg width="64" height="64" viewBox="0 0 64 64" fill="none" xmlns="http://www.w3.org/2000/svg">
<g clip-path="url(#clip0_146_1186)">
<path d="M32 64C49.6732 64 64 49.6732 64 32C64 14.3269 49.6732 0 32 0C14.3269 0 0 14.3269 0 32C0 49.6732 14.3269 64 32 64Z" fill="#0033AD"/>
<path d="M22.9663 31.8717C22.8809 33.3158 24.0223 34.5522 25.5049 34.6353C25.5583 34.6353 25.6116 34.6353 25.6649 34.6353C27.1583 34.6353 28.3636 33.4613 28.3529 32.0067C28.3529 30.5522 27.1476 29.3782 25.6543 29.3886C24.2249 29.3886 23.0409 30.4795 22.9663 31.8717Z" fill="white"/>
<path d="M12.9182 31.1963C12.4382 31.1652 12.0222 31.5288 12.0009 31.9963C11.9796 32.4639 12.3422 32.8691 12.8222 32.8898C13.3022 32.921 13.7076 32.5574 13.7396 32.0898C13.7716 31.6223 13.3982 31.2275 12.9182 31.1963Z" fill="white"/>
<path d="M22.7956 16.6405C23.2222 16.4327 23.3929 15.9132 23.1796 15.4976C22.9662 15.0821 22.4329 14.9158 22.0062 15.1236C21.5796 15.3314 21.4089 15.8405 21.6222 16.2561C21.8356 16.6821 22.3582 16.8587 22.7956 16.6405Z" fill="white"/>
<path d="M25.5262 21.2847C26.1876 20.9626 26.4542 20.173 26.1236 19.5288C25.7929 18.8847 24.9822 18.6249 24.3209 18.947C23.6596 19.2691 23.3929 20.0587 23.7236 20.7028C24.0542 21.347 24.8649 21.6067 25.5262 21.2847Z" fill="white"/>
<path d="M16.3315 24.4743C16.8435 24.7963 17.5262 24.6613 17.8675 24.1626C18.1982 23.6639 18.0595 22.9989 17.5475 22.6665C17.0355 22.3444 16.3528 22.4795 16.0115 22.9782C15.6702 23.4769 15.8195 24.1522 16.3315 24.4743Z" fill="white"/>
<path d="M17.9635 30.7288C17.2169 30.6873 16.5875 31.2379 16.5449 31.9652C16.5022 32.6924 17.0675 33.3054 17.8142 33.347C18.5609 33.3886 19.1902 32.8379 19.2329 32.1106C19.2755 31.3937 18.7102 30.7704 17.9635 30.7288Z" fill="white"/>
<path d="M16.4809 39.5288C15.9369 39.7989 15.7129 40.4431 15.9902 40.9834C16.2675 41.5132 16.9289 41.7314 17.4835 41.4613C18.0275 41.1912 18.2515 40.547 17.9742 40.0067C17.6969 39.4769 17.0249 39.2587 16.4809 39.5288Z" fill="white"/>
<path d="M21.7076 28.0171C22.4436 28.4846 23.4249 28.2872 23.8942 27.5704C24.3742 26.8535 24.1716 25.8976 23.4356 25.4405C22.6996 24.973 21.7182 25.1704 21.2489 25.8872C20.7689 26.5937 20.9716 27.5496 21.7076 28.0171Z" fill="white"/>
<path d="M38.2943 21.1808C38.913 21.5756 39.7556 21.4093 40.161 20.8067C40.5663 20.2041 40.3956 19.3834 39.7769 18.9885C39.1583 18.5937 38.3156 18.76 37.9103 19.3626C37.4943 19.9756 37.665 20.7859 38.2943 21.1808Z" fill="white"/>
<path d="M41.0462 16.5574C41.4516 16.8171 41.9849 16.7028 42.2516 16.308C42.5182 15.9132 42.4009 15.3937 41.9956 15.134C41.5902 14.8743 41.0569 14.9885 40.7902 15.373C40.5342 15.7678 40.6516 16.2976 41.0462 16.5574Z" fill="white"/>
<path d="M38.4969 29.3678C37.0142 29.2847 35.7342 30.3963 35.6595 31.8405C35.5742 33.2847 36.7155 34.5314 38.1982 34.6041C38.2515 34.6041 38.3049 34.6041 38.3475 34.6041C39.8302 34.6041 41.0355 33.4301 41.0355 31.9756C41.0462 30.5938 39.9262 29.4405 38.4969 29.3678Z" fill="white"/>
<path d="M26.4115 27.8301C26.8702 28.7132 27.7982 29.2743 28.8222 29.2743C30.3049 29.2743 31.5102 28.1002 31.5102 26.6457C31.5102 26.2405 31.4142 25.8353 31.2222 25.4613C30.5502 24.1626 28.9289 23.6431 27.6062 24.2976C26.2729 24.9626 25.7395 26.5418 26.4115 27.8301Z" fill="white"/>
<path d="M47.5209 24.4743C48.0649 24.2041 48.2782 23.5496 48.0009 23.0197C47.7236 22.4898 47.0516 22.2821 46.5076 22.5522C45.9636 22.8223 45.7502 23.4665 46.0169 23.9963C46.3049 24.5262 46.9662 24.7444 47.5209 24.4743Z" fill="white"/>
<path d="M40.6942 25.3054C39.9156 25.6899 39.5956 26.6145 39.9902 27.373C40.3849 28.1314 41.3342 28.4431 42.1129 28.0587C42.8916 27.6743 43.2116 26.7496 42.8169 25.9912C42.4222 25.2327 41.4729 24.9314 40.6942 25.3054Z" fill="white"/>
<path d="M31.8942 16.1626C32.5022 16.1937 33.0248 15.7366 33.0675 15.1444C33.1102 14.5522 32.6302 14.0431 32.0222 14.0015C31.4142 13.9704 30.8915 14.4171 30.8488 15.0093C30.8168 15.6119 31.2862 16.121 31.8942 16.1626Z" fill="white"/>
<path d="M31.8836 22.947C32.7583 22.9989 33.5049 22.3444 33.5476 21.4924C33.6009 20.6405 32.9289 19.9132 32.0543 19.8717C31.1796 19.8197 30.4329 20.4743 30.3903 21.3262C30.3476 22.1782 31.0089 22.9054 31.8836 22.947Z" fill="white"/>
<path d="M23.3076 38.6976C24.0863 38.3132 24.4063 37.3886 24.0116 36.6301C23.6169 35.8717 22.6676 35.56 21.8889 35.9444C21.1103 36.3288 20.7903 37.2535 21.1849 38.0119C21.5796 38.7704 22.5289 39.0821 23.3076 38.6976Z" fill="white"/>
<path d="M32.9076 25.2015C32.0969 26.4171 32.4382 28.0379 33.6862 28.8275C34.9342 29.6171 36.5982 29.2847 37.4089 28.0691C38.2196 26.8535 37.8782 25.2327 36.6302 24.4431C36.1929 24.1626 35.6809 24.0171 35.1582 24.0171C34.2516 24.0171 33.4089 24.4639 32.9076 25.2015Z" fill="white"/>
<path d="M37.5903 36.173C36.9183 34.8743 35.2969 34.3548 33.9743 35.0093C32.6409 35.6639 32.1076 37.2431 32.7796 38.5314C33.4516 39.8301 35.0729 40.3496 36.3956 39.695C37.7183 39.0509 38.2623 37.4924 37.6009 36.1937C37.6009 36.1833 37.6009 36.1833 37.5903 36.173Z" fill="white"/>
<path d="M42.2942 35.9859C41.5582 35.5184 40.5769 35.7158 40.1076 36.4327C39.6276 37.1496 39.8302 38.1054 40.5662 38.5626C41.3022 39.0301 42.2836 38.8327 42.7529 38.1158C43.2329 37.4093 43.0302 36.4535 42.2942 35.9859Z" fill="white"/>
<path d="M47.4569 32.0483C47.4995 31.321 46.9342 30.708 46.1875 30.6665C45.4409 30.6249 44.8115 31.1756 44.7689 31.9028C44.7262 32.6301 45.2915 33.2431 46.0382 33.2846C46.7742 33.3262 47.4142 32.7652 47.4569 32.0483Z" fill="white"/>
<path d="M51.1796 31.1132C50.6996 31.0821 50.2836 31.4457 50.2622 31.9132C50.2409 32.3808 50.6036 32.7859 51.0836 32.8067C51.5636 32.8379 51.9689 32.4743 52.0009 32.0067C52.0222 31.5392 51.6596 31.1444 51.1796 31.1132Z" fill="white"/>
<path d="M47.6702 39.5288C47.1582 39.2067 46.4756 39.3418 46.1342 39.8405C45.8036 40.3392 45.9422 41.0041 46.4542 41.3366C46.9662 41.6587 47.6489 41.5236 47.9902 41.0249C48.3316 40.5262 48.1822 39.8509 47.6702 39.5288Z" fill="white"/>
<path d="M22.9449 47.4457C22.5395 47.1859 22.0062 47.3002 21.7395 47.6847C21.4729 48.0795 21.5902 48.5989 21.9849 48.8587C22.3902 49.1184 22.9235 49.0041 23.1902 48.6197C23.4675 48.2353 23.3502 47.7054 22.9449 47.4457Z" fill="white"/>
<path d="M41.2062 47.3626C40.7795 47.5704 40.6089 48.0898 40.8222 48.5054C41.0355 48.921 41.5689 49.0873 41.9955 48.8795C42.4222 48.6717 42.5929 48.1626 42.3795 47.747C42.1662 47.321 41.6435 47.1444 41.2062 47.3626Z" fill="white"/>
<path d="M31.0942 38.8015C31.9049 37.586 31.5635 35.9652 30.3155 35.1652C29.0675 34.3756 27.4035 34.708 26.5822 35.9236C25.7609 37.1392 26.1129 38.76 27.3609 39.56C27.7982 39.8405 28.3102 39.986 28.8329 39.986C29.7502 39.9963 30.5929 39.5496 31.0942 38.8015Z" fill="white"/>
<path d="M25.7076 42.8223C25.089 42.4275 24.2463 42.5937 23.841 43.1963C23.4356 43.7989 23.6063 44.6197 24.225 45.0145C24.8436 45.4093 25.6863 45.2431 26.0916 44.6405C26.5076 44.0379 26.337 43.2171 25.7076 42.8223Z" fill="white"/>
<path d="M31.9902 47.8405C31.3822 47.8093 30.8595 48.2665 30.8168 48.8587C30.7742 49.4509 31.2542 49.96 31.8622 50.0015C32.4702 50.0327 32.9928 49.5859 33.0355 48.9937C33.0675 48.3911 32.5982 47.8821 31.9902 47.8405Z" fill="white"/>
<path d="M32.001 41.0561C31.1263 41.0041 30.3796 41.6587 30.337 42.5106C30.2836 43.3626 30.9556 44.0898 31.8303 44.1314C32.705 44.173 33.4516 43.5288 33.4943 42.6769C33.5476 41.8353 32.8756 41.0976 32.001 41.0561Z" fill="white"/>
<path d="M38.4756 42.7184C37.8143 43.0509 37.5476 43.8405 37.8889 44.4846C38.2303 45.1288 39.0409 45.3885 39.7023 45.0561C40.3636 44.734 40.6303 43.9444 40.2996 43.3002C39.9583 42.6561 39.1476 42.3859 38.4756 42.7184Z" fill="white"/>
</g>
<defs>
<clipPath id="clip0_146_1186">
<rect width="64" height="64" fill="white"/>
</clipPath>
</defs>
</svg>
