<svg width="64" height="64" viewBox="0 0 64 64" fill="none" xmlns="http://www.w3.org/2000/svg">
<g clip-path="url(#clip0_196_122)">
<path d="M31.2625 0H32.7375C32.7875 0.0125 32.8375 0.025 32.8875 0.0375C33.175 0.05 33.4625 0.05 33.75 0.075C34.4875 0.1375 35.225 0.175 35.9625 0.275C36.8875 0.4 37.825 0.55 38.75 0.7375C40.775 1.1625 42.75 1.7875 44.65 2.6125C53.725 6.525 60.4875 14.4 62.975 23.9625C63.275 25.1 63.5 26.2625 63.675 27.425C63.775 28.1125 63.85 28.8125 63.9 29.5C63.95 30.0375 63.95 30.5875 63.975 31.125C63.9875 31.175 64 31.2125 64.0125 31.2625V32.7375C64 32.7625 63.9875 32.7875 63.975 32.825C63.9625 33.1375 63.9625 33.45 63.9375 33.7625C63.8875 34.4 63.8625 35.0375 63.775 35.675C63.6375 36.7 63.4875 37.7125 63.2875 38.725C62.775 41.1625 61.975 43.525 60.9 45.7625C58.7375 50.3 55.55 54.25 51.575 57.3125C48.1875 59.95 44.3125 61.8625 40.1625 62.9375C38.375 63.4125 36.5625 63.725 34.7125 63.8625C33.925 63.925 33.1375 63.95 32.35 63.9875C31.95 64 31.5375 63.9875 31.1375 63.9625C30.4125 63.925 29.675 63.9 28.95 63.825C28.2125 63.75 27.475 63.65 26.7375 63.5375C25.175 63.2875 23.6375 62.925 22.1375 62.425C11.9 59.125 4.03752 50.9 1.16252 40.55C0.625021 38.6375 0.275021 36.6875 0.125021 34.7C0.075021 33.9625 0.025021 33.2125 2.09981e-05 32.475C-0.012479 32.0375 2.09976e-05 31.5875 0.025021 31.15C0.075021 30.3 0.112521 29.4625 0.187521 28.625C0.262521 27.8375 0.375021 27.0375 0.512521 26.2625C0.850021 24.35 1.37502 22.475 2.07502 20.6625C5.76252 10.975 13.9125 3.6625 23.95 1.05C25.0875 0.75 26.25 0.525 27.4125 0.35C28.1 0.25 28.8 0.175 29.4875 0.125C30.0375 0.075 30.5875 0.075 31.125 0.05C31.1875 0.025 31.225 0.0125 31.2625 0ZM31.9875 55.55C44.9875 55.6125 55.475 44.9875 55.5625 32.275C55.65 19.05 45.0625 8.6125 32.2875 8.475C18.9 8.3375 8.60002 19.0375 8.46252 31.725C8.31252 45.075 19.15 55.6 31.9875 55.55Z" fill="#7B2BF9"/>
<path d="M31.9875 55.55C19.15 55.6125 8.31252 45.0875 8.45002 31.725C8.58752 19.05 18.8875 8.3375 32.275 8.475C45.05 8.6125 55.6375 19.05 55.55 32.275C55.4875 44.9875 45 55.6 31.9875 55.55ZM44.6375 24.9C44.5625 24.8375 44.5125 24.7875 44.4625 24.75C44.2 24.55 43.95 24.3375 43.6875 24.1375C39.875 21.1875 35.525 18.9875 30.8875 17.6625C28.8125 17.05 26.675 16.6875 24.525 16.575C23.725 16.5375 22.925 16.575 22.125 16.6C21.3375 16.625 20.55 16.725 19.775 16.8875C18.4375 17.1625 17.1625 17.6 16 18.325C14.9 19 14 19.9625 13.4125 21.125C12.7875 22.3625 12.6625 23.7 12.8 25.0625C12.9125 26.05 13.175 27.025 13.55 27.9375C14.2 29.575 15.125 31.05 16.2 32.45C17.3375 33.9125 18.6125 35.25 20.0125 36.45C20.4 36.8 20.9875 36.825 21.3875 36.4875C23.5 34.825 25.7125 33.3125 28.025 31.95C28.55 31.6625 28.875 31.125 28.8875 30.5375C28.9375 29.75 28.9875 28.95 29.05 28.1625C29.1 27.55 29.1625 26.9375 29.25 26.325C29.4 25.3375 29.5625 24.3375 29.7625 23.3625C30.0375 21.95 30.4125 20.55 30.8875 19.1875C30.9625 18.875 31.2875 18.6875 31.6 18.7625C31.625 18.775 31.65 18.775 31.675 18.7875C31.9 18.8625 32.1375 18.9375 32.3625 19.0125C32.7875 19.15 32.9375 19.4375 32.7875 19.8625C32.075 22.025 31.5625 24.25 31.275 26.5C31.1375 27.5625 31.0375 28.625 30.95 29.6875C30.8875 30.5875 30.875 31.5 30.85 32.4C30.8375 32.9125 30.8625 33.4375 30.875 33.95C30.875 34.2375 30.8875 34.5125 30.9 34.8C30.9625 35.7375 31.0125 36.675 31.1 37.6C31.1625 38.3125 31.25 39.025 31.3625 39.7375C31.525 40.725 31.7375 41.7125 31.9375 42.7C32.05 43.225 31.8375 43.65 31.3375 43.8625C30.975 44.0125 30.6125 44.15 30.25 44.3C29.7375 44.5125 29.15 44.5 28.6625 44.25C26.825 43.4 25.05 42.45 23.325 41.3875C20.1125 39.35 17.2125 36.95 14.825 33.9625C13.6125 32.4375 12.575 30.8 11.825 29C11.6375 28.5375 11.475 28.0625 11.3125 27.5875C11.275 27.475 11.2125 27.375 11.0875 27.4125C11.0125 27.4375 10.9375 27.5 10.9125 27.575C10.65 28.7 10.5 29.8375 10.4625 30.9875C10.4375 31.9375 10.4625 32.9 10.525 33.85C10.575 34.6125 10.675 35.3625 10.825 36.1125C11.125 37.75 11.625 39.35 12.3125 40.8625C12.7875 41.9 13.3375 42.9 13.9625 43.85C14.05 44.0375 14.25 44.1375 14.45 44.1125C14.6375 44.0875 14.8 43.95 14.85 43.7625C14.925 43.6 15 43.4375 15.0875 43.275C15.875 41.85 16.9125 40.6125 18.0625 39.4625C18.3375 39.2 18.775 39.175 19.075 39.4125C19.2 39.5 19.3125 39.6 19.425 39.6875C19.7625 39.9375 19.8375 40.4125 19.5875 40.75C19.5625 40.7875 19.525 40.825 19.4875 40.8625C18.7 41.6375 17.9875 42.4875 17.3625 43.3875C16.9125 44.0625 16.5 44.7625 16.325 45.5625C16.1375 46.3875 16.3875 46.9125 17.15 47.2625C17.725 47.5125 18.3375 47.65 18.9625 47.6625C19.525 47.6875 20.0875 47.6875 20.6375 47.6375C21.525 47.55 22.425 47.45 23.3 47.275C25.3875 46.85 27.45 46.2625 29.4375 45.5C32.275 44.4375 35.0375 43.1875 37.7125 41.75C40.8875 40.0625 43.9 38.1125 46.725 35.9C46.875 35.8 46.9625 35.625 46.9625 35.45C47 34.725 47.0625 34 47.0875 33.2875C47.1125 32.6625 47.1125 32.0375 47.125 31.4125C47.125 31.1375 47.1125 30.8625 47.1 30.5875C47.075 29.975 47.075 29.3625 47.0375 28.75C46.9875 28 46.925 27.25 46.8375 26.5125C46.7375 25.6625 46.625 24.8 46.4875 23.95C46.1875 22.1 45.7125 20.2875 45.075 18.525C44.575 17.1375 43.95 15.8125 43.1 14.6125C42.55 13.825 41.9125 13.1 41.0875 12.5875C40.15 12 39.1625 11.8375 38.1 12.2375C37.4875 12.4875 36.925 12.85 36.45 13.3125C35.625 14.0875 34.9875 15.0125 34.425 16C34.225 16.3625 34.325 16.65 34.7125 16.8C38.2625 18.175 41.6125 20.0375 44.65 22.3375C45.125 22.6875 45.45 23.2 45.5625 23.775C45.6625 24.275 45.75 24.7625 45.8125 25.2625C45.9125 26.075 45.4875 26.725 44.75 26.9125C42.475 27.4875 40.25 28.225 38.0875 29.1125C36.125 29.9125 34.2 30.8125 32.325 31.8C31.95 31.9875 31.675 31.8125 31.675 31.4C31.6875 31.075 31.7125 30.7625 31.7125 30.4375C31.7125 30 31.9 29.725 32.3125 29.5375C33.5125 28.9875 34.6875 28.4 35.8875 27.875C38.3 26.8 40.7875 25.9125 43.3375 25.2125C43.775 25.1125 44.1875 25.0125 44.6375 24.9ZM31.975 53.575C32.8875 53.5625 33.8 53.5 34.7125 53.375C34.8625 53.375 34.9875 53.275 35.0375 53.1375C35.075 53 35.0125 52.85 34.9 52.775C33.9375 51.9625 33.2 50.975 32.5625 49.9C32.1 49.1 31.6875 48.275 31.3375 47.425C31.2125 47.125 31 47.0375 30.7 47.15C28.3875 48.0375 26.0125 48.75 23.5875 49.25C22.6 49.45 21.6125 49.5875 20.6 49.65C20.4375 49.6625 20.3125 49.7 20.2625 49.8625C20.2125 50.025 20.3125 50.125 20.45 50.2C20.8625 50.45 21.2625 50.7 21.6875 50.9375C24.1625 52.3 26.8875 53.15 29.6875 53.4375C30.45 53.5125 31.2125 53.525 31.975 53.575ZM31.65 15.7375C32.125 15.7375 32.4125 15.5625 32.6 15.225C33.05 14.3875 33.5875 13.6 34.175 12.8625C34.625 12.3 35.125 11.8 35.6875 11.35C35.8 11.275 35.85 11.1375 35.8125 11C35.7875 10.875 35.675 10.775 35.55 10.75C35.475 10.7375 35.4 10.725 35.325 10.7125C34.4625 10.625 33.6125 10.525 32.75 10.475C32.1375 10.45 31.525 10.45 30.9125 10.5C30.0875 10.5625 29.275 10.6375 28.4625 10.75C26.5625 11.05 24.7 11.6125 22.95 12.425C21.75 12.975 20.6125 13.6375 19.5375 14.4C19.4375 14.475 19.35 14.55 19.4 14.6875C19.45 14.8125 19.5625 14.825 19.675 14.8C20.625 14.625 21.575 14.525 22.5375 14.5C23.35 14.4875 24.1625 14.5125 24.975 14.55C25.7375 14.6 26.5 14.675 27.2625 14.775C28.5375 14.95 29.8 15.2125 31.0375 15.5625C31.2875 15.6625 31.5 15.7125 31.65 15.7375ZM38.6875 52.3125C38.9375 52.275 39.2 52.25 39.4375 52.1875C40.2375 51.9875 40.8875 51.55 41.475 51C42.5 50.0375 43.2375 48.875 43.8625 47.625C43.95 47.4625 43.8875 47.25 43.725 47.1625C43.6625 47.1375 43.6 47.1125 43.5375 47.125C43.125 47.1375 42.7125 47.175 42.3 47.175C41.6375 47.175 40.975 47.1625 40.325 47.1125C39.65 47.075 38.9625 47.025 38.3 46.9125C37.3 46.7625 36.3125 46.575 35.325 46.375C34.825 46.275 34.325 46.125 33.825 46C33.6375 45.9375 33.425 45.9875 33.2875 46.1375C33.1625 46.2875 33.1375 46.5 33.2375 46.6625C33.6125 47.4 33.95 48.1625 34.35 48.8875C34.875 49.875 35.6 50.7375 36.4875 51.4375C37.125 51.9625 37.8375 52.2875 38.6875 52.3125ZM28.8375 33.8125C27.9875 34.15 22.7125 37.825 22.375 38.3125C24.7 39.9875 27.2 41.3875 29.8375 42.5125C29.2125 39.65 28.8875 36.7375 28.8375 33.8125ZM41.75 45.2C42.1875 45.1875 42.625 45.175 43.0625 45.15C43.5 45.125 43.925 45.05 44.3625 45.025C44.85 45 45.1125 44.75 45.2625 44.3C45.8125 42.6 46.2375 40.8625 46.525 39.1C46.55 38.975 46.55 38.8625 46.4375 38.7875C46.325 38.725 46.225 38.775 46.125 38.85C45.7625 39.1125 45.4 39.375 45.025 39.625C42.5 41.35 39.8625 42.9125 37.1375 44.3C37.025 44.35 36.9375 44.425 36.95 44.55C36.9625 44.6875 37.075 44.7375 37.2 44.7625C38.7 45.0375 40.225 45.1875 41.75 45.2ZM52.425 37.625C52.4 37.2625 52.3875 36.8875 52.325 36.525C52.225 35.95 52.1125 35.3875 51.9625 34.825C51.8625 34.45 51.4375 34.3625 51.15 34.625C50.5375 35.2 49.9125 35.775 49.3 36.35C49.075 36.5375 48.925 36.7875 48.85 37.075C48.7875 37.35 48.75 37.6375 48.7125 37.925C48.575 38.7625 48.475 39.6 48.3 40.425C48.1 41.4375 47.8375 42.4375 47.6 43.4375C47.525 43.6625 47.65 43.9125 47.875 43.9875C47.9875 44.025 48.1125 44.0125 48.225 43.95C48.325 43.9 48.4125 43.85 48.5125 43.8125C49.5375 43.275 50.4375 42.5875 51.125 41.65C51.9875 40.4875 52.45 39.075 52.425 37.625ZM51.6125 24.375C51.9 24.3875 52.05 24.1875 51.9625 23.9125C51.95 23.8625 51.925 23.8125 51.9 23.7625C51 21.6 49.75 19.6 48.2 17.8375C47.7625 17.3375 47.2875 16.875 46.825 16.4125C46.7625 16.3625 46.675 16.35 46.5875 16.375C46.5 16.4125 46.45 16.5125 46.4875 16.6C46.4875 16.6125 46.4875 16.6125 46.5 16.625C46.5375 16.7 46.5625 16.7875 46.5875 16.8625C47.425 18.9375 48.0375 21.1 48.425 23.3125C48.5 23.8625 48.975 24.275 49.5375 24.25C49.9 24.25 50.275 24.2625 50.6375 24.2875C50.9625 24.3 51.2875 24.3375 51.6125 24.375ZM50.0375 26.225C49.9625 26.225 49.9 26.225 49.825 26.225C49.6625 26.2 49.5125 26.2875 49.45 26.4375C49.375 26.6 49.45 26.725 49.55 26.8375C49.8 27.1375 50.0625 27.425 50.2875 27.7375C50.7875 28.4125 51.275 29.1 51.7625 29.7875C51.9625 30.0625 52.325 30.0625 52.5 29.775C52.7625 29.3375 52.95 28.85 53.0625 28.3625C53.25 27.5125 52.975 26.975 52.2 26.6375C52.1875 26.625 52.175 26.625 52.15 26.625C51.475 26.325 50.7625 26.25 50.0375 26.225ZM49.125 33.2625H49.1C49.1 33.275 49.1 33.3 49.1 33.3125C49.1 33.425 49.0875 33.5375 49.2125 33.5875C49.3375 33.6375 49.425 33.575 49.5 33.4875C49.8375 33.1375 50.175 32.8 50.5 32.45C50.75 32.1875 50.775 32 50.5875 31.7C50.25 31.15 49.9 30.625 49.55 30.0875C49.475 29.975 49.3875 29.9125 49.2625 29.95C49.1375 29.9875 49.1125 30.1 49.1125 30.225C49.125 31.2375 49.125 32.25 49.125 33.2625ZM46.2375 48.125C46.2875 48.1 46.325 48.075 46.3625 48.05C46.475 47.95 46.6 47.85 46.7 47.7375C47.0375 47.4125 47.375 47.0875 47.7 46.75C47.75 46.6875 47.775 46.6 47.75 46.5125C47.725 46.4 47.625 46.375 47.5125 46.3875C47.4875 46.3875 47.475 46.3875 47.45 46.4C47.175 46.475 46.9 46.5625 46.625 46.65C46.5625 46.675 46.5 46.7125 46.4625 46.775C46.3 47.1375 46.1375 47.4875 45.9875 47.8625C45.95 47.9875 46.05 48.125 46.2375 48.125ZM53.5625 32.35C53.55 32.2875 53.55 32.225 53.55 32.1625C53.55 32.125 53.525 32.075 53.5 32.0625C53.4625 32.0625 53.425 32.075 53.3875 32.1C53.2125 32.2375 53.1875 32.4875 53.325 32.6625C53.325 32.675 53.3375 32.675 53.3375 32.6875C53.4 32.7625 53.4875 32.75 53.5125 32.65C53.5375 32.55 53.55 32.4625 53.5625 32.35Z" fill="white"/>
<path d="M44.6375 24.9C44.1875 25.0125 43.7625 25.1125 43.35 25.225C40.8 25.925 38.3125 26.8125 35.9 27.8875C34.7 28.425 33.525 29.0125 32.325 29.55C31.925 29.7375 31.725 30.0125 31.725 30.45C31.725 30.775 31.7 31.0875 31.6875 31.4125C31.675 31.825 31.9625 32.0125 32.3375 31.8125C34.2125 30.825 36.1375 29.925 38.1 29.125C40.2625 28.225 42.4875 27.5 44.7625 26.925C45.5 26.7375 45.925 26.0875 45.825 25.275C45.7625 24.775 45.675 24.275 45.575 23.7875C45.4625 23.2125 45.1375 22.7 44.6625 22.35C41.625 20.05 38.275 18.1875 34.725 16.8125C34.3375 16.6625 34.2375 16.3625 34.4375 16.0125C35 15.025 35.6375 14.1125 36.4625 13.325C36.9375 12.8625 37.5 12.5 38.1125 12.25C39.1625 11.8375 40.1625 12 41.1 12.6C41.925 13.125 42.5625 13.8375 43.1125 14.625C43.9625 15.8375 44.575 17.1625 45.0875 18.5375C45.725 20.3 46.2 22.1125 46.5 23.9625C46.6375 24.8125 46.75 25.6625 46.85 26.525C46.9375 27.275 47 28.0125 47.05 28.7625C47.0875 29.375 47.1 29.9875 47.1125 30.6C47.125 30.875 47.1375 31.15 47.1375 31.425C47.1375 32.05 47.125 32.675 47.1 33.3C47.075 34.025 47.0125 34.75 46.975 35.4625C46.975 35.6375 46.8875 35.8125 46.7375 35.9125C43.9125 38.125 40.8875 40.075 37.725 41.7625C35.0625 43.2 32.2875 44.45 29.45 45.5125C27.45 46.275 25.4 46.8625 23.3125 47.2875C22.4375 47.4625 21.5375 47.5625 20.65 47.65C20.0875 47.7 19.5375 47.7125 18.975 47.675C18.35 47.6625 17.7375 47.525 17.1625 47.275C16.4 46.9125 16.15 46.3875 16.3375 45.575C16.525 44.775 16.925 44.075 17.375 43.4C18.0125 42.5 18.725 41.65 19.5 40.875C19.8125 40.5875 19.8375 40.1125 19.55 39.8C19.5125 39.7625 19.475 39.725 19.4375 39.7C19.325 39.6 19.2125 39.5125 19.0875 39.425C18.7875 39.1875 18.35 39.2125 18.075 39.475C16.9375 40.625 15.8875 41.85 15.1 43.2875C15.0125 43.45 14.925 43.6125 14.8625 43.775C14.8 43.9625 14.65 44.0875 14.4625 44.125C14.2625 44.15 14.0625 44.05 13.975 43.8625C13.35 42.9125 12.8 41.9125 12.325 40.875C11.6375 39.3625 11.1375 37.7625 10.8375 36.125C10.7 35.375 10.6 34.625 10.5375 33.8625C10.475 32.9125 10.45 31.95 10.475 31C10.5125 29.85 10.6625 28.7125 10.925 27.5875C10.95 27.5125 11.025 27.45 11.1 27.425C11.225 27.3875 11.2875 27.4875 11.325 27.6C11.5 28.075 11.65 28.55 11.8375 29.0125C12.5875 30.8125 13.625 32.45 14.8375 33.975C17.225 36.9625 20.1125 39.3625 23.3375 41.4C25.05 42.4625 26.8375 43.425 28.675 44.2625C29.175 44.5125 29.75 44.525 30.2625 44.3125C30.625 44.1625 30.9875 44.025 31.35 43.875C31.85 43.6625 32.0625 43.2375 31.95 42.7125C31.75 41.725 31.55 40.75 31.375 39.75C31.25 39.0375 31.175 38.325 31.1125 37.6125C31.025 36.675 30.975 35.75 30.9125 34.8125C30.9 34.525 30.8875 34.25 30.8875 33.9625C30.875 33.45 30.85 32.925 30.8625 32.4125C30.8875 31.5125 30.9 30.6 30.9625 29.7C31.0375 28.6375 31.1375 27.575 31.2875 26.5125C31.575 24.25 32.0875 22.025 32.8 19.875C32.95 19.45 32.8 19.1625 32.375 19.025C32.15 18.95 31.925 18.875 31.6875 18.8C31.3875 18.675 31.05 18.825 30.925 19.125C30.9125 19.15 30.9125 19.175 30.9 19.2C30.4375 20.5625 30.0625 21.9625 29.775 23.375C29.5875 24.3625 29.4125 25.35 29.2625 26.3375C29.175 26.95 29.1125 27.5625 29.0625 28.175C29 28.9625 28.95 29.75 28.9 30.55C28.8875 31.1375 28.55 31.6875 28.0375 31.9625C25.725 33.325 23.5125 34.8375 21.4 36.5C20.9875 36.825 20.4 36.8125 20.025 36.4625C18.625 35.2625 17.35 33.925 16.2125 32.4625C15.1375 31.075 14.225 29.5875 13.5625 27.95C13.1875 27.025 12.925 26.0625 12.8125 25.075C12.6625 23.7125 12.8 22.375 13.425 21.1375C14.0125 19.9875 14.9 19.0125 16.0125 18.3375C17.175 17.6125 18.45 17.175 19.7875 16.9C20.5625 16.7375 21.35 16.6375 22.1375 16.6125C22.9375 16.5875 23.7375 16.55 24.5375 16.5875C26.7 16.7 28.8375 17.0625 30.9 17.675C35.5375 19 39.8875 21.2 43.7 24.15C43.9625 24.35 44.2125 24.5625 44.475 24.7625C44.525 24.7875 44.5625 24.825 44.6375 24.9Z" fill="#7B2BF9"/>
<path d="M31.975 53.575C31.2125 53.525 30.45 53.5125 29.7 53.4375C26.8875 53.15 24.175 52.3 21.7 50.9375C21.275 50.7125 20.875 50.45 20.4625 50.2C20.3375 50.125 20.2375 50.025 20.275 49.8625C20.325 49.7 20.45 49.6625 20.6125 49.65C21.6125 49.5875 22.6125 49.45 23.6 49.25C26.025 48.75 28.4 48.05 30.7125 47.15C31.0125 47.0375 31.225 47.125 31.35 47.425C31.7 48.275 32.1125 49.1 32.575 49.9C33.2125 50.975 33.95 51.9625 34.9125 52.775C35.0375 52.85 35.0875 53 35.05 53.1375C35 53.275 34.875 53.375 34.725 53.375C33.8 53.4875 32.8875 53.5625 31.975 53.575Z" fill="#7B2BF9"/>
<path d="M31.65 15.7375C31.5125 15.7 31.2875 15.6625 31.0625 15.6C29.825 15.2625 28.5625 15 27.2875 14.8125C26.525 14.7125 25.7625 14.625 25 14.5875C24.1875 14.5375 23.375 14.5125 22.5625 14.5375C21.6 14.5625 20.6375 14.6625 19.7 14.8375C19.575 14.8625 19.475 14.85 19.425 14.725C19.375 14.5875 19.4625 14.5125 19.5625 14.4375C20.6375 13.675 21.775 13.0125 22.975 12.4625C24.725 11.65 26.575 11.075 28.4875 10.7875C29.3 10.6625 30.125 10.5875 30.9375 10.5375C31.55 10.4875 32.1625 10.4875 32.775 10.5125C33.6375 10.5625 34.4875 10.6625 35.35 10.75C35.425 10.7625 35.5 10.775 35.575 10.7875C35.7125 10.8 35.8125 10.9 35.8375 11.0375C35.875 11.175 35.825 11.3125 35.7125 11.3875C35.15 11.8375 34.65 12.3375 34.2 12.9C33.6 13.6375 33.075 14.4375 32.625 15.2625C32.4125 15.575 32.125 15.7375 31.65 15.7375Z" fill="#7B2BF9"/>
<path d="M38.6875 52.3125C37.8375 52.2875 37.125 51.95 36.475 51.45C35.6 50.75 34.875 49.8875 34.3375 48.9C33.925 48.175 33.5875 47.4125 33.225 46.675C33.125 46.5125 33.1375 46.3 33.275 46.15C33.4125 46 33.625 45.9375 33.8125 46.0125C34.3125 46.1375 34.8125 46.2875 35.3125 46.3875C36.3 46.5875 37.3 46.775 38.2875 46.925C38.9625 47.025 39.6375 47.075 40.3125 47.125C40.975 47.1625 41.6375 47.175 42.2875 47.1875C42.7 47.1875 43.1125 47.15 43.525 47.1375C43.7125 47.125 43.875 47.2625 43.9 47.45C43.9 47.5125 43.8875 47.575 43.8625 47.6375C43.2375 48.8875 42.4875 50.05 41.475 51.0125C40.8875 51.5625 40.2375 52.0125 39.4375 52.2C39.2 52.25 38.9375 52.275 38.6875 52.3125Z" fill="#7B2BF9"/>
<path d="M28.8375 33.8125C28.875 36.7375 29.2125 39.6625 29.8375 42.525C27.2 41.4 24.7 39.9875 22.375 38.325C22.7125 37.825 27.9875 34.15 28.8375 33.8125Z" fill="#7B2BF9"/>
<path d="M41.75 45.2C40.225 45.1875 38.7 45.0375 37.2 44.7625C37.075 44.7375 36.9625 44.6875 36.95 44.55C36.9375 44.425 37.025 44.3625 37.1375 44.3C39.8625 42.9125 42.5 41.35 45.025 39.625C45.3875 39.375 45.7625 39.1125 46.125 38.85C46.225 38.7875 46.3125 38.725 46.4375 38.7875C46.5625 38.8625 46.55 38.9625 46.525 39.1C46.2375 40.8625 45.8125 42.6 45.2625 44.3C45.1125 44.75 44.85 45 44.3625 45.025C43.925 45.05 43.5 45.1125 43.0625 45.15C42.625 45.175 42.1875 45.1875 41.75 45.2Z" fill="#7B2BF9"/>
<path d="M52.425 37.625C52.4375 39.075 51.9875 40.4875 51.125 41.65C50.4375 42.5875 49.5375 43.275 48.5125 43.8125C48.4125 43.8625 48.325 43.9125 48.225 43.95C48.0125 44.0625 47.75 43.9875 47.6375 43.7875C47.575 43.675 47.5625 43.55 47.6 43.4375C47.8375 42.4375 48.0875 41.4375 48.3 40.425C48.4625 39.6 48.575 38.7625 48.7125 37.925C48.7625 37.6375 48.7875 37.35 48.85 37.075C48.925 36.8 49.0875 36.5375 49.3 36.35C49.9125 35.775 50.5375 35.2 51.15 34.625C51.425 34.3625 51.8625 34.45 51.9625 34.825C52.1125 35.3875 52.225 35.95 52.325 36.525C52.4 36.8875 52.4 37.2625 52.425 37.625Z" fill="#7B2BF9"/>
<path d="M51.6125 24.375C51.2875 24.35 50.9625 24.3 50.625 24.2875C50.2625 24.2625 49.8875 24.2625 49.525 24.25C48.9625 24.275 48.4875 23.8625 48.4125 23.3125C48.025 21.1 47.4125 18.95 46.575 16.8625C46.5375 16.7875 46.5125 16.7 46.4875 16.625C46.4375 16.5375 46.475 16.425 46.5625 16.3875C46.575 16.3875 46.575 16.375 46.5875 16.375C46.675 16.35 46.7625 16.3625 46.825 16.4125C47.2875 16.875 47.7625 17.3375 48.2 17.8375C49.75 19.5875 51.0125 21.5875 51.9 23.7625C51.925 23.8125 51.9375 23.8625 51.9625 23.9125C52.0625 24.1875 51.9 24.3875 51.6125 24.375Z" fill="#7B2BF9"/>
<path d="M50.0375 26.225C50.7625 26.25 51.475 26.325 52.1625 26.6C52.175 26.6 52.1875 26.6125 52.2125 26.6125C52.9875 26.95 53.2625 27.4875 53.075 28.3375C52.9625 28.8375 52.775 29.3125 52.5125 29.75C52.3375 30.05 51.975 30.05 51.775 29.7625C51.2875 29.075 50.8 28.3875 50.3 27.7125C50.075 27.4 49.8125 27.1125 49.5625 26.8125C49.4625 26.6875 49.375 26.575 49.4625 26.4125C49.525 26.2625 49.6875 26.1875 49.8375 26.2C49.9 26.225 49.9625 26.225 50.0375 26.225Z" fill="#7B2BF9"/>
<path d="M49.125 33.2625C49.125 32.25 49.125 31.2375 49.125 30.225C49.125 30.1 49.1375 30 49.275 29.95C49.4125 29.9 49.5 29.975 49.5625 30.0875C49.9125 30.625 50.2625 31.1625 50.6 31.7C50.7875 32 50.75 32.1875 50.5125 32.45C50.1875 32.8 49.85 33.1375 49.5125 33.4875C49.425 33.575 49.3375 33.6375 49.225 33.5875C49.1 33.5375 49.1125 33.425 49.1125 33.3125C49.1125 33.3 49.1125 33.275 49.1125 33.2625H49.125Z" fill="#7B2BF9"/>
<path d="M46.2375 48.125C46.05 48.125 45.95 47.9875 46.0125 47.8375C46.1625 47.475 46.325 47.1125 46.4875 46.75C46.525 46.6875 46.575 46.65 46.65 46.625C46.925 46.5375 47.2 46.4625 47.475 46.375C47.5 46.375 47.5125 46.3625 47.5375 46.3625C47.6375 46.35 47.75 46.375 47.775 46.4875C47.7875 46.575 47.775 46.6625 47.725 46.725C47.4 47.0625 47.0625 47.3875 46.725 47.7125C46.6125 47.825 46.5 47.925 46.3875 48.025C46.325 48.075 46.275 48.1 46.2375 48.125Z" fill="#7B2BF9"/>
<path d="M53.5625 32.35C53.55 32.45 53.5375 32.55 53.525 32.65C53.5 32.75 53.4125 32.7625 53.35 32.6875C53.2 32.525 53.2125 32.275 53.375 32.125C53.3875 32.1125 53.3875 32.1125 53.4 32.1125C53.425 32.0875 53.475 32.075 53.5125 32.075C53.5375 32.0875 53.5625 32.1375 53.5625 32.175C53.55 32.225 53.55 32.2875 53.5625 32.35Z" fill="#7B2BF9"/>
</g>
<defs>
<clipPath id="clip0_196_122">
<rect width="64" height="64" fill="white"/>
</clipPath>
</defs>
</svg>
