<svg width="64" height="64" viewBox="0 0 64 64" fill="none" xmlns="http://www.w3.org/2000/svg">
<g clip-path="url(#clip0_237_151)">
<path d="M32 64C49.6731 64 64 49.6731 64 32C64 14.3269 49.6731 0 32 0C14.3269 0 0 14.3269 0 32C0 49.6731 14.3269 64 32 64Z" fill="#FCFF52"/>
<path fill-rule="evenodd" clip-rule="evenodd" d="M49.9021 13.9827H14.0979V50.0198H49.9046V37.44H43.9629C41.9149 42.0301 37.3043 45.225 32.0281 45.225C24.7552 45.225 18.8646 39.2448 18.8646 31.977C18.8646 24.7066 24.7552 18.7776 32.0281 18.7776C37.4067 18.7776 42.0173 22.0774 44.0653 26.7674H49.9046V13.9827H49.9021Z" fill="black"/>
</g>
<defs>
<clipPath id="clip0_237_151">
<rect width="64" height="64" fill="white"/>
</clipPath>
</defs>
</svg>
