<svg width="64" height="64" viewBox="0 0 64 64" fill="none" xmlns="http://www.w3.org/2000/svg">
<g clip-path="url(#clip0_158_41)">
<path d="M32 64C49.6732 64 64 49.6732 64 32C64 14.3269 49.6732 0 32 0C14.3269 0 0 14.3269 0 32C0 49.6732 14.3269 64 32 64Z" fill="#335DD2"/>
<path d="M33 10L28.9788 12.3211L18.0212 18.6789L14 21V43L18.0212 45.3211L29.0794 51.6789L33.1005 54L37.1217 51.6789L47.9788 45.3211L52 43V21L47.9788 18.6789L37.0212 12.3211L33 10ZM22.0423 38.3578V25.6422L33 19.2844L43.9577 25.6422V38.3578L33 44.7156L22.0423 38.3578Z" fill="white"/>
</g>
<defs>
<clipPath id="clip0_158_41">
<rect width="64" height="64" fill="white"/>
</clipPath>
</defs>
</svg>
