<svg width="64" height="64" viewBox="0 0 64 64" fill="none" xmlns="http://www.w3.org/2000/svg">
<g clip-path="url(#clip0_219_187)">
<path d="M64 0H0V64H64V0Z" fill="#FF1256"/>
<path d="M24.1152 19.072L31.0784 14.7712C31.6928 14.4128 31.6928 13.696 31.2576 13.2608L25.4464 7.6288C25.344 7.5264 25.1392 7.5264 25.0368 7.6288L24.4736 8.192C23.7568 8.9088 23.7824 10.0352 24.4736 10.752L26.752 12.8512C27.136 13.2352 27.0592 13.8752 26.5984 14.1568L23.8848 15.8208C23.04 16.3328 22.784 17.4592 23.296 18.304L23.7056 18.9696C23.7824 19.0976 23.9616 19.1488 24.1152 19.072Z" fill="white"/>
<path d="M30.8224 42.112C31.3856 39.6288 30.72 37.0432 29.0048 35.1488L24.6016 30.1568C22.144 27.392 22.7584 23.0656 25.8816 21.0944L33.0752 16.4864C33.536 16.1792 34.1504 16.256 34.56 16.6144C37.1968 19.0464 46.3616 27.776 45.952 36.8128C45.952 36.8128 45.952 50.8416 32.1536 56.0896C30.1312 56.8576 28.0576 55.0144 28.5952 52.8896C30.5152 45.3376 30.848 42.0608 30.848 42.0608L30.8224 42.112ZM32.6144 20.5056C31.5136 21.1968 29.3888 22.5536 27.5712 23.7056C26.3424 24.4736 26.112 26.1376 27.0592 27.2384L31.6672 32.5632C34.304 35.456 35.3536 39.4752 34.4576 43.2896L33.6896 46.6688C33.3568 48.128 35.0976 49.152 36.224 48.1792C41.0624 44.0064 47.872 33.9456 33.6896 20.608C33.408 20.3264 32.9728 20.3008 32.6144 20.5056Z" fill="white"/>
</g>
<defs>
<clipPath id="clip0_219_187">
<rect width="64" height="64" rx="32" fill="white"/>
</clipPath>
</defs>
</svg>
