<svg width="64" height="64" viewBox="0 0 64 64" fill="none" xmlns="http://www.w3.org/2000/svg">
<g clip-path="url(#clip0_176_16)">
<path d="M32 64C49.6736 64 64 49.6736 64 32C64 14.3264 49.6736 0 32 0C14.3264 0 0 14.3264 0 32C0 49.6736 14.3264 64 32 64Z" fill="#070A0E"/>
<path fill-rule="evenodd" clip-rule="evenodd" d="M18.4864 42.7296C17.5296 42.144 16.944 41.104 16.944 39.984V33.7312C16.944 32.9888 17.5488 32.3872 18.2912 32.3904C18.528 32.3904 18.7616 32.4544 18.9664 32.5728L33.0752 40.8C33.9008 41.28 34.4096 42.1632 34.4096 43.12V49.5968C34.4128 50.4864 33.6928 51.2096 32.8032 51.2096C32.5056 51.2096 32.2112 51.1264 31.9584 50.9728L18.4864 42.7296ZM39.5168 30.8608C40.3424 31.3408 40.848 32.2272 40.8512 33.1808V46.3264C40.8512 46.7136 40.6432 47.072 40.304 47.2608L37.216 48.9984C37.1776 49.0208 37.136 49.0368 37.0912 49.0496V41.7504C37.0912 40.8064 36.5952 39.9296 35.7824 39.4432L23.392 32.032V23.792C23.392 23.0496 23.9968 22.448 24.7392 22.4512C24.976 22.4512 25.2096 22.5152 25.4144 22.6336L39.5168 30.8608ZM45.6928 21.152C46.5216 21.632 47.0304 22.5184 47.0304 23.4752V42.6752C47.0272 43.0688 46.8096 43.4304 46.464 43.6192L43.536 45.2V31.8336C43.536 30.8896 43.04 30.016 42.2336 29.5296L29.568 21.9328V14.1184C29.568 13.8816 29.632 13.648 29.7472 13.4432C30.1216 12.8032 30.944 12.5856 31.584 12.9568L45.6928 21.152Z" fill="#00D395"/>
</g>
<defs>
<clipPath id="clip0_176_16">
<rect width="64" height="64" fill="white"/>
</clipPath>
</defs>
</svg>
