<svg width="32" height="32" viewBox="0 0 32 32" fill="none" xmlns="http://www.w3.org/2000/svg">
<g clip-path="url(#clip0_167_57)">
<path d="M16 32C24.8366 32 32 24.8366 32 16C32 7.16344 24.8366 0 16 0C7.16344 0 0 7.16344 0 16C0 24.8366 7.16344 32 16 32Z" fill="url(#paint0_radial_167_57)"/>
<path fill-rule="evenodd" clip-rule="evenodd" d="M17.484 26.0937C17.9734 23.9585 18.3137 20.969 18.3958 17.5889L19.1456 17.6072C19.0627 21.0197 18.7191 24.0624 18.2151 26.2613C17.9638 27.3577 17.6682 28.2644 17.3342 28.9058C17.1675 29.226 16.9817 29.4988 16.7719 29.6959C16.5607 29.8945 16.3011 30.0375 16 30.0375C15.6544 30.0375 15.365 29.8502 15.1366 29.6037C14.9075 29.3563 14.7038 29.0128 14.5208 28.6056C14.1538 27.7888 13.8338 26.6333 13.5741 25.2422L14.3113 25.1045C14.5665 26.4708 14.8731 27.5598 15.2049 28.2982C15.3714 28.6687 15.5353 28.9304 15.6868 29.0939C15.8391 29.2583 15.9436 29.2875 16 29.2875C16.0497 29.2875 16.1346 29.2657 16.2583 29.1495C16.3834 29.0318 16.5231 28.8396 16.669 28.5594C16.9602 28.0002 17.2387 27.1643 17.484 26.0937Z" fill="url(#paint1_linear_167_57)"/>
<path fill-rule="evenodd" clip-rule="evenodd" d="M14.7508 4.98747C14.3019 6.557 13.9455 8.79206 13.75 11.4165L13.0021 11.3608C13.1996 8.70869 13.5616 6.41819 14.0297 4.78128C14.2629 3.96562 14.5284 3.29094 14.8258 2.81191C15.1087 2.35631 15.494 1.96251 15.9999 1.96251C16.3011 1.96251 16.5606 2.10549 16.7719 2.30406C16.9816 2.50123 17.1674 2.77398 17.3341 3.09417C17.6682 3.73562 17.9637 4.64231 18.215 5.73872C18.719 7.93759 19.0626 10.9803 19.1455 14.3928L18.3958 14.4111C18.3136 11.031 17.9734 8.04147 17.484 5.90628C17.2386 4.83566 16.9602 3.99984 16.6689 3.44056C16.523 3.16037 16.3834 2.96821 16.2582 2.85054C16.1345 2.73427 16.0496 2.71251 15.9999 2.71251C15.9123 2.71251 15.7219 2.79053 15.463 3.20756C15.2186 3.60116 14.976 4.19991 14.7508 4.98747Z" fill="url(#paint2_linear_167_57)"/>
<path fill-rule="evenodd" clip-rule="evenodd" d="M13.7501 11.4165C13.6435 12.8475 13.585 14.3907 13.585 16C13.585 19.5133 13.8637 22.7074 14.3113 25.1045L13.5741 25.2422C13.1161 22.7897 12.835 19.5481 12.835 16C12.835 14.3728 12.8941 12.811 13.0021 11.3608L13.7501 11.4165Z" fill="url(#paint3_linear_167_57)"/>
<path fill-rule="evenodd" clip-rule="evenodd" d="M13.4 17.274C10.9671 15.7888 8.86516 14.2827 7.3041 12.9518L6.8175 13.5226C8.41513 14.8846 10.5507 16.4133 13.0092 17.9141L13.4 17.274Z" fill="url(#paint4_linear_167_57)"/>
<path fill-rule="evenodd" clip-rule="evenodd" d="M23.9842 22.3322C21.8905 21.6885 19.1316 20.4885 16.1635 18.8698L15.8044 19.5283C18.8011 21.1626 21.6077 22.3862 23.7638 23.0491C24.8388 23.3796 25.7718 23.5769 26.4942 23.6084C26.8548 23.6241 27.1839 23.5996 27.4595 23.5165C27.7371 23.4328 27.9907 23.2795 28.1413 23.0188C28.3952 22.5788 28.2447 22.0458 27.9893 21.5708C27.7206 21.0713 27.265 20.5008 26.6702 19.8875C25.4766 18.6567 23.6594 17.1897 21.4453 15.6855L21.0238 16.3058C23.2149 17.7944 24.9868 19.229 26.1318 20.4097C26.7063 21.0021 27.1076 21.5149 27.3288 21.9261C27.5632 22.362 27.5358 22.5674 27.4917 22.6438C27.4669 22.6867 27.4056 22.7494 27.2431 22.7984C27.0786 22.848 26.8424 22.8728 26.5268 22.8591C25.8969 22.8317 25.0339 22.6549 23.9842 22.3322Z" fill="url(#paint5_linear_167_57)"/>
<path fill-rule="evenodd" clip-rule="evenodd" d="M17.1919 13.9085C18.5641 14.7008 19.8525 15.5101 21.0238 16.3058L21.4453 15.6855C20.2583 14.8791 18.9544 14.0601 17.5669 13.259C14.284 11.3637 11.1427 9.92059 8.71695 9.11478C7.50702 8.71288 6.45648 8.46313 5.64717 8.40197C5.24352 8.37147 4.87817 8.386 4.57495 8.46509C4.27117 8.54434 3.98989 8.70009 3.82758 8.98125C3.65342 9.28291 3.67255 9.63006 3.77395 9.95344C3.87577 10.2782 4.0748 10.6295 4.34027 10.9951C4.87292 11.7288 5.72673 12.5926 6.81752 13.5226L7.30408 12.9518C6.23248 12.0383 5.42948 11.2187 4.94717 10.5545C4.7052 10.2212 4.55727 9.94491 4.48958 9.72906C4.42148 9.51191 4.44867 9.4055 4.47708 9.35625C4.50367 9.31022 4.57323 9.24066 4.76427 9.19081C4.95586 9.14084 5.22936 9.12253 5.59064 9.14984C6.3112 9.20428 7.29495 9.43272 8.48052 9.82656C10.8457 10.6123 13.9401 12.0311 17.1919 13.9085Z" fill="url(#paint6_linear_167_57)"/>
<path fill-rule="evenodd" clip-rule="evenodd" d="M16.265 13.0919C18.7843 11.722 21.1514 10.6546 23.0856 9.97494L22.8369 9.26734C20.8566 9.96319 18.4524 11.0488 15.9067 12.433L16.265 13.0919Z" fill="url(#paint7_linear_167_57)"/>
<path fill-rule="evenodd" clip-rule="evenodd" d="M6.51492 19.7777C8.10764 18.2939 10.5103 16.5129 13.3794 14.7577L12.988 14.1179C10.0912 15.8901 7.64426 17.7006 6.00367 19.2289C5.18564 19.991 4.55292 20.6969 4.16751 21.3041C3.97511 21.6072 3.83298 21.9033 3.76789 22.1825C3.70232 22.4638 3.70879 22.7589 3.85879 23.0187C4.11242 23.458 4.64814 23.5944 5.18604 23.611C5.75182 23.6285 6.47186 23.5198 7.29839 23.3123C8.95714 22.8959 11.1309 22.0588 13.5355 20.8972L13.2093 20.2218C10.8297 21.3713 8.70664 22.1855 7.11579 22.5849C6.31754 22.7853 5.67457 22.8757 5.20917 22.8614C4.71595 22.8462 4.55229 22.7199 4.50832 22.6437C4.48357 22.6009 4.46004 22.5169 4.49832 22.3528C4.53704 22.1867 4.63257 21.9709 4.80073 21.706C5.13639 21.1772 5.71626 20.5217 6.51492 19.7777Z" fill="url(#paint8_linear_167_57)"/>
<path fill-rule="evenodd" clip-rule="evenodd" d="M17.2231 18.0915C15.8431 18.8882 14.4905 19.6029 13.2092 20.2218L13.5355 20.8972C14.8339 20.2699 16.2028 19.5466 17.5981 18.741C20.8809 16.8456 23.7014 14.8467 25.6121 13.1488C26.5651 12.3019 27.3066 11.517 27.7643 10.8467C27.9925 10.5124 28.1626 10.1887 28.2457 9.88656C28.329 9.58387 28.3347 9.26241 28.1724 8.98125C28.0002 8.68306 27.695 8.52616 27.3688 8.45131C27.0416 8.37622 26.6445 8.37097 26.2029 8.41516C25.3172 8.50378 24.1636 8.80116 22.8369 9.26734L23.0855 9.97491C24.3884 9.51712 25.4777 9.24147 26.2776 9.16144C26.6789 9.12128 26.9854 9.13281 27.201 9.18231C27.4178 9.23206 27.4948 9.30756 27.5229 9.35625C27.5494 9.40228 27.5749 9.49731 27.5226 9.68766C27.47 9.87859 27.3492 10.1246 27.1449 10.4238C26.7374 11.0206 26.0477 11.7583 25.1139 12.5882C23.2508 14.2437 20.4749 16.214 17.2231 18.0915Z" fill="url(#paint9_linear_167_57)"/>
<path d="M14.0617 26.1202C14.6028 26.1202 15.0414 25.6815 15.0414 25.1405C15.0414 24.5994 14.6028 24.1608 14.0617 24.1608C13.5207 24.1608 13.082 24.5994 13.082 25.1405C13.082 25.6815 13.5207 26.1202 14.0617 26.1202Z" fill="white"/>
<path d="M6.25096 12.6185C6.5215 12.1499 7.12068 11.9893 7.58926 12.2599C8.05785 12.5304 8.2184 13.1296 7.94786 13.5982C7.67732 14.0667 7.07814 14.2273 6.60956 13.9568C6.14098 13.6862 5.98043 13.087 6.25096 12.6185Z" fill="white"/>
<path d="M23.8108 9.26137C24.0813 9.72995 23.9208 10.3291 23.4522 10.5997C22.9836 10.8702 22.3844 10.7097 22.1139 10.2411C21.8433 9.77249 22.0039 9.17331 22.4725 8.90277C22.9411 8.63223 23.5402 8.79278 23.8108 9.26137Z" fill="white"/>
<path fill-rule="evenodd" clip-rule="evenodd" d="M16.0004 14.2948C16.9424 14.2948 17.706 15.0584 17.706 16.0004C17.706 16.9424 16.9424 17.706 16.0004 17.706C15.0584 17.706 14.2948 16.9424 14.2948 16.0004C14.2948 15.0584 15.0584 14.2948 16.0004 14.2948Z" fill="white"/>
</g>
<defs>
<radialGradient id="paint0_radial_167_57" cx="0" cy="0" r="1" gradientUnits="userSpaceOnUse" gradientTransform="translate(16 16) rotate(90) scale(16)">
<stop offset="0.0909055" stop-color="#7C7C7C"/>
<stop offset="0.233848" stop-color="#3E3E3E"/>
<stop offset="0.817221"/>
</radialGradient>
<linearGradient id="paint1_linear_167_57" x1="16.3598" y1="30.0375" x2="19.9834" y2="17.8378" gradientUnits="userSpaceOnUse">
<stop offset="0.377307" stop-color="white" stop-opacity="0.6"/>
<stop offset="0.992239" stop-color="white" stop-opacity="0"/>
</linearGradient>
<linearGradient id="paint2_linear_167_57" x1="16.0738" y1="1.96251" x2="20.7477" y2="13.7812" gradientUnits="userSpaceOnUse">
<stop offset="0.634963" stop-color="white" stop-opacity="0.81"/>
<stop offset="1" stop-color="white" stop-opacity="0"/>
</linearGradient>
<linearGradient id="paint3_linear_167_57" x1="14.2968" y1="11.3608" x2="14.2968" y2="25.2582" gradientUnits="userSpaceOnUse">
<stop stop-color="white" stop-opacity="0.81"/>
<stop offset="0.646422" stop-color="white"/>
</linearGradient>
<linearGradient id="paint4_linear_167_57" x1="7.32444" y1="12.8548" x2="13.4531" y2="17.178" gradientUnits="userSpaceOnUse">
<stop stop-color="white" stop-opacity="0.6"/>
<stop offset="1" stop-color="white" stop-opacity="0"/>
</linearGradient>
<linearGradient id="paint5_linear_167_57" x1="28.8559" y1="22.9699" x2="15.2667" y2="20.7084" gradientUnits="userSpaceOnUse">
<stop offset="0.60731" stop-color="white" stop-opacity="0.81"/>
<stop offset="1" stop-color="white" stop-opacity="0"/>
</linearGradient>
<linearGradient id="paint6_linear_167_57" x1="21.0818" y1="15.5564" x2="3.44145" y2="9.01559" gradientUnits="userSpaceOnUse">
<stop stop-color="white" stop-opacity="0.81"/>
<stop offset="0.478389" stop-color="white"/>
</linearGradient>
<linearGradient id="paint7_linear_167_57" x1="23.2258" y1="10.0274" x2="15.8765" y2="13.4423" gradientUnits="userSpaceOnUse">
<stop stop-color="white" stop-opacity="0.6"/>
<stop offset="1" stop-color="white" stop-opacity="0"/>
</linearGradient>
<linearGradient id="paint8_linear_167_57" x1="3.4507" y1="23.0686" x2="12.6506" y2="13.4744" gradientUnits="userSpaceOnUse">
<stop offset="0.54518" stop-color="white" stop-opacity="0.81"/>
<stop offset="1" stop-color="white" stop-opacity="0"/>
</linearGradient>
<linearGradient id="paint9_linear_167_57" x1="28.5502" y1="8.63375" x2="13.6958" y2="20.9889" gradientUnits="userSpaceOnUse">
<stop offset="0.518582" stop-color="white"/>
<stop offset="1" stop-color="white" stop-opacity="0.81"/>
</linearGradient>
<clipPath id="clip0_167_57">
<rect width="32" height="32" fill="white"/>
</clipPath>
</defs>
</svg>
