<svg width="64" height="64" viewBox="0 0 64 64" fill="none" xmlns="http://www.w3.org/2000/svg">
<g clip-path="url(#clip0_193_98)">
<path d="M32 64C49.6732 64 64 49.6732 64 32C64 14.3269 49.6732 0 32 0C14.3269 0 0 14.3269 0 32C0 49.6732 14.3269 64 32 64Z" fill="#008DE4"/>
<path d="M39.126 13H22.3808L20.9921 20.7652L36.1067 20.7831C43.552 20.7831 45.7471 23.491 45.6844 27.9744C45.6485 30.2698 44.654 34.1614 44.224 35.4257C43.0772 38.7882 40.7208 42.617 31.8868 42.608L17.1933 42.5991L15.8091 50.3732H32.5184C38.4138 50.3732 40.9134 49.6827 43.5744 48.4633C49.4608 45.7284 52.9639 39.918 54.3705 32.3322C56.4536 21.0342 53.8554 13 39.126 13Z" fill="white"/>
<path d="M15.1551 27.7861C10.765 27.7861 10.1378 30.6464 9.72572 32.377C9.17919 34.6366 9 35.5602 9 35.5602H26.1484C30.5385 35.5602 31.1657 32.6998 31.5778 30.9692C32.1243 28.7096 32.3035 27.7861 32.3035 27.7861H15.1551Z" fill="white"/>
</g>
<defs>
<clipPath id="clip0_193_98">
<rect width="64" height="64" fill="white"/>
</clipPath>
</defs>
</svg>
