<svg width="64" height="64" viewBox="0 0 64 64" fill="none" xmlns="http://www.w3.org/2000/svg">
<g clip-path="url(#clip0_274_38)">
<mask id="mask0_274_38" style="mask-type:luminance" maskUnits="userSpaceOnUse" x="0" y="0" width="64" height="64">
<path d="M0 0H64V64H0V0Z" fill="white"/>
</mask>
<g mask="url(#mask0_274_38)">
<path d="M64 0H0V64H64V0Z" fill="#2970FF"/>
<path d="M29.4347 35.8747H39.9867C43.76 35.848 47.0907 32.8053 47.0774 28.9573C47.0907 25.1093 43.76 21.3573 39.9867 21.3333H36.6214L29.4347 16H39.9867C43.0687 16.0052 46.0587 17.0511 48.472 18.968C50.8421 20.846 52.4708 23.5025 53.0694 26.4667C53.6737 29.4204 53.1977 32.4929 51.728 35.1253C50.226 37.7958 47.8501 39.8676 45 40.992L53.3334 48H43.7867L29.4347 35.8747Z" fill="white"/>
<path d="M24.0374 28H34.544L20.2134 16H10.6667L19 23.008C16.1518 24.1282 13.778 26.1978 12.28 28.8667C9.26935 34.272 10.72 41.1787 15.5307 45.0267C17.948 46.9519 20.947 48.0002 24.0374 48H34.568L27.3814 42.6667H24.0374C19.24 42.6507 15.5014 37.0053 17.456 32.4053C18.5174 29.904 21.2907 28.008 24.0374 28Z" fill="white"/>
</g>
</g>
<defs>
<clipPath id="clip0_274_38">
<rect width="64" height="64" rx="32" fill="white"/>
</clipPath>
</defs>
</svg>
