<svg width="64" height="64" viewBox="0 0 64 64" fill="none" xmlns="http://www.w3.org/2000/svg">
<g clip-path="url(#clip0_288_19)">
<mask id="mask0_288_19" style="mask-type:luminance" maskUnits="userSpaceOnUse" x="0" y="0" width="64" height="64">
<path d="M0 0H64V64H0V0Z" fill="white"/>
</mask>
<g mask="url(#mask0_288_19)">
<path d="M64 0H0V64H64V0Z" fill="#006AD2"/>
<path d="M22.2614 53.3333L23.4854 50.0133L21.5014 50.2L20.6294 52.424C20.4374 52.856 20.2507 53.3093 19.696 53.3093L15.1467 53.3333L16.0934 50.6667H11.0667C11.088 50.3387 20.7094 26.0587 21.0827 25.3333H29.2694C30.016 25.4053 30.4374 25.9813 30.2027 26.728L29.0614 29.6693L24.1147 42.896C30.9707 42.896 37.4587 38.8747 40.4 32.656C42.6187 28.4587 43.2267 21.3333 36.6907 21.3333H11.0027L14.3867 15.6907C14.5385 15.3898 14.7723 15.1381 15.061 14.9644C15.3498 14.7908 15.6818 14.7024 16.0187 14.7093H29.6907L31.232 10.6667H35.712C35.7788 10.6756 35.8431 10.6981 35.9009 10.7327C35.9587 10.7674 36.0088 10.8134 36.0483 10.868C36.0877 10.9227 36.1156 10.9848 36.1302 11.0506C36.1448 11.1164 36.1459 11.1844 36.1334 11.2507L36.016 11.624L35.0107 14.2907L34.8694 14.6907H36.736L36.8774 14.3867L38.1867 10.992C38.3014 10.6667 38.3014 10.6667 38.6054 10.6667H42.5707C43.1093 10.6667 43.3174 10.9707 43.1094 11.5067L42.032 14.4107L41.8694 14.8053L42.2187 14.8773C44.04 15.1093 45.8347 15.5067 47.5147 16.2773C48.7974 16.8613 49.9653 17.608 50.92 18.68C52.2267 20.128 52.88 21.8293 52.9734 23.7653C53.0907 25.632 52.7414 27.4507 52.112 29.2027C50.7256 33.325 48.4744 37.1035 45.5094 40.2853C41.1547 44.784 35.3787 47.4587 29.3627 48.9387C29.0827 49.0107 28.944 49.1253 28.8507 49.4053L27.672 52.5627C27.44 53.1467 27.2054 53.3333 26.624 53.3333H22.2614Z" fill="white"/>
</g>
</g>
<defs>
<clipPath id="clip0_288_19">
<rect width="64" height="64" rx="32" fill="white"/>
</clipPath>
</defs>
</svg>
