<svg width="64" height="64" viewBox="0 0 64 64" fill="none" xmlns="http://www.w3.org/2000/svg">
<g clip-path="url(#clip0_274_54)">
<path d="M32 0C14.3253 0 0 14.3253 0 32C0 49.6747 14.3253 64 32 64C49.6747 64 64 49.6747 64 32C64 14.3253 49.6747 0 32 0ZM47.8933 37.0133C46.5067 33.92 41.3867 27.0933 33.92 27.84C26.1333 28.6933 17.28 33.0667 14.72 39.4667C10.7733 36.3733 14.1867 31.04 16.5333 28.5867C16 26.24 17.4933 21.12 18.3467 18.9867C18.6667 17.1733 20.16 15.8933 20.9067 15.5733C20.8 14.2933 23.04 13.6533 24.1067 13.44L24.2133 13.2267C24.5333 12.2667 24.8533 11.0933 27.6267 10.24C29.9733 9.38667 32.1067 11.52 32.96 12.6933C33.1733 12.0533 34.0267 11.0933 34.88 11.84C42.56 13.0133 45.12 21.44 45.5467 25.3867C47.04 26.4533 50.1333 29.2267 50.88 31.7867C51.6267 34.88 50.7733 35.52 49.7067 36.3733L49.4933 36.5867C48.96 37.2267 48.32 37.2267 47.8933 37.0133ZM46.4 40.32C44.7253 47.3387 39.0933 52.7253 32 54.08C27.52 54.08 20.3733 47.04 18.3467 43.7333C14.1867 43.4133 15.1467 41.28 16.1067 40.32L15.5733 40.1067C17.4933 35.6267 22.9333 30.2933 33.6 29.0133C39.4667 28.2667 43.9467 32.4267 46.6133 36.6933C46.72 38.08 46.6133 39.5733 46.4 40.32ZM23.04 34.9867C23.68 36.5867 25.6 39.1467 28.3733 36.16C28.16 35.3067 26.6667 33.8133 23.04 34.9867ZM27.3067 50.1333C26.88 49.4933 29.44 49.1733 30.72 49.0667L32.4267 48.64C32.7467 47.2533 32.1067 47.1467 31.7867 47.2533C29.2267 47.4667 29.44 44.48 30.08 43.52C30.8267 42.6667 32.4267 42.9867 32.96 43.0933C33.4933 43.3067 34.3467 43.0933 34.6667 42.9867C36.2667 42.88 36.16 44.8 35.84 45.76C35.7333 47.04 33.92 47.4667 33.0667 47.4667C32.96 48.4267 33.1733 48.8533 33.3867 48.8533L37.0133 49.7067C38.4 50.24 37.6533 50.3467 37.0133 50.4533C35.2 49.28 33.92 49.7067 33.0667 49.92L32.4267 50.1333C30.9333 49.6 29.3333 49.7067 28.6933 49.92C28.3733 50.24 27.6267 50.6667 27.3067 50.1333ZM36.8 36.6933C36.9067 35.4133 38.1867 33.28 41.92 35.2C41.3867 36.48 39.5733 38.5067 36.8 36.6933Z" fill="#EFBFA8"/>
</g>
<defs>
<clipPath id="clip0_274_54">
<rect width="64" height="64" fill="white"/>
</clipPath>
</defs>
</svg>
