<svg width="64" height="64" viewBox="0 0 64 64" fill="none" xmlns="http://www.w3.org/2000/svg">
<g clip-path="url(#clip0_229_17)">
<path d="M50.7104 0.349731H13.2896C6.14312 0.349731 0.349731 6.14312 0.349731 13.2896V50.7104C0.349731 57.8569 6.14312 63.6503 13.2896 63.6503H50.7104C57.8569 63.6503 63.6503 57.8569 63.6503 50.7104V13.2896C63.6503 6.14312 57.8569 0.349731 50.7104 0.349731Z" fill="url(#paint0_linear_229_17)"/>
<path d="M40.3291 15.0382L15.7377 49.6584H23.2877L48.0066 15.0382H40.3291Z" fill="white"/>
<path d="M24.0743 15.0382L31.3098 25.2396L27.5348 30.8041L16.3669 15.0382H24.0743Z" fill="url(#paint1_linear_229_17)"/>
<path d="M41.0618 49.6612L33.04 38.378L36.8151 32.968L48.6121 49.6612H41.0618Z" fill="url(#paint2_linear_229_17)"/>
<path d="M50.7104 0.349731H13.2896C6.14312 0.349731 0.349731 6.14312 0.349731 13.2896V50.7104C0.349731 57.8569 6.14312 63.6503 13.2896 63.6503H50.7104C57.8569 63.6503 63.6503 57.8569 63.6503 50.7104V13.2896C63.6503 6.14312 57.8569 0.349731 50.7104 0.349731Z" stroke="#2D2D3D" stroke-width="2"/>
</g>
<defs>
<linearGradient id="paint0_linear_229_17" x1="51.5847" y1="-8.5683" x2="36.0219" y2="56.1312" gradientUnits="userSpaceOnUse">
<stop stop-color="#2C2C3D"/>
<stop offset="1" stop-color="#1A1A27"/>
</linearGradient>
<linearGradient id="paint1_linear_229_17" x1="22.3441" y1="17.2022" x2="32.4879" y2="29.664" gradientUnits="userSpaceOnUse">
<stop stop-color="white"/>
<stop offset="1" stop-color="white" stop-opacity="0.55"/>
</linearGradient>
<linearGradient id="paint2_linear_229_17" x1="42.7923" y1="47.0337" x2="30.3519" y2="29.9668" gradientUnits="userSpaceOnUse">
<stop stop-color="#6966FF"/>
<stop offset="1" stop-color="#6966FF" stop-opacity="0.36"/>
</linearGradient>
<clipPath id="clip0_229_17">
<rect width="64" height="64" rx="32" fill="white"/>
</clipPath>
</defs>
</svg>
