<svg width="64" height="64" viewBox="0 0 64 64" fill="none" xmlns="http://www.w3.org/2000/svg">
<g clip-path="url(#clip0_235_6)">
<path d="M41.0666 16L5.86664 50.6667C-4.26669 36.2667 -1.06669 16 13.3333 5.86667C27.7333 -4.26666 48 -1.06666 58.1333 13.3333C58.6666 14.4 59.2 14.9333 59.7333 16H41.0666Z" fill="#DEF141"/>
<path d="M44.2667 24.5333L11.7333 57.0667C10.6667 56.5333 10.1333 55.4667 9.06665 54.9333L42.6666 21.3333H61.8667C62.4 22.4 62.4 23.4667 62.9333 24.5333H44.2667ZM50.1333 37.8667H63.4666C60.2666 55.4667 43.2 66.6667 26.1333 62.9333C25.6 62.9333 25.6 62.9333 25.0666 62.9333C24.5333 62.9333 50.1333 37.8667 50.1333 37.8667Z" fill="#DEF141"/>
<path d="M64 32C64 32.5333 64 32.5333 64 33.0666H48L19.7333 61.3333C18.6667 60.8 17.6 60.2666 16.5333 59.7333L46.9333 29.3333H64C64 30.4 64 30.9333 64 32Z" fill="#DEF141"/>
</g>
<defs>
<clipPath id="clip0_235_6">
<rect width="64" height="64" fill="white"/>
</clipPath>
</defs>
</svg>
