<svg width="64" height="64" viewBox="0 0 64 64" fill="none" xmlns="http://www.w3.org/2000/svg">
<g clip-path="url(#clip0_221_4833)">
<path d="M32.0226 64.0452C49.7082 64.0452 64.0452 49.7082 64.0452 32.0226C64.0452 14.337 49.7082 0 32.0226 0C14.337 0 0 14.337 0 32.0226C0 49.7082 14.337 64.0452 32.0226 64.0452Z" fill="#7866D5"/>
<path d="M44.9852 16.4404C46.0692 16.5759 47.1983 16.6662 48.2823 16.8469C50.4051 17.2534 51.1278 18.3373 50.7665 20.5053C50.6761 21.3183 50.0438 21.9506 49.2308 22.0861C48.734 22.1764 48.192 22.2216 47.6952 22.1764C40.6493 22.1764 33.6486 22.2216 26.6027 22.2216C25.5639 22.2216 24.4799 22.3119 23.4411 22.4926C19.9633 23.0346 18.6084 24.4799 18.3374 28.0028C18.2019 29.6288 18.2019 29.6288 19.873 29.6288H47.8758C48.1468 29.6288 48.4178 29.6288 48.6888 29.6288C49.1405 29.6288 49.547 29.7643 49.9535 29.9901C51.2181 30.8031 50.9019 32.1129 50.8568 33.2872C50.8116 34.2357 50.2245 34.7777 49.2308 34.9584C48.8243 35.0487 48.4178 35.0487 47.9662 35.0487C38.391 35.0487 28.8158 35.0487 19.2407 35.0487C18.2019 35.0487 18.2019 35.0487 18.2922 36.0875C18.3374 37.036 18.4277 37.9845 18.6535 38.933C19.1052 40.6493 20.144 41.7332 21.9055 42.2301C23.8024 42.7721 25.7897 42.8624 27.7319 42.9076C34.5519 42.9076 41.4171 42.9076 48.2823 42.9076C49.1405 42.9076 49.9535 42.9979 50.4955 43.8109C51.3536 45.1658 50.9019 46.9273 49.547 47.7855C49.3663 47.921 49.1856 48.0113 48.9598 48.0565C47.4693 48.5533 45.9337 48.6436 44.3529 48.6888C37.8942 48.8243 31.4806 48.8243 25.0671 48.6888C23.0798 48.6436 21.0925 48.4178 19.1504 48.0113C14.5886 47.0628 12.2852 44.7142 11.5173 40.1073C11.3367 39.0685 11.2463 37.9845 11.1108 36.9005V28.4996C11.2012 27.6867 11.2915 26.8285 11.3818 26.0155C11.969 20.8215 14.3176 18.247 19.4214 17.0727C21.228 16.6662 23.125 16.5759 24.9316 16.3952L44.9852 16.4404Z" fill="white"/>
<path d="M34.6874 49.5921C31.4355 49.5921 28.2287 49.5469 25.0219 49.5018C22.9895 49.4566 20.957 49.2308 18.9697 48.7791C14.0466 47.7403 11.5173 45.1207 10.7043 40.2428C10.5688 39.4749 10.4785 38.7071 10.4333 37.9845C10.3882 37.6683 10.343 37.3522 10.2979 36.9908V36.9005V28.4093L10.3882 27.5963C10.4333 27.0092 10.5237 26.4672 10.5688 25.9252C11.2012 20.3698 13.8208 17.5243 19.2859 16.3049C20.7312 15.9887 22.1313 15.8532 23.5314 15.7177C23.9831 15.6725 24.4348 15.6274 24.8864 15.5822H24.9768H45.0756H45.1207C45.4369 15.6274 45.7982 15.6725 46.1144 15.6725C46.8822 15.7629 47.65 15.808 48.463 15.9887C51.0374 16.4855 52.0311 17.9308 51.5794 20.5505C51.4439 21.6796 50.5406 22.6281 49.3211 22.8087C48.7791 22.8991 48.2372 22.9442 47.65 22.9442C40.6493 22.9894 33.6034 23.0346 26.6027 23.0346C25.6091 23.0346 24.5703 23.1249 23.5766 23.3056C20.4602 23.8024 19.4214 24.9315 19.1504 28.0932C19.1504 28.3641 19.1052 28.6351 19.1052 28.861C19.2859 28.861 19.602 28.861 19.873 28.861H48.6888C49.276 28.861 49.8631 29.0416 50.36 29.3126C51.8956 30.3063 51.7601 31.7968 51.6698 32.8807C51.6698 33.0162 51.6246 33.1969 51.6246 33.3324C51.5343 34.597 50.7664 35.4552 49.3663 35.7262C48.8695 35.8165 48.4178 35.8165 47.9662 35.8165H19.2859C19.2407 35.8165 19.1504 35.8165 19.1052 35.8165C19.1052 35.8617 19.1052 35.9068 19.1052 35.952V35.9972C19.1504 36.9457 19.2407 37.849 19.4665 38.7523C19.8278 40.1524 20.686 41.0106 22.1313 41.4171C24.0734 41.9591 26.0607 42.0494 27.777 42.0494C33.1066 42.0946 38.5265 42.0946 43.8109 42.0946H48.3275C49.005 42.0946 50.4051 42.0946 51.2181 43.4044C51.7601 44.2625 51.8956 45.2562 51.6698 46.2047C51.4439 47.1531 50.8568 47.9661 49.9986 48.5081C49.7728 48.6436 49.5018 48.7791 49.2308 48.8694C47.5597 49.4114 45.8434 49.5018 44.3981 49.5469C41.1913 49.5469 37.9393 49.5921 34.6874 49.5921ZM11.9238 36.8553C11.969 37.1715 12.0142 37.4876 12.0142 37.8038C12.1045 38.5265 12.1948 39.2491 12.2851 39.9718C13.0078 44.2174 15.0403 46.295 19.2859 47.1983C21.1828 47.6048 23.125 47.8306 25.0671 47.8758C31.4355 48.0113 37.9393 48.0113 44.3529 47.8758C45.6627 47.8306 47.2435 47.7403 48.6888 47.2886C48.8243 47.2435 48.9598 47.1531 49.0953 47.108C49.547 46.7918 49.9083 46.3402 50.0438 45.7982C50.1793 45.2562 50.089 44.7142 49.7728 44.2174C49.5018 43.8109 49.1405 43.6754 48.2823 43.6754H43.7657C38.5265 43.6754 33.0614 43.6754 27.7319 43.6302C25.9252 43.6302 23.8024 43.5399 21.6796 42.9076C19.6472 42.3656 18.3825 41.0558 17.8857 39.0233C17.6599 38.0296 17.5244 36.9908 17.5244 35.9972V35.952C17.4792 35.3197 17.4341 34.868 17.7954 34.4615C18.1567 34.055 18.6535 34.055 19.2859 34.055H48.0113C48.3727 34.055 48.7791 34.055 49.1405 33.9647C49.8631 33.8292 50.0438 33.5131 50.089 33.0614C50.089 32.8807 50.1341 32.7452 50.1341 32.5646C50.2245 31.4354 50.2245 30.8934 49.5921 30.4869C49.3663 30.3514 49.0501 30.2611 48.7791 30.2611H19.873C18.8794 30.2611 18.2922 30.2611 17.8405 29.8095C17.3889 29.3578 17.4792 28.7255 17.5244 27.777C17.8405 23.8927 19.4665 22.1313 23.3056 21.5441C24.3896 21.3634 25.4736 21.2731 26.6027 21.2279C33.6486 21.2279 40.6493 21.1828 47.6952 21.1828C48.192 21.1828 48.6436 21.1828 49.0953 21.0924C49.547 21.0473 49.9083 20.686 49.9535 20.2343C50.2696 18.4277 49.818 17.8405 48.1017 17.4792C47.379 17.3437 46.6564 17.2533 45.9337 17.2082C45.6175 17.163 45.2562 17.1179 44.9401 17.1179H24.9768C24.5251 17.163 24.0734 17.2082 23.6218 17.2534C22.2216 17.3888 20.9118 17.4792 19.5568 17.7953C14.8144 18.9697 12.7368 21.2731 12.1948 26.151C12.1497 26.693 12.0593 27.235 12.0142 27.8222L11.9238 28.59V36.8553Z" fill="white"/>
</g>
<defs>
<clipPath id="clip0_221_4833">
<rect width="64" height="64" fill="white"/>
</clipPath>
</defs>
</svg>
