<svg width="64" height="64" viewBox="0 0 64 64" fill="none" xmlns="http://www.w3.org/2000/svg">
<g clip-path="url(#clip0_172_85)">
<path d="M32 64C49.6732 64 64 49.6732 64 32C64 14.3269 49.6732 0 32 0C14.3269 0 0 14.3269 0 32C0 49.6732 14.3269 64 32 64Z" fill="black"/>
<path d="M19.9207 29.7011V38.903L15.9603 41.2003V27.4006L19.9207 29.7011Z" fill="#FFA534"/>
<path d="M51.6023 20.5008V43.5008L47.6419 45.8012L47.6404 27.4006L43.6816 29.6995V48.1017L31.8004 55V32.0015L35.7608 29.7011V48.1017L39.7212 45.8012V27.4006L51.6023 20.5008Z" fill="#FFA534"/>
<path d="M23.8812 18.1988L19.9208 20.4992L23.8812 22.7997V18.1988Z" fill="#FFA534"/>
<path d="M31.8003 13.5994L27.84 15.8998L31.8003 18.1988V13.5994Z" fill="#FFA534"/>
<path d="M51.6022 20.5008L47.6419 22.7997L31.8003 13.5994L27.84 15.8998V15.9014L31.8003 18.1988L43.6815 25.1002L39.7226 27.4006H39.7211V27.3991L23.8811 18.1988L19.9208 20.4992L35.7607 29.7011L31.8003 32.0016L12 20.4992L31.7988 9H31.8003L51.6022 20.5008Z" fill="white"/>
<path d="M27.8399 43.5008V48.1017L15.9603 41.2003L19.9207 38.9029L27.8399 43.5008Z" fill="white"/>
<path d="M35.7606 48.1017L39.721 45.8012L35.7606 43.5008V48.1017Z" fill="white"/>
<path d="M12 20.4992V43.5008L31.8003 55V31.9985L12 20.4992ZM27.84 48.1017L15.9588 41.2003V27.4006L27.84 34.302V48.1017Z" fill="#FF6C2D"/>
<path d="M47.642 45.8012L43.6816 43.5008V29.6995L47.6405 27.4006L47.642 45.8012Z" fill="#FF6C2D"/>
<path d="M47.6419 22.7997L43.6816 25.1002L31.8004 18.1988V13.5994L47.6419 22.7997Z" fill="#FF6C2D"/>
<path d="M23.8811 18.1988V22.7997L35.7607 29.7011V43.5008L39.7211 45.8012V27.4006L23.8811 18.1988Z" fill="#FF6C2D"/>
</g>
<defs>
<clipPath id="clip0_172_85">
<rect width="64" height="64" fill="white"/>
</clipPath>
</defs>
</svg>
