<svg width="64" height="64" viewBox="0 0 64 64" fill="none" xmlns="http://www.w3.org/2000/svg">
<g clip-path="url(#clip0_229_27)">
<path d="M32 64C49.6731 64 64 49.6731 64 32C64 14.3269 49.6731 0 32 0C14.3269 0 0 14.3269 0 32C0 49.6731 14.3269 64 32 64Z" fill="black"/>
<path d="M54.875 35.2875C54.875 35.275 54.875 35.275 54.875 35.2875C54.875 35.2625 54.875 35.25 54.8875 35.25C54.9 35.2125 54.9 35.175 54.9 35.125C54.9 35.1125 54.9 35.1 54.9 35.075C54.9 35.0375 54.9 35 54.8875 34.9625C54.8875 34.95 54.8875 34.95 54.8875 34.9375L53.2625 28.15C53.2 27.9 53.0125 27.7125 52.7625 27.65L46.0375 26.025C46.025 26.025 46.0125 26.025 46 26.025C45.9625 26.0125 45.9375 26.0125 45.9 26.0125C45.8875 26.0125 45.8625 26.0125 45.85 26.0125C45.8125 26.0125 45.775 26.025 45.725 26.025C45.7125 26.025 45.7 26.025 45.6875 26.025H45.675C45.625 26.0375 45.5875 26.0625 45.5375 26.0875C45.525 26.0875 45.525 26.1 45.5125 26.1C45.475 26.125 45.4375 26.15 45.4125 26.175L45.4 26.1875L37.2625 34.0875C37.1875 34.1125 37.1125 34.1625 37.0625 34.2125C37 34.275 36.95 34.35 36.925 34.425L34.0125 37.2625L32.3875 31.675C32.3875 31.6625 32.375 31.6375 32.3625 31.625C32.35 31.6 32.35 31.5875 32.3375 31.575C32.3 31.5 32.2625 31.4375 32.2 31.3875C32.1375 31.3375 32.075 31.3 32 31.2625C31.9875 31.25 31.9625 31.25 31.95 31.2375C31.9375 31.2375 31.9125 31.225 31.9 31.2125L26.4625 29.9L37.9625 18.45L36.2125 10.7875L28.8 9.125L9.09998 28.75L10.7625 36.15L17.5 37.9L19.15 44.4125C19.2125 44.6625 19.4125 44.85 19.6625 44.9L25.9 46.15L27.7375 52.7125C27.7375 52.725 27.75 52.7375 27.7625 52.7625C27.775 52.775 27.775 52.8 27.7875 52.8125C27.825 52.875 27.8625 52.95 27.9125 53V53.0125C27.9625 53.0625 28.0375 53.1125 28.1125 53.1375C28.1375 53.15 28.15 53.15 28.175 53.1625C28.1875 53.175 28.2125 53.175 28.225 53.1875L34.825 54.875C34.875 54.8875 34.9375 54.9 34.9875 54.9C35.05 54.9 35.1 54.8875 35.15 54.875C35.1625 54.875 35.1625 54.875 35.175 54.875C35.1875 54.875 35.2 54.8625 35.2 54.8625C35.225 54.85 35.25 54.85 35.2625 54.8375C35.2875 54.825 35.3 54.8125 35.325 54.8125C35.3375 54.8 35.3625 54.7875 35.375 54.775C35.3875 54.7625 35.4125 54.75 35.425 54.7375C35.4375 54.725 35.4375 54.725 35.45 54.7125L54.6875 35.6L54.7 35.5875C54.725 35.5625 54.75 35.525 54.775 35.4875C54.775 35.475 54.7875 35.475 54.7875 35.4625C54.8375 35.375 54.8625 35.325 54.875 35.2875ZM46.125 42.1875L44.8375 37.0125L48.0125 33.8375L52.975 35.375L46.125 42.1875ZM35.3125 52.9375L33.875 47.9875L39.6625 42.2L44.525 43.7875L35.3125 52.9375ZM27.4125 46.5625L31.9875 47.9625L28.725 51.225L27.4125 46.5625ZM37.2 36.05L38.5875 41.375L33.05 46.9125L27.7 45.275L37.2 36.05ZM45.5625 27.925L47.0625 32.9L43.9375 36.025L38.875 34.425L45.5625 27.925ZM44.825 42.475L40.725 41.1375L43.7375 38.125L44.825 42.475ZM39.6875 40.275L38.5 35.7125L42.875 37.0875L39.6875 40.275ZM32.7875 49.0625L34.0125 53.2625L29.6875 52.1625L32.7875 49.0625ZM53.3125 34.1L48.3625 32.5625L46.875 27.6L52.0625 28.85L53.3125 34.1ZM26.8125 44.275L25.6 39.2875L27.45 37.35L32.4625 38.7875L26.8125 44.275ZM27.55 35.3L26.2125 31.2125L30.475 32.2375L27.55 35.3ZM28.5 36.25L31.4375 33.1625L32.6875 37.4375L28.5 36.25ZM26.5 36.4L24.65 38.3375L19.3625 36.9875L24.8875 31.4875L26.5 36.4ZM20.3 19.4875L21.7125 24.175L15.9 30.0375L11.1125 28.6375L20.3 19.4875ZM29.925 15.8875L26.875 18.975L21.9375 17.8625L28.675 11.1625L29.925 15.8875ZM29.2625 25.2375L27.9625 19.775L30.85 16.8625L35.975 18.55L29.2625 25.2375ZM22.7875 23.1L21.6 19.1625L25.7625 20.1L22.7875 23.1ZM26.85 20.8875L27.9125 25.375L23.75 24.025L26.85 20.8875ZM15.75 32.0875L17.0625 36.4L12.625 35.25L15.75 32.0875ZM16.825 31.0125L22.6875 25.1L27.75 26.75L18.375 36.0875L16.825 31.0125ZM36.3125 17.2375L31.225 15.5625L29.9375 10.75L35.0875 11.9125L36.3125 17.2375ZM10.7375 29.925L14.825 31.125L11.7125 34.2625L10.7375 29.925ZM20.3375 43.6625L18.975 38.275L24.3 39.6375L25.5375 44.7L20.3375 43.6625Z" fill="url(#paint0_linear_229_27)"/>
</g>
<defs>
<linearGradient id="paint0_linear_229_27" x1="19.3337" y1="44.7213" x2="44.7363" y2="19.3187" gradientUnits="userSpaceOnUse">
<stop stop-color="#34A3ED"/>
<stop offset="0.9988" stop-color="#8165F5"/>
</linearGradient>
<clipPath id="clip0_229_27">
<rect width="64" height="64" fill="white"/>
</clipPath>
</defs>
</svg>
