<svg width="64" height="64" viewBox="0 0 64 64" fill="none" xmlns="http://www.w3.org/2000/svg">
<g clip-path="url(#clip0_203_29)">
<path d="M32 0.574066C49.3532 0.574066 63.426 14.6468 63.426 32C63.426 49.3532 49.3532 63.4259 32 63.4259C14.6469 63.4259 0.574097 49.3532 0.574097 32C0.574097 14.6468 14.6469 0.574066 32 0.574066Z" fill="#111111" stroke="#111111"/>
<path d="M32 0C14.3188 0 0 14.3188 0 32C0 49.6648 14.3188 64 32 64C49.6648 64 64 49.6812 64 32C64 14.3188 49.6648 0 32 0Z" fill="url(#paint0_radial_203_29)" fill-opacity="0.7"/>
<path d="M32 0.590454C49.3531 0.590454 63.4095 14.6468 63.4095 32C63.4095 49.3531 49.3531 63.4095 32 63.4095C14.6468 63.4095 0.590454 49.3531 0.590454 32C0.590454 14.6468 14.6468 0.590454 32 0.590454Z" stroke="url(#paint1_linear_203_29)"/>
<path fill-rule="evenodd" clip-rule="evenodd" d="M24.9964 17.1235H24.3075L23.8646 17.6484L12.4654 31.0487L11.6453 32L12.4654 32.9513L23.881 46.3516L24.3239 46.8765H25.0128H45.5643H47.0404V45.4003V36.8714H44.0881V43.9241H28.2439L37.7242 32.9677L38.5607 32L37.7242 31.0323L28.2439 20.0759H44.0881V27.1287H47.0404V18.5997V17.1235H45.5643H24.9964ZM25.0128 20.8632L15.5325 32L25.0128 43.1369L34.6407 32L25.0128 20.8632Z" fill="white"/>
</g>
<defs>
<radialGradient id="paint0_radial_203_29" cx="0" cy="0" r="1" gradientUnits="userSpaceOnUse" gradientTransform="translate(32.0718 9.34258) rotate(90) scale(67.4693 47.4915)">
<stop offset="0.03125" stop-color="#3A3A3A"/>
<stop offset="1" stop-color="#1C1C1C"/>
</radialGradient>
<linearGradient id="paint1_linear_203_29" x1="31.9997" y1="-0.603781" x2="31.9997" y2="64.6032" gradientUnits="userSpaceOnUse">
<stop stop-color="white"/>
<stop offset="1" stop-color="#111111"/>
</linearGradient>
<clipPath id="clip0_203_29">
<rect width="64" height="64" fill="white"/>
</clipPath>
</defs>
</svg>
