<svg width="64" height="64" viewBox="0 0 64 64" fill="none" xmlns="http://www.w3.org/2000/svg">
<g clip-path="url(#clip0_182_18)">
<path d="M32 64C49.6731 64 64 49.6731 64 32C64 14.3269 49.6731 0 32 0C14.3269 0 0 14.3269 0 32C0 49.6731 14.3269 64 32 64Z" fill="#1969FF"/>
<path d="M30.0625 10.175C31.1375 9.60626 32.7812 9.60626 33.8563 10.175L44.8563 15.975C45.5063 16.3188 45.8625 16.825 45.925 17.3563H45.9375V46.5063C45.925 47.0813 45.5625 47.65 44.8563 48.025L33.8563 53.825C32.7812 54.3938 31.1375 54.3938 30.0625 53.825L19.0625 48.025C18.3625 47.6563 18.025 47.0813 18.0063 46.5063C18.0063 46.45 18.0063 46.4 18.0063 46.3625V17.5563C18.0063 17.5188 18.0063 17.475 18.0063 17.4375V17.3625H18.0125C18.0625 16.8313 18.4 16.3313 19.0625 15.9813L30.0625 10.175ZM44.1875 33.5625L33.85 39.0313C32.775 39.6 31.1375 39.6 30.0562 39.0313L19.7437 33.575V46.4188L30.0562 51.8438C30.6687 52.1688 31.3 52.4875 31.9188 52.5H31.9562C32.575 52.5 33.1688 52.1875 33.775 51.8938L44.1875 46.3688V33.5625ZM16.275 45.875C16.275 46.9938 16.4062 47.725 16.6562 48.2438C16.8688 48.675 17.1875 49 17.7687 49.4L17.8 49.425C17.925 49.5125 18.0687 49.6 18.2375 49.7063L18.4375 49.8313L19.0562 50.2063L18.175 51.6875L17.4813 51.2688L17.3625 51.1938C17.1625 51.0688 16.9938 50.9625 16.8438 50.8563C15.1875 49.7313 14.575 48.5063 14.5625 45.95V45.875H16.275ZM31.125 25.8125C31.0438 25.8375 30.9688 25.875 30.9 25.9063L19.9188 31.725C19.9063 31.7313 19.8938 31.7375 19.8875 31.7438L19.875 31.75L19.8937 31.7625L19.9188 31.775L30.9 37.5938C30.9688 37.6313 31.0438 37.6625 31.125 37.6875V25.8125ZM32.875 25.8125V37.6875C32.9562 37.6625 33.0312 37.625 33.1 37.5938L44.0812 31.775C44.0938 31.7688 44.1062 31.7625 44.1125 31.7563L44.1188 31.75L44.1 31.7375L44.075 31.725L33.0938 25.9063C33.0312 25.875 32.9562 25.8375 32.875 25.8125ZM44.1875 19.4375L34.3125 24.625L44.1875 29.8125V19.4375ZM19.75 19.4375V29.8125L29.625 24.625L19.75 19.4375ZM33.0875 11.725C32.5188 11.425 31.4813 11.425 30.9125 11.725L19.9188 17.5375C19.9063 17.5438 19.8938 17.55 19.8875 17.5563L19.875 17.5625L19.8937 17.575L19.9188 17.5875L30.9125 23.4C31.4813 23.7 32.5188 23.7 33.0875 23.4L44.0812 17.5875C44.0938 17.5813 44.1062 17.575 44.1125 17.5688L44.1188 17.5625L44.1 17.55L44.075 17.5375L33.0875 11.725ZM45.825 12.3125L46.5187 12.7313L46.6375 12.8063C46.8375 12.9313 47.0062 13.0375 47.1562 13.1438C48.8125 14.2688 49.425 15.4938 49.4375 18.05V18.125H47.725C47.725 17.0063 47.5938 16.275 47.3438 15.7563C47.1312 15.325 46.8125 15 46.2313 14.6L46.2 14.575C46.075 14.4875 45.9313 14.4 45.7625 14.2938L45.5625 14.1688L44.9437 13.7938L45.825 12.3125Z" fill="white"/>
</g>
<defs>
<clipPath id="clip0_182_18">
<rect width="64" height="64" fill="white"/>
</clipPath>
</defs>
</svg>
