<svg width="64" height="64" viewBox="0 0 64 64" fill="none" xmlns="http://www.w3.org/2000/svg">
<g clip-path="url(#clip0_170_26)">
<path fill-rule="evenodd" clip-rule="evenodd" d="M32 64C14.4 64 0 49.6 0 31.84C0.16 14.24 14.4 -0.160007 32.16 -6.9428e-06C49.76 0.159993 64 14.4 64 32.32C63.84 49.76 49.6 64 32 64Z" fill="#0090FF"/>
<path fill-rule="evenodd" clip-rule="evenodd" d="M35.04 28.16L34.08 33.28L43.2 34.56L42.56 36.96L33.6 35.68C32.96 37.76 32.64 40 31.84 41.92C31.04 44.16 30.24 46.4 29.28 48.48C28 51.2 25.76 53.12 22.72 53.6C20.96 53.92 19.04 53.76 17.6 52.64C17.12 52.32 16.64 51.68 16.64 51.2C16.64 50.56 16.96 49.76 17.44 49.44C17.76 49.28 18.56 49.44 19.04 49.6C19.52 50.08 20 50.72 20.32 51.36C21.28 52.64 22.56 52.8 23.84 51.84C25.28 50.56 26.08 48.8 26.56 47.04C27.52 43.2 28.48 39.52 29.28 35.68V35.04L20.8 33.76L21.12 31.36L29.92 32.64L31.04 27.68L21.92 26.24L22.24 23.68L31.68 24.96C32 24 32.16 23.2 32.48 22.4C33.28 19.52 34.08 16.64 36 14.08C37.92 11.52 40.16 9.92 43.52 10.08C44.96 10.08 46.4 10.56 47.36 11.68C47.52 11.84 47.84 12.16 47.84 12.48C47.84 13.12 47.84 13.92 47.36 14.4C46.72 14.88 45.92 14.72 45.28 14.08C44.8 13.6 44.48 13.12 44 12.64C43.04 11.36 41.6 11.2 40.48 12.32C39.68 13.12 38.88 14.24 38.4 15.36C37.28 18.72 36.48 22.24 35.36 25.76L44.16 27.04L43.52 29.44L35.04 28.16Z" fill="white"/>
</g>
<defs>
<clipPath id="clip0_170_26">
<rect width="64" height="64" fill="white"/>
</clipPath>
</defs>
</svg>
