<svg width="64" height="61" viewBox="0 0 64 61" fill="none" xmlns="http://www.w3.org/2000/svg">
<g clip-path="url(#clip0_213_204)">
<path d="M56.612 45.8781C55.9248 53.9944 46.3033 60.8291 31.8711 60.4874C18.298 60.1456 8.76238 54.507 8.07513 46.3907C7.98923 45.3655 8.07513 44.3403 8.16104 43.2297C8.59057 40.0686 9.70735 37.0784 11.3396 34.3445L12.3704 34.7717C15.0335 33.7465 17.7825 32.9776 20.6174 32.465C24.3114 31.9524 28.0912 31.8669 31.7852 32.1232C35.4792 31.8669 39.259 31.9524 42.953 32.465C45.7879 32.9776 48.5369 33.7465 51.2 34.7717L52.2308 34.3445L52.9181 34.0028C54.5503 36.7367 55.6671 39.7269 56.2684 42.8879C56.4402 43.8277 56.5261 44.8529 56.4402 45.7927" fill="#F4A427"/>
<path d="M56.612 45.8782C55.9248 53.909 46.3892 60.4874 31.8711 60.402C18.298 60.0602 8.76238 54.4216 8.07513 46.3053C7.98923 45.2801 8.07513 44.2549 8.16104 43.1443C9.62144 42.8025 11.0818 42.8025 12.5422 43.0588C15.2912 43.486 16.8376 45.1947 18.8134 46.049C19.9302 46.5616 21.0469 45.7073 22.0778 44.7675C24.8268 42.1191 28.5208 40.5812 32.3006 40.4958C36.1664 40.4104 39.3449 41.9482 42.6953 45.0238C43.3825 45.7073 44.3275 46.1345 45.2725 46.049C46.1315 45.7927 46.9906 45.3656 47.6778 44.7675C50.255 43.0588 53.3476 42.3754 56.3543 42.8025C56.612 43.9132 56.698 44.8529 56.612 45.8782Z" fill="white"/>
<path d="M16.6658 25.8866C15.7208 26.8263 14.5181 27.5098 13.2295 27.7661L12.7141 27.8515C12.1986 28.0224 11.6832 28.1078 11.0819 28.1078C10.996 28.1078 10.8241 28.1078 10.7382 28.1078C10.4805 28.0224 10.1369 27.937 9.87918 27.8515C8.93421 27.4244 8.07515 26.9118 7.30199 26.2283C5.75569 24.9468 4.29528 23.4944 3.1785 21.7857C-1.54633 14.951 -0.0859252 5.72409 6.44293 0.598042C6.87246 0.341739 7.3879 0.341739 7.73152 0.76891C7.90334 1.02521 7.98924 1.28152 7.90334 1.53782C7.30199 4.27171 6.78656 8.54342 9.36374 12.2171C11.5973 15.2927 16.2362 18.2829 19.0711 18.2829C19.6725 21.7003 18.7275 24.007 16.6658 25.8866Z" fill="#F79422"/>
<path d="M16.6658 25.8866C15.7208 26.8263 14.5181 27.5098 13.2295 27.7661L12.7141 27.8515C12.1986 28.0224 11.6832 28.1078 11.0819 28.1078C10.996 28.1078 10.8241 28.1078 10.7382 28.1078C10.4805 28.0224 10.1369 27.937 9.87918 27.8515C8.93421 27.4244 8.07515 26.9118 7.30199 26.2283C5.75569 24.9468 4.29528 23.4944 3.1785 21.7857C-1.54633 14.951 -0.0859252 5.72409 6.44293 0.598042C6.87246 0.341739 7.3879 0.341739 7.73152 0.76891C7.90334 1.02521 7.98924 1.28152 7.90334 1.53782C7.30199 4.27171 6.78656 8.54342 9.36374 12.2171C11.5973 15.2927 16.2362 18.2829 19.0711 18.2829C19.6725 21.7003 18.7275 24.007 16.6658 25.8866Z" stroke="#221F1F" stroke-linejoin="round"/>
<path d="M29.0362 14.0966L27.9194 25.0322H27.8335C26.1154 25.2885 23.7959 25.6302 20.6174 26.1428C17.6966 26.57 13.7449 28.6204 11.4254 29.9874L11.1677 28.1933C11.6832 28.1078 12.2845 28.0224 12.7999 27.937L13.3154 27.8515C14.604 27.5952 15.8067 26.9117 16.7516 25.972C18.7275 24.007 19.7583 21.7857 19.0711 18.2829L19.4147 18.3683C20.4456 17.2577 21.6483 16.4033 23.0228 15.7199C24.8268 14.6947 26.8885 14.1821 29.0362 14.0966Z" fill="#5A595C"/>
<path d="M29.0362 14.0966L27.9194 25.0322H27.8335C26.1154 25.2885 23.7959 25.6302 20.6174 26.1428C17.6966 26.57 13.7449 28.6204 11.4254 29.9874L11.1677 28.1933C11.6832 28.1078 12.2845 28.0224 12.7999 27.937L13.3154 27.8515C14.604 27.5952 15.8067 26.9117 16.7516 25.972C18.7275 24.007 19.7583 21.7857 19.0711 18.2829L19.4147 18.3683C20.4456 17.2577 21.6483 16.4033 23.0228 15.7199C24.8268 14.6947 26.8885 14.1821 29.0362 14.0966Z" stroke="#221F1F" stroke-linejoin="round"/>
<path d="M54.1208 33.7465L53.4336 34.0882L52.7463 34.43L51.7155 34.8571C49.0524 33.8319 46.3034 33.063 43.4685 32.5504C39.7745 31.8669 36.0806 31.5252 32.3007 31.5252C28.5208 31.5252 24.8269 31.7815 21.1329 32.5504C18.298 33.063 15.549 33.8319 12.8859 34.8571C12.5423 34.6863 12.1987 34.5154 11.8551 34.43L10.3947 33.7465C10.4806 32.5504 10.3947 31.8669 10.3947 30.6709C10.6524 30.5 11.0819 30.2437 11.5114 29.9874L11.5973 29.9019C13.8309 28.535 17.7826 26.57 20.7034 26.0574C23.8819 25.5448 26.1155 25.2031 27.9195 24.9468C29.0363 24.8613 30.2389 24.8613 31.4416 24.8613C33.2457 24.8613 34.8779 24.8613 36.5101 24.9468C38.2282 25.2031 40.5477 25.5448 43.8121 26.0574C46.8188 26.4846 50.7705 28.535 53.09 29.9019H53.1759C53.6054 30.1582 53.949 30.3291 54.2067 30.5854C54.1208 31.8669 54.0349 32.5504 54.1208 33.7465Z" fill="#929497"/>
<path d="M54.1208 33.7465L53.4336 34.0882L52.7463 34.43L51.7155 34.8571C49.0524 33.8319 46.3034 33.063 43.4685 32.5504C39.7745 31.9524 36.0806 31.6106 32.3007 31.6106C28.5208 31.6106 24.8269 31.8669 21.1329 32.5504C18.298 33.063 15.549 33.8319 12.8859 34.8571C12.5423 34.6863 12.1987 34.5154 11.8551 34.43L10.3947 33.7465C10.4806 32.5504 10.3947 31.8669 10.3947 30.6709C10.6524 30.5 11.0819 30.2437 11.5114 29.9874L11.5973 29.9019C13.8309 28.535 17.7826 26.57 20.7034 26.0574C23.8819 25.5448 26.1155 25.2031 27.9195 24.9468C29.0363 24.8613 30.2389 24.8613 31.4416 24.8613C33.2457 24.8613 34.8779 24.8613 36.5101 24.9468C38.2282 25.2031 40.5477 25.5448 43.8121 26.0574C46.8188 26.4846 50.7705 28.535 53.09 29.9019H53.1759C53.6054 30.1582 53.949 30.3291 54.2067 30.5854C54.1208 31.8669 54.0349 32.5504 54.1208 33.7465Z" stroke="#221F1F" stroke-linecap="round" stroke-linejoin="round"/>
<path d="M36.4241 25.0322C34.8778 24.9468 33.1597 24.8613 31.3556 24.9468C30.153 24.9468 28.9503 25.0322 27.8335 25.0322H27.9194L29.0362 14.0966L29.2939 11.8754C30.153 11.3627 31.1838 11.1064 32.1288 11.1064H32.3006C33.3315 11.1064 34.2764 11.3627 35.1355 11.8754L35.3932 14.0966V14.1821L36.4241 25.0322Z" fill="#929497"/>
<path d="M36.4241 25.0322C34.8778 24.9468 33.1597 24.8613 31.3556 24.9468C30.153 24.9468 28.9503 25.0322 27.8335 25.0322H27.9194L29.0362 14.0966L29.2939 11.8754C30.153 11.3627 31.1838 11.1064 32.1288 11.1064H32.3006C33.3315 11.1064 34.2764 11.3627 35.1355 11.8754L35.3932 14.0966V14.1821L36.4241 25.0322Z" stroke="#221F1F" stroke-linecap="round" stroke-linejoin="round"/>
<ellipse cx="53.4336" cy="34.0882" rx="0.42953" ry="0.427171" fill="#221F1F"/>
<path d="M56.6121 45.9636C55.9248 54.0798 45.5302 60.5728 31.8711 60.5728C18.298 60.2311 8.76241 54.5924 8.16107 46.4762C8.07517 45.451 8.16107 44.4258 8.24698 43.3151C8.67651 40.1541 9.79329 37.1639 11.4255 34.43L12.4564 34.8571C15.1195 33.8319 17.8685 33.063 20.7034 32.5504C24.3973 31.8669 28.0913 31.6106 31.8711 31.5252C35.651 31.5252 39.345 31.8669 43.0389 32.5504C45.8738 33.063 48.6228 33.8319 51.2859 34.8571L52.4027 34.43L53.0899 34.0882C54.7221 36.8221 55.8389 39.8123 56.4403 42.9734C56.698 43.9986 56.698 45.0238 56.6121 45.9636Z" stroke="#221F1F" stroke-linecap="round" stroke-linejoin="round"/>
<path d="M60.8214 21.7857C59.6187 23.409 58.2442 24.9468 56.612 26.2283C55.8389 26.9118 54.9798 27.4244 54.0348 27.8515L53.6053 28.0224L53.3476 28.1078C52.7462 28.2787 52.4026 28.1078 51.2858 27.937L50.7704 27.8515C49.4818 27.5952 48.2791 26.9118 47.3342 25.972C45.3583 24.007 44.3275 21.7857 45.0147 18.2829C47.7637 18.3683 52.4885 15.3781 54.7221 12.2171C57.2134 8.54341 56.6979 4.2717 56.0966 1.53781C56.0107 1.0252 56.2684 0.598031 56.7838 0.427162C57.0415 0.341728 57.3852 0.427162 57.557 0.598031C64.0858 5.72408 65.5462 15.0364 60.8214 21.7857Z" fill="#F79422"/>
<path d="M60.8214 21.7857C59.6187 23.409 58.2442 24.9468 56.612 26.2283C55.8389 26.9118 54.9798 27.4244 54.0348 27.8515L53.6053 28.0224L53.3476 28.1078C52.7462 28.2787 52.4026 28.1078 51.2858 27.937L50.7704 27.8515C49.4818 27.5952 48.2791 26.9118 47.3342 25.972C45.3583 24.007 44.3275 21.7857 45.0147 18.2829C47.7637 18.3683 52.4885 15.3781 54.7221 12.2171C57.2134 8.54341 56.6979 4.2717 56.0966 1.53781C56.0107 1.0252 56.2684 0.598031 56.7838 0.427162C57.0415 0.341728 57.3852 0.427162 57.557 0.598031C64.0858 5.72408 65.5462 15.0364 60.8214 21.7857Z" stroke="#221F1F" stroke-linejoin="round"/>
<path d="M53.3476 28.1078L53.004 29.9874C50.6846 28.6204 46.7329 26.57 43.7262 26.1428C40.4617 25.6302 38.2282 25.2885 36.4242 25.0322L35.3074 14.0966C37.2832 14.1821 39.2591 14.7801 41.0631 15.7199C42.4376 16.4033 43.6403 17.3431 44.6711 18.3683L45.0148 18.2829C44.3275 21.7003 45.3584 24.007 47.3342 25.972C48.2792 26.9117 49.4819 27.5952 50.7705 27.8515C50.8564 27.8515 51.2 28.0224 51.2859 28.0224C51.9731 28.2787 52.6604 28.2787 53.3476 28.1078Z" fill="#5A595C"/>
<path d="M53.3476 28.1078L53.004 29.9874C50.6846 28.6204 46.7329 26.57 43.7262 26.1428C40.4617 25.6302 38.2282 25.2885 36.4242 25.0322L35.3074 14.0966C37.2832 14.1821 39.2591 14.7801 41.0631 15.7199C42.4376 16.4033 43.6403 17.3431 44.6711 18.3683L45.0148 18.2829C44.3275 21.7003 45.3584 24.007 47.3342 25.972C48.2792 26.9117 49.4819 27.5952 50.7705 27.8515L51.2859 27.937C52.4027 28.1078 52.7463 28.2787 53.3476 28.1078Z" stroke="#221F1F" stroke-linejoin="round"/>
<path d="M35.3074 14.0966H34.9637" stroke="#221F1F" stroke-linejoin="round"/>
<path d="M53.4336 27.6807C54.0349 28.3641 53.8631 29.3893 53.1758 29.9874C53.0899 30.0728 53.0899 30.0728 53.004 30.1583" fill="#F79422"/>
<path d="M53.4336 27.6807C54.0349 28.3641 53.8631 29.3893 53.1758 29.9874C53.0899 30.0728 53.0899 30.0728 53.004 30.1583" stroke="#221F1F" stroke-miterlimit="10"/>
<path d="M11.0819 27.6807C10.4805 28.3641 10.6523 29.3893 11.3396 29.9874C11.4255 30.0728 11.4255 30.0728 11.5114 30.1583" fill="#F79422"/>
<path d="M11.0819 27.6807C10.4805 28.3641 10.6523 29.3893 11.3396 29.9874C11.4255 30.0728 11.4255 30.0728 11.5114 30.1583" stroke="#221F1F" stroke-miterlimit="10"/>
<path d="M29.0363 49.2101C29.6376 49.3809 30.3248 49.2955 30.9262 48.9538C31.8712 48.612 32.4725 47.6722 32.3866 46.647C32.3007 47.6722 32.902 48.612 33.847 48.9538C34.4483 49.2101 35.0497 49.2955 35.651 49.2101" stroke="#171717" stroke-linecap="round" stroke-linejoin="round"/>
<path d="M35.7369 43.7423C35.7369 44.7675 34.1906 46.1344 32.3006 46.1344C30.4107 46.1344 28.8644 44.7675 28.8644 43.7423C28.8644 42.7171 30.4107 42.3753 32.3006 42.3753C34.1906 42.3753 35.7369 42.8025 35.7369 43.7423Z" fill="#171717"/>
<path d="M33.6752 43.4006C33.6752 43.6569 32.988 43.9986 32.2148 43.9986C31.4416 43.9986 30.7544 43.6569 30.7544 43.486C30.7544 43.3151 31.4416 43.3151 32.2148 43.3151C32.988 43.3151 33.6752 43.1443 33.6752 43.4006Z" fill="white"/>
<path d="M26.8886 46.647C26.8027 47.8431 27.5758 48.8683 28.7785 49.1246H29.0362" stroke="#171717" stroke-linecap="round" stroke-linejoin="round"/>
<path d="M32.3866 45.451C32.3866 45.8781 32.3866 46.2199 32.3866 46.647" stroke="#171717" stroke-linecap="round" stroke-linejoin="round"/>
<path d="M35.7369 49.2101H35.9947C37.1973 48.9538 38.0564 47.9286 37.8846 46.7325" stroke="#171717" stroke-linecap="round" stroke-linejoin="round"/>
<path d="M57.557 0.598022C64.0859 5.72407 65.4604 14.951 60.7355 21.7003" stroke="#221F1F" stroke-linejoin="round"/>
<path d="M16.6658 25.8866C15.7208 26.8263 14.5181 27.5098 13.2295 27.7661L12.7141 27.8515C12.1986 28.0224 11.6832 28.1078 11.0819 28.1078C10.996 28.1078 10.8241 28.1078 10.7382 28.1078C10.4805 28.0224 10.1369 27.937 9.87918 27.8515C8.93421 27.4244 8.07515 26.9118 7.30199 26.2283C5.75569 24.9468 4.29528 23.4944 3.1785 21.7857C-1.54633 14.951 -0.0859252 5.72409 6.44293 0.598042C6.87246 0.341739 7.3879 0.341739 7.73152 0.76891C7.90334 1.02521 7.98924 1.28152 7.90334 1.53782C7.30199 4.27171 6.78656 8.54342 9.36374 12.2171C11.5973 15.2927 16.2362 18.2829 19.0711 18.2829C19.6725 21.7003 18.7275 24.007 16.6658 25.8866Z" stroke="#221F1F" stroke-linejoin="round"/>
<path d="M26.0295 38.1891C26.0295 40.0686 24.9128 41.521 23.5383 41.521C22.1638 41.521 21.047 39.9832 21.047 38.1891C21.047 36.5658 21.9061 35.1989 23.0228 34.8571L25.7718 36.9075C25.9436 37.3347 26.0295 37.7619 26.0295 38.1891Z" fill="#221F1F"/>
<path d="M25.0846 37.7619C25.0846 38.4454 24.655 38.958 24.2255 38.958C23.796 38.958 23.3665 38.4454 23.3665 37.7619C23.3665 37.0784 23.796 36.5658 24.2255 36.5658C24.655 36.5658 25.0846 37.0784 25.0846 37.7619Z" fill="white"/>
<path d="M23.0227 40.7521C22.0778 41.521 21.2187 42.3754 20.4456 43.3151C20.1019 43.7423 19.7583 44.2549 19.5006 44.8529C19.2429 45.3656 19.0711 45.9636 18.9852 46.5616C18.8993 46.8179 18.8993 47.1597 18.8993 47.416V47.8431V48.2703C18.8993 48.8684 18.8993 49.4664 18.8993 50.1499C18.9852 50.7479 19.0711 51.4314 19.157 52.0294C19.2429 52.3712 19.2429 52.6275 19.3288 52.9692C19.4147 53.2255 19.5006 53.5672 19.6724 53.8235C19.5006 53.5672 19.4147 53.2255 19.2429 52.9692C19.157 52.7129 18.9852 52.3712 18.8993 52.1149C18.7274 51.5168 18.5556 50.9188 18.3838 50.2353C18.2979 49.6373 18.212 48.9538 18.1261 48.3557V47.9286V47.416C18.1261 47.0742 18.1261 46.7325 18.1261 46.4762C18.212 45.7927 18.2979 45.1092 18.5556 44.5112C18.8133 43.9132 19.0711 43.3151 19.4147 42.7171C20.1878 41.6064 20.961 40.5812 21.906 39.7269C22.2496 39.4706 22.6791 39.4706 23.0227 39.7269C23.2805 39.8978 23.3664 40.4104 23.0227 40.7521Z" fill="#221F1F"/>
<path d="M22.4214 40.4958C22.3355 40.4958 22.3355 40.4958 22.2496 40.4958H22.1637H21.9919L21.5624 40.4104C21.3046 40.3249 21.0469 40.3249 20.7892 40.3249C20.2738 40.3249 19.6724 40.3249 19.157 40.4958C18.8993 40.5812 18.6415 40.6667 18.3838 40.7521C17.6107 41.0938 16.9234 41.6919 16.4939 42.3753C16.7516 41.7773 17.0093 41.2647 17.4389 40.8375C17.6107 40.5812 17.8684 40.4104 18.1261 40.2395C18.3838 40.0686 18.6415 39.8978 18.8993 39.7269C19.4147 39.3851 20.016 39.2143 20.7033 39.0434C21.0469 38.958 21.3046 38.958 21.6483 38.958C21.8201 38.958 21.9919 38.958 22.1637 38.958H22.5073C22.9368 38.958 23.2805 39.2997 23.3664 39.7269C23.4523 40.1541 22.9368 40.4958 22.4214 40.4958Z" fill="#221F1F"/>
<path d="M43.6403 38.1891C43.6403 40.0686 42.5235 41.521 41.2349 41.521C39.9463 41.521 38.7437 39.9832 38.7437 38.1891C38.7437 37.7619 38.8296 37.3347 38.9155 36.9075L41.6645 34.8571C42.7812 35.1989 43.6403 36.5658 43.6403 38.1891Z" fill="#221F1F"/>
<path d="M39.6027 37.7619C39.6027 38.4454 40.0322 38.958 40.4617 38.958C40.8913 38.958 41.3208 38.4454 41.3208 37.7619C41.3208 37.0784 40.8913 36.5658 40.4617 36.5658C40.0322 36.5658 39.6027 37.0784 39.6027 37.7619Z" fill="white"/>
<path d="M42.7811 39.556C43.7261 40.4958 44.4993 41.4356 45.1865 42.5462C45.5301 43.0588 45.8738 43.6569 46.1315 44.2549C46.3892 44.8529 46.561 45.5364 46.6469 46.1344C46.7328 46.8179 46.7328 47.416 46.6469 48.0994C46.561 48.6975 46.4751 49.3809 46.3892 49.979C46.3033 50.577 46.1315 51.1751 45.9597 51.7731C45.8738 52.0294 45.7879 52.3711 45.616 52.6274C45.5301 52.8837 45.3583 53.2255 45.1865 53.4818C45.2724 53.2255 45.4442 52.8837 45.5301 52.6274C45.616 52.3711 45.702 52.0294 45.7879 51.7731C45.8738 51.1751 46.0456 50.577 46.0456 49.979C46.1315 49.3809 46.1315 48.7829 46.1315 48.0994C46.1315 47.5014 46.0456 46.9034 45.9597 46.3053C45.7879 45.7073 45.616 45.1947 45.3583 44.6821C45.1006 44.1695 44.757 43.6569 44.3275 43.2297C43.5543 42.2899 42.6952 41.4356 41.7503 40.6667C41.4066 40.3249 41.4066 39.8978 41.7503 39.556C42.008 39.2997 42.4375 39.2143 42.7811 39.4706V39.556Z" fill="#221F1F"/>
<path d="M42.2658 38.958H42.6953C42.8671 38.958 43.0389 38.958 43.2107 38.958C43.5544 38.958 43.898 38.958 44.2416 39.0434C44.9289 39.1288 45.5302 39.2997 46.1315 39.556C46.7329 39.8123 47.2483 40.2395 47.7638 40.6667C48.1933 41.0938 48.5369 41.6919 48.7946 42.2045C48.451 41.6919 48.0215 41.2647 47.506 40.923C46.9906 40.5812 46.4752 40.3249 45.8738 40.2395C45.2725 40.1541 44.6711 40.1541 44.0698 40.1541C43.8121 40.1541 43.4685 40.2395 43.2107 40.2395L42.7812 40.3249H42.6094H42.5235H42.4376H42.3517C41.9222 40.4104 41.4926 40.0686 41.4926 39.6415C41.4067 39.2143 41.7503 38.7871 42.1799 38.7871C42.2658 38.7871 42.2658 38.7871 42.3517 38.7871" fill="#221F1F"/>
</g>
<defs>
<clipPath id="clip0_213_204">
<rect width="64" height="61" fill="white"/>
</clipPath>
</defs>
</svg>
