<svg width="64" height="64" viewBox="0 0 64 64" fill="none" xmlns="http://www.w3.org/2000/svg">
<g clip-path="url(#clip0_218_128)">
<path d="M32 64C49.6731 64 64 49.6731 64 32C64 14.3269 49.6731 0 32 0C14.3269 0 0 14.3269 0 32C0 49.6731 14.3269 64 32 64Z" fill="#00EF8B"/>
<path d="M46.016 27.008H36.992V36.032H46.016V27.008Z" fill="white"/>
<path d="M27.968 39.424C27.968 41.28 26.432 42.816 24.576 42.816C22.72 42.816 21.184 41.28 21.184 39.424C21.184 37.568 22.72 36.032 24.576 36.032H27.968V27.008H24.576C17.728 27.008 12.16 32.576 12.16 39.424C12.16 46.272 17.728 51.84 24.576 51.84C31.424 51.84 36.992 46.272 36.992 39.424V36.032H27.968V39.424Z" fill="white"/>
<path d="M40.384 22.464H50.56V13.44H40.384C33.536 13.44 27.968 19.008 27.968 25.856V27.008H36.992V25.856C36.992 24 38.528 22.464 40.384 22.464Z" fill="white"/>
<path d="M36.992 27.008H27.968V36.032H36.992V27.008Z" fill="#16FF99"/>
</g>
<defs>
<clipPath id="clip0_218_128">
<rect width="64" height="64" fill="white"/>
</clipPath>
</defs>
</svg>
