<svg width="64" height="64" viewBox="0 0 64 64" fill="none" xmlns="http://www.w3.org/2000/svg">
<g clip-path="url(#clip0_220_204)">
<path d="M32 64C49.6732 64 64 49.6732 64 32C64 14.3269 49.6732 0 32 0C14.3269 0 0 14.3269 0 32C0 49.6732 14.3269 64 32 64Z" fill="black"/>
<g clip-path="url(#clip1_220_204)">
<path fill-rule="evenodd" clip-rule="evenodd" d="M14 42.0736C14.5049 42.3446 15.1676 42.759 15.6409 43.0778C15.8145 43.1973 16.0117 43.301 16.2011 43.4205C16.3036 43.4843 16.3667 43.5161 16.4614 43.5799C16.5087 43.6118 16.5482 43.6436 16.5955 43.6676C16.6507 43.6994 16.6823 43.7154 16.7375 43.7473L22.8122 47.5249C22.8989 47.5727 22.9778 47.6285 23.0725 47.6843L28.587 51.1192C28.6501 51.159 28.6738 51.167 28.729 51.2068L31.364 52.8406C31.4823 52.9044 31.5296 52.9841 31.6638 52.992V32.1913L30.8275 31.7051C30.7486 31.6653 30.7013 31.6334 30.6224 31.5856L29.9676 31.203C29.0367 30.7089 28.1689 30.1032 27.2301 29.6091C27.1354 29.5613 27.1038 29.5294 27.0013 29.4816L26.165 28.9954C25.9599 28.8679 25.029 28.3021 24.8633 28.2622V31.5457L28.2872 33.5461C28.3819 33.6019 28.445 33.6418 28.5318 33.6896C28.6264 33.7374 28.6738 33.7932 28.7921 33.8171V47.8994C28.1925 47.493 27.5535 47.1264 26.9382 46.7518L25.4471 45.8194C24.8397 45.4049 24.1849 45.0622 23.5774 44.6558C23.5064 44.608 23.467 44.592 23.3959 44.5442L22.0785 43.7233C21.9365 43.6436 21.8339 43.5799 21.6998 43.4843C21.2186 43.1575 20.6979 42.8706 20.2087 42.5518C20.0746 42.4641 19.9642 42.4084 19.8301 42.3207C19.1043 41.8266 18.3232 41.3803 17.5817 40.926C17.5186 40.8862 17.4633 40.8463 17.4081 40.8065L16.8322 40.4478V23.5442C16.7217 23.4725 16.6113 23.4087 16.4851 23.337C16.3588 23.2653 16.2642 23.2095 16.138 23.1298L14.3629 22.1097C14.2288 22.038 14.1262 21.9583 14 21.8945V42.0736Z" fill="white"/>
<path fill-rule="evenodd" clip-rule="evenodd" d="M33.3678 32.1594V40.1529L34.4171 39.5552C34.8983 39.3002 35.3401 38.9894 35.8213 38.7343C35.9081 38.6865 35.9397 38.6706 36.0028 38.6228C36.0659 38.5829 36.129 38.559 36.1921 38.5271V33.8171C36.2868 33.7932 36.3184 33.7772 36.3894 33.7294C36.4604 33.6816 36.5077 33.6656 36.5787 33.6258C36.9495 33.4106 37.3124 33.1556 37.6911 32.9643C38.2039 32.7093 38.693 32.3905 39.1821 32.0956C39.3083 32.0239 39.4109 31.9601 39.545 31.8804L40.2866 31.4581C40.3655 31.4102 40.3892 31.3943 40.468 31.3465C40.7915 31.1791 41.0913 30.956 41.4226 30.7806L41.7855 30.5654C41.8486 30.5256 41.9118 30.5017 41.9749 30.4698L44.3968 29.0512C44.9096 28.7803 45.383 28.4535 45.8879 28.1825L46.6373 27.7362C46.8898 27.5848 47.1344 27.4493 47.3868 27.2899C47.5209 27.2102 47.6314 27.1544 47.7497 27.0747L48.1442 26.8516V40.4877C48.0337 40.5116 48.0022 40.5514 47.9075 40.6072L47.2132 41.0376C47.1422 41.0854 47.087 41.1252 47.0002 41.181C46.9056 41.2368 46.8425 41.2846 46.7636 41.3324C46.6768 41.3803 46.6294 41.4201 46.5427 41.4679L45.8405 41.8903C45.2094 42.2569 44.6177 42.6713 43.9866 43.0379L42.1405 44.1935C42.0538 44.2493 42.0064 44.2732 41.9196 44.329C41.0913 44.8949 40.2077 45.3651 39.3715 45.915C39.2216 46.0186 39.0638 46.1062 38.9139 46.2019L36.6024 47.6364C36.5314 47.6763 36.4525 47.7241 36.3815 47.7719C35.6951 48.2262 34.9772 48.6167 34.2909 49.071L33.3521 49.6527V53C33.5098 52.9601 33.7623 52.7689 33.9043 52.6812C34.0936 52.5617 34.2751 52.466 34.4644 52.3385C34.993 51.9799 35.5689 51.685 36.0975 51.3264C36.2 51.2626 36.2789 51.2068 36.3736 51.151L37.77 50.2823C37.8646 50.2265 37.9356 50.1787 38.0303 50.1229L45.4619 45.5006C45.5644 45.4368 45.6512 45.381 45.738 45.3252L50.7002 42.241C50.7949 42.1772 50.8896 42.1214 50.9842 42.0736V21.9264C50.8422 21.9582 50.8186 22.0061 50.7081 22.0698C50.6056 22.1256 50.5346 22.1655 50.4399 22.2212L48.7911 23.1856C48.2309 23.4884 47.7103 23.863 47.1422 24.1499L42.7322 26.7161C42.535 26.8277 42.3772 26.9313 42.1879 27.0429L41.3753 27.521C40.7994 27.8159 39.9631 28.318 39.4346 28.6527C39.3399 28.7165 39.261 28.7404 39.1663 28.8042L37.3755 29.8562C37.2966 29.896 37.3124 29.896 37.2335 29.9438L36.6734 30.2546C36.342 30.43 36.0501 30.6451 35.7188 30.8205C35.6399 30.8603 35.6399 30.8763 35.5768 30.9081L35.0167 31.219C34.6459 31.4023 33.6676 32.0956 33.3678 32.1594Z" fill="white"/>
<path fill-rule="evenodd" clip-rule="evenodd" d="M15.0966 20.5556C15.207 20.5795 15.2701 20.6433 15.3727 20.6991C15.7435 20.8983 16.0748 21.1374 16.4535 21.3287L19.4514 23.082C20.8793 23.9586 22.3624 24.7397 23.7983 25.6163L24.0665 25.7677C24.1691 25.8235 24.2401 25.8713 24.3347 25.9192L25.9678 26.8755C26.0388 26.9154 26.0309 26.9154 26.0861 26.9472C26.8514 27.4175 27.656 27.8159 28.4134 28.3021L30.8433 29.7127C30.9379 29.7685 31.0089 29.8163 31.1036 29.8721C31.3876 30.0474 32.4053 30.6691 32.5079 30.6691C32.6578 30.6691 33.5256 30.1112 33.7465 29.9757L34.1725 29.7207C34.3145 29.633 34.4407 29.5772 34.5827 29.4896C34.7326 29.4019 34.843 29.3381 34.9929 29.2505L35.8213 28.7564C35.9633 28.6687 36.0895 28.6049 36.2236 28.5173L37.478 27.8C37.5569 27.7602 37.6121 27.7203 37.6831 27.6805C37.7541 27.6326 37.8015 27.6087 37.8882 27.5609L38.7245 27.0748C38.8586 26.9951 39.0085 26.8755 39.1663 26.8357C39.1426 26.74 39.1268 26.748 39.0479 26.7002L36.3735 25.1461C35.3085 25.712 34.2987 26.3734 33.2415 26.9552C33.1548 27.003 33.0838 27.0509 33.0049 27.1066C32.8392 27.2102 32.6893 27.2979 32.5157 27.3935L30.9064 26.4531C30.3462 26.1662 29.8334 25.7916 29.2733 25.4968C29.1471 25.425 29.0209 25.3453 28.9104 25.2816L25.6443 23.3848C25.5812 23.345 25.526 23.3131 25.4629 23.2732C25.3919 23.2254 25.3445 23.2095 25.2735 23.1696L21.0923 20.7309C21.0134 20.6831 21.0055 20.6592 20.8951 20.6353C20.9818 20.5078 21.0844 20.4998 21.2264 20.4121C21.3447 20.3324 21.4552 20.2926 21.5814 20.2209L25.2183 18.2364C25.2972 18.1886 25.2972 18.1806 25.3761 18.1408C25.455 18.1009 25.4944 18.085 25.5654 18.0372C25.6917 17.9575 25.8179 17.9017 25.9441 17.838L30.4804 15.3674C30.5592 15.3275 30.5829 15.3036 30.6618 15.2558L32.5079 14.2596C32.6104 14.2596 34.0068 15.0805 34.3302 15.2478C34.4091 15.2877 34.4644 15.3116 34.5433 15.3594C34.6379 15.4152 34.6616 15.4391 34.772 15.4869L39.7895 18.2205C40.2313 18.4994 41.5725 19.2087 42.0458 19.4478C42.5823 19.7188 43.0951 20.0455 43.6315 20.3165L46.6136 21.9503C46.7162 22.0061 46.7477 22.022 46.8424 22.0778C47.1974 22.293 47.2053 22.1097 47.7812 21.7909L48.8462 21.1772C49.0356 21.0736 49.7535 20.6114 49.9192 20.5715C49.8876 20.4679 49.7929 20.4281 49.6983 20.3723L48.6175 19.7746C48.0731 19.4956 47.5288 19.1529 46.9844 18.8899L45.9036 18.2922C45.5328 18.1009 45.162 17.9256 44.8149 17.7025L39.3635 14.7298C39.2531 14.674 39.19 14.6421 39.0953 14.5784L36.9021 13.3829C36.7995 13.3271 36.7364 13.2873 36.6339 13.2315C36.5786 13.1996 36.555 13.1917 36.5076 13.1677L33.6281 11.5898C33.4467 11.4782 32.6025 11 32.5 11C32.4132 11 31.8057 11.3666 31.6716 11.4304L25.4313 14.8414C25.3288 14.8892 25.2499 14.929 25.1552 14.9848L20.7846 17.3677C20.6821 17.4235 20.6347 17.4634 20.5164 17.5192L20.1219 17.7343C20.043 17.7742 20.043 17.7901 19.9799 17.822C19.8931 17.8778 19.7985 17.9017 19.7038 17.9655L18.8676 18.4197C18.7571 18.4755 18.7019 18.5233 18.5993 18.5712L17.3292 19.2725C17.2818 19.2964 17.2818 19.2884 17.2424 19.3123C17.0609 19.4159 16.8716 19.4877 16.6981 19.6072C16.5955 19.671 16.5324 19.6949 16.4219 19.7507L15.1991 20.4361C15.1044 20.4918 15.1281 20.444 15.0966 20.5556Z" fill="white"/>
</g>
</g>
<defs>
<clipPath id="clip0_220_204">
<rect width="64" height="64" fill="white"/>
</clipPath>
<clipPath id="clip1_220_204">
<rect width="37" height="42" fill="white" transform="translate(14 11)"/>
</clipPath>
</defs>
</svg>
