<svg width="64" height="64" viewBox="0 0 64 64" fill="none" xmlns="http://www.w3.org/2000/svg">
<g clip-path="url(#clip0_237_98)">
<path d="M18.8112 36.4411C20.6504 36.4411 22.4448 35.828 23.8953 34.7066L12.2317 23.043C9.42053 26.6766 10.0934 31.9103 13.7271 34.7215C15.1925 35.828 16.9719 36.4411 18.8112 36.4411Z" fill="#00193C"/>
<path d="M53.5029 28.1122C53.5029 26.2729 52.8898 24.4785 51.7683 23.028L40.1047 34.6916C43.7384 37.5028 48.9571 36.8299 51.7683 33.1963C52.8898 31.7458 53.5029 29.9514 53.5029 28.1122Z" fill="#00193C"/>
<path d="M59.3794 15.4168L54.2206 20.5757C58.3776 25.5551 57.7196 32.972 52.7402 37.129C48.3738 40.7776 42.0336 40.7776 37.6673 37.129L32 42.7962L26.3477 37.1439C21.3682 41.3009 13.9514 40.643 9.79439 35.6635C6.14579 31.2972 6.14579 24.957 9.79439 20.5906L7.14766 17.9439L4.63551 15.4168C1.6 20.4112 0 26.1533 0 32C0 49.6748 14.3252 64 32 64C49.6748 64 64 49.6748 64 32C64.015 26.1533 62.4 20.4112 59.3794 15.4168Z" fill="#00193C"/>
<path d="M55.1477 9.91402C42.9608 -2.87103 22.714 -3.34953 9.929 8.83738C9.55517 9.19626 9.19629 9.55514 8.85237 9.91402C8.05984 10.7514 7.31218 11.6187 6.60938 12.5308L32 37.9364L57.3907 12.5308C56.7028 11.6187 55.9402 10.7514 55.1477 9.91402ZM32 4.18692C39.4767 4.18692 46.4449 7.0729 51.6785 12.3364L32 32.015L12.3215 12.3364C17.5552 7.0729 24.5234 4.18692 32 4.18692Z" fill="#00193C"/>
</g>
<defs>
<clipPath id="clip0_237_98">
<rect width="64" height="64" fill="white"/>
</clipPath>
</defs>
</svg>
