<svg width="64" height="64" viewBox="0 0 64 64" fill="none" xmlns="http://www.w3.org/2000/svg">
<g clip-path="url(#clip0_249_361)">
<mask id="mask0_249_361" style="mask-type:luminance" maskUnits="userSpaceOnUse" x="0" y="0" width="64" height="64">
<path d="M0 0H64V64H0V0Z" fill="white"/>
</mask>
<g mask="url(#mask0_249_361)">
<path d="M64 0H0V64H64V0Z" fill="#1C408A"/>
<path d="M42.3653 13.12L39.92 10.6667L35.024 15.5413C33.9587 14.8485 32.7539 14.3991 31.4952 14.2249C30.2364 14.0508 28.9548 14.1563 27.7415 14.5339C26.5282 14.9115 25.413 15.5519 24.4754 16.4096C23.5378 17.2673 22.8007 18.3211 22.3168 19.496C21.8328 20.6709 21.6138 21.9381 21.6753 23.2073C21.7368 24.4766 22.0774 25.7166 22.6727 26.8392C23.2681 27.9618 24.1036 28.9394 25.1198 29.7024C26.136 30.4653 27.3078 30.9949 28.552 31.2533V36.2107C26.4521 36.6392 24.5862 37.8322 23.316 39.5583C22.0458 41.2845 21.4617 43.4208 21.6771 45.5531C21.8925 47.6853 22.8919 49.6617 24.4817 51.099C26.0714 52.5362 28.1382 53.332 30.2813 53.332C32.4245 53.332 34.4912 52.5362 36.081 51.099C37.6707 49.6617 38.6702 47.6853 38.8855 45.5531C39.1009 43.4208 38.5169 41.2845 37.2466 39.5583C35.9764 37.8322 34.1105 36.6392 32.0107 36.2107V31.2507C33.3996 30.9665 34.6974 30.3454 35.7901 29.4421C36.8827 28.5387 37.7366 27.3807 38.2768 26.07C38.8169 24.7592 39.0268 23.3358 38.8878 21.9249C38.7489 20.514 38.2655 19.1589 37.48 17.9787L42.3653 13.12ZM35.4747 22.7733C35.4747 24.1496 34.9279 25.4695 33.9547 26.4427C32.9815 27.4159 31.6616 27.9627 30.2853 27.9627C28.909 27.9627 27.5891 27.4159 26.6159 26.4427C25.6427 25.4695 25.096 24.1496 25.096 22.7733C25.096 21.397 25.6427 20.0771 26.6159 19.1039C27.5891 18.1307 28.909 17.584 30.2853 17.584C31.6616 17.584 32.9815 18.1307 33.9547 19.1039C34.9279 20.0771 35.4747 21.397 35.4747 22.7733ZM35.4747 44.6827C35.4747 46.0593 34.9278 47.3796 33.9543 48.353C32.9809 49.3265 31.6606 49.8733 30.284 49.8733C28.9073 49.8733 27.5871 49.3265 26.6136 48.353C25.6402 47.3796 25.0933 46.0593 25.0933 44.6827C25.0933 43.306 25.6402 41.9857 26.6136 41.0123C27.5871 40.0389 28.9073 39.492 30.284 39.492C31.6606 39.492 32.9809 40.0389 33.9543 41.0123C34.9278 41.9857 35.4747 43.306 35.4747 44.6827Z" fill="white"/>
</g>
</g>
<defs>
<clipPath id="clip0_249_361">
<rect width="64" height="64" rx="32" fill="white"/>
</clipPath>
</defs>
</svg>
