<svg width="64" height="64" viewBox="0 0 64 64" fill="none" xmlns="http://www.w3.org/2000/svg">
<g clip-path="url(#clip0_222_4874)">
<path d="M32 64C49.6731 64 64 49.6731 64 32C64 14.3269 49.6731 0 32 0C14.3269 0 0 14.3269 0 32C0 49.6731 14.3269 64 32 64Z" fill="url(#paint0_linear_222_4874)"/>
<path d="M41.7536 46.336C39.2192 46.336 37.1712 44.288 37.1712 41.7536V33.3056C41.344 32.9728 44.3648 32.1024 46.336 30.6432V41.7536C46.336 44.288 44.288 46.336 41.7536 46.336ZM37.1712 22.2464C37.1712 19.712 39.2192 17.664 41.7536 17.664C44.288 17.664 46.336 19.712 46.336 22.2464V25.0112C46.2848 25.984 46.08 26.9824 45.2352 27.8528C44.2368 28.8512 42.0096 30.0032 37.1968 30.4128V22.2464H37.1712ZM26.8288 41.7536C26.8288 44.288 24.7808 46.336 22.2464 46.336C19.712 46.336 17.664 44.288 17.664 41.7536V39.1936C17.7152 38.2464 17.9456 37.2224 18.8672 36.3008C19.9168 35.2512 22.1184 34.0736 26.8288 33.6128V41.7536ZM22.2464 17.664C24.7808 17.664 26.8288 19.712 26.8288 22.2464V30.72C22.6816 31.0784 19.6608 32.0256 17.664 33.5616V22.2464C17.664 19.712 19.712 17.664 22.2464 17.664ZM49.1776 23.8848V23.3984V22.2464C49.1776 18.1248 45.8496 14.7968 41.728 14.7968C37.632 14.7968 34.2784 18.1504 34.2784 22.2464V30.5408C33.5616 30.5664 30.4128 30.5408 29.6704 30.5664V22.2464C29.6704 18.1248 26.3424 14.7968 22.2208 14.7968C18.1248 14.7968 14.7712 18.1504 14.7712 22.2464V39.04C14.7456 39.5008 14.7456 39.9104 14.7712 40.2432V40.6272V41.7792C14.7712 45.9008 18.0992 49.2288 22.2208 49.2288C26.3168 49.2288 29.6704 45.8752 29.6704 41.7792V33.4848C30.4128 33.4592 33.536 33.4848 34.2784 33.4592V41.7792C34.2784 45.9008 37.6064 49.2288 41.728 49.2288C45.824 49.2288 49.1776 45.8752 49.1776 41.7792V25.216C49.2032 24.7296 49.2032 24.2944 49.1776 23.9104V23.8848Z" fill="white"/>
</g>
<defs>
<linearGradient id="paint0_linear_222_4874" x1="4.45481" y1="59.4692" x2="60.1348" y2="3.94281" gradientUnits="userSpaceOnUse">
<stop stop-color="#00AEE9"/>
<stop offset="1" stop-color="#69FABD"/>
</linearGradient>
<clipPath id="clip0_222_4874">
<rect width="64" height="64" fill="white"/>
</clipPath>
</defs>
</svg>
