<svg width="64" height="64" viewBox="0 0 64 64" fill="none" xmlns="http://www.w3.org/2000/svg">
<g clip-path="url(#clip0_274_49)">
<path d="M40.5223 16.6466C42.3793 14.7896 45.4301 14.7896 47.287 16.6466C49.144 18.5036 49.144 21.5544 47.287 23.4114C46.1927 24.5057 44.7337 24.9699 43.2414 24.771C43.1751 24.771 43.1088 24.771 43.0093 24.771C42.5782 24.7047 42.114 24.771 41.6497 24.9699C41.0197 25.2684 40.5886 25.7658 40.3565 26.3627C40.1244 26.9596 40.1575 27.6228 40.4228 28.2197C42.0145 31.6684 41.285 35.8466 38.5658 38.5326C35.8466 41.2518 31.7016 41.9813 28.2528 40.3896C27.6228 40.0912 26.9596 40.0912 26.3627 40.3233C25.7658 40.5554 25.2684 40.9865 25.0031 41.5834C24.8373 41.9813 24.7378 42.3793 24.771 42.8104C24.771 42.8767 24.771 42.9762 24.771 43.0425C25.0363 44.5679 24.5057 46.1264 23.4446 47.2207C21.5876 49.0777 18.5368 49.0777 16.6798 47.2207C15.7845 46.3254 15.287 45.1316 15.287 43.8383C15.287 42.5782 15.7845 41.3513 16.6798 40.456C17.7741 39.3617 19.2332 38.8974 20.7254 39.0964C20.7585 39.0964 20.7585 39.0964 20.7917 39.0964C20.9575 39.1295 21.1233 39.1627 21.2891 39.1627C21.6539 39.1627 21.9855 39.0964 22.3171 38.9306C22.9472 38.6321 23.3782 38.1347 23.5772 37.571C23.8093 36.9741 23.8093 36.2777 23.5109 35.6477C21.9192 32.1658 22.6487 28.0207 25.3679 25.3347C28.087 22.6155 32.2321 21.886 35.6808 23.4777C36.2777 23.7762 36.9741 23.7762 37.571 23.544C38.1679 23.3119 38.6653 22.8808 38.9637 22.2839C39.1959 21.8197 39.229 21.2891 39.1627 20.7917C38.9306 19.2995 39.428 17.7409 40.5223 16.6466ZM35.7803 35.7472C37.8363 33.6912 37.8363 30.342 35.7803 28.2528C33.7244 26.1969 30.3751 26.1969 28.286 28.2528C26.2301 30.3088 26.2301 33.658 28.286 35.7472C30.3751 37.8031 33.7244 37.8031 35.7803 35.7472ZM32 0C49.6746 0 64 14.3254 64 32C64 49.6746 49.6746 64 32 64C14.3254 64 0 49.6746 0 32C0 14.3254 14.3254 0 32 0ZM49.0446 25.2021C51.8632 22.3834 51.8632 17.8073 49.0446 14.9554C46.2259 12.1368 41.6497 12.1368 38.7979 14.9554C37.7368 16.0166 37.1067 17.3098 36.8083 18.6363C31.6684 16.713 25.799 17.9399 21.886 21.8528C17.9731 25.7658 16.7461 31.6684 18.7026 36.8083C17.343 37.0736 16.0497 37.7368 14.9886 38.7979C12.1699 41.6166 12.1699 46.1927 14.9886 49.0446C17.8073 51.8632 22.3834 51.8632 25.2352 49.0446C26.2964 47.9834 26.9596 46.657 27.2249 45.2974C28.8166 45.8943 30.4746 46.1927 32.1326 46.1927C35.8135 46.1927 39.428 44.7668 42.114 42.0808C46.0269 38.1679 47.2539 32.3316 45.3637 27.2249C46.6902 26.8933 47.9834 26.2301 49.0446 25.2021Z" fill="#38A2FF"/>
</g>
<defs>
<clipPath id="clip0_274_49">
<rect width="64" height="64" fill="white"/>
</clipPath>
</defs>
</svg>
