<svg width="64" height="64" viewBox="0 0 64 64" fill="none" xmlns="http://www.w3.org/2000/svg">
<g clip-path="url(#clip0_244_656)">
<path d="M32 64C49.6732 64 64 49.6732 64 32C64 14.3269 49.6732 0 32 0C14.3269 0 0 14.3269 0 32C0 49.6732 14.3269 64 32 64Z" fill="black"/>
<path d="M51.528 18.0107L47.6026 24.0907C48.8406 26.5436 49.4835 29.2536 49.4794 32.0012C49.4752 34.7489 48.8241 37.4569 47.5787 39.9061C46.3334 42.3553 44.5288 44.4768 42.311 46.0988C40.0933 47.7209 37.5247 48.7979 34.8133 49.2427C31.1842 49.8275 27.4631 49.2508 24.1813 47.5947L18.0826 51.5147C21.5321 53.9848 25.5754 55.4948 29.7996 55.8903C34.0237 56.2859 38.2771 55.553 42.1252 53.7663C45.9732 51.9796 49.278 49.2033 51.7016 45.7211C54.1253 42.239 55.581 38.1757 55.92 33.9467C56.3848 28.2793 54.8289 22.6302 51.528 18H51.544L51.528 18.0107Z" fill="url(#paint0_radial_244_656)"/>
<path d="M32.032 44.0267C34.8526 44.0272 37.5841 43.0386 39.751 41.2328C41.9178 39.427 43.3827 36.9185 43.8907 34.144C40.1325 33.3292 36.2452 33.3127 32.4802 34.0955C28.7153 34.8782 25.1566 36.4428 22.0347 38.688C23.1377 40.3271 24.6258 41.6707 26.3688 42.601C28.1118 43.5313 30.0563 44.0226 32.032 44.0267Z" fill="url(#paint1_radial_244_656)"/>
<path d="M37.9733 31.3333C40.0355 31.3351 42.0738 31.5573 44.088 32C44.0888 29.5447 43.3404 27.1477 41.9428 25.129C40.5452 23.1103 38.5649 21.5661 36.2665 20.7027C33.9681 19.8393 31.4609 19.6977 29.0798 20.2969C26.6988 20.8961 24.5573 22.2075 22.9413 24.056C21.8071 25.3522 20.9652 26.8774 20.4729 28.5279C19.9805 30.1784 19.8493 31.9156 20.088 33.6213C18.4213 34.848 16.9067 36.2613 15.5707 37.84C14.7121 35.3865 14.4111 32.7725 14.6896 30.188C14.968 27.6035 15.819 25.1136 17.1805 22.8993C18.5421 20.685 20.38 18.802 22.5606 17.3871C24.7412 15.9722 27.2097 15.0611 29.7867 14.72C33.2319 14.2697 36.7331 14.8603 39.84 16.416L45.9093 12.4773C42.4412 9.99462 38.3732 8.48268 34.1254 8.09765C29.8776 7.71262 25.6041 8.46846 21.746 10.2871C17.888 12.1058 14.5854 14.9213 12.1792 18.443C9.77305 21.9647 8.35056 26.0648 8.05865 30.32C7.65589 36.0244 9.30324 41.6852 12.704 46.2827C13.8373 44.2373 15.2107 42.336 16.7973 40.624C18.1075 39.2693 19.5191 38.032 21.032 36.912C25.9473 33.2969 31.8878 31.3445 37.9893 31.3387L37.9733 31.3333Z" fill="white"/>
</g>
<defs>
<radialGradient id="paint0_radial_244_656" cx="0" cy="0" r="1" gradientUnits="userSpaceOnUse" gradientTransform="translate(50.3573 7.984) scale(51.1005 51.0477)">
<stop offset="0.1" stop-color="#26DB8D"/>
<stop offset="0.26" stop-color="#23D29A"/>
<stop offset="0.56" stop-color="#1ABBBB"/>
<stop offset="0.89" stop-color="#0E9DE5"/>
</radialGradient>
<radialGradient id="paint1_radial_244_656" cx="0" cy="0" r="1" gradientUnits="userSpaceOnUse" gradientTransform="translate(72.8027 -62.992) scale(88.6555 184.685)">
<stop offset="0.26" stop-color="#23D29A"/>
<stop offset="0.56" stop-color="#1ABBBB"/>
<stop offset="0.89" stop-color="#0E9DE5"/>
</radialGradient>
<clipPath id="clip0_244_656">
<rect width="64" height="64" fill="white"/>
</clipPath>
</defs>
</svg>
