<svg width="64" height="64" viewBox="0 0 64 64" fill="none" xmlns="http://www.w3.org/2000/svg">
<g clip-path="url(#clip0_158_68)">
<path d="M32 64C49.6732 64 64 49.6732 64 32C64 14.3269 49.6732 0 32 0C14.3269 0 0 14.3269 0 32C0 49.6732 14.3269 64 32 64Z" fill="#0F3933"/>
<path d="M54 32.2924C54 47.0106 45.0979 51.7333 40.4075 47.5281C36.5468 44.0992 35.3981 36.8535 29.591 36.1095C22.2204 35.1714 21.5823 45.1021 16.7324 45.1021C11.0848 45.1021 10 36.7888 10 32.5189C10 28.1519 11.2125 22.2 16.0304 22.2C21.6461 22.2 21.9652 30.7074 28.9848 30.2545C35.9724 29.7693 36.1001 20.906 40.631 17.1214C44.5874 13.8542 54 17.3801 54 32.2924Z" fill="#97FCE4"/>
</g>
<defs>
<clipPath id="clip0_158_68">
<rect width="64" height="64" fill="white"/>
</clipPath>
</defs>
</svg>
