<svg width="64" height="64" viewBox="0 0 64 64" fill="none" xmlns="http://www.w3.org/2000/svg">
<g clip-path="url(#clip0_310_696)">
<path d="M58.4828 11.0345C61.5299 11.0345 64.0001 8.56433 64.0001 5.51724C64.0001 2.47015 61.5299 0 58.4828 0C55.4357 0 52.9656 2.47015 52.9656 5.51724C52.9656 8.56433 55.4357 11.0345 58.4828 11.0345Z" fill="#18A0B1"/>
<path d="M16.0662 41.4676C13.9883 37.9402 13.1411 33.8224 13.6577 29.7612C14.1743 25.7 16.0255 21.9255 18.9203 19.0306C21.8152 16.1358 25.5897 14.2846 29.6509 13.768C33.7121 13.2514 37.8299 14.0986 41.3573 16.1765L45.7711 11.7628L45.5504 11.5862C40.803 8.45694 35.1177 7.06999 29.4625 7.66152C23.8074 8.25304 18.5322 10.7865 14.5351 14.8304C10.538 18.8743 8.06621 24.1787 7.5406 29.8404C7.015 35.502 8.46809 41.1707 11.6524 45.8814L16.0662 41.4676Z" fill="#18A0B1"/>
<path d="M47.9338 22.7752C50.0117 26.3026 50.8589 30.4203 50.3423 34.4816C49.8257 38.5428 47.9746 42.3173 45.0797 45.2121C42.1849 48.107 38.4104 49.9581 34.3492 50.4747C30.288 50.9913 26.1702 50.1441 22.6428 48.0662L18.229 52.48C22.9563 55.6894 28.6547 57.1504 34.3431 56.6113C40.0314 56.0722 45.3539 53.5669 49.3942 49.5266C53.4345 45.4863 55.9399 40.1638 56.4789 34.4754C57.018 28.7871 55.5571 23.0887 52.3476 18.3614L47.9338 22.7752Z" fill="#18A0B1"/>
<path d="M5.51724 64C8.56433 64 11.0345 61.5298 11.0345 58.4828C11.0345 55.4357 8.56433 52.9655 5.51724 52.9655C2.47015 52.9655 0 55.4357 0 58.4828C0 61.5298 2.47015 64 5.51724 64Z" fill="#18A0B1"/>
</g>
<defs>
<clipPath id="clip0_310_696">
<rect width="64" height="64" fill="white"/>
</clipPath>
</defs>
</svg>
