<svg width="64" height="64" viewBox="0 0 64 64" fill="none" xmlns="http://www.w3.org/2000/svg">
<g clip-path="url(#clip0_240_515)">
<mask id="mask0_240_515" style="mask-type:luminance" maskUnits="userSpaceOnUse" x="0" y="0" width="64" height="64">
<path d="M0 0H64V64H0V0Z" fill="white"/>
</mask>
<g mask="url(#mask0_240_515)">
<path d="M64 0H0V64H64V0Z" fill="url(#paint0_linear_240_515)"/>
<path d="M22.256 27.2133C22.1067 27.0533 22.024 26.904 22.1867 26.696C24.3705 23.9154 25.8786 20.6656 26.592 17.2027C26.88 15.8107 26.984 14.392 27.0987 12.984C27.1547 12.2107 27.2133 11.4373 27.3067 10.6667H27.3867V28.3093C27.376 30.536 27.3413 36.728 27.3867 40.3493L27.4213 42.424L27.4453 43.8427C27.456 44.7307 27.6987 45.5493 28.2987 46.2427C28.5085 46.4827 28.7004 46.736 28.8747 47.0027C29.0613 47.2693 29.0613 47.5227 28.76 47.728C26.4022 49.4075 24.0868 51.1458 21.816 52.9413L21.6213 53.0213C22.0373 52.112 22.3253 51.256 22.624 50.416V50.392C23.5545 47.5501 23.9955 44.5709 23.928 41.5813V37.0507L23.9387 32.4027C23.9147 30.64 23.5467 28.5413 22.256 27.2133ZM36.6133 35.4933V20.768C36.6347 19.0267 36.624 17.24 36.6133 15.4613V10.6667H36.7147C36.9813 13.2373 37.2693 15.8107 37.8453 18.336C38.5187 21.1823 39.7495 23.8669 41.4667 26.2347C41.952 26.9147 41.952 26.928 41.4667 27.5493L41.4427 27.5707C40.4053 28.8987 40.0827 30.7547 40.0827 32.4027L40.072 41.5707C40.072 44.2453 40.6373 46.76 41.224 49.3573L41.456 50.392C41.6293 51.1653 42.032 52.2373 42.3787 53.0107C42.2187 53.0213 42.136 52.952 42.056 52.872L42.008 52.8373C39.8088 51.0797 37.5636 49.3805 35.2747 47.7413C34.952 47.5227 34.904 47.28 35.1147 46.9787C35.1865 46.8661 35.2668 46.7592 35.3547 46.6587C35.7883 46.1973 36.1235 45.6525 36.3399 45.0574C36.5563 44.4624 36.6493 43.8295 36.6133 43.1973V35.472V35.4933ZM23.928 53.3333V53.2747C25.1493 52.376 26.3813 51.5227 27.616 50.6693C28.9333 49.7813 30.2347 48.8827 31.5147 47.9227C31.6517 47.8062 31.8211 47.7346 32 47.7173C32.16 47.7173 32.312 47.7973 32.4827 47.9253C33.7627 48.8827 35.0667 49.7707 36.3707 50.672C37.616 51.5227 38.8507 52.3787 40.072 53.2747V53.3333L40 53.2987L39.8613 53.2293C37.4359 51.9267 34.7457 51.1935 31.9947 51.0853C29.4267 51.0853 26.368 52.0427 24.1333 53.2293L24.0053 53.2987L23.928 53.3333Z" fill="white"/>
</g>
</g>
<defs>
<linearGradient id="paint0_linear_240_515" x1="32" y1="10.6667" x2="32" y2="53.3333" gradientUnits="userSpaceOnUse">
<stop stop-color="#5D2872"/>
<stop offset="0.49" stop-color="#3A2F71"/>
<stop offset="1" stop-color="#232651"/>
</linearGradient>
<clipPath id="clip0_240_515">
<rect width="64" height="64" rx="32" fill="white"/>
</clipPath>
</defs>
</svg>
