<svg width="64" height="64" viewBox="0 0 64 64" fill="none" xmlns="http://www.w3.org/2000/svg">
<g clip-path="url(#clip0_196_54)">
<path d="M47.5904 47.5392C47.5904 47.5392 40.5504 39.3216 38.2208 36.5824C37.9648 36.2752 37.8624 35.84 37.9648 35.456C38.0416 35.2512 38.1952 34.9952 38.3488 34.8416L39.424 33.6384L51.4304 47.5136H47.616L47.5904 47.5392ZM40.1664 47.5392L31.4624 37.376L31.0272 36.8128C30.6176 36.3264 30.6176 35.6096 31.0528 35.1232L47.2832 16.2048H51.3024L34.9696 34.8672C34.5344 35.328 34.5344 36.0704 34.944 36.5312L44.3648 47.488H40.1664V47.5392ZM30.0288 32.6144C26.6752 36.5056 17.2288 47.5392 17.2288 47.5392H13.0304L25.8816 32.64C26.2912 32.1536 26.2912 31.4624 25.8816 30.976L13.1328 16.2048H17.1776L30.0032 31.104C30.336 31.5392 30.3872 32.1792 30.0288 32.5888V32.6144ZM29.8752 41.0624L28.6208 42.5216L24.32 47.5392H20.4288L28.672 37.9392C28.672 37.9392 29.5936 39.04 29.9008 39.3984C30.3104 39.8848 30.3104 40.6016 29.8752 41.0624ZM24.2688 16.2304C24.2688 16.2304 31.1808 24.4992 33.6896 27.0592C34.0992 27.4688 34.0224 27.9808 33.664 28.416C32.3328 29.9776 32.3072 30.0032 32.3072 30.0032L20.4288 16.2304H24.32H24.2688ZM34.6368 22.7072L35.8912 21.248L40.192 16.2304H44.0832L35.84 25.8304C35.84 25.8304 34.9184 24.7296 34.6112 24.3712C34.2016 23.8848 34.2016 23.168 34.6368 22.7072ZM32.0256 -0.0256042C14.3616 -0.0256042 0.0256348 14.3104 0.0256348 31.9744C0.0256348 49.6384 14.3616 63.9744 32.0256 63.9744C49.6896 63.9744 64.0256 49.6384 64.0256 31.9744C64.0256 14.3104 49.6896 -0.0256042 32.0256 -0.0256042Z" fill="black"/>
</g>
<defs>
<clipPath id="clip0_196_54">
<rect width="64" height="64" fill="white"/>
</clipPath>
</defs>
</svg>
