<svg width="64" height="64" viewBox="0 0 64 64" fill="none" xmlns="http://www.w3.org/2000/svg">
<g clip-path="url(#clip0_196_81)">
<path d="M7.7568 11.0592C8.1664 10.5728 8.576 10.0864 8.9856 9.59997C9.0112 9.57437 9.0368 9.57437 9.0624 9.54877C9.1136 9.49757 9.1648 9.47197 9.1904 9.42077L9.216 9.36957C9.4976 9.08797 9.8304 8.80637 10.1888 8.55037C11.4688 7.57757 12.7744 6.83517 14.1824 6.37437C18.6624 4.81277 23.6288 5.75997 27.5456 9.44637C32.9984 14.5664 32.512 22.784 28.16 28.2624C22.656 36.4288 13.2096 47.7952 26.2912 57.984C28.6464 59.8272 30.3872 61.3376 37.8112 63.4624C32.9728 64.3584 28.4672 64.0768 23.4752 62.7968C19.9424 60.8 14.3872 56.5248 12.4672 50.7392C9.6 41.984 17.5104 28.8768 21.3248 23.8336C26.5728 16.8448 18.0736 9.29277 11.8528 17.7408C8.576 22.144 2.8928 34.5856 4.864 43.8016C6.016 49.024 7.5776 52.8384 13.696 58.0864C12.5696 57.4208 11.4432 56.6528 10.3936 55.808C-3.84 42.5472 -2.2016 22.016 7.7568 11.0336V11.0592Z" fill="url(#paint0_linear_196_81)"/>
<path d="M56.2432 52.9408C55.8336 53.4272 55.424 53.9136 55.0144 54.4C54.9888 54.4256 54.9632 54.4256 54.9376 54.4512C54.912 54.5024 54.8352 54.528 54.8096 54.5792L54.7584 54.6304C54.4768 54.912 54.144 55.1936 53.7856 55.4496C52.5056 56.4224 51.1744 57.1648 49.792 57.6256C45.312 59.1872 40.3456 58.24 36.4288 54.5536C30.976 49.4336 31.4624 41.216 35.8144 35.7376C41.3184 27.5712 50.7648 16.2048 37.6832 6.01599C35.328 4.17279 33.5872 2.66239 26.1632 0.537587C31.0016 -0.358413 35.5072 -0.076813 40.4992 1.20319C44.032 3.19999 49.5872 7.47519 51.5072 13.2608C54.3744 22.016 46.464 35.1232 42.6496 40.1664C37.4016 47.1552 45.9008 54.7072 52.1216 46.2592C55.3984 41.856 61.0816 29.4144 59.1104 20.1984C57.9584 14.976 56.3968 11.1616 50.2784 5.91359C51.4048 6.57919 52.5312 7.34719 53.5808 8.19199C67.8144 21.4528 66.176 41.984 56.2176 52.9664L56.2432 52.9408Z" fill="url(#paint1_linear_196_81)"/>
</g>
<defs>
<linearGradient id="paint0_linear_196_81" x1="3.4816" y1="34.8181" x2="60.9536" y2="34.8181" gradientUnits="userSpaceOnUse">
<stop stop-color="#0082FA"/>
<stop offset="1" stop-color="#00F2FE"/>
</linearGradient>
<linearGradient id="paint1_linear_196_81" x1="2.40641" y1="29.1819" x2="59.8784" y2="29.1819" gradientUnits="userSpaceOnUse">
<stop stop-color="#0082FA"/>
<stop offset="1" stop-color="#00F2FE"/>
</linearGradient>
<clipPath id="clip0_196_81">
<rect width="64" height="64" fill="white"/>
</clipPath>
</defs>
</svg>
