<svg width="64" height="64" viewBox="0 0 64 64" fill="none" xmlns="http://www.w3.org/2000/svg">
<g clip-path="url(#clip0_203_87)">
<path d="M48.4557 16.8602C44.882 16.8602 40.9805 18.6957 36.8589 22.3155C34.9082 24.0307 33.2135 25.8637 31.9463 27.3357C31.9488 27.3383 31.9514 27.3408 31.954 27.3434C31.9565 27.3408 31.9591 27.3383 31.9591 27.3357C31.9616 27.3331 33.961 29.5194 36.1677 31.8592C37.3556 30.4461 39.0682 28.5184 41.0394 26.7878C44.7028 23.5699 47.0964 22.8941 48.4583 22.8941C53.5988 22.8941 57.7792 26.9773 57.7792 31.9974C57.7792 36.9894 53.5962 41.0701 48.4506 41.1008C48.2176 41.1008 47.9156 41.0726 47.5444 40.9907C49.0445 41.641 50.6548 42.1094 52.1882 42.1094C61.609 42.1094 63.4496 35.9501 63.5751 35.5149C63.8567 34.3706 64.0026 33.1878 64.0026 32.0077C64.0026 32.0051 64.0026 32.0051 64.0026 32.0026C63.9975 23.6518 57.0266 16.8602 48.4557 16.8602Z" fill="url(#paint0_linear_203_87)"/>
<path d="M15.5443 47.1398C19.1181 47.1398 23.0195 45.3043 27.1411 41.6845C29.0918 39.9693 30.784 38.1363 32.0538 36.6643C32.0512 36.6618 32.0486 36.6592 32.0486 36.6566C32.0461 36.6618 32.0435 36.6643 32.0435 36.6643C32.0435 36.6643 30.0416 34.4806 27.8349 32.1408C26.6496 33.5514 24.9344 35.479 22.9632 37.2096C19.2998 40.4275 16.9062 41.1034 15.5443 41.1034C10.4038 41.1034 6.22336 37.0202 6.22336 32C6.22336 27.008 10.4064 22.9274 15.5494 22.8966C15.7824 22.8966 16.0845 22.9248 16.4557 23.0067C14.9581 22.3565 13.3478 21.888 11.8144 21.888C2.3936 21.888 0.55296 28.0474 0.42752 28.4826C0.14592 29.6269 0 30.8096 0 31.9898C0 31.9923 0 31.9949 0 31.9974C0 40.3482 6.97344 47.1398 15.5443 47.1398Z" fill="url(#paint1_linear_203_87)"/>
<path d="M52.1677 41.9559C47.3446 41.8381 42.3321 38.0263 41.3081 37.0791C38.6662 34.6317 32.5683 28.0038 32.0896 27.4842C27.6198 22.4691 21.5628 16.8602 15.5443 16.8602H15.5289C8.21245 16.896 2.06333 21.8598 0.42749 28.4851C0.55293 28.0474 2.95677 21.7728 11.8067 21.9904C16.6297 22.1107 21.6678 25.9712 22.6892 26.9184C25.3312 29.3658 31.4317 35.9962 31.9078 36.5159C36.3776 41.5283 42.4345 47.1373 48.4531 47.1373H48.4685C55.7849 47.1015 61.934 42.1376 63.5699 35.5098C63.447 35.9501 61.0201 42.176 52.1677 41.9559Z" fill="#29ABE2"/>
</g>
<defs>
<linearGradient id="paint0_linear_203_87" x1="40.243" y1="18.8175" x2="61.3689" y2="40.4999" gradientUnits="userSpaceOnUse">
<stop stop-color="#F15A24"/>
<stop offset="0.2118" stop-color="#F15A24"/>
<stop offset="0.6784" stop-color="#FBB03B"/>
<stop offset="1" stop-color="#FBB03B"/>
</linearGradient>
<linearGradient id="paint1_linear_203_87" x1="23.5462" y1="44.965" x2="2.42029" y2="23.2829" gradientUnits="userSpaceOnUse">
<stop stop-color="#ED1E79"/>
<stop offset="0.2118" stop-color="#ED1E79"/>
<stop offset="0.8902" stop-color="#522785"/>
<stop offset="1" stop-color="#522785"/>
</linearGradient>
<clipPath id="clip0_203_87">
<rect width="64" height="64" fill="white"/>
</clipPath>
</defs>
</svg>
