<svg width="64" height="64" viewBox="0 0 64 64" fill="none" xmlns="http://www.w3.org/2000/svg">
<g clip-path="url(#clip0_193_58)">
<path d="M32 64C49.6732 64 64 49.6732 64 32C64 14.3269 49.6732 0 32 0C14.3269 0 0 14.3269 0 32C0 49.6732 14.3269 64 32 64Z" fill="#0101FF"/>
<path d="M41.5452 15.7559C42.8272 15.7559 43.8691 14.6885 43.8691 13.3771C43.8691 12.0657 42.8272 11 41.5452 11C40.2631 11.0068 39.2212 12.0725 39.2212 13.3839C39.2212 14.6952 40.2631 15.7559 41.5452 15.7559ZM42.2307 21.9366C42.7566 21.9326 43.2593 21.7181 43.6283 21.3403C43.9973 20.9626 44.2024 20.4525 44.1984 19.9223C44.1984 18.8142 43.3179 17.9078 42.2307 17.9078C41.1435 17.9078 40.2631 18.8074 40.2631 19.9223C40.2631 21.0371 41.1419 21.9366 42.2307 21.9366ZM47.633 22.7245C48.7151 22.7245 49.5956 21.8248 49.5956 20.715C49.5956 19.6053 48.7151 18.7056 47.633 18.7056C46.5509 18.7056 45.6704 19.6053 45.6704 20.715C45.6704 21.8248 46.5526 22.7245 47.633 22.7245ZM46.9844 28.0123C47.9119 28.0123 48.6631 27.2431 48.6631 26.296C48.6631 25.3489 47.9119 24.5797 46.9844 24.5797C46.0569 24.5797 45.3057 25.3489 45.3057 26.296C45.3057 27.2431 46.0569 28.0123 46.9844 28.0123ZM51.3096 29.7269C52.2438 29.7269 53 28.9526 53 27.9988C53 27.0449 52.2438 26.2706 51.3096 26.2706C51.086 26.2721 50.865 26.3181 50.6591 26.4058C50.4531 26.4935 50.2664 26.6212 50.1094 26.7817C49.9524 26.9421 49.8283 27.1322 49.7442 27.341C49.6601 27.5499 49.6176 27.7734 49.6192 27.9988C49.6192 28.9526 50.377 29.7269 51.3096 29.7269ZM41.5485 27.2973C41.7758 27.296 42.0006 27.2495 42.2101 27.1606C42.4196 27.0717 42.6096 26.942 42.7694 26.779C42.9292 26.616 43.0555 26.4229 43.1413 26.2107C43.227 25.9984 43.2705 25.7712 43.2692 25.542V25.5387C43.2692 24.5678 42.5013 23.78 41.5485 23.78C40.5958 23.78 39.8278 24.5661 39.8278 25.5387C39.8278 26.5044 40.5974 27.2973 41.5485 27.2973ZM39.9892 31.5042C40.7873 31.5042 41.4309 30.8435 41.4309 30.0319C41.434 29.6446 41.2844 29.2719 41.015 28.9958C40.7456 28.7196 40.3785 28.5627 39.9944 28.5596H39.9892C39.191 28.5596 38.5474 29.2203 38.5474 30.0319C38.5474 30.8435 39.191 31.5042 39.9892 31.5042ZM45.3998 32.248C45.5889 32.2467 45.7759 32.2079 45.9501 32.1337C46.1243 32.0595 46.2823 31.9515 46.4151 31.8157C46.5479 31.68 46.6529 31.5192 46.724 31.3426C46.7952 31.1659 46.8311 30.9769 46.8298 30.7862V30.7826C46.8298 29.9728 46.1913 29.3171 45.3998 29.3171C44.6084 29.3171 43.9699 29.9728 43.9699 30.7826C43.9674 30.9726 44.0021 31.1612 44.072 31.3377C44.1418 31.5141 44.2455 31.675 44.377 31.8111C44.5085 31.9472 44.6653 32.0558 44.8384 32.1308C45.0116 32.2057 45.1976 32.2456 45.3861 32.248H45.3998ZM49.7133 33.9559C50.5114 33.9559 51.155 33.2951 51.155 32.4784C51.155 31.6618 50.5114 31.001 49.7133 31.001C48.9151 31.001 48.2715 31.6618 48.2715 32.4784C48.2675 32.8662 48.4164 33.2397 48.6855 33.5168C48.9546 33.7939 49.3218 33.9518 49.7064 33.9559H49.7133ZM47.5826 37.1479C48.2564 37.1479 48.8008 36.5871 48.8008 35.9026C48.8008 35.2181 48.2564 34.6573 47.5826 34.6573C46.9088 34.6573 46.3644 35.2181 46.3644 35.9026C46.3644 36.5871 46.9088 37.1479 47.5826 37.1479ZM43.249 35.4672C43.9346 35.4672 44.4958 34.8945 44.4958 34.1914C44.4958 33.4882 43.9396 32.9156 43.249 32.9156C42.5584 32.9156 42.0022 33.4882 42.0022 34.1914C42.0022 34.8945 42.5634 35.4672 43.249 35.4672ZM37.845 34.6878C38.174 34.6826 38.4877 34.5473 38.7185 34.311C38.9494 34.0747 39.0789 33.7564 39.0791 33.4247C39.0793 33.093 38.9502 32.7745 38.7197 32.5379C38.4892 32.3013 38.1756 32.1656 37.8467 32.1599H37.845C37.5161 32.1651 37.2024 32.3005 36.9716 32.5368C36.7407 32.773 36.6112 33.0913 36.611 33.423C36.6108 33.7547 36.7399 34.0732 36.9704 34.3098C37.2009 34.5464 37.5145 34.6821 37.8434 34.6878H37.845ZM40.8495 37.6867C41.446 37.6867 41.9249 37.192 41.9249 36.5905C41.9276 36.3025 41.8167 36.0252 41.6166 35.8196C41.4166 35.614 41.1437 35.497 40.8581 35.4943H40.8495C40.253 35.4943 39.7741 35.989 39.7741 36.5905C39.7709 36.878 39.8812 37.1551 40.0807 37.3607C40.2801 37.5662 40.5524 37.6835 40.8376 37.6867H40.8495ZM45.1814 39.3962C45.7779 39.3962 46.2686 38.9015 46.2686 38.2882C46.2686 37.6748 45.7846 37.1801 45.1814 37.1801C44.8899 37.1801 44.6104 37.2968 44.4043 37.5046C44.1982 37.7124 44.0825 37.9943 44.0825 38.2882C44.0825 38.582 44.1982 38.8639 44.4043 39.0717C44.6104 39.2795 44.8899 39.3962 45.1814 39.3962ZM42.7415 40.6788C43.2137 40.6788 43.5985 40.2857 43.5985 39.8028C43.5999 39.5722 43.5104 39.3504 43.3497 39.1862C43.189 39.0219 42.9703 38.9287 42.7415 38.9269C42.2694 38.9269 41.8846 39.32 41.8846 39.8028C41.8841 40.0333 41.9739 40.2545 42.1344 40.4186C42.2948 40.5826 42.5131 40.6761 42.7415 40.6788ZM40.4294 41.3667C40.5318 41.366 40.633 41.3451 40.7273 41.305C40.8217 41.2649 40.9072 41.2064 40.9792 41.133C41.0511 41.0596 41.108 40.9725 41.1466 40.8769C41.1852 40.7813 41.2047 40.679 41.204 40.5758V40.5737C41.204 40.1332 40.8545 39.7808 40.4294 39.7808C40.327 39.7815 40.2258 39.8024 40.1315 39.8425C40.0371 39.8826 39.9516 39.9411 39.8796 40.0145C39.8077 40.0879 39.7508 40.1749 39.7122 40.2706C39.6737 40.3662 39.6541 40.4685 39.6548 40.5717V40.5737C39.6512 40.7804 39.7292 40.98 39.8716 41.1287C40.014 41.2773 40.2092 41.3629 40.4141 41.3665L40.4294 41.3667ZM38.4046 39.0862C38.9137 39.0862 39.3271 38.6626 39.3271 38.1441C39.3271 37.6257 38.9137 37.2021 38.4046 37.2021C37.8955 37.2021 37.4821 37.6257 37.4821 38.1441C37.4816 38.3921 37.5783 38.6302 37.751 38.8066C37.9238 38.9831 38.1587 39.0835 38.4046 39.0862ZM35.4338 36.9259C36.0252 36.9259 36.5092 36.438 36.5092 35.8297C36.5092 35.2215 36.0303 34.7335 35.4338 34.7335C34.8423 34.7335 34.3584 35.2215 34.3584 35.8297C34.3579 36.1186 34.4707 36.3959 34.6721 36.6012C34.8736 36.8065 35.1473 36.9233 35.4338 36.9259ZM44.2438 50.6598C45.5208 50.6598 46.5559 49.5992 46.5559 48.2929C46.5559 46.9866 45.5208 45.926 44.2438 45.926C42.9667 45.926 41.9316 46.9866 41.9316 48.2929C41.9316 49.5992 42.9667 50.6598 44.2438 50.6598ZM38.371 47.6643C39.4346 47.6643 40.2983 46.7816 40.2983 45.6922C40.2983 44.6028 39.4346 43.72 38.371 43.72C37.3073 43.72 36.4436 44.6028 36.4436 45.6922C36.4436 46.7816 37.3057 47.6643 38.371 47.6643ZM35.0154 52C36.0908 52 36.9595 51.1122 36.9595 50.0092C36.9595 48.913 36.0908 48.0184 35.0154 48.0184C33.9399 48.0184 33.0712 48.9062 33.0712 50.0092C33.0672 50.5331 33.2697 51.0372 33.6343 51.4106C33.9989 51.7839 34.4956 51.9959 35.0152 52H35.0154ZM34.0055 44.0114C34.2284 44.0099 34.4487 43.9641 34.6541 43.8767C34.8594 43.7892 35.0456 43.6619 35.2021 43.5019C35.3586 43.3419 35.4823 43.1523 35.5662 42.9441C35.65 42.7359 35.6924 42.5131 35.6909 42.2884C35.6924 42.0636 35.65 41.8408 35.5662 41.6326C35.4823 41.4244 35.3586 41.2349 35.2021 41.0749C35.0456 40.9148 34.8594 40.7875 34.6541 40.7001C34.4487 40.6126 34.2284 40.5668 34.0055 40.5653C33.7826 40.5668 33.5622 40.6126 33.3569 40.7001C33.1516 40.7875 32.9654 40.9148 32.8089 41.0749C32.6524 41.2349 32.5286 41.4244 32.4448 41.6326C32.3609 41.8408 32.3186 42.0636 32.3201 42.2884C32.3218 43.2372 33.0779 44.0114 34.0055 44.0114ZM30.6583 48.4064C31.5858 48.4064 32.3369 47.6372 32.3369 46.6901C32.3369 45.743 31.5858 44.9738 30.6583 44.9738C29.7307 44.9738 28.9796 45.743 28.9796 46.6901C28.9752 47.1408 29.1484 47.5748 29.4613 47.8966C29.7742 48.2185 30.201 48.4019 30.648 48.4064H30.6583ZM27.0506 51.3884C27.9781 51.3884 28.7242 50.6192 28.7242 49.6771C28.7242 48.73 27.9731 47.9659 27.0506 47.9659C26.123 47.9659 25.377 48.7351 25.377 49.6771C25.377 50.6192 26.1281 51.3884 27.0506 51.3884ZM24.0478 47.5068C24.4292 47.5032 24.7937 47.3476 25.0616 47.074C25.3295 46.8003 25.4792 46.4308 25.4778 46.0463C25.4778 45.2415 24.8392 44.5858 24.0478 44.5858C23.6675 44.5917 23.3047 44.7481 23.0378 45.0213C22.7709 45.2946 22.6213 45.6628 22.6213 46.0463C22.6213 46.4298 22.7709 46.798 23.0378 47.0712C23.3047 47.3445 23.6675 47.5009 24.0478 47.5068ZM27.6622 44.5113C28.0438 44.5086 28.4088 44.3532 28.6769 44.0794C28.9451 43.8056 29.0944 43.4356 29.0922 43.0508C29.0922 42.2409 28.4537 41.5903 27.6622 41.5903C27.2818 41.5955 26.9187 41.7512 26.6513 42.024C26.3839 42.2968 26.2337 42.6647 26.233 43.0483C26.2323 43.4318 26.3813 43.8003 26.6478 44.074C26.9143 44.3477 27.2768 44.5048 27.6572 44.5113H27.6622ZM31.0346 40.118C31.2237 40.1167 31.4107 40.0778 31.5849 40.0037C31.7591 39.9295 31.9171 39.8214 32.0499 39.6857C32.1827 39.5499 32.2877 39.3892 32.3588 39.2125C32.43 39.0359 32.4659 38.8468 32.4646 38.6562V38.6526C32.4646 37.8427 31.8261 37.187 31.0346 37.187C30.8456 37.1883 30.6586 37.2272 30.4844 37.3014C30.3102 37.3755 30.1522 37.4836 30.0194 37.6193C29.8866 37.7551 29.7816 37.9159 29.7105 38.0925C29.6393 38.2692 29.6034 38.4582 29.6047 38.6489V38.6524C29.6047 39.4623 30.2432 40.118 31.0346 40.118ZM25.876 40.7228C26.5616 40.7228 27.1178 40.1569 27.1178 39.4538C27.1178 38.7507 26.5616 38.1848 25.876 38.1848C25.1904 38.1848 24.6342 38.7507 24.6342 39.4538C24.6342 40.1569 25.1904 40.7228 25.876 40.7228ZM22.2801 43.7065C22.4425 43.7056 22.6032 43.6725 22.7529 43.609C22.9026 43.5455 23.0384 43.4529 23.1526 43.3365C23.2668 43.22 23.3572 43.0821 23.4185 42.9304C23.4799 42.7788 23.511 42.6165 23.5101 42.4527V42.4493C23.5132 42.1191 23.3861 41.8011 23.1568 41.5653C22.9274 41.3296 22.6145 41.1953 22.287 41.1922H22.2801C22.1177 41.193 21.957 41.2262 21.8073 41.2897C21.6576 41.3532 21.5218 41.4458 21.4076 41.5622C21.2933 41.6786 21.203 41.8166 21.1417 41.9682C21.0803 42.1198 21.0492 42.2822 21.0501 42.4459V42.4493C21.049 42.6133 21.0799 42.7759 21.1411 42.9278C21.2024 43.0797 21.2926 43.218 21.4069 43.3348C21.5211 43.4515 21.657 43.5444 21.8068 43.6082C21.9566 43.672 22.1175 43.7054 22.2801 43.7065ZM21.4534 40.2095C21.7368 40.2072 22.0079 40.0919 22.2072 39.8887C22.4065 39.6855 22.5179 39.4109 22.517 39.1251C22.517 38.5237 22.0381 38.0408 21.4534 38.0408C20.8686 38.0408 20.3897 38.5287 20.3897 39.1251C20.3897 39.7266 20.8686 40.2095 21.4534 40.2095ZM21.4231 37.1411C21.5438 37.14 21.6631 37.1149 21.7742 37.0673C21.8853 37.0197 21.986 36.9505 22.0706 36.8637C22.1552 36.7769 22.222 36.6741 22.2671 36.5612C22.3123 36.4483 22.335 36.3276 22.3339 36.2059C22.3339 35.6925 21.9255 35.2706 21.4231 35.2706C20.9207 35.2706 20.5124 35.6874 20.5124 36.2059C20.5124 36.7243 20.9207 37.1411 21.4231 37.1411ZM21.9239 34.5895C22.3557 34.5895 22.6985 34.232 22.6985 33.7966C22.6985 33.3612 22.349 33.0037 21.9239 33.0037C21.492 33.0037 21.1492 33.3612 21.1492 33.7966C21.1492 34.232 21.492 34.5895 21.9239 34.5895ZM25.0241 34.1626C25.5332 34.1626 25.9466 33.739 25.9466 33.2205C25.9466 32.7021 25.5332 32.2785 25.0241 32.2785C24.5149 32.2785 24.1016 32.7021 24.1016 33.2205C24.1007 33.4686 24.1972 33.707 24.3701 33.8835C24.5429 34.06 24.7781 34.1603 25.0241 34.1626ZM28.4268 32.8258C29.0182 32.8258 29.5022 32.331 29.5022 31.7296C29.5049 31.4416 29.394 31.1643 29.1939 30.9587C28.9938 30.7531 28.721 30.6361 28.4353 30.6334H28.4268C27.8353 30.6334 27.3514 31.1281 27.3514 31.7296C27.3502 31.8724 27.3771 32.0141 27.4302 32.1465C27.4834 32.2789 27.562 32.3994 27.6614 32.5012C27.7608 32.603 27.8791 32.6841 28.0095 32.7397C28.14 32.7954 28.2801 32.8247 28.4217 32.8258H28.4268ZM29.2367 36.3058C29.5603 36.3052 29.8704 36.175 30.0988 35.9439C30.3273 35.7129 30.4554 35.3998 30.4551 35.0735C30.4548 34.7472 30.326 34.4344 30.0971 34.2038C29.8681 33.9732 29.5578 33.8437 29.2342 33.8437C28.9106 33.8437 28.6002 33.9732 28.3713 34.2038C28.1424 34.4344 28.0136 34.7472 28.0132 35.0735C28.0129 35.3998 28.141 35.7129 28.3695 35.9439C28.598 36.175 28.9081 36.3052 29.2316 36.3058H29.2367ZM25.0678 37.2326C25.6593 37.2326 26.1314 36.7447 26.1314 36.1415C26.1314 35.5383 25.6525 35.0504 25.0678 35.0504C24.9272 35.0512 24.7882 35.08 24.6587 35.1351C24.5292 35.1901 24.4117 35.2703 24.3129 35.3712C24.2141 35.472 24.136 35.5915 24.083 35.7227C24.03 35.854 24.0032 35.9945 24.0041 36.1362V36.1415C24.0021 36.2827 24.0277 36.423 24.0795 36.5543C24.1313 36.6856 24.2082 36.8053 24.3058 36.9066C24.4035 37.0079 24.5199 37.0888 24.6486 37.1447C24.7773 37.2006 24.9156 37.2304 25.0557 37.2324H25.0678V37.2326ZM13.3054 35.6146C14.5758 35.6146 15.6108 34.559 15.6108 33.2595C15.6108 31.96 14.5758 30.9045 13.3054 30.9045C12.0351 30.9045 11 31.9617 11 33.2612C11 34.5607 12.0351 35.6146 13.3054 35.6146ZM18.538 31.4094C19.6319 31.4094 20.5124 30.5029 20.5124 29.3881C20.5124 28.2732 19.6252 27.3668 18.538 27.3668C18.0108 27.3704 17.5066 27.585 17.1364 27.9634C16.7661 28.3418 16.5601 28.853 16.5636 29.3845V29.3881C16.5636 30.5097 17.4508 31.4094 18.538 31.4094ZM16.4964 26.2248C17.5836 26.2248 18.459 25.3252 18.459 24.2154C18.459 23.1057 17.5785 22.206 16.4964 22.206C16.2369 22.2078 15.9803 22.261 15.7412 22.3628C15.5021 22.4645 15.2853 22.6128 15.103 22.799C14.9208 22.9853 14.7767 23.2059 14.679 23.4484C14.5813 23.6908 14.532 23.9502 14.5337 24.2119V24.2154C14.5284 24.7429 14.7311 25.251 15.0972 25.6278C15.4634 26.0046 15.963 26.2194 16.4861 26.2248H16.4964ZM21.5407 23.7681C22.4683 23.7681 23.2261 22.9989 23.2261 22.045C23.2261 21.0912 22.47 20.322 21.5407 20.322C20.6115 20.322 19.8554 21.0912 19.8554 22.045C19.8554 22.9989 20.6132 23.7681 21.5407 23.7681ZM23.6025 28.9408C24.5368 28.9408 25.2929 28.1665 25.2929 27.2126C25.2929 26.2587 24.5368 25.4844 23.6025 25.4844C22.6683 25.4844 21.9121 26.2587 21.9121 27.2126C21.9121 28.1665 22.6683 28.9408 23.6025 28.9408ZM28.1932 27.8666C28.5773 27.8634 28.9444 27.7066 29.2139 27.4305C29.4833 27.1544 29.6329 26.7817 29.6299 26.3944C29.6328 26.2042 29.5985 26.0153 29.5289 25.8384C29.4594 25.6615 29.356 25.5002 29.2247 25.3636C29.0933 25.227 28.9365 25.1179 28.7633 25.0424C28.5901 24.9669 28.4039 24.9265 28.2152 24.9236C28.0265 24.9207 27.8392 24.9553 27.6637 25.0254C27.4883 25.0955 27.3283 25.1998 27.1929 25.3322C27.0574 25.4647 26.9492 25.6227 26.8743 25.7974C26.7994 25.972 26.7594 26.1598 26.7565 26.3501C26.7565 26.365 26.7565 26.3797 26.7565 26.3944C26.7521 26.7804 26.8999 27.1523 27.1674 27.4284C27.4349 27.7045 27.8002 27.8622 28.1829 27.8668L28.1932 27.8666ZM32.1588 27.8802C32.8444 27.8802 33.4006 27.3143 33.4006 26.6162C33.4006 25.9182 32.8444 25.3523 32.1588 25.3523C31.8263 25.3523 31.5075 25.4855 31.2724 25.7225C31.0373 25.9595 30.9053 26.281 30.9053 26.6162C30.9053 26.9514 31.0373 27.2729 31.2724 27.51C31.5075 27.747 31.8263 27.8802 32.1588 27.8802ZM35.4354 28.6409C36.0084 28.6409 36.4823 28.1648 36.4823 27.5735C36.4823 26.9822 36.0152 26.5061 35.4354 26.5061C35.1564 26.5083 34.8897 26.6218 34.6935 26.8219C34.4973 27.0219 34.3877 27.2922 34.3886 27.5735C34.3953 28.158 34.8608 28.6409 35.4354 28.6409ZM35.8623 24.7474C36.1053 24.7457 36.3377 24.6467 36.5085 24.4723C36.6792 24.2979 36.7744 24.0623 36.773 23.8173C36.773 23.3039 36.3647 22.8871 35.8623 22.8871C35.3598 22.8871 34.9515 23.3039 34.9515 23.8173C34.9501 24.0623 35.0453 24.2979 35.216 24.4723C35.3868 24.6467 35.6192 24.7457 35.8623 24.7474ZM33.3417 23.4733C33.6199 23.4726 33.8864 23.3606 34.0827 23.162C34.279 22.9633 34.389 22.6942 34.3887 22.4138C34.3883 22.1333 34.2776 21.8645 34.0808 21.6663C33.884 21.4681 33.6173 21.3568 33.3391 21.3568C33.061 21.3568 32.7943 21.4681 32.5975 21.6663C32.4007 21.8645 32.29 22.1333 32.2896 22.4138C32.2893 22.6942 32.3993 22.9633 32.5956 23.162C32.7919 23.3606 33.0584 23.4726 33.3365 23.4733H33.3417ZM30.1037 22.7007C30.4321 22.698 30.7459 22.5642 30.9765 22.3285C31.2071 22.0929 31.3355 21.7746 31.3337 21.4436C31.3337 20.7455 30.7843 20.1864 30.1037 20.1864C29.4232 20.1864 28.8737 20.7523 28.8737 21.4436C28.8724 21.6073 28.9031 21.7698 28.964 21.9216C29.0249 22.0734 29.1149 22.2116 29.2288 22.3283C29.3427 22.4451 29.4783 22.538 29.6279 22.6019C29.7774 22.6658 29.938 22.6994 30.1004 22.7007H30.1037ZM26.1449 22.7058C26.943 22.7058 27.5866 22.045 27.5866 21.2335C27.5866 20.4219 26.943 19.7611 26.1449 19.7611C25.3467 19.7611 24.7031 20.4219 24.7031 21.2335C24.7018 21.6212 24.8527 21.9936 25.1228 22.2695C25.3929 22.5454 25.7604 22.7022 26.1449 22.7058ZM20.8132 19.0241C21.7172 19.0241 22.4448 18.2786 22.4448 17.3553C22.4448 16.4319 21.7121 15.6864 20.8132 15.6864C19.9091 15.6864 19.1816 16.4319 19.1816 17.3553C19.1816 18.2786 19.9142 19.0241 20.8132 19.0241ZM25.4022 18.0126C26.2003 18.0126 26.8439 17.3519 26.8439 16.5403C26.8439 15.7287 26.2003 15.068 25.4022 15.068C24.604 15.068 23.9604 15.7287 23.9604 16.5403C23.9604 17.3519 24.604 18.0126 25.4022 18.0126ZM29.3661 18.0313C30.0517 18.0313 30.6078 17.4654 30.6078 16.7623C30.6078 16.0591 30.0517 15.4932 29.3661 15.4932C29.2021 15.4941 29.0399 15.5276 28.8888 15.5917C28.7377 15.6557 28.6005 15.7492 28.4852 15.8667C28.3699 15.9843 28.2787 16.1235 28.2168 16.2766C28.1548 16.4297 28.1234 16.5936 28.1243 16.7589V16.7623C28.1229 17.0963 28.2528 17.4174 28.4855 17.6552C28.7182 17.893 29.0348 18.0282 29.3661 18.0313ZM32.6192 18.7869C33.1989 18.7869 33.6661 18.3108 33.6661 17.7195C33.6661 17.1282 33.1989 16.6521 32.6192 16.6521C32.3384 16.6521 32.0692 16.7646 31.8707 16.9648C31.6721 17.1649 31.5606 17.4364 31.5606 17.7195C31.5606 18.0026 31.6721 18.2741 31.8707 18.4743C32.0692 18.6745 32.3384 18.7869 32.6192 18.7869ZM35.1179 20.0949C35.3671 20.0931 35.6055 19.9917 35.7807 19.8128C35.9558 19.634 36.0535 19.3924 36.0521 19.141C36.0521 18.6107 35.632 18.1872 35.1179 18.1872C34.6037 18.1872 34.1836 18.6158 34.1836 19.141C34.1836 19.6663 34.6037 20.0949 35.1179 20.0949ZM36.9511 21.5961C37.0526 21.5954 37.153 21.5746 37.2465 21.5348C37.3401 21.495 37.4249 21.437 37.4962 21.3642C37.5675 21.2914 37.6239 21.2051 37.6621 21.1102C37.7004 21.0154 37.7197 20.914 37.719 20.8116V20.8099C37.7199 20.7076 37.7008 20.606 37.6628 20.5111C37.6247 20.4162 37.5685 20.3298 37.4974 20.2568C37.4262 20.1838 37.3415 20.1257 37.2481 20.0857C37.1546 20.0457 37.0543 20.0246 36.9528 20.0238H36.9511C36.8496 20.0244 36.7492 20.0452 36.6557 20.085C36.5622 20.1248 36.4773 20.1828 36.406 20.2556C36.3347 20.3285 36.2783 20.4148 36.2401 20.5096C36.2019 20.6044 36.1825 20.7059 36.1832 20.8082V20.8099C36.1816 20.9116 36.2 21.0126 36.2371 21.1071C36.2743 21.2016 36.3296 21.2879 36.3998 21.3609C36.47 21.4338 36.5538 21.4922 36.6464 21.5325C36.739 21.5728 36.8385 21.5944 36.9393 21.5959H36.9514L36.9511 21.5961Z" fill="white"/>
</g>
<defs>
<clipPath id="clip0_193_58">
<rect width="64" height="64" fill="white"/>
</clipPath>
</defs>
</svg>
