<svg width="64" height="64" viewBox="0 0 64 64" fill="none" xmlns="http://www.w3.org/2000/svg">
<g clip-path="url(#clip0_245_128)">
<mask id="mask0_245_128" style="mask-type:alpha" maskUnits="userSpaceOnUse" x="38" y="2" width="14" height="15">
<path d="M38.7271 2V16.5707L51.3635 9.296L38.7271 2Z" fill="white"/>
</mask>
<g mask="url(#mask0_245_128)">
<path d="M67.8933 -1.39554H-0.974243V66.48H67.8933V-1.39554Z" fill="url(#paint0_linear_245_128)"/>
</g>
<mask id="mask1_245_128" style="mask-type:alpha" maskUnits="userSpaceOnUse" x="51" y="9" width="13" height="15">
<path opacity="0.9" d="M51.3635 9.29599V23.8631L64 16.5707L51.3635 9.29599Z" fill="white"/>
</mask>
<g mask="url(#mask1_245_128)">
<path d="M67.8934 -1.3956H-0.974121V66.4799H67.8934V-1.3956Z" fill="url(#paint1_linear_245_128)"/>
</g>
<mask id="mask2_245_128" style="mask-type:alpha" maskUnits="userSpaceOnUse" x="38" y="16" width="14" height="16">
<path opacity="0.8" d="M38.7271 16.5671V31.1378L51.3635 23.8631L38.7271 16.5671Z" fill="white"/>
</mask>
<g mask="url(#mask2_245_128)">
<path d="M67.8933 -1.39554H-0.974243V66.48H67.8933V-1.39554Z" fill="url(#paint2_linear_245_128)"/>
</g>
<mask id="mask3_245_128" style="mask-type:alpha" maskUnits="userSpaceOnUse" x="51" y="23" width="13" height="16">
<path opacity="0.8" d="M51.3635 23.8667V38.4338L64 31.1378L51.3635 23.8667Z" fill="white"/>
</mask>
<g mask="url(#mask3_245_128)">
<path d="M67.8934 -1.39554H-0.974121V66.48H67.8934V-1.39554Z" fill="url(#paint3_linear_245_128)"/>
</g>
<mask id="mask4_245_128" style="mask-type:alpha" maskUnits="userSpaceOnUse" x="38" y="31" width="14" height="15">
<path opacity="0.8" d="M38.7271 31.1378V45.7084L51.3635 38.4338L38.7271 31.1378Z" fill="white"/>
</mask>
<g mask="url(#mask4_245_128)">
<path d="M67.8933 -1.39554H-0.974243V66.48H67.8933V-1.39554Z" fill="url(#paint4_linear_245_128)"/>
</g>
<mask id="mask5_245_128" style="mask-type:alpha" maskUnits="userSpaceOnUse" x="51" y="38" width="13" height="16">
<path d="M51.3635 38.4302V53.0009L64 45.7049L51.3635 38.4302Z" fill="white"/>
</mask>
<g mask="url(#mask5_245_128)">
<path d="M67.8934 -1.39554H-0.974121V66.48H67.8934V-1.39554Z" fill="url(#paint5_linear_245_128)"/>
</g>
<mask id="mask6_245_128" style="mask-type:alpha" maskUnits="userSpaceOnUse" x="6" y="16" width="13" height="15">
<path opacity="0.4" d="M6.05859 16.08V30.6471L18.695 23.3511L6.05859 16.08Z" fill="white"/>
</mask>
<g mask="url(#mask6_245_128)">
<path d="M67.8933 -1.39554H-0.974243V66.48H67.8933V-1.39554Z" fill="url(#paint6_linear_245_128)"/>
</g>
<mask id="mask7_245_128" style="mask-type:alpha" maskUnits="userSpaceOnUse" x="22" y="21" width="13" height="16">
<path opacity="0.2" d="M22.0089 21.4951V36.0622L34.624 28.7876L22.0089 21.4951Z" fill="white"/>
</mask>
<g mask="url(#mask7_245_128)">
<path d="M67.8934 -1.39554H-0.974121V66.48H67.8934V-1.39554Z" fill="url(#paint7_linear_245_128)"/>
</g>
<mask id="mask8_245_128" style="mask-type:alpha" maskUnits="userSpaceOnUse" x="12" y="30" width="14" height="16">
<path opacity="0.3" d="M12.6364 30.7111V45.2782L25.2728 37.9822L12.6364 30.7111Z" fill="white"/>
</mask>
<g mask="url(#mask8_245_128)">
<path d="M67.8933 -1.39554H-0.974243V66.48H67.8933V-1.39554Z" fill="url(#paint8_linear_245_128)"/>
</g>
<mask id="mask9_245_128" style="mask-type:alpha" maskUnits="userSpaceOnUse" x="20" y="41" width="14" height="16">
<path opacity="0.9" d="M20.9635 41.7013V56.272L33.5822 48.976L20.9635 41.7013Z" fill="white"/>
</mask>
<g mask="url(#mask9_245_128)">
<path d="M67.8933 -1.39554H-0.974243V66.48H67.8933V-1.39554Z" fill="url(#paint9_linear_245_128)"/>
</g>
<mask id="mask10_245_128" style="mask-type:alpha" maskUnits="userSpaceOnUse" x="38" y="47" width="14" height="16">
<path opacity="0.7" d="M38.624 47.9733V62.5404L51.2391 55.2444L38.624 47.9733Z" fill="white"/>
</mask>
<g mask="url(#mask10_245_128)">
<path d="M67.8934 -1.39554H-0.974121V66.48H67.8934V-1.39554Z" fill="url(#paint10_linear_245_128)"/>
</g>
<mask id="mask11_245_128" style="mask-type:alpha" maskUnits="userSpaceOnUse" x="24" y="14" width="13" height="15">
<path opacity="0.9" d="M24.1066 14.3022V28.8693L36.7252 21.5947L24.1066 14.3022Z" fill="white"/>
</mask>
<g mask="url(#mask11_245_128)">
<path d="M67.8933 -1.3956H-0.974243V66.4799H67.8933V-1.3956Z" fill="url(#paint11_linear_245_128)"/>
</g>
<mask id="mask12_245_128" style="mask-type:alpha" maskUnits="userSpaceOnUse" x="26" y="2" width="13" height="15">
<path opacity="0.8" d="M38.727 2V16.5707L26.087 9.296L38.727 2Z" fill="white"/>
</mask>
<g mask="url(#mask12_245_128)">
<path d="M67.8933 -1.39554H-0.974243V66.48H67.8933V-1.39554Z" fill="url(#paint12_linear_245_128)"/>
</g>
<mask id="mask13_245_128" style="mask-type:alpha" maskUnits="userSpaceOnUse" x="11" y="8" width="14" height="15">
<path opacity="0.6" d="M24.1102 8.19022V22.7573L11.4738 15.4649L24.1102 8.19022Z" fill="white"/>
</mask>
<g mask="url(#mask13_245_128)">
<path d="M67.8933 -1.39554H-0.974243V66.48H67.8933V-1.39554Z" fill="url(#paint13_linear_245_128)"/>
</g>
<mask id="mask14_245_128" style="mask-type:alpha" maskUnits="userSpaceOnUse" x="24" y="15" width="13" height="15">
<path opacity="0.6" d="M36.7466 15.4044V29.9716L24.1066 22.6791L36.7466 15.4044Z" fill="white"/>
</mask>
<g mask="url(#mask14_245_128)">
<path d="M67.8933 -1.39554H-0.974243V66.48H67.8933V-1.39554Z" fill="url(#paint14_linear_245_128)"/>
</g>
<mask id="mask15_245_128" style="mask-type:alpha" maskUnits="userSpaceOnUse" x="9" y="21" width="13" height="16">
<path opacity="0.95" d="M21.9485 21.4951V36.0622L9.30847 28.7876L21.9485 21.4951Z" fill="white"/>
</mask>
<g mask="url(#mask15_245_128)">
<path d="M67.8933 -1.39554H-0.974243V66.48H67.8933V-1.39554Z" fill="url(#paint15_linear_245_128)"/>
</g>
<mask id="mask16_245_128" style="mask-type:alpha" maskUnits="userSpaceOnUse" x="26" y="31" width="13" height="15">
<path opacity="0.6" d="M38.7271 31.1378V45.7084L26.1084 38.4338L38.7271 31.1378Z" fill="white"/>
</mask>
<g mask="url(#mask16_245_128)">
<path d="M67.8933 -1.39554H-0.974243V66.48H67.8933V-1.39554Z" fill="url(#paint16_linear_245_128)"/>
</g>
<mask id="mask17_245_128" style="mask-type:alpha" maskUnits="userSpaceOnUse" x="0" y="34" width="13" height="16">
<path opacity="0.55" d="M12.6364 34.5333V49.1004L0 41.8044L12.6364 34.5333Z" fill="white"/>
</mask>
<g mask="url(#mask17_245_128)">
<path d="M67.8933 -1.39554H-0.974243V66.48H67.8933V-1.39554Z" fill="url(#paint17_linear_245_128)"/>
</g>
<mask id="mask18_245_128" style="mask-type:alpha" maskUnits="userSpaceOnUse" x="51" y="16" width="13" height="16">
<path d="M64.0001 16.5671V31.1378L51.3601 23.8631L64.0001 16.5671Z" fill="white"/>
</mask>
<g mask="url(#mask18_245_128)">
<path d="M67.8934 -1.39554H-0.974121V66.48H67.8934V-1.39554Z" fill="url(#paint18_linear_245_128)"/>
</g>
<mask id="mask19_245_128" style="mask-type:alpha" maskUnits="userSpaceOnUse" x="38" y="23" width="14" height="16">
<path opacity="0.95" d="M51.3636 23.8667V38.4338L38.7236 31.1378L51.3636 23.8667Z" fill="white"/>
</mask>
<g mask="url(#mask19_245_128)">
<path d="M67.8934 -1.39554H-0.974121V66.48H67.8934V-1.39554Z" fill="url(#paint19_linear_245_128)"/>
</g>
<mask id="mask20_245_128" style="mask-type:alpha" maskUnits="userSpaceOnUse" x="51" y="31" width="13" height="15">
<path opacity="0.9" d="M64.0001 31.1378V45.7084L51.3601 38.4338L64.0001 31.1378Z" fill="white"/>
</mask>
<g mask="url(#mask20_245_128)">
<path d="M67.8934 -1.39554H-0.974121V66.48H67.8934V-1.39554Z" fill="url(#paint20_linear_245_128)"/>
</g>
<mask id="mask21_245_128" style="mask-type:alpha" maskUnits="userSpaceOnUse" x="38" y="38" width="14" height="16">
<path opacity="0.7" d="M51.3636 38.4302V53.0009L38.7236 45.7049L51.3636 38.4302Z" fill="white"/>
</mask>
<g mask="url(#mask21_245_128)">
<path d="M67.8934 -1.39554H-0.974121V66.48H67.8934V-1.39554Z" fill="url(#paint21_linear_245_128)"/>
</g>
<mask id="mask22_245_128" style="mask-type:alpha" maskUnits="userSpaceOnUse" x="23" y="44" width="13" height="16">
<path opacity="0.4" d="M35.9289 44.5031V59.0702L23.2925 51.7955L35.9289 44.5031Z" fill="white"/>
</mask>
<g mask="url(#mask22_245_128)">
<path d="M67.8934 -1.3956H-0.974121V66.4799H67.8934V-1.3956Z" fill="url(#paint22_linear_245_128)"/>
</g>
<mask id="mask23_245_128" style="mask-type:alpha" maskUnits="userSpaceOnUse" x="38" y="9" width="14" height="15">
<path d="M51.3636 9.29599V23.8631L38.7201 16.5707L51.3636 9.29599Z" fill="white"/>
</mask>
<g mask="url(#mask23_245_128)">
<path d="M67.8934 -1.3956H-0.974121V66.4799H67.8934V-1.3956Z" fill="url(#paint23_linear_245_128)"/>
</g>
</g>
<defs>
<linearGradient id="paint0_linear_245_128" x1="8.00709" y1="37.4525" x2="88.8995" y2="51.2587" gradientUnits="userSpaceOnUse">
<stop offset="0.07" stop-color="#77FE9E"/>
<stop offset="0.369" stop-color="#72A7FF"/>
<stop offset="1" stop-color="#EC02D5"/>
</linearGradient>
<linearGradient id="paint1_linear_245_128" x1="8.00721" y1="37.4524" x2="88.8996" y2="51.2586" gradientUnits="userSpaceOnUse">
<stop offset="0.07" stop-color="#77FE9E"/>
<stop offset="0.369" stop-color="#72A7FF"/>
<stop offset="1" stop-color="#EC02D5"/>
</linearGradient>
<linearGradient id="paint2_linear_245_128" x1="8.00709" y1="37.4525" x2="88.8995" y2="51.2587" gradientUnits="userSpaceOnUse">
<stop offset="0.07" stop-color="#77FE9E"/>
<stop offset="0.369" stop-color="#72A7FF"/>
<stop offset="1" stop-color="#EC02D5"/>
</linearGradient>
<linearGradient id="paint3_linear_245_128" x1="8.00721" y1="37.4525" x2="88.8996" y2="51.2587" gradientUnits="userSpaceOnUse">
<stop offset="0.07" stop-color="#77FE9E"/>
<stop offset="0.369" stop-color="#72A7FF"/>
<stop offset="1" stop-color="#EC02D5"/>
</linearGradient>
<linearGradient id="paint4_linear_245_128" x1="8.00709" y1="37.4525" x2="88.8995" y2="51.2587" gradientUnits="userSpaceOnUse">
<stop offset="0.07" stop-color="#77FE9E"/>
<stop offset="0.369" stop-color="#72A7FF"/>
<stop offset="1" stop-color="#EC02D5"/>
</linearGradient>
<linearGradient id="paint5_linear_245_128" x1="8.00721" y1="37.4525" x2="88.8996" y2="51.2587" gradientUnits="userSpaceOnUse">
<stop offset="0.07" stop-color="#77FE9E"/>
<stop offset="0.369" stop-color="#72A7FF"/>
<stop offset="1" stop-color="#EC02D5"/>
</linearGradient>
<linearGradient id="paint6_linear_245_128" x1="8.00709" y1="37.4525" x2="88.8995" y2="51.2587" gradientUnits="userSpaceOnUse">
<stop offset="0.07" stop-color="#77FE9E"/>
<stop offset="0.369" stop-color="#72A7FF"/>
<stop offset="1" stop-color="#EC02D5"/>
</linearGradient>
<linearGradient id="paint7_linear_245_128" x1="8.00721" y1="37.4525" x2="88.8996" y2="51.2587" gradientUnits="userSpaceOnUse">
<stop offset="0.07" stop-color="#77FE9E"/>
<stop offset="0.369" stop-color="#72A7FF"/>
<stop offset="1" stop-color="#EC02D5"/>
</linearGradient>
<linearGradient id="paint8_linear_245_128" x1="8.00709" y1="37.4525" x2="88.8995" y2="51.2587" gradientUnits="userSpaceOnUse">
<stop offset="0.07" stop-color="#77FE9E"/>
<stop offset="0.369" stop-color="#72A7FF"/>
<stop offset="1" stop-color="#EC02D5"/>
</linearGradient>
<linearGradient id="paint9_linear_245_128" x1="8.00709" y1="37.4525" x2="88.8995" y2="51.2587" gradientUnits="userSpaceOnUse">
<stop offset="0.07" stop-color="#77FE9E"/>
<stop offset="0.369" stop-color="#72A7FF"/>
<stop offset="1" stop-color="#EC02D5"/>
</linearGradient>
<linearGradient id="paint10_linear_245_128" x1="8.00721" y1="37.4525" x2="88.8996" y2="51.2587" gradientUnits="userSpaceOnUse">
<stop offset="0.07" stop-color="#77FE9E"/>
<stop offset="0.369" stop-color="#72A7FF"/>
<stop offset="1" stop-color="#EC02D5"/>
</linearGradient>
<linearGradient id="paint11_linear_245_128" x1="8.00709" y1="37.4524" x2="88.8995" y2="51.2586" gradientUnits="userSpaceOnUse">
<stop offset="0.07" stop-color="#77FE9E"/>
<stop offset="0.369" stop-color="#72A7FF"/>
<stop offset="1" stop-color="#EC02D5"/>
</linearGradient>
<linearGradient id="paint12_linear_245_128" x1="8.00709" y1="37.4525" x2="88.8995" y2="51.2587" gradientUnits="userSpaceOnUse">
<stop offset="0.07" stop-color="#77FE9E"/>
<stop offset="0.369" stop-color="#72A7FF"/>
<stop offset="1" stop-color="#EC02D5"/>
</linearGradient>
<linearGradient id="paint13_linear_245_128" x1="8.00709" y1="37.4525" x2="88.8995" y2="51.2587" gradientUnits="userSpaceOnUse">
<stop offset="0.07" stop-color="#77FE9E"/>
<stop offset="0.369" stop-color="#72A7FF"/>
<stop offset="1" stop-color="#EC02D5"/>
</linearGradient>
<linearGradient id="paint14_linear_245_128" x1="8.00709" y1="37.4525" x2="88.8995" y2="51.2587" gradientUnits="userSpaceOnUse">
<stop offset="0.07" stop-color="#77FE9E"/>
<stop offset="0.369" stop-color="#72A7FF"/>
<stop offset="1" stop-color="#EC02D5"/>
</linearGradient>
<linearGradient id="paint15_linear_245_128" x1="8.00709" y1="37.4525" x2="88.8995" y2="51.2587" gradientUnits="userSpaceOnUse">
<stop offset="0.07" stop-color="#77FE9E"/>
<stop offset="0.369" stop-color="#72A7FF"/>
<stop offset="1" stop-color="#EC02D5"/>
</linearGradient>
<linearGradient id="paint16_linear_245_128" x1="8.00709" y1="37.4525" x2="88.8995" y2="51.2587" gradientUnits="userSpaceOnUse">
<stop offset="0.07" stop-color="#77FE9E"/>
<stop offset="0.369" stop-color="#72A7FF"/>
<stop offset="1" stop-color="#EC02D5"/>
</linearGradient>
<linearGradient id="paint17_linear_245_128" x1="8.00709" y1="37.4525" x2="88.8995" y2="51.2587" gradientUnits="userSpaceOnUse">
<stop offset="0.07" stop-color="#77FE9E"/>
<stop offset="0.369" stop-color="#72A7FF"/>
<stop offset="1" stop-color="#EC02D5"/>
</linearGradient>
<linearGradient id="paint18_linear_245_128" x1="8.00721" y1="37.4525" x2="88.8996" y2="51.2587" gradientUnits="userSpaceOnUse">
<stop offset="0.07" stop-color="#77FE9E"/>
<stop offset="0.369" stop-color="#72A7FF"/>
<stop offset="1" stop-color="#EC02D5"/>
</linearGradient>
<linearGradient id="paint19_linear_245_128" x1="8.00721" y1="37.4525" x2="88.8996" y2="51.2587" gradientUnits="userSpaceOnUse">
<stop offset="0.07" stop-color="#77FE9E"/>
<stop offset="0.369" stop-color="#72A7FF"/>
<stop offset="1" stop-color="#EC02D5"/>
</linearGradient>
<linearGradient id="paint20_linear_245_128" x1="8.00721" y1="37.4525" x2="88.8996" y2="51.2587" gradientUnits="userSpaceOnUse">
<stop offset="0.07" stop-color="#77FE9E"/>
<stop offset="0.369" stop-color="#72A7FF"/>
<stop offset="1" stop-color="#EC02D5"/>
</linearGradient>
<linearGradient id="paint21_linear_245_128" x1="8.00721" y1="37.4525" x2="88.8996" y2="51.2587" gradientUnits="userSpaceOnUse">
<stop offset="0.07" stop-color="#77FE9E"/>
<stop offset="0.369" stop-color="#72A7FF"/>
<stop offset="1" stop-color="#EC02D5"/>
</linearGradient>
<linearGradient id="paint22_linear_245_128" x1="8.00721" y1="37.4524" x2="88.8996" y2="51.2586" gradientUnits="userSpaceOnUse">
<stop offset="0.07" stop-color="#77FE9E"/>
<stop offset="0.369" stop-color="#72A7FF"/>
<stop offset="1" stop-color="#EC02D5"/>
</linearGradient>
<linearGradient id="paint23_linear_245_128" x1="8.00721" y1="37.4524" x2="88.8996" y2="51.2586" gradientUnits="userSpaceOnUse">
<stop offset="0.07" stop-color="#77FE9E"/>
<stop offset="0.369" stop-color="#72A7FF"/>
<stop offset="1" stop-color="#EC02D5"/>
</linearGradient>
<clipPath id="clip0_245_128">
<rect width="64" height="64" fill="white"/>
</clipPath>
</defs>
</svg>
