<svg width="64" height="64" viewBox="0 0 64 64" fill="none" xmlns="http://www.w3.org/2000/svg">
<g clip-path="url(#clip0_203_17)">
<path d="M42.3304 28.3216C40.1131 29.3818 37.8957 30.4226 35.6913 31.5087C34.9737 31.8642 34.6181 31.7996 34.6504 30.8945C34.6763 29.9895 34.6504 29.0844 34.6504 28.1794C34.6504 27.2032 34.6311 26.2271 34.6504 25.2444C34.6698 24.5139 34.463 24.3265 33.7777 24.7273C31.9805 25.7939 30.1575 26.8153 28.341 27.8562C27.4941 28.341 26.6472 28.8194 25.8068 29.3172C25.4125 29.5499 25.225 29.9378 25.4642 30.3256C25.7034 30.72 26.0331 30.4032 26.3175 30.2869C27.507 29.7762 28.7159 29.2848 29.8925 28.7353C30.6747 28.3669 31.0755 28.3604 31.0109 29.4141C30.9462 30.5325 30.9462 31.6574 31.0109 32.7822C31.0496 33.545 30.7523 33.9265 30.0864 34.2885C28.1793 35.3228 26.2917 36.4089 24.8371 38.0768C22.7102 40.5269 23.1434 44.0048 25.7551 45.6016C28.9745 47.5733 33.1377 45.8149 34.2238 42.0784C34.8767 39.8351 34.6569 37.5467 34.6569 35.2776C34.6569 34.3079 34.909 33.6937 35.8205 33.2218C38.1866 31.9871 40.5074 30.6489 42.8347 29.343C43.2549 29.1103 43.7333 28.7806 43.4294 28.244C43.1127 27.6687 42.6925 28.1535 42.3304 28.3216ZM29.8989 42.1947C29.246 43.1321 28.2181 43.5265 27.3777 43.1644C26.5373 42.8024 26.0977 41.6582 26.4145 40.5527C27.0092 38.4388 28.7612 37.4368 30.4549 36.3895C30.8234 36.1697 30.9785 36.4153 30.9785 36.7774C30.9915 37.1976 30.9915 37.6307 30.9915 38.0638C31.0044 39.5313 30.7717 40.9406 29.8989 42.1947Z" fill="#F7941C"/>
<path d="M44.9617 18.9544C43.2615 17.2541 41.2445 15.9095 39.0271 14.9915C36.8097 14.0735 34.4307 13.6016 32.0259 13.6016C27.171 13.6016 22.5164 15.5281 19.0837 18.9608C15.651 22.3935 13.7245 27.0481 13.7245 31.8966C13.7245 34.3014 14.1964 36.6804 15.1209 38.8978C16.0388 41.1152 17.3899 43.1321 19.0901 44.8323C20.7903 46.5325 22.8073 47.8772 25.0247 48.8016C27.2421 49.7196 29.6275 50.1915 32.0259 50.1915C36.8809 50.1915 41.5354 48.2651 44.9617 44.8323C48.3944 41.3996 50.3209 36.7451 50.3209 31.8966C50.3209 29.4917 49.8489 27.1127 48.931 24.8954C48.0065 22.6651 46.6619 20.6481 44.9617 18.9544ZM43.8885 43.7398C40.7402 46.8881 36.4736 48.6529 32.0259 48.6529C27.5782 48.6529 23.3116 46.8881 20.1633 43.7463C17.015 40.6045 15.2501 36.3378 15.2437 31.8901C15.2437 29.6857 15.6768 27.5071 16.5237 25.4707C17.3641 23.4344 18.6053 21.5855 20.1633 20.0275C21.7213 18.4695 23.5701 17.2348 25.6065 16.3944C27.6429 15.5539 29.8215 15.1208 32.0259 15.1208C36.4736 15.1208 40.7402 16.8857 43.8821 20.0339C47.0303 23.1758 48.7952 27.4424 48.8017 31.8901C48.8017 36.3313 47.0368 40.598 43.8885 43.7398Z" fill="#F7941C"/>
<path d="M30.4744 22.0638C30.7007 22.2901 30.9722 22.4711 31.276 22.6004C31.5734 22.7232 31.8966 22.7879 32.2199 22.7879C32.5431 22.7879 32.8663 22.7232 33.1637 22.6004C33.4611 22.4776 33.739 22.2966 33.9653 22.0638C34.198 21.8376 34.379 21.566 34.5019 21.2622C34.6247 20.9648 34.6893 20.6416 34.6893 20.3184C34.6893 19.6654 34.4308 19.0384 33.9653 18.5729C33.4999 18.1139 32.8792 17.8489 32.2199 17.8489H32.2134C31.8902 17.8489 31.5669 17.9135 31.2696 18.0364C30.9722 18.1592 30.7007 18.3402 30.4679 18.5729C30.2417 18.7992 30.0607 19.0707 29.9314 19.3745C29.8085 19.6719 29.7439 19.9951 29.7439 20.3184C29.7439 20.6416 29.8085 20.9648 29.9314 21.2622C30.0607 21.5596 30.2417 21.8311 30.4744 22.0638Z" fill="#F7941C"/>
<path d="M32.0323 0C14.1317 0 0 14.5131 0 31.9677C0 49.6808 14.3192 64 31.9677 64C49.8683 64 64 49.4869 64 31.9677C64 14.1317 49.4869 0 32.0323 0ZM53.7212 34.644C53.7212 35.1677 53.5208 35.3875 52.9972 35.4521C52.5899 35.5038 52.1891 35.5491 51.7818 35.6008C51.575 36.6675 51.284 37.7083 50.9091 38.7297C51.2194 38.9754 51.5556 39.2145 51.8723 39.4602C52.3378 39.8158 52.396 40.0743 52.1051 40.5851C51.2323 42.0913 50.3661 43.5911 49.4933 45.0974C49.196 45.6081 48.9438 45.6857 48.4073 45.4723C48.0194 45.3107 47.6251 45.1491 47.2372 44.981C46.5455 45.7891 45.7826 46.539 44.9681 47.2242C45.1362 47.6186 45.3042 48.0129 45.4659 48.4137C45.6857 48.9568 45.6016 49.2024 45.0909 49.4998C43.5911 50.3725 42.0849 51.2388 40.5786 52.1115C40.0743 52.4154 39.8158 52.3572 39.4537 51.8917C39.1887 51.5491 38.9301 51.2 38.6715 50.8574C37.676 51.2129 36.6481 51.4844 35.6137 51.6719C35.562 52.0921 35.5103 52.5253 35.4586 52.9584C35.3875 53.5273 35.1806 53.7212 34.6053 53.7212C32.8533 53.7212 31.1014 53.7212 29.343 53.7212C28.8 53.7212 28.5867 53.5208 28.5156 52.9713C28.4574 52.5382 28.4057 52.0986 28.3539 51.6655C27.3131 51.478 26.2853 51.2065 25.2832 50.8509C25.0182 51.2 24.7596 51.5491 24.4945 51.8917C24.1584 52.3249 23.8933 52.3895 23.4085 52.1115C21.8893 51.2388 20.3766 50.3596 18.8638 49.4804C18.3725 49.196 18.2885 48.9438 18.5083 48.4267C18.6699 48.0323 18.8315 47.6444 18.9996 47.2566C18.1786 46.5649 17.4093 45.8085 16.7111 44.9939L15.5927 45.4659C15.0497 45.6921 14.7976 45.6145 14.5067 45.1103C13.621 43.5976 12.7483 42.0784 11.8756 40.5592C11.5976 40.0808 11.6558 39.8158 12.1083 39.4731C12.4186 39.2339 12.7354 39.0012 13.0457 38.762C12.6707 37.7341 12.3798 36.6804 12.1729 35.6073C11.798 35.562 11.436 35.5103 11.0675 35.4457C10.7895 35.3939 10.5438 35.1806 10.2788 35.0384V28.9293C10.5374 28.7871 10.7895 28.5737 11.0675 28.522C11.4166 28.4574 11.7592 28.4057 12.1147 28.3669C12.3087 27.2679 12.5867 26.1883 12.9552 25.141C12.6707 24.9212 12.3863 24.7014 12.1018 24.4881C11.6687 24.1519 11.604 23.8869 11.882 23.402C12.7547 21.8828 13.6339 20.3701 14.5131 18.8509C14.7976 18.3531 15.0497 18.2691 15.5992 18.5018L16.5172 18.8897C17.2477 18.0234 18.0493 17.2154 18.9091 16.4848C18.7863 16.1939 18.6634 15.903 18.5471 15.6121C18.2949 15.0174 18.3725 14.7717 18.9156 14.455C20.4024 13.5887 21.8958 12.7289 23.3891 11.8691C23.9192 11.5653 24.1713 11.617 24.5463 12.1083C24.7402 12.3539 24.9277 12.6061 25.1152 12.8582C26.1947 12.4703 27.3002 12.1729 28.4315 11.9661C28.4638 11.701 28.4962 11.4295 28.522 11.158C28.522 10.9834 28.5673 10.8089 28.6384 10.6537C28.716 10.4986 28.8194 10.3564 28.9552 10.2465H35.0772C35.2129 10.3564 35.3164 10.4986 35.3939 10.6537C35.4715 10.8089 35.5103 10.9834 35.5103 11.158C35.5362 11.4295 35.5685 11.701 35.6008 11.979C36.7257 12.1794 37.8311 12.4768 38.9042 12.8711C39.0982 12.619 39.2857 12.3604 39.4796 12.1083C39.8545 11.617 40.1067 11.5653 40.6368 11.8691C42.143 12.7418 43.6428 13.6081 45.1491 14.4808C45.6533 14.7717 45.7244 15.0238 45.5047 15.5669C45.3754 15.8772 45.2396 16.1939 45.1103 16.5042C45.9636 17.2347 46.7523 18.0364 47.4699 18.8962L48.4202 18.4954C48.9826 18.2626 49.2283 18.3402 49.5386 18.8768C50.4048 20.3701 51.2646 21.857 52.1244 23.3503C52.4283 23.8804 52.3766 24.1325 51.8917 24.5075C51.5943 24.7273 51.3099 24.9406 51.019 25.1604C51.381 26.2012 51.659 27.2679 51.8465 28.3539L52.9778 28.4962C53.5337 28.5673 53.7277 28.7806 53.7212 29.3236C53.7212 31.1143 53.7212 32.8792 53.7212 34.644Z" fill="#F7941C"/>
</g>
<defs>
<clipPath id="clip0_203_17">
<rect width="64" height="64" fill="white"/>
</clipPath>
</defs>
</svg>
