<svg width="64" height="64" viewBox="0 0 64 64" fill="none" xmlns="http://www.w3.org/2000/svg">
<g clip-path="url(#clip0_275_67)">
<path d="M31.9919 0H31.9917C14.3232 0 0 14.3617 0 32.0777V32.0779C0 49.7939 14.3232 64.1555 31.9917 64.1555H31.9919C49.6605 64.1555 63.9837 49.7939 63.9837 32.0779V32.0777C63.9837 14.3617 49.6605 0 31.9919 0Z" fill="black"/>
<path d="M31.9867 57.361C46.0927 57.361 57.5279 45.8951 57.5279 31.7512C57.5279 17.6073 46.0927 6.14139 31.9867 6.14139C17.8806 6.14139 6.44543 17.6073 6.44543 31.7512C6.44543 45.8951 17.8806 57.361 31.9867 57.361Z" stroke="white" stroke-width="3"/>
<path d="M34.5362 25.5051C32.7045 26.7728 30.7346 27.2073 28.6307 26.8058C26.5231 26.407 24.8488 25.3023 23.6044 23.4948L21.753 20.805L24.4089 18.9669L26.2606 21.6567C26.9971 22.7269 27.9803 23.3755 29.2136 23.6002C30.4433 23.8274 31.6015 23.565 32.6812 22.8178L37.3668 19.5549C38.8558 18.5178 40.9021 18.8908 41.9319 20.3871L34.5362 25.5051Z" fill="white"/>
<path d="M38.1222 34.4425C36.8556 32.6023 36.4191 30.6252 36.8155 28.5149C37.2093 26.4008 38.3073 24.7229 40.1067 23.4778L42.7843 21.6248L44.6209 24.2929L41.9433 26.1459C40.8779 26.883 40.2332 27.8683 40.0114 29.1054C39.7871 30.3388 40.0507 31.5014 40.7974 32.5859L44.0647 37.3033C45.0971 38.7937 44.7257 40.8414 43.2363 41.8721L38.1222 34.4425Z" fill="white"/>
<path d="M29.1748 38.0563C31.0067 36.7886 32.9764 36.3541 35.0803 36.7556C37.1881 37.1544 38.8622 38.2591 40.1065 40.0666L41.958 42.7564L39.3021 44.5946L37.4506 41.9047C36.7139 40.8345 35.7307 40.1859 34.4974 39.9612C33.2679 39.734 32.1095 39.9963 31.0298 40.7436L26.3444 44.0065C24.8552 45.0435 22.8091 44.6705 21.7791 43.1743L29.1748 38.0563Z" fill="white"/>
<path d="M25.7496 29.3518C27.0163 31.1921 27.4528 33.1693 27.0564 35.2796C26.6625 37.3937 25.5646 39.0714 23.7651 40.3168L21.0876 42.1698L19.2511 39.5016L21.9287 37.6486C22.994 36.9114 23.6386 35.9262 23.8604 34.6892C24.0847 33.4557 23.8211 32.2932 23.0746 31.2084L19.8072 26.4913C18.7748 25.0008 19.1461 22.9531 20.6355 21.9222L25.7496 29.3518Z" fill="white"/>
</g>
<defs>
<clipPath id="clip0_275_67">
<rect width="64" height="64" fill="white"/>
</clipPath>
</defs>
</svg>
