<svg width="64" height="64" viewBox="0 0 64 64" fill="none" xmlns="http://www.w3.org/2000/svg">
<g clip-path="url(#clip0_265_13)">
<path fill-rule="evenodd" clip-rule="evenodd" d="M32 64C36.2027 64.0014 40.3645 63.1747 44.2475 61.567C48.1306 59.9593 51.6588 57.6023 54.6305 54.6305C57.6023 51.6588 59.9593 48.1306 61.567 44.2475C63.1747 40.3645 64.0014 36.2027 64 32C64 23.5131 60.6286 15.3737 54.6274 9.37258C48.6263 3.37142 40.4869 0 32 0C23.5131 1.26465e-07 15.3737 3.37142 9.37258 9.37258C3.37142 15.3737 0 23.5131 0 32C0 40.4869 3.37142 48.6263 9.37258 54.6274C15.3737 60.6286 23.5131 64 32 64ZM21.3333 17.7778H17.7778V24.8889H19.5556V39.1111H17.7778V46.2222H30.2222V39.1111H28.4444V34.6667H30.56L34.1511 39.1111H33.7778V46.2222H46.2222V39.1111H43.9822L37.7956 31.9644L43.7867 24.8889H46.2222V17.7778H33.7778V24.8889H34.3111L30.2933 29.3333H28.4444V24.8889H30.2222V17.7778H26.6667V19.5556H24.8889V17.7778H23.1111V19.5556H21.3333V17.7778Z" fill="#49DBB4"/>
</g>
<defs>
<clipPath id="clip0_265_13">
<rect width="64" height="64" fill="white"/>
</clipPath>
</defs>
</svg>
