<svg width="64" height="64" viewBox="0 0 64 64" fill="none" xmlns="http://www.w3.org/2000/svg">
<g clip-path="url(#clip0_193_44)">
<path d="M32 64C49.6731 64 64 49.6731 64 32C64 14.3269 49.6731 0 32 0C14.3269 0 0 14.3269 0 32C0 49.6731 14.3269 64 32 64Z" fill="#0093DD"/>
<path fill-rule="evenodd" clip-rule="evenodd" d="M27 32L37.4001 42.6L44 36C45.2 34.8 47 34.8 48 36C49.2 37.2 49.2 39.2 48 40.4L39.4001 49.2C38.2001 50.4 36.4001 50.4 35.2001 49.2L22.8 36.4V44C22.8 45.6 21.4 47 19.8 47C18.2 47 16.8 45.6 16.8 44V20C16.8 18.4 18.2 17 19.8 17C21.4 17 22.8 18.4 22.8 20V27.6L35.2001 14.8C36.4001 13.6 38.2001 13.6 39.4001 14.8L48 23.6C49.2 24.8 49.2 26.8 48 28C46.8 29.2 45 29.2 44 28L37.4001 21.2L27 32ZM37.4001 29C39.0001 29 40.4001 30.4 40.4001 32C40.4001 33.6 39.0001 35 37.4001 35C35.8001 35 34.4001 33.6 34.4001 32C34.4001 30.4 35.8001 29 37.4001 29Z" fill="white"/>
</g>
<defs>
<clipPath id="clip0_193_44">
<rect width="64" height="64" fill="white"/>
</clipPath>
</defs>
</svg>
