<svg width="64" height="64" viewBox="0 0 64 64" fill="none" xmlns="http://www.w3.org/2000/svg">
<g clip-path="url(#clip0_249_410)">
<path d="M63.9274 0.0725708H0.0725098V63.9274H63.9274V0.0725708Z" fill="black" stroke="black" stroke-miterlimit="10"/>
<path d="M54.2186 18.4889C53.4639 17.8939 52.5642 17.0812 50.9242 16.878C49.3859 16.6748 47.8186 17.7052 46.7592 18.3873C45.6998 19.0694 43.697 21.0721 42.8698 21.6816C42.0426 22.2912 39.9238 22.8572 36.5134 24.9034C33.1029 26.9497 19.7224 35.5411 19.7224 35.5411L23.2054 35.5846L7.67708 43.581H9.22992L6.995 45.2789C6.995 45.2789 8.96869 45.8014 10.6231 44.7565V45.2354C10.6231 45.2354 29.112 37.9501 32.6821 39.8367L30.5052 40.4753C30.6939 40.4753 34.2059 40.7075 34.2059 40.7075C34.2911 41.4348 34.5356 42.1343 34.9219 42.7564C35.3081 43.3784 35.8267 43.9077 36.4408 44.3066C38.5596 45.6998 38.6032 46.469 38.6032 46.469C38.6032 46.469 37.5002 46.9188 37.5002 47.4848C37.5002 47.4848 39.1256 46.9914 40.6349 47.0349C41.5928 47.0713 42.5429 47.2223 43.4648 47.4848C43.4648 47.4848 43.3487 46.8753 41.883 46.469C40.4172 46.0626 38.966 44.4662 38.2549 43.5955C37.8193 43.0412 37.5354 42.3832 37.4311 41.686C37.3268 40.9889 37.4056 40.2765 37.6598 39.6191C38.1678 38.2984 39.9383 37.5728 43.5954 35.6862C47.9057 33.4513 48.8925 31.7968 49.502 30.5052C50.1115 29.2136 51.0113 26.6449 51.5193 25.4404C52.1578 23.8875 52.9415 23.0603 53.5945 22.5669C54.2476 22.0735 57.1501 20.985 57.1501 20.985C57.1501 20.985 54.9297 19.0549 54.2186 18.4889Z" fill="white"/>
</g>
<defs>
<clipPath id="clip0_249_410">
<rect width="64" height="64" rx="32" fill="white"/>
</clipPath>
</defs>
</svg>
