<svg width="64" height="64" viewBox="0 0 64 64" fill="none" xmlns="http://www.w3.org/2000/svg">
<g clip-path="url(#clip0_252_477)">
<mask id="mask0_252_477" style="mask-type:luminance" maskUnits="userSpaceOnUse" x="0" y="0" width="64" height="64">
<path d="M0 0H64V64H0V0Z" fill="white"/>
</mask>
<g mask="url(#mask0_252_477)">
<path d="M64 0H0V64H64V0Z" fill="#31CB9E"/>
<path d="M33.8507 10.792C33.766 10.7281 33.6664 10.6868 33.5613 10.6719C33.4562 10.657 33.3491 10.6691 33.25 10.7069C33.1508 10.7448 33.0629 10.8072 32.9945 10.8883C32.926 10.9694 32.8793 11.0666 32.8587 11.1707L29.5707 27.832C29.5476 27.9495 29.5587 28.0712 29.6026 28.1826C29.6466 28.2941 29.7215 28.3906 29.8186 28.4607C29.9157 28.5309 30.0309 28.5717 30.1504 28.5784C30.27 28.5852 30.389 28.5575 30.4934 28.4987L45.0934 20.2987C45.2307 20.2223 45.334 20.0968 45.3824 19.9474C45.4309 19.798 45.421 19.6357 45.3547 19.4933C45.3114 19.398 45.2443 19.3154 45.16 19.2533L33.8507 10.792Z" fill="white"/>
<path d="M29.104 11.5733C29.2053 11.497 29.3274 11.4532 29.4541 11.4478C29.5808 11.4423 29.7062 11.4754 29.8137 11.5427C29.9212 11.6101 30.0058 11.7084 30.0562 11.8248C30.1066 11.9412 30.1204 12.0702 30.096 12.1947L26.2933 31.464C26.2755 31.5421 26.2755 31.6232 26.2933 31.7013L30.112 51.896C30.1368 52.0177 30.124 52.144 30.0755 52.2583C30.0269 52.3725 29.9448 52.4694 29.84 52.536C29.7361 52.6018 29.6155 52.6363 29.4925 52.6353C29.3696 52.6344 29.2495 52.5981 29.1467 52.5307L17.2187 44.6C17.1325 44.5436 17.0619 44.4664 17.0134 44.3755C16.965 44.2846 16.9402 44.183 16.9413 44.08V20.9867C16.9407 20.8896 16.9631 20.7939 17.0066 20.7072C17.0502 20.6205 17.1137 20.5454 17.192 20.488L29.104 11.5733Z" fill="white"/>
<path d="M32.8427 52.824C32.8627 52.9254 32.9074 53.0204 32.9728 53.1005C33.0382 53.1805 33.1224 53.2432 33.2178 53.2831C33.3133 53.3229 33.417 53.3385 33.52 53.3287C33.6229 53.3189 33.7218 53.2838 33.808 53.2267L45.6 45.3867C45.6872 45.3289 45.7585 45.2501 45.8074 45.1575C45.8562 45.0649 45.8809 44.9616 45.8793 44.857C45.8777 44.7523 45.8498 44.6498 45.7982 44.5587C45.7466 44.4677 45.673 44.3911 45.584 44.336L30.5307 34.9253C30.4273 34.8603 30.3073 34.8269 30.1852 34.8291C30.0631 34.8314 29.9444 34.8693 29.8436 34.9381C29.7427 35.0069 29.6642 35.1037 29.6176 35.2166C29.571 35.3294 29.5584 35.4534 29.5813 35.5733L32.8427 52.824ZM46.096 41.704C46.1916 41.763 46.3011 41.7958 46.4135 41.7991C46.5258 41.8024 46.6371 41.776 46.736 41.7227C46.8327 41.6675 46.9133 41.588 46.9699 41.4922C47.0265 41.3963 47.0571 41.2873 47.0587 41.176V23.136C47.0587 22.971 46.9933 22.8127 46.8768 22.6957C46.7604 22.5788 46.6024 22.5127 46.4373 22.512C46.3281 22.5104 46.2203 22.538 46.1253 22.592L30.9227 31.128C30.8284 31.1824 30.7495 31.2599 30.6935 31.3532C30.6375 31.4465 30.6063 31.5526 30.6027 31.6613C30.599 31.7699 30.6243 31.8774 30.6758 31.973C30.7273 32.0686 30.8033 32.1487 30.896 32.2053L46.096 41.704Z" fill="white"/>
</g>
</g>
<defs>
<clipPath id="clip0_252_477">
<rect width="64" height="64" rx="32" fill="white"/>
</clipPath>
</defs>
</svg>
