<svg width="64" height="64" viewBox="0 0 64 64" fill="none" xmlns="http://www.w3.org/2000/svg">
<g clip-path="url(#clip0_159_115)">
<path d="M32 64C49.6732 64 64 49.6732 64 32C64 14.3269 49.6732 0 32 0C14.3269 0 0 14.3269 0 32C0 49.6732 14.3269 64 32 64Z" fill="#171C1F"/>
<path d="M21.3178 28.8515H21.3381L21.6817 28.9703L22.0051 29.0891L22.3487 29.1881L22.6721 29.3267L23.0157 29.4455L23.3391 29.5643L23.6827 29.6832L24.0061 29.802L24.3295 29.9208L24.6529 30.0396L24.9965 30.1584L25.3199 30.297L25.6635 30.396L25.9869 30.5148L26.3305 30.6337L26.6539 30.7723L26.9975 30.8911L27.3209 30.9901L27.6443 31.1089L27.9879 31.2475L28.3315 31.3663V30.8515V30.7723V30.3564V30.0594V29.8416V29.3267V28.8317V28.3168V27.8218V27.2871V26.7921V26.7327H27.9272H27.5432H27.5028H27.0783H26.7549H26.6337H26.2092H25.9869H25.7645H25.3199H25.1986H24.8954H24.4709H24.4507H24.4305H24.0263H23.6625H23.6018H23.1572H22.8742H22.1061H21.3381H21.3178H20.8732L20.5498 26.8911L19.7817 27.2871L18.9934 27.703L18.2052 28.0792L17.4573 28.4752L16.669 28.8911L15.8807 29.2673L15.1127 29.6832L14.3244 30.0792L13.5563 30.4554L12.7883 30.8713L12.0808 31.2277L12 42.5743L12.7883 43.1089L13.5563 43.6436L14.3244 44.1584L15.1127 44.7129L15.8807 45.2475L16.669 45.7822L17.0126 46.0396L17.4573 45.4851L18.2052 44.495L18.286 44.396L18.2052 44.3366L17.4573 43.802L16.669 43.2673L15.8807 42.7327L15.1127 42.198L14.3244 41.6436L14.1223 41.5247L14.1829 32.3366L14.3244 32.2574L15.1127 31.8812L15.8807 31.5049L16.669 31.1287L17.4573 30.7525L18.2052 30.3564L18.9934 29.9802L19.7817 29.6238L20.5498 29.2277L21.3178 28.8515Z" fill="url(#paint0_linear_159_115)"/>
<path d="M34.6982 50.495L34.0514 50.7525L33.3238 51.0495L32.5962 51.3267L31.8685 51.6238L31.5451 51.7426L31.1611 51.5643L30.4335 51.1881L29.7058 50.8515L28.9984 50.4752L28.2707 50.1188L27.5431 49.7822L26.8155 49.4059L26.0878 49.0495L25.3602 48.6931L24.6325 48.3366L23.9049 47.9604L23.2177 47.6238L22.4901 47.2673L22.4092 47.2277V37.9604H21.7624H21.0348H20.3071V48.495L21.0348 48.8317L21.7624 49.1881L22.4901 49.5643L23.2177 49.901L23.9049 50.2772L24.6325 50.6337L25.3602 50.9901L26.0878 51.3465L26.8155 51.703L27.5431 52.0594L28.2707 52.4158L28.9984 52.7921L29.7058 53.1287L30.4335 53.5049L31.1611 53.8416L31.4441 54L31.8685 53.802L32.5962 53.5445L33.3238 53.2475L34.0514 52.9505L34.7589 52.6733L35.4865 52.396L34.7589 50.6139L34.6982 50.495Z" fill="url(#paint1_linear_159_115)"/>
<path d="M47.6141 37.6238L47.6545 41.9802L47.4726 42.1386L46.2396 42.9703L45.0067 43.8416L43.7737 44.7129L42.5408 45.5644L41.3078 46.4158L40.0951 47.2871L38.8622 48.1386L38.1345 48.6535L37.6292 48.2772L36.4165 47.3465L35.1835 46.4356L33.9506 45.5049L32.7379 44.5941L32.5155 44.4356V39.7426L32.7379 39.5446L33.9506 38.2772L35.1835 37.0297L36.4165 35.7624L37.6292 34.5148L38.8217 33.2871H37.6292H36.4165H35.1835H33.9506H32.7379H31.4847H30.2517H29.039H27.8061H26.5731H25.3604H24.1274L25.3604 34.5545L26.5731 35.802L27.8061 37.0495L29.039 38.3168L30.2517 39.5644L30.4337 39.7426V45.4257L31.4847 46.2376L32.7379 47.1683L33.9506 48.0792L35.1835 49.0099L36.4165 49.9208L37.6292 50.8515L38.0739 51.1881L38.8622 50.6337L40.0951 49.802L41.3078 48.9307L42.5408 48.0594L43.7737 47.2277L45.0067 46.3564L46.2396 45.4851L47.4726 44.6535L48.7055 43.7822L49.7161 43.0495L49.9182 37.703L48.7055 37.6634L47.6141 37.6238Z" fill="url(#paint2_linear_159_115)"/>
<path d="M14.0011 27.4852H14.1426L14.1628 21.6634L14.9511 21.1683L15.9415 20.5941L16.9117 20.0198L17.8819 19.4257L18.852 18.8515L19.8424 18.2574L20.7924 17.6832L21.7828 17.1089L22.753 16.5149L23.7434 15.9208H23.7636L24.6934 16.4554L25.6838 16.9901L26.654 17.5446L27.6242 18.0792L28.5943 18.6139L29.5645 19.1485L30.5347 19.703L31.4847 20.2376L31.5251 20.1584L32.4953 18.4356L31.5251 17.8812L30.5347 17.3465L29.5645 16.8119L28.5943 16.2772L27.6242 15.7228L26.654 15.1881L25.6838 14.6535L24.6934 14.099L23.7434 13.5644L23.703 13.5446L22.753 14.099L21.7828 14.6931L20.7924 15.2871L19.8424 15.8812L18.852 16.4554L17.8819 17.0297L16.9117 17.6238L15.9415 18.198L14.9511 18.7921L14.0011 19.3663L13.0107 19.9406L12.081 20.5149L12.0405 27.4653H13.0107L14.0011 27.4852Z" fill="url(#paint3_linear_159_115)"/>
<path d="M52.0001 22.1584L51.4948 21.7624L50.9895 21.3663L50.4842 20.9505L49.9789 20.5544L49.4736 20.1584L48.948 19.7624L48.4427 19.3663L47.9374 18.9703L47.4119 18.5544L47.0279 18.2772L46.8864 18.4356L46.3811 19.0495L45.8758 19.6832L45.7343 19.8416L45.8758 19.9802L46.3811 20.396L46.8864 20.8119L47.4119 21.2277L47.9374 21.6436L48.4427 22.0792L48.948 22.495L49.4736 22.9109L49.7161 23.1089L49.7363 32.4752L49.4736 32.6535L48.948 32.9703L48.4427 33.2871L47.9374 33.604L47.4119 33.9208L46.8864 34.2376L46.3811 34.5544L45.8758 34.8713L45.3705 35.1881L44.8652 35.5049L44.3599 35.8218L43.8343 36.1386L43.329 36.4554L42.8237 36.7723L42.3184 37.0891L41.7929 37.4059L41.2876 37.7228L41.7929 38.5148L42.3184 39.3069L42.3993 39.4455L42.8237 39.1881L43.329 38.8911L43.8343 38.5743L44.3599 38.2772L44.8652 37.9406L45.3705 37.6436L45.8758 37.3267L46.3811 37.0297L46.8864 36.7129L47.4119 36.4158L47.9374 36.0792L48.4427 35.7822L48.948 35.4653L49.4736 35.1683L49.9789 34.8515L50.4842 34.5544L50.9895 34.2178L51.4948 33.9208L52.0001 33.604V22.1584Z" fill="url(#paint4_linear_159_115)"/>
<path d="M35.3249 27.7426V28.2574V28.7723V29.2871V29.8218V30.3564V30.8713V31.3861V31.7822L35.4866 31.7228L36.1738 31.4653L36.861 31.1881L37.528 30.9307L38.2152 30.6535L38.9025 30.3762L39.5695 30.1188L40.2567 29.8416L40.9439 29.5842L41.6109 29.3069L42.2981 29.0495L42.9651 28.7723V28.2574V28.0594V26.6931V16.5149L42.197 16.0396L41.4088 15.604L40.6205 15.1683L39.8524 14.6931L39.0642 14.2574L38.2759 13.8218L37.5078 13.3663L36.7195 12.9109L35.9515 12.4554L35.1632 12.0198L34.3749 11.5644L33.6069 11.1089L32.8388 10.6733L32.0505 10.2376L31.6261 10L31.2622 10.198L30.474 10.6139L29.6857 11.0099L28.9378 11.4455L28.1496 11.8614L27.3613 12.2574L26.573 12.6931L27.3613 13.1287L28.1496 13.5644L28.6346 13.8614L28.9378 13.703L29.6857 13.3069L30.474 12.8911L31.2622 12.495L31.5654 12.3366L32.0505 12.6139L32.8388 13.0495L33.6069 13.4851L34.3749 13.9406L35.1632 14.396L35.9515 14.8317L36.7195 15.2871L37.5078 15.7426L38.2759 16.1782L39.0642 16.6139L39.8524 17.0891L40.6205 17.5248L40.8833 17.6634V26.6931H40.7013H40.6205H40.2567H39.8524H39.812H39.3471H39.0642H38.9025H38.4578H38.2759H38.0131H37.5685H37.5078H37.1238H36.7195H36.6791H36.2142H35.9515H35.7696H35.426H35.3653" fill="url(#paint5_linear_159_115)"/>
<path d="M35.325 31.7822L42.9652 28.7723L35.325 26.6931" fill="url(#paint6_linear_159_115)"/>
<path d="M28.3316 31.7822V26.7723L21.3381 28.8119L28.3316 31.7624" fill="url(#paint7_linear_159_115)"/>
</g>
<defs>
<linearGradient id="paint0_linear_159_115" x1="20.1607" y1="26.7386" x2="20.1607" y2="46.0317" gradientUnits="userSpaceOnUse">
<stop stop-color="#F6E93D"/>
<stop offset="0.13" stop-color="#F8E330"/>
<stop offset="0.35" stop-color="#F7C730"/>
<stop offset="0.64" stop-color="#F59C2E"/>
<stop offset="0.98" stop-color="#EB5E2C"/>
<stop offset="1" stop-color="#EB5C2C"/>
</linearGradient>
<linearGradient id="paint1_linear_159_115" x1="27.8999" y1="37.9683" x2="27.8999" y2="53.998" gradientUnits="userSpaceOnUse">
<stop stop-color="#F6E93D"/>
<stop offset="0.13" stop-color="#F8E330"/>
<stop offset="0.35" stop-color="#F7C730"/>
<stop offset="0.64" stop-color="#F59C2E"/>
<stop offset="0.98" stop-color="#EB5E2C"/>
<stop offset="1" stop-color="#EB5C2C"/>
</linearGradient>
<linearGradient id="paint2_linear_159_115" x1="37.0218" y1="33.2851" x2="37.0218" y2="51.1941" gradientUnits="userSpaceOnUse">
<stop stop-color="#F6E93D"/>
<stop offset="0.13" stop-color="#F8E330"/>
<stop offset="0.35" stop-color="#F7C730"/>
<stop offset="0.64" stop-color="#F59C2E"/>
<stop offset="0.98" stop-color="#EB5E2C"/>
<stop offset="1" stop-color="#EB5C2C"/>
</linearGradient>
<linearGradient id="paint3_linear_159_115" x1="22.2669" y1="13.5505" x2="22.2669" y2="27.4871" gradientUnits="userSpaceOnUse">
<stop stop-color="#F6E93D"/>
<stop offset="0.13" stop-color="#F8E330"/>
<stop offset="0.35" stop-color="#F7C730"/>
<stop offset="0.64" stop-color="#F59C2E"/>
<stop offset="0.98" stop-color="#EB5E2C"/>
<stop offset="1" stop-color="#EB5C2C"/>
</linearGradient>
<linearGradient id="paint4_linear_159_115" x1="46.6519" y1="18.2733" x2="46.6519" y2="39.4475" gradientUnits="userSpaceOnUse">
<stop stop-color="#F6E93D"/>
<stop offset="0.13" stop-color="#F8E330"/>
<stop offset="0.35" stop-color="#F7C730"/>
<stop offset="0.64" stop-color="#F59C2E"/>
<stop offset="0.98" stop-color="#EB5E2C"/>
<stop offset="1" stop-color="#EB5C2C"/>
</linearGradient>
<linearGradient id="paint5_linear_159_115" x1="34.767" y1="10" x2="34.767" y2="31.7881" gradientUnits="userSpaceOnUse">
<stop stop-color="#F6E93D"/>
<stop offset="0.13" stop-color="#F8E330"/>
<stop offset="0.35" stop-color="#F7C730"/>
<stop offset="0.64" stop-color="#F59C2E"/>
<stop offset="0.98" stop-color="#EB5E2C"/>
<stop offset="1" stop-color="#EB5C2C"/>
</linearGradient>
<linearGradient id="paint6_linear_159_115" x1="39.137" y1="26.7069" x2="39.137" y2="31.7941" gradientUnits="userSpaceOnUse">
<stop stop-color="#F6E93D"/>
<stop offset="0.13" stop-color="#F8E330"/>
<stop offset="0.35" stop-color="#F7C730"/>
<stop offset="0.64" stop-color="#F59C2E"/>
<stop offset="0.98" stop-color="#EB5E2C"/>
<stop offset="1" stop-color="#EB5C2C"/>
</linearGradient>
<linearGradient id="paint7_linear_159_115" x1="24.7505" y1="30.5242" x2="26.341" y2="26.0637" gradientUnits="userSpaceOnUse">
<stop stop-color="#F6E93D"/>
<stop offset="0.13" stop-color="#F8E330"/>
<stop offset="0.35" stop-color="#F7C730"/>
<stop offset="0.64" stop-color="#F59C2E"/>
<stop offset="0.98" stop-color="#EB5E2C"/>
<stop offset="1" stop-color="#EB5C2C"/>
</linearGradient>
<clipPath id="clip0_159_115">
<rect width="64" height="64" fill="white"/>
</clipPath>
</defs>
</svg>
