<svg width="64" height="64" viewBox="0 0 64 64" fill="none" xmlns="http://www.w3.org/2000/svg">
<g clip-path="url(#clip0_218_86)">
<mask id="mask0_218_86" style="mask-type:luminance" maskUnits="userSpaceOnUse" x="0" y="0" width="64" height="64">
<path d="M32 0C49.664 0 64 14.336 64 32C64 49.664 49.664 64 32 64C14.336 64 0 49.664 0 32C0 14.336 14.336 0 32 0Z" fill="white"/>
</mask>
<g mask="url(#mask0_218_86)">
<path d="M0 0L64 64M64 0L0 64" stroke="black" stroke-miterlimit="22.9256"/>
</g>
<path d="M32 0C49.664 0 64 14.336 64 32C64 49.664 49.664 64 32 64C14.336 64 0 49.664 0 32C0 14.336 14.336 0 32 0Z" fill="url(#paint0_linear_218_86)"/>
<mask id="mask1_218_86" style="mask-type:luminance" maskUnits="userSpaceOnUse" x="14" y="29" width="36" height="28">
<path d="M31.9743 37.6832L17.7151 29.5424L17.3311 30.1312C12.9535 36.864 13.9263 45.6704 19.6863 51.328C26.4703 57.984 37.4783 57.984 44.2623 51.328C50.0223 45.6704 50.9951 36.864 46.6175 30.1312L46.2335 29.5424L31.9743 37.6832Z" fill="white"/>
</mask>
<g mask="url(#mask1_218_86)">
<path d="M31.9742 56.832C41.5742 56.832 49.3566 49.0496 49.3566 39.4496C49.3566 29.8496 41.5742 22.0672 31.9742 22.0672C22.3742 22.0672 14.5918 29.8496 14.5918 39.4496C14.5918 49.0496 22.3742 56.832 31.9742 56.832Z" fill="url(#paint1_radial_218_86)"/>
</g>
<path d="M31.9743 19.5072L19.6863 26.5216L31.9743 33.536L44.2623 26.5216L31.9743 19.5072Z" fill="url(#paint2_radial_218_86)"/>
<path d="M31.9999 21.3248L17.7151 29.5424L31.9743 37.6832L46.2079 29.5424L31.9999 21.3248Z" fill="url(#paint3_radial_218_86)"/>
<path d="M31.9743 7.67999L19.6863 26.5216L31.9743 33.536V7.67999Z" fill="url(#paint4_linear_218_86)"/>
<path d="M31.9744 33.536L44.2624 26.5216L31.9744 7.67999V33.536Z" fill="url(#paint5_linear_218_86)"/>
</g>
<defs>
<linearGradient id="paint0_linear_218_86" x1="32" y1="0" x2="32" y2="64" gradientUnits="userSpaceOnUse">
<stop stop-color="#F89791"/>
<stop offset="1" stop-color="#F7C882"/>
</linearGradient>
<radialGradient id="paint1_radial_218_86" cx="0" cy="0" r="1" gradientTransform="matrix(-0.188968 -23.2126 27.6665 -0.403251 31.9414 53.6771)" gradientUnits="userSpaceOnUse">
<stop stop-color="#C5C6AB"/>
<stop offset="1" stop-color="#7985AB"/>
</radialGradient>
<radialGradient id="paint2_radial_218_86" cx="0" cy="0" r="1" gradientUnits="userSpaceOnUse" gradientTransform="translate(31.9743 26.5216) scale(0.6144)">
<stop stop-color="#0066FF" stop-opacity="0"/>
<stop offset="1" stop-color="#00C2FF" stop-opacity="0.4"/>
</radialGradient>
<radialGradient id="paint3_radial_218_86" cx="0" cy="0" r="1" gradientUnits="userSpaceOnUse" gradientTransform="translate(31.9615 29.504) scale(0.717005)">
<stop stop-color="#AEE6F9" stop-opacity="0.8588"/>
<stop offset="1" stop-color="#C8D6DC"/>
</radialGradient>
<linearGradient id="paint4_linear_218_86" x1="25.8303" y1="6.39999" x2="25.8303" y2="32" gradientUnits="userSpaceOnUse">
<stop stop-color="#77D4FF"/>
<stop offset="1" stop-color="#93D6F2" stop-opacity="0.898"/>
</linearGradient>
<linearGradient id="paint5_linear_218_86" x1="38.1184" y1="6.39999" x2="38.1184" y2="32" gradientUnits="userSpaceOnUse">
<stop stop-color="#506AAC"/>
<stop offset="1" stop-color="#96CFEF" stop-opacity="0.8196"/>
</linearGradient>
<clipPath id="clip0_218_86">
<rect width="64" height="64" fill="white"/>
</clipPath>
</defs>
</svg>
