<svg width="64" height="64" viewBox="0 0 64 64" fill="none" xmlns="http://www.w3.org/2000/svg">
<g clip-path="url(#clip0_173_129)">
<path d="M32 64C49.6731 64 64 49.6731 64 32C64 14.3269 49.6731 0 32 0C14.3269 0 0 14.3269 0 32C0 49.6731 14.3269 64 32 64Z" fill="url(#paint0_linear_173_129)"/>
<path d="M16.2496 41.6V26.5387L27.6715 35.1349V41.6H30.5867V34.528C30.5862 34.2652 30.5247 34.0061 30.4072 33.7711C30.2897 33.536 30.1193 33.3314 29.9094 33.1733L16.0576 22.7445C15.8043 22.5564 15.5037 22.4421 15.1893 22.4145C14.8749 22.3869 14.5591 22.447 14.2768 22.5881C13.9945 22.7293 13.7569 22.9459 13.5903 23.214C13.4238 23.4821 13.3348 23.7911 13.3334 24.1067V41.6H16.2496ZM47.8379 41.6V26.5387L36.416 35.1349V41.6H33.5008V34.528C33.5014 34.2652 33.5628 34.0061 33.6803 33.7711C33.7979 33.536 33.9683 33.3314 34.1782 33.1733L48.0299 22.7488C48.283 22.5608 48.5832 22.4466 48.8972 22.4188C49.2112 22.3911 49.5267 22.4508 49.8089 22.5914C50.091 22.7321 50.3287 22.9481 50.4955 23.2155C50.6624 23.483 50.7519 23.7914 50.7542 24.1067V41.6H47.8379Z" fill="white"/>
</g>
<defs>
<linearGradient id="paint0_linear_173_129" x1="32" y1="0" x2="32" y2="64" gradientUnits="userSpaceOnUse">
<stop stop-color="#4FA89B"/>
<stop offset="1" stop-color="#6ACEBB"/>
</linearGradient>
<clipPath id="clip0_173_129">
<rect width="64" height="64" fill="white"/>
</clipPath>
</defs>
</svg>
