<svg width="64" height="64" viewBox="0 0 64 64" fill="none" xmlns="http://www.w3.org/2000/svg">
<g clip-path="url(#clip0_235_46)">
<path fill-rule="evenodd" clip-rule="evenodd" d="M14.8765 54.9903C10.0556 51.3927 6.49014 46.3682 4.68616 40.6297C2.88218 34.8913 2.9313 28.7305 4.82654 23.0215C6.72179 17.3125 10.3669 12.3455 15.2446 8.8252C20.1222 5.30492 25.9847 3.41022 32 3.41C45.0525 3.41 59.3067 11.2073 62.752 23.1504C60.5126 15.3687 55.4064 8.72536 48.4627 4.55955C41.5189 0.393742 33.254 -0.984712 25.3342 0.702069C17.4143 2.38885 10.4284 7.01542 5.78477 13.6491C1.14112 20.2828 -0.81494 28.4303 0.310907 36.4492C1.43675 44.468 5.56078 51.7619 11.8516 56.8604C18.1425 61.9589 26.1323 64.4829 34.2105 63.9235C42.2886 63.3642 49.8544 59.7631 55.3825 53.8462C60.9107 47.9294 63.9901 40.1368 64 32.0393V30.3539H62.0089C60.7187 30.3302 59.4296 30.2626 58.144 30.1513C55.744 29.9415 53.0062 29.5362 51.1396 28.7895C48.1422 27.5913 46.4462 26.002 44.512 24.1424L44.3983 24.0357C42.4605 22.1726 40.2809 20.082 36.5049 18.3042C32.7894 16.5549 28.6756 16.8358 25.6534 17.458C23.9817 17.8047 22.3461 18.307 20.7681 18.9584C19.2463 19.5984 17.7707 20.3557 16.2774 21.0562C16.2774 21.0562 19.2072 21.8597 20.6507 22.3113C21.0418 22.4346 21.4258 22.5732 21.8027 22.7273C22.7651 23.1137 23.6848 23.5842 24.5618 24.1388C26.1263 25.1451 27.4205 26.4073 27.9503 27.9575C24.6365 28.3948 21.5254 29.8526 19.2001 31.2179C17.6695 32.1207 16.2089 33.1368 14.8303 34.2579C14.6418 34.4144 11.6445 37.0526 11.6445 37.0526C11.6445 37.0526 15.5094 37.465 17.4152 37.849C18.6845 38.105 20.3947 38.5139 22.1796 39.1361C23.968 39.7619 25.7778 40.5797 27.2818 41.6286C28.7858 42.681 29.888 43.8935 30.432 45.2837C32.0178 49.3335 30.4605 53.2766 27.3387 55.4952C24.256 57.689 19.5663 58.2081 14.8765 54.9903ZM25.7956 59.9966C27.0437 59.5936 28.2225 59.0012 29.2907 58.2401C33.5396 55.2214 35.7725 49.6926 33.568 44.057C32.7005 41.8419 31.0436 40.1495 29.2089 38.8659C27.3672 37.5824 25.248 36.6402 23.2854 35.9575C22.0943 35.5449 20.884 35.1901 19.6587 34.8944C20.0688 34.6289 20.4836 34.3717 20.9032 34.1228C23.4987 32.5975 26.7627 31.1966 29.8952 31.1966C34.6134 31.1966 38.1298 32.6473 41.4863 34.201L42.4036 34.6277C45.4009 36.0357 48.5511 37.5113 52.2098 37.5113C55.7582 37.5113 58.5209 36.5086 60.4267 35.4704C59.9478 39.4389 58.6434 43.2631 56.5974 46.6971C54.5513 50.1311 51.8091 53.0987 48.547 55.4089C45.2849 57.7191 41.5753 59.3209 37.6569 60.111C33.7385 60.9011 29.6981 60.8621 25.7956 59.9966ZM56.7893 33.401C55.314 33.899 53.7669 34.1512 52.2098 34.1477C49.3405 34.1477 46.8765 32.9957 43.7405 31.5344L42.8978 31.1433C39.7654 29.6891 36.1387 28.1531 31.4134 27.8722C30.784 24.7468 28.4125 22.61 26.3858 21.3051C26.1637 21.1626 25.9385 21.0251 25.7103 20.8926C25.9118 20.8452 26.1192 20.8002 26.3325 20.7575C29.056 20.1957 32.3165 20.0535 35.072 21.3513C38.3431 22.8944 40.192 24.6651 42.112 26.5104L42.176 26.5744C44.1529 28.4731 46.2436 30.4606 49.8916 31.9184C51.9182 32.7255 54.5387 33.1593 56.7893 33.401Z" fill="url(#paint0_linear_235_46)"/>
</g>
<defs>
<linearGradient id="paint0_linear_235_46" x1="-0.572367" y1="32.6295" x2="64.5724" y2="31.4384" gradientUnits="userSpaceOnUse">
<stop stop-color="#29CCB9"/>
<stop offset="0.49" stop-color="#0091FF"/>
<stop offset="1" stop-color="#FF66B7"/>
</linearGradient>
<clipPath id="clip0_235_46">
<rect width="64" height="64" fill="white"/>
</clipPath>
</defs>
</svg>
