<svg width="64" height="64" viewBox="0 0 64 64" fill="none" xmlns="http://www.w3.org/2000/svg">
<g clip-path="url(#clip0_196_212)">
<path d="M13.184 22.4512L3.48165 17.5104C2.71365 18.9952 2.07365 20.5568 1.56165 22.1696L11.9296 25.5232C12.2624 24.4736 12.6976 23.4496 13.184 22.4768V22.4512Z" fill="black"/>
<path d="M21.4272 13.7216L26.8032 22.9888C27.5968 22.528 28.416 22.1952 29.312 21.9392L26.5216 11.5968C27.2384 11.4176 27.9552 11.2384 28.672 11.136L26.9568 0.384003C25.2928 0.640003 23.6544 1.0496 22.0672 1.5616L25.3952 11.7504C24.3456 12.0832 23.296 12.5184 22.3232 13.0304L17.4336 3.4816C15.9488 4.2496 14.5152 5.12 13.1584 6.1184L19.584 14.9248C20.1728 14.4896 20.7872 14.1056 21.4272 13.7216Z" fill="black"/>
<path d="M50.2528 21.4016L40.9856 26.7776C41.4464 27.5712 41.7792 28.3904 42.0352 29.2864L52.3776 26.496C52.5568 27.2128 52.736 27.9296 52.8384 28.6464L63.5904 26.9312C63.3344 25.2672 62.9248 23.6288 62.4128 22.0416L52.224 25.3696C51.8656 24.32 51.456 23.296 50.944 22.2976L60.4672 17.408C59.6992 15.9232 58.8288 14.4896 57.8304 13.1328L49.024 19.5584C49.4592 20.1472 49.8432 20.7616 50.2272 21.4016H50.2528Z" fill="black"/>
<path d="M46.4896 3.45601C45.0048 2.68801 43.4432 2.04801 41.8304 1.53601L38.4768 11.904C39.5264 12.2368 40.5504 12.672 41.5232 13.1584L46.464 3.45601H46.4896Z" fill="black"/>
<path d="M42.624 13.5424L37.1968 22.9888C37.9904 23.4496 38.7072 23.9872 39.3472 24.6528L54.6048 9.344C53.4272 8.1664 52.1472 7.0656 50.7904 6.0928L44.4928 14.7712C43.904 14.336 43.264 13.9264 42.624 13.568V13.5424Z" fill="black"/>
<path d="M13.5424 21.376L22.9632 26.8288C23.424 26.0352 23.9872 25.3184 24.6272 24.6784L9.34397 9.42081C8.16637 10.5984 7.06557 11.8784 6.09277 13.2352L14.7712 19.5328C14.336 20.1216 13.9264 20.7616 13.568 21.4016L13.5424 21.376Z" fill="black"/>
<path d="M35.3024 10.9568L36.9408 0.358396C35.3024 0.102396 33.664 -0.0256042 32 -0.0256042H31.9744V21.5808H32C32.9216 21.5808 33.8176 21.7088 34.688 21.9392L37.4784 11.4176C36.7616 11.2384 36.0448 11.0848 35.3024 10.9568Z" fill="black"/>
<path d="M21.9392 29.312L11.4176 26.5216C11.2384 27.2384 11.0848 27.9552 10.9568 28.6976L0.384 27.0592C0.128 28.6976 0 30.3616 0 32.0256H21.6064C21.6064 31.104 21.7344 30.208 21.9648 29.3376L21.9392 29.312Z" fill="black"/>
<path d="M50.816 41.5488L60.5184 46.4896C61.2864 45.0048 61.9264 43.4432 62.4384 41.8304L52.0704 38.4768C51.7376 39.5264 51.3024 40.5504 50.816 41.5232V41.5488Z" fill="black"/>
<path d="M42.5728 50.2528L37.1968 40.9856C36.4032 41.4464 35.584 41.7792 34.688 42.0352L37.4784 52.3776C36.7616 52.5568 36.0448 52.736 35.328 52.8384L37.0432 63.5904C38.7072 63.3344 40.3456 62.9248 41.9328 62.4128L38.6048 52.224C39.6544 51.8912 40.704 51.456 41.6768 50.944L46.5664 60.4928C48.0512 59.7248 49.4848 58.8544 50.8416 57.856L44.416 49.0496C43.8272 49.4848 43.2128 49.8688 42.5728 50.2528Z" fill="black"/>
<path d="M13.7471 42.5984L23.0143 37.2224C22.5535 36.4288 22.2207 35.6096 21.9647 34.7136L11.6223 37.504C11.4431 36.7872 11.2639 36.0704 11.1615 35.3536L0.409546 37.0688C0.665546 38.7328 1.07515 40.3712 1.58715 41.9584L11.7759 38.6304C12.1343 39.68 12.5439 40.7296 13.0559 41.7024L3.53275 46.592C4.30075 48.0768 5.17115 49.5104 6.16955 50.8672L14.9759 44.4416C14.5407 43.8528 14.1311 43.2384 13.7727 42.5984H13.7471Z" fill="black"/>
<path d="M17.5104 60.544C18.9952 61.312 20.5568 61.952 22.1696 62.464L25.5232 52.096C24.4736 51.7632 23.4496 51.328 22.4768 50.8416L17.536 60.544H17.5104Z" fill="black"/>
<path d="M21.3759 50.4576L26.8031 41.0112C26.0095 40.5504 25.2927 40.0128 24.6527 39.3472L9.39514 54.656C10.5727 55.8336 11.8527 56.9344 13.2095 57.9072L19.5071 49.2288C20.0959 49.664 20.7359 50.0736 21.3759 50.432V50.4576Z" fill="black"/>
<path d="M50.4576 42.624L41.0368 37.1712C40.576 37.9648 40.0128 38.6816 39.3728 39.3216L54.656 54.5792C55.8336 53.4016 56.9344 52.1216 57.9072 50.7648L49.2288 44.4672C49.664 43.8784 50.0736 43.2384 50.432 42.5984L50.4576 42.624Z" fill="black"/>
<path d="M29.312 42.0608L26.5216 52.5824C27.2384 52.7616 27.9552 52.9152 28.6976 53.0432L27.0592 63.6416C28.6976 63.8976 30.336 64.0256 32 64.0256H32.0256V42.4192H32C31.0784 42.4192 30.1824 42.2912 29.312 42.0608Z" fill="black"/>
<path d="M42.3936 32C42.3936 32.9216 42.2656 33.8176 42.0352 34.688L52.5568 37.4784C52.736 36.7616 52.8896 36.0448 53.0176 35.3024L63.616 36.9664C63.872 35.328 64 33.664 64 32H42.3936Z" fill="black"/>
</g>
<defs>
<clipPath id="clip0_196_212">
<rect width="64" height="64" fill="white"/>
</clipPath>
</defs>
</svg>
