<svg width="64" height="64" viewBox="0 0 64 64" fill="none" xmlns="http://www.w3.org/2000/svg">
<g clip-path="url(#clip0_235_64)">
<rect width="64" height="64" rx="32" fill="black"/>
<path d="M64 31.3088C63.616 13.9264 49.408 0 32 0C14.336 0 0 14.336 0 32C0 44.7488 7.5776 56.2944 19.2768 61.3632C20.8384 59.0336 22.016 56.448 22.8096 53.76C23.4496 52.1216 24.1408 50.5344 24.8832 48.9728C25.8048 49.2544 26.7776 49.408 27.776 49.408C30.464 49.408 33.024 48.3328 34.8928 46.4384L34.9952 46.336C33.8944 45.9264 32.7168 45.7216 31.5392 45.7216C29.3632 45.7216 27.2384 46.4384 25.4976 47.7696C26.3936 45.9264 27.3408 44.1344 28.3392 42.3936C29.4144 42.7776 30.5408 42.9568 31.6672 42.9568C34.176 42.9568 36.5824 42.0096 38.4256 40.32L38.528 40.2176C37.2992 39.7056 35.968 39.424 34.6368 39.424C32.6656 39.424 30.7456 40.0128 29.1072 41.088C30.1056 39.4496 31.104 37.8624 32.1792 36.352C32.9984 36.5824 33.8688 36.6848 34.7136 36.6848C37.5296 36.6848 40.2176 35.5072 42.112 33.408L42.1888 33.3056C41.216 32.9728 40.1664 32.8192 39.1424 32.8192C37.0944 32.8192 35.0976 33.4592 33.4336 34.6368C33.5104 34.5344 33.6128 34.4064 33.6896 34.2784C34.3296 33.4592 34.9952 32.6144 35.6608 31.8208C39.808 30.464 42.88 26.9312 43.6224 22.6048L43.648 22.4512H43.6224C39.296 23.5776 35.9936 27.0592 35.0976 31.4368C34.4576 32.2048 33.8176 32.9984 33.2032 33.792C33.6384 32.6656 33.8432 31.488 33.8432 30.2848C33.8432 28.5696 33.408 26.9056 32.5632 25.4208L32.4864 25.5232C31.232 27.2384 30.5408 29.312 30.5408 31.4368C30.5408 32.9984 30.8992 34.56 31.616 35.968C30.592 37.4016 29.6192 38.8864 28.672 40.448C28.8 39.8336 28.8512 39.1936 28.8512 38.5792C28.8512 36.0192 27.8528 33.5616 26.0864 31.7184L26.0352 31.8464C25.5488 33.024 25.3184 34.304 25.3184 35.5584C25.3184 37.9648 26.1888 40.2688 27.7504 42.0864C26.8032 43.7248 25.9328 45.4144 25.0624 47.1552C25.1392 46.6176 25.1904 46.0544 25.1904 45.5168C25.1904 42.752 24.0896 40.0896 22.1184 38.1696L22.0672 38.2976C21.7088 39.3728 21.504 40.5248 21.504 41.6512C21.504 44.288 22.5024 46.8224 24.32 48.7424C23.7568 49.9456 23.2192 51.1488 22.7072 52.4032C22.5792 52.2752 22.4 52.1728 22.2208 52.1216C21.2992 51.8656 20.4288 51.456 19.6352 50.9696C18.9696 50.56 18.2528 50.2528 17.5104 49.9968C14.6176 49.0496 15.0528 47.6672 13.5424 44.8512C13.056 44.288 12.544 43.7248 12.0064 43.1872C11.4944 42.8544 11.0848 42.4192 10.8032 41.8816C10.4704 41.216 10.2656 40.4992 10.1888 39.7568C10.1632 38.912 9.6256 38.1952 8.832 37.9392C4.5824 36.48 6.4768 30.9504 6.6304 30.2336C6.5536 29.312 6.3488 28.3904 6.016 27.4944C5.9904 27.392 5.9648 27.264 5.9392 27.136C5.888 26.9056 5.8624 26.6496 5.8624 26.3936C5.8624 25.472 6.1952 24.576 6.8096 23.8848C7.3216 23.3728 9.088 22.5536 9.472 22.0672C9.856 21.5808 10.112 21.0432 10.496 20.608C11.6736 19.4304 13.056 18.432 14.5664 17.6896C15.7952 17.024 16 15.3088 16.4864 14.7712C17.28 13.8496 18.5088 13.8496 19.4304 13.056C19.8912 12.6464 20.5568 12.4416 20.992 12.0064C23.1168 10.0608 25.8304 8.8064 28.6976 8.448C29.1584 8.4224 29.6448 8.3968 30.1312 8.3968C31.6672 8.3968 33.1776 8.6016 34.6368 8.9856C34.9184 9.0368 35.2 9.088 35.456 9.1648C39.8592 9.3184 45.1584 10.24 47.104 12.1088C48.0512 13.0304 48.768 14.1568 49.152 15.4368C49.4592 16.4096 49.8944 17.3568 50.432 18.2272L51.6096 20.1472C52.1472 20.992 52.4288 21.9904 52.4288 22.9888C52.4288 23.3984 52.3776 23.808 52.3008 24.2176C52.1728 24.576 52.1216 24.96 52.1216 25.344C52.1216 25.6768 52.1728 25.984 52.2496 26.2912C52.864 27.2384 53.6064 28.0832 54.4256 28.8512C54.7584 29.184 55.1168 29.4656 55.5008 29.696C56.3968 30.2336 57.2928 30.8224 58.112 31.4624C58.112 31.5136 58.112 31.5648 58.112 31.616C58.112 32.1024 57.8816 32.5376 57.4976 32.7936C56.7552 33.4592 55.296 34.5088 55.296 34.5088C55.3472 34.816 55.4496 35.0976 55.552 35.3536C55.7568 35.7376 56.2432 36.3264 56.0896 36.8128C55.936 37.3248 54.8864 37.76 55.168 38.3232C55.4496 38.912 56.2176 39.0656 55.9872 39.6032C55.7824 40.1152 54.7328 41.0112 54.8352 41.3952C54.9376 41.7792 55.808 45.3632 53.8112 45.9776C51.3536 46.464 48.8704 46.7456 46.3616 46.7968C45.5424 46.848 44.8 47.3088 44.416 48.0256C44.032 48.7424 43.8016 49.5104 43.6992 50.304C42.9824 53.1456 42.0096 55.936 40.832 58.624C39.6544 61.312 40.7552 58.7776 40.6528 59.0336C40.3968 59.5712 40.2176 60.1344 40.1664 60.7232C40.3456 61.1584 40.6016 61.5424 40.9088 61.8752C41.1648 62.1568 41.5232 62.336 41.9328 62.336C42.0608 62.336 42.2144 62.3104 42.3424 62.2848C55.296 57.7792 63.9744 45.5424 63.9744 31.8208C63.9744 31.6416 63.9744 31.4368 63.9744 31.2576L64 31.3088Z" fill="#00DACC"/>
</g>
<defs>
<clipPath id="clip0_235_64">
<rect width="64" height="64" rx="32" fill="white"/>
</clipPath>
</defs>
</svg>
