<svg width="64" height="64" viewBox="0 0 64 64" fill="none" xmlns="http://www.w3.org/2000/svg">
<g clip-path="url(#clip0_230_1438)">
<mask id="mask0_230_1438" style="mask-type:luminance" maskUnits="userSpaceOnUse" x="0" y="0" width="64" height="64">
<path d="M0 0H64V64H0V0Z" fill="white"/>
</mask>
<g mask="url(#mask0_230_1438)">
<path d="M64 0H0V64H64V0Z" fill="url(#paint0_linear_230_1438)"/>
<path fill-rule="evenodd" clip-rule="evenodd" d="M32 51.328C34.4054 51.4267 35.1334 49.2613 35.7254 47.3147C35.8667 46.8453 36.0054 46.392 36.1574 46C38.848 45.184 40.6214 42.8507 41.08 39.2933L44.072 17.9973C45.1867 17.816 47.1174 18.144 48 18.3867V50H53.3334V24.656C53.3334 21.1227 52.2134 18.4347 49.3334 17.3973V15.912C49.3334 13.9707 47.68 12.6667 45.9467 12.6667C44.2134 12.6667 42.8614 13.7547 42.5787 15.7333L42.3654 16.9947C39.2187 17.8853 37.5947 20.736 37.0614 24.864L34.632 44.9227C33.7627 45.0898 32.8854 45.1618 32 45.1387C31.1175 45.1616 30.235 45.0892 29.368 44.9227L26.9387 24.864C26.4054 20.736 24.6854 17.912 21.5414 17.0187L21.4214 15.7333C21.136 13.7547 19.784 12.6667 18.0534 12.6667C16.32 12.6667 14.6667 13.9707 14.6667 15.912V17.408C11.7867 18.448 10.6667 21.136 10.6667 24.6667V50H16V18.5067C17.256 18.0907 18.6134 17.9067 19.928 18.12L22.92 39.2933C23.3787 42.8507 25.152 45.184 27.84 46C27.9974 46.392 28.1334 46.8453 28.2747 47.3147C28.864 49.2613 29.5947 51.424 32 51.328ZM32 46.6587C31.2025 46.6704 30.4055 46.6107 29.6187 46.48C29.8187 48.032 30.1787 49.7867 32 50.0187C33.8187 49.7867 34.1814 48.032 34.3814 46.48C33.592 46.6098 32.7982 46.6693 32 46.6587ZM14.6667 48.6667H12V24.6667C12 21.6693 13.2294 20.016 14.6667 19.1227V48.6667ZM21.5414 18.4213C23.648 19.192 24.8747 21.1013 25.328 24.664L27.6427 44.304C25.344 42.6373 24.9894 42.216 24.6027 39.184L21.5414 18.4213ZM16 17.016V15.92C16 14.52 17.136 14 18.0534 14C18.728 14 19.7147 14.3467 19.928 15.8293L20 16.6667C18.6667 16.496 17.2987 16.7013 16 17.016ZM49.3334 48.6693H52V24.6613C52 21.6667 50.7707 19.8693 49.3334 18.9787V48.6693ZM42.3654 18.384C40.2587 19.1573 39.1254 21.0987 38.6694 24.664L36.3574 44.304C38.6534 42.6373 39.0107 42.216 39.3974 39.184L42.3654 18.384ZM48 16.9253V15.92C48 14.52 46.864 14 45.9467 14C45.272 14 44.2827 14.3467 44.072 15.8293L43.904 16.6773C45.2732 16.513 46.6607 16.597 48 16.9253Z" fill="white"/>
</g>
</g>
<defs>
<linearGradient id="paint0_linear_230_1438" x1="33.984" y1="11.9973" x2="33.096" y2="46.5307" gradientUnits="userSpaceOnUse">
<stop stop-color="#C2E0F4"/>
<stop offset="0.394" stop-color="#E37B44"/>
<stop offset="0.561" stop-color="#CE5937"/>
<stop offset="1" stop-color="#8E7DF2"/>
</linearGradient>
<clipPath id="clip0_230_1438">
<rect width="64" height="64" rx="32" fill="white"/>
</clipPath>
</defs>
</svg>
