<svg width="64" height="64" viewBox="0 0 64 64" fill="none" xmlns="http://www.w3.org/2000/svg">
<g clip-path="url(#clip0_160_183)">
<path d="M63.9992 31.9968C63.9992 49.6676 49.6738 63.9935 32 63.9935C14.3261 63.9935 0.000732422 49.6676 0.000732422 31.9968C0.000732422 14.3261 14.3264 0 32 0C49.6735 0 63.9992 14.3247 63.9992 31.9968Z" fill="white"/>
<path d="M32 0C14.3324 0 -0.0183147 14.3463 0.00417679 31.9958C0.00860693 35.527 0.571746 38.9237 1.62867 42.1009H11.2025V15.1844L32 35.9795L52.7964 15.1844V42.1014H62.3724C63.4308 38.9243 63.9911 35.5276 63.9974 31.9963C64.0275 14.3284 49.6694 0.0042593 32 0.0042593V0Z" fill="#F26822"/>
<path d="M27.217 40.7601L18.1409 31.6844V48.6217H11.2017L4.65381 48.6229C10.2704 57.8366 20.4208 64 31.9999 64C43.5789 64 53.7299 57.8353 59.3474 48.6216H45.8568V31.6844L36.7802 40.7601L31.9988 45.5409L27.2174 40.7601H27.217Z" fill="#4D4D4D"/>
</g>
<defs>
<clipPath id="clip0_160_183">
<rect width="64" height="64" fill="white"/>
</clipPath>
</defs>
</svg>
