<svg width="64" height="64" viewBox="0 0 64 64" fill="none" xmlns="http://www.w3.org/2000/svg">
<g clip-path="url(#clip0_249_369)">
<path d="M32 64C49.6731 64 64 49.6731 64 32C64 14.3269 49.6731 0 32 0C14.3269 0 0 14.3269 0 32C0 49.6731 14.3269 64 32 64Z" fill="#958FDC"/>
<path d="M54.3648 32.0275C54.3648 19.8013 44.4088 9.89041 32.1291 9.89041C19.8495 9.89041 9.89087 19.8013 9.89087 32.0275C9.89087 34.5551 10.3174 36.9829 11.1003 39.2458C11.1053 39.2558 11.1479 39.3857 11.1479 39.3857C11.4641 40.3872 9.89591 40.7792 9.89591 41.3788C9.89591 42.318 13.2029 42.1904 13.2029 43.282C13.2029 44.2336 9.93103 44.5284 9.93103 45.4876C9.93103 46.8136 17.1748 46.3516 17.2677 47.4908C17.3379 48.37 14.7761 48.4248 14.7611 49.364C14.736 50.8652 24.6469 50.3728 24.6469 51.372C24.6469 52.1288 20.1381 51.854 20.1381 52.7484C20.1381 53.6424 26.0721 54.2068 32.6134 54.2068C39.1546 54.2068 43.666 53.4828 43.666 52.7008C43.666 51.9192 39.4557 52.0788 39.5435 51.3744C39.6941 50.1432 49.0404 50.7728 49.0404 49.3464C49.0404 48.5948 46.4712 48.42 46.554 47.6104C46.672 46.4668 54.3648 46.6364 54.3648 45.4476C54.3648 44.5136 50.5512 44.2836 50.5584 43.312C50.5636 42.3204 54.3648 42.3628 54.3396 41.4336C54.3196 40.7196 52.6388 40.7368 53.1656 39.2233C53.9432 36.9679 54.37 34.5477 54.37 32.0275H54.3648ZM47.2992 38.3142C46.5264 40.0552 44.79 39.7054 44.5944 40.4372C44.3912 41.194 46.7348 41.304 46.7348 42.0956C46.7348 43.0572 39.5912 42.6728 39.6615 43.9416C39.7066 44.7408 44.7348 44.8756 44.6396 45.71C44.5016 46.9188 36.8487 46.3144 36.7735 47.4732C36.7183 48.3224 40.5096 48.3524 40.5172 49.1268C40.5248 49.7784 37.5413 50.1332 31.8255 50.1332C25.3169 50.1332 22.1504 49.7836 22.5117 49.0568C22.8479 48.3772 28.6113 48.5024 28.5536 47.4332C28.4959 46.3668 18.319 46.6788 18.0129 45.6424C17.7569 44.7808 21.3575 44.6032 21.3349 43.784C21.3123 42.95 16.7257 43.1396 16.6253 42.128C16.5601 41.4664 19.0215 41.506 18.9161 40.672C18.8383 40.0652 17.8222 40.15 17.22 38.8986C16.2489 36.8081 15.702 34.4802 15.702 32.025C15.702 22.9933 23.0587 15.6701 32.1316 15.6701C41.2044 15.6701 48.5612 22.9933 48.5612 32.025C48.5612 34.2529 48.112 36.3759 47.3016 38.3117L47.2992 38.3142Z" fill="#2B1D3C"/>
<path fill-rule="evenodd" clip-rule="evenodd" d="M11.1003 39.2458C10.3174 36.9829 9.89086 34.5551 9.89086 32.0275C9.89086 19.8013 19.8495 9.89041 32.1291 9.89041C44.4088 9.89041 54.3648 19.8013 54.3648 32.0275H54.37C54.37 32.0871 54.3696 32.1467 54.3692 32.2062C54.3496 34.6621 53.9248 37.0212 53.1656 39.2233C52.8388 40.162 53.3608 40.5116 53.8096 40.8124C54.0848 40.9964 54.332 41.1624 54.3396 41.4336C54.352 41.8916 53.4352 42.1136 52.5012 42.3396C51.54 42.5724 50.5612 42.8092 50.5584 43.312C50.5548 43.8028 51.5264 44.1044 52.4888 44.4032C53.4312 44.6956 54.3648 44.9852 54.3648 45.4476C54.3648 46.0496 52.3916 46.3032 50.4284 46.5556C48.5152 46.8016 46.6124 47.046 46.554 47.6104C46.5116 48.0264 47.1696 48.2748 47.8192 48.52C48.4336 48.752 49.0404 48.9812 49.0404 49.3464C49.0404 50.0872 46.5184 50.2736 44.0732 50.454C41.8116 50.6208 39.6159 50.7828 39.5435 51.3744C39.5006 51.7192 40.486 51.8568 41.504 51.9992C42.5672 52.148 43.666 52.3016 43.666 52.7008C43.666 53.4828 39.1546 54.2068 32.6134 54.2068C26.0721 54.2068 20.1381 53.6424 20.1381 52.7484C20.1381 52.2824 21.3612 52.134 22.5334 51.9916C23.6117 51.8604 24.6469 51.7348 24.6469 51.372C24.6469 50.9232 22.6477 50.7756 20.4474 50.6128C17.7486 50.4128 14.7472 50.1908 14.7611 49.364C14.7686 48.8908 15.4225 48.642 16.0605 48.3996C16.6892 48.1604 17.3025 47.9268 17.2677 47.4908C17.2231 46.944 15.5317 46.7664 13.7843 46.5824C11.8905 46.3832 9.93102 46.1772 9.93102 45.4876C9.93102 45.0072 10.7522 44.6932 11.5718 44.38C12.3881 44.0684 13.2029 43.7568 13.2029 43.282C13.2029 42.716 12.3129 42.4776 11.4563 42.2484C10.6617 42.0356 9.8959 41.8308 9.8959 41.3788C9.8959 41.134 10.1577 40.9236 10.4459 40.692C10.8629 40.3572 11.3349 39.978 11.1479 39.3856C11.1479 39.3856 11.1053 39.2558 11.1003 39.2458ZM10.9781 39.4405C11.0407 39.6394 11.0107 39.801 10.9293 39.9493C10.8434 40.106 10.6985 40.25 10.5254 40.3964C10.469 40.444 10.4072 40.494 10.3445 40.5444C10.2277 40.6384 10.1075 40.7348 10.0124 40.8264C9.86582 40.9676 9.7175 41.15 9.7175 41.3788C9.7175 41.5556 9.79754 41.7 9.9133 41.8132C10.0257 41.9232 10.177 42.01 10.3405 42.0824C10.6407 42.2152 11.0293 42.3192 11.4067 42.42C11.4389 42.4288 11.4711 42.4372 11.5032 42.446C11.9203 42.558 12.3153 42.6692 12.606 42.816C12.9039 42.966 13.0245 43.1176 13.0245 43.282C13.0245 43.3452 12.9985 43.4136 12.9289 43.492C12.8576 43.5728 12.7483 43.6548 12.6028 43.7384C12.3109 43.9064 11.9167 44.0572 11.5034 44.2152L11.4981 44.2172C11.0949 44.3712 10.6733 44.532 10.3531 44.7172C10.1917 44.8108 10.0453 44.916 9.93778 45.0384C9.82854 45.1624 9.75262 45.3124 9.75262 45.4876C9.75262 45.7484 9.93382 45.9336 10.1522 46.0616C10.3737 46.192 10.6777 46.292 11.0233 46.3736C11.717 46.538 12.6373 46.6412 13.5458 46.7372C13.6184 46.7448 13.691 46.7524 13.7634 46.76C14.6033 46.8484 15.4194 46.934 16.0474 47.0588C16.3895 47.1268 16.6625 47.204 16.8489 47.2932C17.0469 47.388 17.0866 47.466 17.0899 47.5052C17.0989 47.6196 17.03 47.7356 16.8136 47.8704C16.6013 48.0024 16.3063 48.1148 15.9844 48.2372L15.983 48.2376C15.6708 48.3564 15.3334 48.4852 15.0744 48.6472C14.8183 48.8076 14.588 49.0324 14.5827 49.3608C14.5777 49.662 14.8227 49.864 15.1 50.0008C15.3902 50.1432 15.7939 50.2548 16.261 50.346C17.1984 50.5288 18.445 50.6396 19.681 50.7344C19.9343 50.754 20.1872 50.7724 20.4371 50.7912C21.4121 50.8632 22.3417 50.932 23.0763 51.0252C23.5389 51.084 23.9127 51.1508 24.1678 51.2312C24.2964 51.2716 24.3822 51.3112 24.4323 51.3472C24.4522 51.3612 24.4621 51.3712 24.4668 51.3772C24.4655 51.3796 24.4633 51.3832 24.4591 51.388C24.4458 51.4044 24.4186 51.4276 24.3685 51.4544C24.2673 51.5092 24.1106 51.56 23.9035 51.6064C23.5253 51.6908 23.0284 51.7512 22.5096 51.8144C22.4635 51.82 22.4173 51.8256 22.3709 51.8312C21.8102 51.8996 21.2338 51.974 20.7971 52.0896C20.5797 52.1472 20.3821 52.2184 20.2352 52.3132C20.0888 52.4076 19.9597 52.5488 19.9597 52.7484C19.9597 52.9652 20.1355 53.118 20.3168 53.2224C20.5116 53.3348 20.7863 53.4352 21.1209 53.526C21.7928 53.7084 22.7497 53.8636 23.9033 53.9904C26.213 54.2444 29.3387 54.3856 32.6134 54.3856C35.8895 54.3856 38.6615 54.2044 40.618 53.924C41.5948 53.784 42.3756 53.6184 42.916 53.4352C43.1852 53.344 43.4048 53.2452 43.5612 53.1368C43.71 53.0332 43.8444 52.89 43.8444 52.7008C43.8444 52.5108 43.714 52.3808 43.5796 52.2968C43.4424 52.2108 43.258 52.1448 43.056 52.0904C42.6496 51.9808 42.114 51.904 41.5964 51.8316L41.5344 51.8228C41.0316 51.7528 40.5504 51.6852 40.194 51.5956C40.0072 51.5488 39.871 51.4992 39.7877 51.4488C39.7466 51.424 39.7287 51.4048 39.7221 51.3952C39.7217 51.3948 39.7213 51.394 39.721 51.3936C39.7239 51.3764 39.7364 51.3456 39.7885 51.3024C39.8443 51.2564 39.9325 51.2076 40.0584 51.1592C40.31 51.0628 40.6724 50.9832 41.1176 50.9156C41.938 50.7908 43.0008 50.7124 44.0884 50.632C44.1792 50.6252 44.2704 50.6184 44.3616 50.6116C45.5368 50.5244 46.72 50.4304 47.61 50.2676C48.0532 50.1864 48.4376 50.086 48.7152 49.954C48.98 49.828 49.2188 49.6376 49.2188 49.3464C49.2188 49.1968 49.1536 49.0712 49.0632 48.97C48.9744 48.8708 48.8556 48.788 48.7276 48.716C48.4892 48.582 48.1804 48.4652 47.8868 48.3544C47.8676 48.3472 47.8484 48.34 47.8292 48.3328C47.5092 48.212 47.2132 48.0964 47.0016 47.9656C46.7804 47.8288 46.722 47.7196 46.7316 47.6288C46.7356 47.5884 46.784 47.504 47.0012 47.3988C47.2036 47.3008 47.4976 47.2124 47.8628 47.1316C48.5736 46.974 49.508 46.854 50.4564 46.732L50.5264 46.7232C51.4924 46.5988 52.4676 46.472 53.2016 46.3004C53.5672 46.2148 53.886 46.1152 54.1172 45.9928C54.3364 45.8772 54.5432 45.7044 54.5432 45.4476C54.5432 45.2636 54.448 45.114 54.3228 44.9968C54.1988 44.8808 54.0304 44.782 53.8448 44.6948C53.4836 44.5248 53.0092 44.3776 52.5488 44.2348L52.5116 44.2232C52.0316 44.074 51.5696 43.9292 51.228 43.7632C51.0568 43.6804 50.928 43.598 50.8444 43.5164C50.7624 43.4364 50.7364 43.37 50.7368 43.3136V43.3128C50.7372 43.2532 50.764 43.19 50.844 43.1168C50.9264 43.0412 51.0536 42.9672 51.224 42.8956C51.5648 42.7524 52.0244 42.6388 52.5024 42.5232L52.5504 42.5116C53.0044 42.4016 53.4716 42.2888 53.8268 42.1456C54.0104 42.0716 54.1788 41.984 54.3028 41.8744C54.4292 41.7628 54.5232 41.6148 54.518 41.4288C54.5108 41.1696 54.3496 40.9928 54.1856 40.8604C54.1024 40.7936 54.0088 40.7308 53.9196 40.6712L53.9108 40.6648C53.8224 40.606 53.7372 40.5488 53.656 40.4864C53.4888 40.358 53.3576 40.2208 53.2908 40.0436C53.2252 39.8701 53.2124 39.6319 53.334 39.2822V39.2817C54.1184 37.0079 54.5484 34.568 54.5484 32.0275V31.8488H54.5424C54.446 19.6051 44.4464 9.71173 32.1291 9.71173C19.7521 9.71173 9.71246 19.7015 9.71246 32.0275C9.71246 34.5754 10.1425 37.0229 10.9317 39.3043L10.9356 39.3155L10.9371 39.3186C10.9382 39.3216 10.9396 39.3256 10.9413 39.3304C10.9457 39.3431 10.9513 39.3596 10.9569 39.3763C10.9624 39.3928 10.9678 39.4092 10.9719 39.4214L10.9767 39.4361L10.9779 39.4395M24.4706 51.3832C24.4706 51.3832 24.4702 51.3828 24.4698 51.3812C24.4704 51.3824 24.4706 51.3832 24.4706 51.3832ZM47.3016 38.3116C48.112 36.3759 48.5612 34.2529 48.5612 32.025C48.5612 22.9933 41.2044 15.6701 32.1316 15.6701C23.0587 15.6701 15.702 22.9933 15.702 32.025C15.702 34.4802 16.2489 36.808 17.22 38.8986C17.5554 39.5956 18.0193 39.878 18.3779 40.0964C18.6631 40.27 18.8817 40.4032 18.9161 40.672C18.972 41.114 18.3071 41.3104 17.6793 41.4964C17.1224 41.6608 16.5947 41.8168 16.6253 42.128C16.6778 42.6568 17.9557 42.8572 19.167 43.0472C20.2734 43.2208 21.3241 43.386 21.3349 43.784C21.3459 44.1808 20.5072 44.4268 19.6682 44.6732C18.7747 44.9356 17.8809 45.198 18.0129 45.6424C18.1641 46.1548 20.7268 46.3376 23.2872 46.52C25.907 46.7072 28.5245 46.894 28.5536 47.4332C28.5862 48.0372 26.7612 48.26 25.1063 48.462C23.8317 48.6176 22.658 48.7612 22.5117 49.0568C22.1504 49.7836 25.3169 50.1332 31.8255 50.1332C37.5413 50.1332 40.5248 49.7784 40.5172 49.1268C40.5136 48.75 39.6146 48.5496 38.6987 48.3452C37.7315 48.1296 36.7451 47.9092 36.7735 47.4732C36.8107 46.8992 38.7061 46.758 40.6268 46.6144C42.5852 46.4684 44.57 46.32 44.6396 45.71C44.688 45.2848 43.4072 45.0412 42.1328 44.7992C40.9052 44.5656 39.6836 44.3336 39.6615 43.9416C39.6239 43.2624 41.6532 43.0568 43.5476 42.8652C45.192 42.6988 46.7348 42.5424 46.7348 42.0956C46.7348 41.7052 46.1648 41.4808 45.6116 41.2624C45.0428 41.0384 44.4912 40.8208 44.5944 40.4372C44.6732 40.1428 45.0012 40.0236 45.4152 39.8726C46.0308 39.6485 46.8372 39.3549 47.2992 38.3142L47.3016 38.3116ZM47.1508 38.2099C47.9436 36.3044 48.3828 34.2161 48.3828 32.025C48.3828 23.0931 41.1072 15.8488 32.1316 15.8488C23.1561 15.8488 15.8804 23.0931 15.8804 32.025C15.8804 34.4529 16.4211 36.7547 17.3812 38.8221C17.6614 39.4036 18.0337 39.6728 18.3589 39.8752C18.393 39.8964 18.4278 39.9176 18.4627 39.9388C18.5891 40.0156 18.7168 40.0932 18.8175 40.1776C18.9551 40.2932 19.0661 40.4392 19.0931 40.6492C19.1335 40.9688 18.9158 41.1788 18.6825 41.3132C18.4465 41.4492 18.1303 41.5484 17.8367 41.636C17.8007 41.6468 17.7651 41.6572 17.7299 41.6676C17.4665 41.7456 17.2264 41.8168 17.0457 41.9008C16.9438 41.948 16.8767 41.9928 16.8384 42.0332C16.8045 42.0688 16.801 42.0912 16.8029 42.1104C16.8081 42.1632 16.8434 42.23 16.9568 42.3084C17.07 42.3864 17.2375 42.4588 17.453 42.5256C17.883 42.6584 18.4534 42.754 19.037 42.846C19.0901 42.8544 19.1433 42.8628 19.1964 42.8712C19.7205 42.9532 20.2444 43.0356 20.6493 43.1428C20.8715 43.202 21.0723 43.272 21.2218 43.3616C21.367 43.4488 21.5079 43.582 21.5133 43.7792M21.5133 43.7792C21.5181 43.9548 21.4233 44.094 21.3064 44.1976C21.1901 44.3008 21.0327 44.3872 20.8611 44.4624C20.5405 44.6036 20.124 44.7256 19.7222 44.8436C19.6936 44.852 19.6651 44.8604 19.6366 44.8688C19.1997 44.9972 18.791 45.1216 18.5068 45.2636C18.3639 45.3348 18.2705 45.4024 18.2201 45.4632C18.1764 45.5156 18.1722 45.552 18.1839 45.5916C18.1836 45.5908 18.1856 45.5984 18.1993 45.6128C18.2134 45.6276 18.2366 45.6464 18.2728 45.6684C18.3461 45.7124 18.4553 45.7576 18.6027 45.802C18.8964 45.8904 19.3079 45.966 19.8044 46.0324C20.774 46.1616 22.0353 46.2516 23.3037 46.3424L23.3891 46.3484C24.6819 46.4404 25.9759 46.5344 26.9503 46.6724C27.4363 46.7412 27.853 46.8224 28.1534 46.9232C28.3028 46.9732 28.4348 47.032 28.5339 47.104C28.6314 47.1752 28.724 47.2792 28.7318 47.4236C28.7441 47.6516 28.596 47.8172 28.4221 47.9316C28.2462 48.0468 28.0033 48.1384 27.7289 48.2144C27.1772 48.3676 26.4395 48.4748 25.7028 48.5684C25.5088 48.5928 25.3148 48.6168 25.1237 48.64C24.583 48.706 24.0655 48.7692 23.6358 48.8428C23.345 48.8928 23.1033 48.946 22.9269 49.0052C22.8386 49.0348 22.7729 49.064 22.7277 49.0912C22.6801 49.12 22.6709 49.1376 22.6715 49.136L22.6714 49.1364C22.6613 49.1564 22.6622 49.166 22.6625 49.168C22.6627 49.1704 22.6641 49.18 22.6792 49.1984C22.7141 49.2412 22.7983 49.3008 22.9637 49.3648C23.2888 49.4912 23.8347 49.6012 24.6126 49.69C26.162 49.8672 28.5723 49.9544 31.8255 49.9544C34.6814 49.9544 36.848 49.866 38.2969 49.6968C39.023 49.6124 39.5589 49.5084 39.9087 49.3896C40.0844 49.33 40.2012 49.2704 40.2704 49.2164C40.3388 49.1628 40.3388 49.1328 40.3388 49.1288C40.3384 49.1136 40.3308 49.074 40.2464 49.0124C40.1632 48.9512 40.0344 48.89 39.8621 48.8296C39.5363 48.7152 39.1048 48.6188 38.6549 48.5184L38.5829 48.5024C38.1155 48.398 37.6325 48.2876 37.2699 48.1476C37.0892 48.078 36.9238 47.9952 36.8028 47.8924C36.6797 47.788 36.5836 47.6444 36.5955 47.4616C36.612 47.2076 36.831 47.0508 37.0548 46.9512C37.2924 46.8448 37.6158 46.766 37.9848 46.7024C38.7095 46.5784 39.6614 46.5072 40.6076 46.4368L40.6696 46.432C41.6428 46.3592 42.6044 46.286 43.3316 46.1564C43.6964 46.0916 43.9892 46.0144 44.1912 45.9224C44.4048 45.8252 44.4568 45.7396 44.4624 45.6896C44.4628 45.686 44.4636 45.6784 44.452 45.6612C44.438 45.6404 44.4096 45.6112 44.3564 45.576C44.2496 45.5052 44.0804 45.4344 43.8556 45.3648C43.4084 45.226 42.7984 45.1076 42.17 44.988L42.0948 44.974C41.4968 44.86 40.8888 44.7444 40.422 44.6092C40.18 44.5392 39.9637 44.4604 39.8031 44.3676C39.6538 44.2812 39.4945 44.1492 39.4834 43.9516L39.4833 43.9512C39.469 43.6924 39.6447 43.5088 39.8538 43.384C40.066 43.2568 40.3608 43.1592 40.6956 43.0792C41.3688 42.9184 42.2672 42.8168 43.1536 42.7256C43.2796 42.7128 43.4056 42.7 43.5304 42.6872C44.2912 42.61 45.0212 42.5364 45.5884 42.4352C45.9196 42.3764 46.182 42.3104 46.3576 42.2348C46.4456 42.1968 46.5004 42.1612 46.5308 42.132C46.5452 42.118 46.5516 42.1084 46.554 42.1032C46.5564 42.0988 46.5564 42.0968 46.5564 42.0956C46.5564 41.9972 46.4848 41.8884 46.278 41.7612C46.0812 41.6396 45.8172 41.5356 45.5368 41.4252L45.5228 41.4196C45.2484 41.3112 44.954 41.1948 44.7432 41.0524C44.6368 40.9804 44.5376 40.8928 44.4736 40.7828C44.4064 40.6668 44.384 40.5336 44.422 40.3908C44.4916 40.1308 44.6972 39.9845 44.9136 39.8804C45.0232 39.8277 45.146 39.781 45.2712 39.7351C45.2992 39.7248 45.3272 39.7145 45.3556 39.7042C45.456 39.6676 45.5584 39.6303 45.6644 39.5881C46.198 39.3749 46.7764 39.0518 47.1364 38.2415L47.1496 38.211L47.1508 38.2099" fill="#2B1D3C"/>
</g>
<defs>
<clipPath id="clip0_249_369">
<rect width="64" height="64" fill="white"/>
</clipPath>
</defs>
</svg>
