<svg width="64" height="64" viewBox="0 0 64 64" fill="none" xmlns="http://www.w3.org/2000/svg">
<g clip-path="url(#clip0_310_507)">
<path d="M32 64C49.6731 64 64 49.6731 64 32C64 14.3269 49.6731 0 32 0C14.3269 0 0 14.3269 0 32C0 49.6731 14.3269 64 32 64Z" fill="#209CE9"/>
<path d="M46.9867 52.2074H43.8756L32.0652 33.8133L20.077 52.2074H16.9896L30.4296 31.3659L18.1867 12.2193H21.357L32.1185 29.0608L43.1052 12.2193H46.08L33.7067 31.3126L46.9867 52.2074Z" fill="white"/>
<path d="M19.9408 30.1452H44.1364V32.4208H19.9408V30.1452ZM19.9408 36.9719H44.1364V39.2474H19.9408V36.9719Z" fill="white"/>
</g>
<defs>
<clipPath id="clip0_310_507">
<rect width="64" height="64" fill="white"/>
</clipPath>
</defs>
</svg>
