<svg width="64" height="64" viewBox="0 0 64 64" fill="none" xmlns="http://www.w3.org/2000/svg">
<g clip-path="url(#clip0_177_89)">
<path d="M64 0H0V64H64V0Z" fill="#00EC97"/>
<path d="M45.8327 14.4225C44.5306 14.4225 43.3218 15.0976 42.6397 16.2073L35.2912 27.1174C35.0519 27.4769 35.149 27.9617 35.5086 28.2011C35.8 28.3954 36.1856 28.3713 36.4511 28.143L43.6844 21.8692C43.8045 21.761 43.9898 21.772 44.098 21.8922C44.147 21.9473 44.1731 22.0184 44.1731 22.0915V41.7342C44.1731 41.8965 44.0419 42.0267 43.8797 42.0267C43.7925 42.0267 43.7104 41.9886 43.6553 41.9215L21.7901 15.7486C21.078 14.9083 20.0324 14.4235 18.9316 14.4225H18.1675C16.0992 14.4225 14.4226 16.0991 14.4226 18.1674V45.8326C14.4226 47.9009 16.0992 49.5775 18.1675 49.5775C19.4695 49.5775 20.6784 48.9024 21.3604 47.7926L28.7089 36.8826C28.9483 36.5231 28.8512 36.0383 28.4916 35.7989C28.2001 35.6046 27.8145 35.6287 27.5491 35.857L20.3158 42.1308C20.1956 42.239 20.0103 42.228 19.9022 42.1078C19.8531 42.0527 19.8271 41.9816 19.8281 41.9085V22.2608C19.8281 22.0985 19.9593 21.9683 20.1215 21.9683C20.2077 21.9683 20.2908 22.0064 20.3459 22.0735L42.208 48.2514C42.9201 49.0917 43.9658 49.5765 45.0665 49.5775H45.8307C47.8989 49.5785 49.5766 47.9029 49.5786 45.8346V18.1674C49.5786 16.0991 47.902 14.4225 45.8337 14.4225H45.8327Z" fill="black"/>
</g>
<defs>
<clipPath id="clip0_177_89">
<rect width="64" height="64" rx="32" fill="white"/>
</clipPath>
</defs>
</svg>
