<svg width="64" height="64" viewBox="0 0 64 64" fill="none" xmlns="http://www.w3.org/2000/svg">
<g clip-path="url(#clip0_265_7)">
<path d="M32 64C49.6732 64 64 49.6732 64 32C64 14.3269 49.6732 0 32 0C14.3269 0 0 14.3269 0 32C0 49.6732 14.3269 64 32 64Z" fill="black"/>
<path d="M44.1745 17.0168L40.3372 18.8537C40.3213 18.8617 40.2974 18.8777 40.2895 18.8938C40.2736 18.9098 40.2656 18.9259 40.2577 18.9499C40.2498 18.974 40.2498 18.99 40.2498 19.0141C40.2498 19.0382 40.2577 19.0542 40.2656 19.0783L46.0971 31.4874C48.266 36.1077 47.686 39.605 44.389 41.1932C41.7195 42.4686 39.4235 41.5783 37.628 38.466L30.7161 23.7628C27.9195 17.8029 24.1061 16.2226 19.5776 18.3964C16.638 19.8082 14.9299 22.3269 14.9617 25.5275C14.9617 25.5676 14.9537 25.5997 14.9299 25.6317C14.9061 25.6638 14.8743 25.6799 14.8346 25.6879C14.7948 25.6959 14.7631 25.6959 14.7233 25.6799C14.6916 25.6638 14.6598 25.6398 14.6439 25.5997L13.1344 22.3911C13.1264 22.3751 13.1106 22.351 13.0947 22.343C13.0788 22.3269 13.0629 22.3189 13.0391 22.3109C13.0232 22.2948 13.0073 22.2948 12.9834 22.2948C12.9596 22.2948 12.9437 22.3029 12.9199 22.3109L9.09052 24.1478C9.0508 24.1638 9.01902 24.1959 9.01107 24.244C8.99518 24.2841 8.99518 24.3323 9.01902 24.3724L19.6093 46.9205C19.6252 46.9606 19.665 46.9927 19.7047 47.0087C19.7444 47.0248 19.7921 47.0248 19.8318 47.0007L23.6691 45.1638C23.685 45.1558 23.7088 45.1398 23.7168 45.1237C23.7327 45.1077 23.7406 45.0916 23.7486 45.0676C23.7565 45.0435 23.7565 45.0275 23.7565 45.0034C23.7565 44.9793 23.7486 44.9633 23.7406 44.9392L18.0681 32.8751C15.7562 27.9499 16.1931 24.3884 19.7285 22.6959C22.4456 21.3964 24.5589 22.2708 26.4577 25.6077C26.4577 25.6077 26.4656 25.6157 26.4656 25.6237L33.3061 40.1745C35.9437 45.7895 40.0432 47.7146 44.3651 45.6451C47.7099 44.0408 49.1002 41.6344 49.0128 38.4579C49.0128 38.4178 49.0207 38.3858 49.0446 38.3537C49.0684 38.3216 49.1002 38.3055 49.1399 38.2975C49.1796 38.2895 49.2114 38.2895 49.2511 38.3055C49.2829 38.3216 49.3147 38.3456 49.3306 38.3857L50.856 41.6264C50.8639 41.6424 50.8798 41.6665 50.8957 41.6745C50.9116 41.6906 50.9275 41.6986 50.9513 41.7066C50.9751 41.7146 50.991 41.7146 51.0149 41.7146C51.0387 41.7146 51.0546 41.7066 51.0784 41.6986L54.9157 39.8617C54.9316 39.8537 54.9555 39.8376 54.9634 39.8216C54.9793 39.8055 54.9872 39.7895 54.9952 39.7654C55.0031 39.7414 55.0031 39.7253 55.0031 39.7013C55.0031 39.6772 54.9952 39.6612 54.9872 39.6371L44.389 17.097C44.3731 17.0569 44.3333 17.0248 44.2936 17.0087C44.2539 16.9927 44.2062 17.0007 44.1745 17.0168Z" fill="white"/>
</g>
<defs>
<clipPath id="clip0_265_7">
<rect width="64" height="64" fill="white"/>
</clipPath>
</defs>
</svg>
