<svg width="64" height="64" viewBox="0 0 64 64" fill="none" xmlns="http://www.w3.org/2000/svg">
<g clip-path="url(#clip0_310_609)">
<path d="M59.9981 42.7948C59.9998 35.5959 59.9998 28.3972 59.9981 21.1985C60.0271 20.4625 59.6587 19.73 59.07 19.2961C50.5205 13.0282 41.9709 6.75938 33.4212 0.489605C33.1626 0.286736 32.8637 0.141786 32.5446 0.0645085C32.2256 -0.0127689 31.8937 -0.0205816 31.5714 0.0415961C31.173 0.119998 30.8139 0.320002 30.494 0.560647C22.0053 6.78605 13.5162 13.0111 5.02664 19.2359C4.7093 19.4572 4.45038 19.7526 4.27219 20.0967C4.094 20.4408 4.0019 20.8232 4.00383 21.211C3.99872 28.4079 3.99872 35.6046 4.00383 42.8009C3.99266 43.5804 4.39579 44.3369 5.03462 44.7759C13.5233 50.9981 22.0103 57.2217 30.4956 63.4467C31.3076 64.1437 32.5814 64.1987 33.4196 63.5194C41.9419 57.2756 50.461 51.0289 58.9769 44.7791C59.6182 44.3455 60.0332 43.5756 59.9974 42.7951" fill="#050708"/>
<path d="M29.0438 5.19402C29.269 4.93802 29.4974 4.53897 29.8932 4.59209C31.2394 4.60009 32.5888 4.57097 33.9347 4.60649C34.1678 4.75177 34.3464 4.9697 34.5457 5.1569C34.5406 6.55085 34.5406 7.94512 34.5457 9.3397C34.1452 9.3445 33.7433 9.36242 33.3427 9.3349C33.3185 9.23634 33.2703 9.04274 33.247 8.9445C33.247 7.90352 33.337 6.86125 33.2502 5.82187C32.2609 5.82337 31.2722 5.82337 30.2842 5.82187C30.2794 6.17196 30.2778 6.52397 30.2746 6.87405C29.8581 6.87405 29.44 6.87405 29.0218 6.87085C29.0247 6.31372 28.9635 5.74731 29.0438 5.19402Z" fill="white"/>
<path d="M25.6874 6.89484C26.1425 6.87724 26.5976 6.87724 27.0543 6.88844C27.0607 8.8168 27.0687 10.7436 27.0495 12.6703C26.6151 12.6799 26.1811 12.6799 25.7483 12.6767C25.6038 10.7567 25.7193 8.8216 25.6874 6.89484Z" fill="white"/>
<path d="M37.2646 8.96691C38.4765 8.95091 39.6865 8.95571 40.8978 8.96371C40.9042 9.40916 40.9042 9.85301 40.8978 10.2981C39.6859 10.3109 38.474 10.3157 37.262 10.2949C37.2576 9.85269 37.2576 9.40756 37.262 8.96691" fill="white"/>
<path d="M29.9158 9.62354C30.4047 9.61234 30.8936 9.61394 31.3829 9.61394C31.8507 10.5272 32.4379 11.3794 32.8181 12.3362C32.3693 12.3574 31.919 12.3574 31.4702 12.359C30.937 11.4556 30.4222 10.5416 29.9158 9.62354Z" fill="white"/>
<path d="M34.9077 11.2293C35.3306 11.2197 35.7535 11.2213 36.1784 11.2277C37.3297 13.0198 38.4488 14.8329 39.6088 16.6208C39.6088 17.1648 39.6088 17.7088 39.5992 18.2528C39.4736 18.2301 39.2261 18.1866 39.1023 18.1658C38.1181 16.6938 37.2127 15.1693 36.2396 13.6908C36.2237 15.3549 36.2444 17.0189 36.2284 18.6829C35.7877 18.691 35.346 18.691 34.9033 18.6829C34.8979 16.1994 34.8899 13.7142 34.9077 11.2293Z" fill="white"/>
<path d="M40.1638 12.2377C40.6141 12.2281 41.066 12.2281 41.5164 12.2409C41.5195 12.6668 41.5195 13.0947 41.5164 13.5209C41.066 13.5321 40.6141 13.5321 40.1654 13.5241C40.1622 13.0961 40.1622 12.6673 40.1654 12.2377" fill="white"/>
<path d="M17.9001 12.6588C18.2554 12.6524 18.611 12.654 18.9663 12.6572C19.9151 12.5932 20.8623 12.6121 21.8114 12.6668C21.8146 13.0799 21.8114 13.4947 21.8083 13.9078C20.405 14.7532 19.0565 15.6909 17.6331 16.4998C17.2134 16.3398 16.8932 16.0029 16.5507 15.7219C17.4819 15.1523 18.3938 14.552 19.3346 13.9984C18.8585 13.974 18.381 13.9772 17.9048 13.9724C17.8966 13.5334 17.895 13.0955 17.9001 12.6588Z" fill="white"/>
<path d="M29.1261 13.1494C29.562 13.1366 29.9993 13.1382 30.4337 13.1494C30.4448 13.5884 30.4448 14.0256 30.4337 14.4646C29.9978 14.4774 29.5619 14.478 29.1261 14.4662C29.1159 14.0272 29.1159 13.5882 29.1261 13.1494Z" fill="white"/>
<path d="M22.728 14.4339C23.4262 15.4957 24.1033 16.5722 24.8107 17.6276C25.5168 16.5594 26.1987 15.4749 26.9112 14.4115C26.9112 15.1155 26.9577 15.8269 26.8968 16.5303C26.2503 17.642 25.5024 18.6925 24.8059 19.7738C24.1208 18.7105 23.3953 17.6695 22.7456 16.5853C22.6719 15.8717 22.7249 15.1504 22.728 14.4339Z" fill="white"/>
<path d="M42.0549 14.6131C44.1503 14.6035 46.2459 14.604 48.3417 14.6147C48.3417 15.0406 48.3417 15.4685 48.3398 15.8947C46.2457 15.8996 44.1507 15.9001 42.0549 15.8963C42.053 15.4685 42.0517 15.0397 42.0549 14.6131Z" fill="white"/>
<path d="M30.9625 16.2784C31.3838 16.2704 31.8067 16.2704 32.23 16.2752C32.251 18.1405 32.23 20.0077 32.2411 21.8753C32.045 22.0625 31.8504 22.2529 31.6591 22.4433C30.2066 22.4593 28.7545 22.4433 27.3037 22.4513C27.1124 22.2673 26.9162 22.0913 26.744 21.8929C26.67 21.3217 26.7245 20.739 26.7229 20.1649C27.1269 20.1617 27.5322 20.1617 27.9387 20.1649C27.9499 20.4942 27.9483 20.8231 27.9435 21.1524C28.9424 21.2654 29.9489 21.1844 30.9526 21.2087C30.9577 19.5655 30.9418 17.9197 30.9625 16.2784Z" fill="white"/>
<path d="M51.2223 21.7924C51.2091 20.3844 51.2091 18.9756 51.2223 17.5661C51.6615 17.5565 52.1003 17.5549 52.5411 17.5661C52.5553 18.9741 52.5553 20.3834 52.5411 21.794C52.1016 21.8014 51.6627 21.7998 51.2236 21.794" fill="white"/>
<path d="M44.9645 18.6298C45.7938 18.6218 46.6274 18.4925 47.4522 18.6266C47.9925 20.3937 48.4559 22.1879 48.993 23.9582C48.5685 23.9614 48.142 23.9614 47.7172 23.9614C47.3119 22.5883 46.9661 21.1988 46.548 19.8285C46.3149 19.8317 46.0817 19.8349 45.8483 19.8365C45.501 21.2196 45.0829 22.5815 44.7241 23.9595C44.296 23.961 43.8683 23.9605 43.4407 23.9579C43.9672 22.1879 44.4613 20.4058 44.9645 18.6298Z" fill="white"/>
<path d="M9.51271 19.3044C11.4234 19.2932 13.3358 19.2884 15.2462 19.3044C15.2573 19.7451 15.2573 20.1838 15.2477 20.6244C13.3342 20.642 11.4231 20.6372 9.5108 20.626C9.50474 20.1854 9.50474 19.7422 9.51271 19.3028" fill="white"/>
<path d="M16.1471 19.306C16.5815 19.3028 17.0156 19.3012 17.4516 19.306C17.4611 19.7483 17.4611 20.1918 17.4516 20.634C17.0156 20.6388 16.5815 20.6372 16.1471 20.634C16.142 20.1918 16.142 19.7511 16.1471 19.3092" fill="white"/>
<path d="M20.9493 19.3604C21.3754 19.3572 21.8034 19.3588 22.2295 19.3636C22.2422 20.3876 22.2359 21.4145 22.2359 22.4395C21.8031 22.4427 21.3706 22.4443 20.9397 22.4395C20.9352 21.4154 20.9219 20.386 20.9493 19.3588" fill="white"/>
<path d="M54.3488 20.2804C54.8393 20.2708 55.3315 20.2724 55.822 20.2708C56.3077 21.1745 56.8981 22.0308 57.2597 22.9963C56.8132 23.0123 56.3638 23.0139 55.9167 23.0158C55.3879 22.1073 54.8843 21.1838 54.3485 20.2804" fill="white"/>
<path d="M35.0107 21.3764C35.4359 21.3732 35.8612 21.3732 36.2864 21.3764C36.296 22.7803 36.2893 24.1842 36.2893 25.5883C35.8616 25.5915 35.4352 25.5931 35.0078 25.5931C35.0078 24.188 35.0056 22.7809 35.0107 21.3748" fill="white"/>
<path d="M39.4971 23.0836C39.492 22.6446 39.492 22.2046 39.4971 21.7636C39.9264 21.7572 40.3582 21.7572 40.7885 21.7684C40.7885 22.2075 40.7917 22.6462 40.7853 23.0852C40.3566 23.0868 39.9242 23.0852 39.4955 23.0852" fill="white"/>
<path d="M15.2239 25.0296C16.2547 24.2744 17.355 23.6178 18.4132 22.9045C19.1129 22.9125 19.8108 22.9045 20.5105 22.9141C19.4714 23.6597 18.3666 24.3035 17.3212 25.0392C18.3957 25.717 19.4491 26.4271 20.5169 27.1113C19.798 27.1241 19.0791 27.1161 18.3603 27.1177C17.3228 26.4111 16.2451 25.7599 15.2239 25.0296Z" fill="white"/>
<path d="M51.224 23.8049C51.6644 23.7953 52.1052 23.7937 52.5475 23.8049C52.5584 24.2472 52.5571 24.6875 52.5443 25.1298C52.1052 25.1394 51.6647 25.1378 51.2256 25.1298C51.216 24.689 51.216 24.2485 51.2256 23.8081" fill="white"/>
<path d="M5.97925 23.9857C8.17988 23.9729 10.3843 23.9681 12.5878 23.9889C12.5926 24.4069 12.5926 24.8264 12.5942 25.2459C11.61 25.893 10.6258 26.5432 9.61412 27.1436C9.18643 26.9871 8.86303 26.6316 8.49786 26.3707C9.04291 26.0255 9.59626 25.6914 10.1244 25.3218C8.7428 25.3154 7.3615 25.3298 5.97829 25.3138C5.97192 24.8715 5.97192 24.4288 5.97829 23.9857" fill="white"/>
<path d="M24.8222 25.2671C26.7281 25.2751 28.6337 25.2575 30.5381 25.2751C30.5844 25.7099 30.5785 26.1488 30.5205 26.5823C28.621 26.5903 26.7233 26.5839 24.8257 26.5855C24.8223 26.1445 24.8211 25.705 24.8222 25.2671Z" fill="white"/>
<path d="M31.7828 25.275C32.2411 25.2654 32.6978 25.2654 33.1565 25.2814C33.1579 25.7107 33.1573 26.1388 33.1545 26.5659C32.6978 26.5788 32.2395 26.5788 31.7831 26.5708C31.7787 26.1384 31.7787 25.7067 31.7831 25.275" fill="white"/>
<path d="M37.7771 27.1244C37.7175 26.6709 38.1809 26.4386 38.4188 26.1273C38.9785 26.1273 39.5379 26.1241 40.098 26.1353C40.1107 26.558 40.1107 26.9807 40.104 27.4054C39.7507 27.4118 39.3947 27.4118 39.0413 27.4166V30.4278C40.6864 30.439 42.3318 30.4214 43.9771 30.4374C43.9819 30.8649 43.9819 31.2928 43.9708 31.7174C42.1181 31.7302 40.2635 31.719 38.4108 31.7238C38.1745 31.4141 37.721 31.1798 37.7787 30.7299C37.7704 29.5286 37.7704 28.3268 37.7787 27.1244" fill="white"/>
<path d="M44.0154 26.724C44.4689 26.708 44.9257 26.708 45.3808 26.724C45.3857 27.1597 45.3857 27.5954 45.3808 28.0313C44.9257 28.0473 44.4721 28.0473 44.017 28.0313C44.0122 27.5938 44.0122 27.1583 44.017 26.7208" fill="white"/>
<path d="M48.3501 26.7241C50.2672 26.6981 52.1827 26.7161 54.0998 26.7145C54.103 27.1583 54.103 27.6038 54.0979 28.0473C52.1824 28.0473 50.2672 28.0633 48.3513 28.0393C48.345 27.6002 48.345 27.1618 48.3513 26.7241" fill="white"/>
<path d="M21.7939 28.2588C22.8684 28.2572 23.9409 28.2588 25.0151 28.2572C25.0247 28.7052 25.0247 29.1532 25.0151 29.6012C23.9422 29.6029 22.87 29.6029 21.7984 29.6012C21.7796 29.1532 21.7787 28.7057 21.7955 28.2588" fill="white"/>
<path d="M28.8783 28.2588C30.5639 28.2572 32.2495 28.2588 33.9347 28.2556C34.547 28.1596 35.1604 28.7977 35.0829 29.4044C35.0792 30.6467 35.0786 31.8904 35.0809 33.1354C34.8653 33.3693 34.6485 33.6 34.4313 33.8324C33.8731 33.8324 33.3169 33.8324 32.7588 33.826C32.7541 33.3993 32.7536 32.9733 32.7572 32.5479C33.1061 32.5431 33.4557 32.5399 33.8043 32.5351C33.8043 31.5571 33.8043 30.5776 33.8074 29.5996C32.17 29.4528 30.5202 29.5753 28.878 29.5318C28.874 29.1051 28.874 28.6808 28.878 28.2588" fill="white"/>
<path d="M16.9994 28.6524C17.8229 28.6476 18.6448 28.6428 19.4683 28.6556C19.9668 30.4419 20.5022 32.2186 20.9736 34.0132C20.559 34.0132 20.1444 34.0132 19.732 34.0164C19.3091 32.6381 18.9825 31.2342 18.5465 29.8627C18.3118 29.8771 18.0771 29.8947 17.842 29.9126C17.5301 31.2941 17.0846 32.6397 16.7436 34.0148C16.3175 34.0148 15.8911 34.0148 15.4679 34.01C15.975 32.224 16.4799 30.4355 16.9988 28.6524" fill="white"/>
<path d="M52.9241 30.2662C54.3593 30.2518 55.7964 30.2371 57.2297 30.271C57.5917 30.495 57.9999 30.8585 57.9212 31.336C57.9212 32.36 57.9148 33.3869 57.9212 34.4119C57.9084 34.9041 57.9307 35.3962 57.9164 35.8884C57.939 36.2903 57.8296 36.6855 57.8526 37.0891C57.444 37.0891 57.0355 37.0891 56.6269 37.0843C56.6317 35.2349 56.6269 33.384 56.6301 31.5347C55.6277 31.5072 54.6263 31.5283 53.6242 31.5203C53.6223 31.864 53.6223 32.2077 53.6162 32.553C53.1946 32.5594 52.7731 32.5615 52.3517 32.5594C52.3437 31.993 52.3456 31.425 52.3469 30.8585C52.5411 30.6633 52.7325 30.4662 52.9238 30.2662" fill="white"/>
<path d="M12.0827 30.3177H13.4158C13.419 31.7232 13.4158 33.1271 13.4158 34.5313H12.0763C12.0827 33.1274 12.0779 31.7219 12.0811 30.3177" fill="white"/>
<path d="M7.89957 31.4928C8.33715 31.4864 8.7744 31.4992 9.21038 31.5283C9.21527 31.9445 9.21527 32.3614 9.21038 32.7789C8.76962 32.7837 8.32917 32.7853 7.88841 32.7789C7.88363 32.3494 7.88522 31.9219 7.89957 31.4944" fill="white"/>
<path d="M23.5646 39.195C23.5531 36.7099 23.5526 34.2245 23.563 31.7389C23.9974 31.7325 24.4314 31.7325 24.8658 31.7421C25.8864 33.393 26.9389 35.026 27.9811 36.6654C28.4315 37.2478 28.1613 38.0289 28.2337 38.7067C28.0826 38.7067 27.9314 38.7099 27.7818 38.7131C26.8441 37.2187 25.8647 35.7502 24.9672 34.233C24.8049 35.8823 24.9382 37.5461 24.8853 39.2018C24.4435 39.2062 24.0034 39.2062 23.5646 39.195Z" fill="white"/>
<path d="M29.3551 32.6947C29.7972 32.6851 30.2394 32.6841 30.6819 32.6915C30.6883 33.7776 30.6867 34.8637 30.6819 35.9495C30.2379 35.9575 29.7956 35.9575 29.3519 35.9463C29.3446 34.8621 29.3427 33.7776 29.3519 32.6947" fill="white"/>
<path d="M37.3733 34.1473C37.8061 34.1441 38.2402 34.1425 38.6746 34.1473C38.6827 34.5895 38.6827 35.0316 38.6746 35.4737C38.2402 35.4754 37.8064 35.4754 37.3733 35.4737C37.3682 35.0331 37.3682 34.5915 37.3733 34.1489" fill="white"/>
<path d="M41.5919 34.2052C42.9397 34.1876 44.2875 34.1972 45.6369 34.2004C45.6915 34.5956 45.7253 34.9975 45.6867 35.3978C45.5591 35.6577 45.2539 35.5543 45.0256 35.5787C43.8774 35.5447 42.7257 35.6449 41.5856 35.5147C41.5776 35.0766 41.5776 34.641 41.5919 34.2052Z" fill="white"/>
<path d="M47.0297 34.3923C47.4641 34.3859 47.9029 34.3568 48.3373 34.4243C48.3791 35.9508 48.3548 37.4823 48.3469 39.0107C47.9078 39.0188 47.4693 39.0188 47.0313 39.0107C47.0166 37.4719 47.0166 35.933 47.0313 34.3939" fill="white"/>
<path d="M35.0107 35.2967C35.4352 35.2967 35.8616 35.2935 36.2864 35.2967C36.2912 35.7358 36.2925 36.1761 36.2864 36.6183C35.8612 36.6247 35.4359 36.6247 35.0107 36.6183C35.0075 36.178 35.0075 35.7358 35.0107 35.2951" fill="white"/>
<path d="M14.5627 36.2353C16.0777 36.0708 17.6073 36.2014 19.1286 36.153C19.5206 36.148 19.9126 36.1657 20.3025 36.2062C20.3089 36.65 20.3073 37.0954 20.3025 37.539C18.389 37.5358 16.4795 37.5486 14.5691 37.5326C14.5576 37.1002 14.5576 36.6686 14.5611 36.2353" fill="white"/>
<path d="M5.98092 37.2167C6.18855 37.0135 6.39745 36.8084 6.60667 36.6052C7.16001 36.602 7.71304 36.6004 8.26511 36.6116C8.27149 37.0311 8.27149 37.4523 8.2683 37.8718C7.92417 37.8798 7.58164 37.8814 7.23751 37.8846C7.24549 38.8852 7.23273 39.8856 7.24549 40.8862C8.87459 40.891 10.504 40.875 12.1331 40.8942C12.1411 41.3074 12.1411 41.7189 12.1379 42.132C11.7341 42.1336 11.3288 42.1352 10.926 42.1352C9.48024 42.1208 8.03261 42.1596 6.58849 42.1176C6.34737 41.9803 6.10435 41.7544 5.99495 41.4981C5.957 40.0718 5.99049 38.6436 5.98252 37.2167" fill="white"/>
<path d="M39.7793 38.0488C39.9965 37.844 40.2153 37.6388 40.4389 37.4388C41.8476 37.45 43.2567 37.4388 44.6654 37.4436C44.8778 37.6468 45.0899 37.852 45.3032 38.0536C45.3049 39.4526 45.3049 40.8512 45.3032 42.2492C44.874 42.2524 44.4444 42.2492 44.0167 42.238C44.0167 41.0616 44.0071 39.8869 44.0214 38.7106C43.0328 38.709 42.0482 38.7106 41.0621 38.709C41.0637 39.067 41.0621 39.4254 41.0541 39.7835C40.6312 39.7899 40.2083 39.7899 39.7867 39.7883C39.773 39.2085 39.7761 38.6293 39.7777 38.0488" fill="white"/>
<path d="M48.8244 40.5182C50.3871 39.4968 51.9655 38.5022 53.5414 37.5038C53.9177 37.7556 54.2877 38.0203 54.6544 38.2849C53.5203 39.0103 52.387 39.7338 51.2546 40.4555C52.9191 40.4731 54.5839 40.4555 56.25 40.4651C56.2532 40.909 56.2532 41.3544 56.25 41.798C53.776 41.8061 51.3023 41.8061 48.8291 41.798C48.8228 41.3701 48.8228 40.9426 48.8259 40.5179" fill="white"/>
<path d="M31.1379 40.7714C32.7061 39.724 34.3241 38.7524 35.8919 37.7054C36.2648 37.9636 36.6335 38.2267 37.013 38.4734C35.9286 39.2382 34.7776 39.9048 33.6725 40.6421C35.3274 40.6712 36.9824 40.6389 38.6373 40.6597C38.6485 41.1163 38.6485 41.5746 38.6373 42.0312C36.1605 42.0456 33.6833 42.036 31.2062 42.036C31.1424 41.6171 31.1424 41.1928 31.1395 40.7698" fill="white"/>
<path d="M14.8586 39.6418C15.5469 40.6978 16.237 41.7538 16.9173 42.8127C17.6474 41.7669 18.3005 40.6687 19.0242 39.6174C19.0385 40.3291 19.0274 41.0424 19.0338 41.7541C18.3133 42.8127 17.6537 43.9132 16.9141 44.9574C16.2291 43.9084 15.5647 42.8453 14.8506 41.8156C14.8436 41.0911 14.8363 40.365 14.8586 39.6418Z" fill="white"/>
<path d="M22.4024 42.3512C22.3865 41.8994 22.3849 41.4475 22.4104 40.9973C22.8432 40.9925 23.2788 40.9941 23.7116 41.0293C23.7212 41.4696 23.7212 41.9101 23.7116 42.3509C23.2766 42.3544 22.8406 42.356 22.404 42.3509" fill="white"/>
<path d="M28.5342 43.0034C28.9733 42.9986 29.4138 42.997 29.853 43.0034C29.8641 44.6444 29.853 46.2857 29.8593 47.9267C29.5474 47.9395 29.2352 47.9542 28.9233 47.983C28.8235 47.9635 28.6241 47.9283 28.5243 47.9104C28.5342 46.2758 28.5163 44.6396 28.5342 43.005" fill="white"/>
<path d="M37.6192 44.0329C38.4485 44.0169 39.2755 44.0281 40.104 44.0233C40.6122 45.8095 41.121 47.5959 41.6304 49.3824C41.2028 49.3824 40.7747 49.3824 40.3487 49.3728C39.9851 48.0077 39.5912 46.6505 39.2212 45.287C38.9897 45.2726 38.7581 45.2626 38.5266 45.2514C38.1439 46.6294 37.7622 48.007 37.3816 49.3843C36.9539 49.3843 36.5275 49.3843 36.1014 49.3779C36.6223 47.5996 37.1402 45.8214 37.6192 44.0338" fill="white"/>
<path d="M18.8424 46.9923C20.4202 45.9756 21.9947 44.9526 23.5945 43.9698C23.9629 44.2297 24.3344 44.4819 24.6993 44.7478C23.5543 45.4627 22.4317 46.2147 21.2752 46.9101C22.9512 46.9421 24.6285 46.9053 26.3061 46.9296C26.314 47.3718 26.3156 47.8138 26.3029 48.256C23.8181 48.264 21.3333 48.2755 18.8485 48.2512C18.836 47.8314 18.8376 47.4118 18.8424 46.9923Z" fill="white"/>
<path d="M31.8746 44.2944C32.3366 44.2994 32.7983 44.2714 33.2562 44.2105C33.7984 45.1065 34.4382 45.9952 34.7166 47.015C34.2838 47.0182 33.8514 47.0182 33.4205 47.0214C32.9115 46.1081 32.3962 45.1991 31.8746 44.2944Z" fill="white"/>
<path d="M50.14 44.8412C50.5919 44.8268 51.0454 44.8268 51.4986 44.8364C51.5005 45.2703 51.5005 45.705 51.4986 46.1404C51.0454 46.1516 50.5932 46.1516 50.1412 46.1324C50.1333 45.7014 50.1333 45.2723 50.1412 44.8412" fill="white"/>
<path d="M46.8093 48.3139C47.3563 47.4314 47.9415 46.5744 48.4917 45.6934C48.5076 46.3469 48.5175 47.0022 48.5012 47.6573C48.5172 47.9027 48.3389 48.0931 48.2247 48.2915C47.6188 49.1904 47.0377 50.1069 46.4429 51.0116C45.7272 49.9402 45.0341 48.8573 44.3264 47.7795C44.3232 47.063 44.3169 46.3465 44.3344 45.6317C45.029 46.6758 45.6854 47.7472 46.3963 48.7815C46.5969 48.6964 46.6872 48.4804 46.8109 48.3139" fill="white"/>
<path d="M13.1508 47.0441C14.3104 47.0054 15.4717 47.0246 16.6329 47.0329C16.6393 47.4636 16.6667 47.8969 16.6118 48.327C15.4602 48.3833 14.304 48.3561 13.1524 48.335C13.1476 47.9043 13.1476 47.4748 13.1508 47.0441Z" fill="white"/>
<path d="M27.2878 49.857C29.1468 49.8295 31.0046 49.857 32.8637 49.8426C33.0763 50.0559 33.2889 50.2705 33.5015 50.4864C33.4936 51.9114 33.4967 53.338 33.4983 54.7659C33.3119 54.9611 33.1274 55.1585 32.945 55.3582C32.3499 55.371 31.7547 55.3726 31.159 55.355C31.1669 54.9515 31.1156 54.54 31.2119 54.1448C31.5481 54.1092 31.8858 54.122 32.2252 54.1188C32.2284 53.1201 32.2252 52.1226 32.2252 51.1255C30.5782 51.1159 28.9296 51.1466 27.2846 51.1095C27.2795 50.6916 27.2795 50.2741 27.2846 49.857" fill="white"/>
<path d="M18.3568 50.3313C18.7909 50.3249 19.2258 50.3259 19.6612 50.3345C19.6676 50.7699 19.6681 51.2067 19.6628 51.6449C19.2252 51.6513 18.7893 51.6518 18.3552 51.6465C18.3492 51.2074 18.3492 50.769 18.3552 50.3313" fill="white"/>
<path d="M41.3588 51.0362C41.8509 50.6202 42.298 51.3137 42.7193 51.5163C42.7193 51.555 42.7193 51.634 42.7193 51.6727C41.6193 52.3844 40.4935 53.0574 39.4174 53.8062L40.0416 53.8014C40.3726 53.8014 40.7051 53.8051 41.0389 53.8126C41.0421 54.2485 41.0421 54.6856 41.0357 55.1214C39.6815 55.141 38.3273 55.1358 36.9731 55.1246C36.9457 54.7131 36.9413 54.3 36.9377 53.8901C38.3835 52.898 39.892 52.002 41.3572 51.0362" fill="white"/>
<path d="M20.7997 52.2465C22.5577 52.2401 24.3172 52.2305 26.0749 52.2513C26.078 52.6852 26.078 53.1199 26.0749 53.5553C24.3153 53.5812 22.5574 53.5697 20.7981 53.5617C20.7901 53.123 20.7917 52.6839 20.7981 52.2465" fill="white"/>
<path d="M25.4849 55.5967C25.9802 55.5919 26.4755 55.5903 26.9711 55.5999C27.4294 56.5147 28.0389 57.3573 28.3913 58.3237C27.9473 58.3481 27.505 58.3481 27.0613 58.3513C26.5192 57.4428 26.0124 56.5125 25.4849 55.5967Z" fill="white"/>
<path d="M34.2644 56.9877C34.6972 56.9845 35.1297 56.9909 35.5606 57.0197C35.5685 57.4539 35.5654 57.8895 35.5108 58.3221C35.0975 58.3238 34.6852 58.3238 34.274 58.3221C34.2581 57.8741 34.2581 57.4315 34.2641 56.9877" fill="white"/>
<path d="M31.2489 61.3062C31.2489 60.2927 31.2263 59.2777 31.2649 58.2642C31.7008 58.2642 32.1381 58.2885 32.5725 58.3282C32.5774 59.3207 32.5774 60.3137 32.5725 61.3072C32.1311 61.314 31.6899 61.314 31.2489 61.3072" fill="white"/>
</g>
<defs>
<clipPath id="clip0_310_609">
<rect width="64" height="64" fill="white"/>
</clipPath>
</defs>
</svg>
