<svg width="64" height="64" viewBox="0 0 64 64" fill="none" xmlns="http://www.w3.org/2000/svg">
<g clip-path="url(#clip0_230_1458)">
<mask id="mask0_230_1458" style="mask-type:luminance" maskUnits="userSpaceOnUse" x="0" y="0" width="64" height="64">
<path d="M0 0H64V64H0V0Z" fill="white"/>
</mask>
<g mask="url(#mask0_230_1458)">
<path d="M64 0H0V64H64V0Z" fill="#0987F4"/>
<path d="M48.9999 19.12C47.4609 17.0622 45.4711 15.3842 43.1829 14.2147C40.8948 13.0452 38.3693 12.4153 35.7999 12.3733C25.6533 12.3733 18.2399 21.7867 18.2399 32C18.2399 39.12 22.9599 44.44 28.2133 44.44C28.7039 44.4418 29.1884 44.3973 29.6666 44.3067C26.1466 41.7467 23.8933 37.0667 23.8933 32C23.8933 23.9333 29.3599 17.64 35.7866 17.64C42.8133 17.64 47.6933 24.6133 47.6933 32C47.6875 37.4427 45.777 42.7117 42.2933 46.8933C39.4708 50.283 35.5333 52.5566 31.1866 53.3067C31.1866 53.3067 31.5333 53.3333 31.9999 53.3333C35.9698 53.3321 39.8605 52.2233 43.2345 50.1315C46.6085 48.0397 49.332 45.048 51.0985 41.4929C52.8649 37.9377 53.6044 33.9602 53.2337 30.0077C52.8629 26.0553 51.3967 22.2846 48.9999 19.12ZM45.7599 32C45.7599 24.88 41.0399 19.56 35.7866 19.56C35.2959 19.5582 34.8115 19.6027 34.3333 19.6933C37.8533 22.2533 40.1066 26.9333 40.1066 32C40.1066 40.0667 34.6399 46.36 28.2133 46.36C21.1866 46.36 16.3066 39.3867 16.3066 32C16.3333 26.5333 18.2799 21.12 21.7066 17.1067C24.5291 13.717 28.4666 11.4434 32.8133 10.6933C32.8133 10.6933 32.4666 10.6667 31.9999 10.6667C28.0301 10.6678 24.1394 11.7767 20.7654 13.8685C17.3913 15.9602 14.6679 18.952 12.9014 22.5071C11.135 26.0623 10.3955 30.0398 10.7662 33.9922C11.1369 37.9447 12.6032 41.7154 14.9999 44.88C16.5376 46.9393 18.5271 48.6184 20.8156 49.788C23.104 50.9576 25.6302 51.5867 28.1999 51.6267C38.3466 51.6267 45.7599 42.2133 45.7599 32Z" fill="white"/>
</g>
</g>
<defs>
<clipPath id="clip0_230_1458">
<rect width="64" height="64" rx="32" fill="white"/>
</clipPath>
</defs>
</svg>
