<svg width="64" height="64" viewBox="0 0 64 64" fill="none" xmlns="http://www.w3.org/2000/svg">
<g clip-path="url(#clip0_202_6)">
<path fill-rule="evenodd" clip-rule="evenodd" d="M32 4.57143C16.8571 4.57143 4.57143 16.8571 4.57143 32C4.57143 47.1429 16.8571 59.4286 32 59.4286H48.4286C43.5714 62.2857 38 64 32 64C14.2857 64 0 49.5714 0 32C0 14.2857 14.2857 0 32 0C49.7143 0 64 14.2857 64 32C64 33.5714 63.8571 35.1429 63.7143 36.5714H59.1429C59.4286 35.1429 59.5714 33.5714 59.5714 32C59.4286 16.8571 47.1429 4.57143 32 4.57143Z" fill="#06070A"/>
<path fill-rule="evenodd" clip-rule="evenodd" d="M58.2857 50.2857C57.1428 51.8571 55.7143 53.4286 54.2857 54.8571H47.1428H32C19.4285 54.8571 9.14282 44.5714 9.14282 32C9.14282 19.4286 19.4285 9.14285 32 9.14285C44.5714 9.14285 54.8571 19.4286 54.8571 32C54.8571 33.5714 54.7143 35.1429 54.4285 36.5714H49.7143C50.1428 35.1429 50.2857 33.5714 50.2857 32C50.2857 21.8571 42.1428 13.7143 32 13.7143C21.8571 13.7143 13.7143 21.8571 13.7143 32C13.7143 42.1429 21.8571 50.2857 32 50.2857H45.7143H52.4285H58.2857Z" fill="#06070A"/>
<path fill-rule="evenodd" clip-rule="evenodd" d="M60.8571 45.7143C61.5714 44.2857 62.1429 42.7143 62.5714 41.1428H57.7143H52.8571H47.7143H42.1429H31.8571C26.8571 41.1428 22.7143 37 22.7143 32C22.7143 27 26.8571 22.8571 31.8571 22.8571C36.8571 22.8571 41 27 41 32C41 33.7143 40.5714 35.2857 39.7143 36.5714H44.7143C45.2857 35.1428 45.4286 33.5714 45.4286 32C45.4286 24.4286 39.2857 18.2857 31.7143 18.2857C24.1429 18.2857 18 24.4286 18 32C18 39.5714 24.1429 45.7143 31.7143 45.7143H43.8571H50H55.7143H60.8571Z" fill="#06070A"/>
</g>
<defs>
<clipPath id="clip0_202_6">
<rect width="64" height="64" fill="white"/>
</clipPath>
</defs>
</svg>
