<svg width="64" height="64" viewBox="0 0 64 64" fill="none" xmlns="http://www.w3.org/2000/svg">
<path d="M31.6602 64C30.7282 64 29.9709 63.2427 29.9709 62.3107V53.6116C29.9709 52.6796 30.7282 51.9223 31.6602 51.9223C32.5922 51.9223 33.3495 52.6796 33.3495 53.6116V62.3107C33.3495 63.2427 32.5922 64 31.6602 64ZM54.6117 60.4466C53.6796 60.4466 52.9223 59.6893 52.9223 58.7573V52.9515C52.9223 52.0194 53.6796 51.2621 54.6117 51.2621C55.5437 51.2621 56.301 52.0194 56.301 52.9515V58.7573C56.301 59.6893 55.5437 60.4466 54.6117 60.4466ZM8.70874 55.301C7.7767 55.301 7.01942 54.5437 7.01942 53.6116V44.9126C7.01942 43.9806 7.7767 43.2233 8.70874 43.2233C9.64078 43.2233 10.3981 43.9806 10.3981 44.9126V53.6116C10.3981 54.5437 9.64078 55.301 8.70874 55.301ZM31.5631 49.5922C25 49.5922 18.8447 47.0097 14.2039 42.3301C9.64078 37.6893 7.07767 31.5728 7.01942 25.068C7 24.9903 7 24.8932 7 24.7961V1.68932C7 1.00971 7.40777 0.38835 8.04854 0.135923C8.26213 0.0582533 8.47573 0.0194175 8.70874 0C9.13592 0 9.58252 0.174758 9.91262 0.504856L15.4466 6.09709C19.9126 2.15534 25.5825 0 31.5631 0C38.1262 0 44.2816 2.58252 48.9223 7.26214C53.4854 11.9029 56.0485 18.0194 56.1068 24.5243C56.1262 24.6019 56.1262 24.699 56.1262 24.7961V47.9029C56.1262 48.5825 55.7185 49.2039 55.0777 49.4563C54.8641 49.534 54.6505 49.5922 54.4369 49.5922H54.4175C53.9903 49.5922 53.5437 49.4175 53.2136 49.0874L47.6796 43.4952C43.233 47.4563 37.5631 49.5922 31.5631 49.5922ZM10.3786 24.5437C10.3981 24.6214 10.3981 24.7184 10.3981 24.7961C10.3981 30.5243 12.6117 35.9029 16.6117 39.9612C20.6117 44 25.932 46.233 31.5825 46.233C36.6699 46.233 41.5049 44.4272 45.3301 41.1068L10.3786 5.78641V24.5437ZM49.0194 40.0388L52.7476 43.8058V25.0485C52.7282 24.9709 52.7282 24.8738 52.7282 24.7961C52.7282 19.068 50.5146 13.6893 46.5146 9.63107C42.5146 5.59223 37.1942 3.35922 31.5437 3.35922C26.4563 3.35922 21.6408 5.16505 17.7961 8.48544L32.8835 23.7476L48.9223 39.9417C48.9612 39.9806 49 40 49.0194 40.0388Z" fill="#48A3FF"/>
</svg>
