<svg width="64" height="64" viewBox="0 0 64 64" fill="none" xmlns="http://www.w3.org/2000/svg">
<g clip-path="url(#clip0_266_23)">
<mask id="mask0_266_23" style="mask-type:luminance" maskUnits="userSpaceOnUse" x="0" y="0" width="64" height="64">
<path d="M64 0H0V64H64V0Z" fill="white"/>
</mask>
<g mask="url(#mask0_266_23)">
<path fill-rule="evenodd" clip-rule="evenodd" d="M32 0C49.674 0 64 14.3271 64 32C64 49.674 49.674 64 32 64C14.3284 64 0 49.674 0 32C0 14.3284 14.3271 0 32 0Z" fill="#0074F0"/>
<path fill-rule="evenodd" clip-rule="evenodd" d="M41.02 28.1422C41.255 29.3175 41.3788 30.6067 41.3788 31.9987C41.3788 39.4942 37.8625 43.9695 31.973 43.9695C29.517 43.9695 27.4445 43.1825 25.882 41.683L46.3835 21.1541C45.8343 20.1803 45.2083 19.2697 44.503 18.4382C44.206 18.0893 43.8943 17.7615 43.5763 17.4447L43.5788 17.441C43.5365 17.4002 43.492 17.3606 43.4513 17.3197C43.356 17.227 43.2658 17.1304 43.1693 17.0414L43.163 17.0451C40.1873 14.2662 36.3593 12.8 31.973 12.8C26.904 12.8 22.5797 14.7499 19.4692 18.4382C16.5443 21.9076 14.9333 26.7242 14.9333 31.9987C14.9333 35.5052 15.6485 38.8037 16.9835 41.642L22.9323 35.6857C22.7257 34.5575 22.6205 33.3275 22.6205 31.9987C22.6205 28.5492 23.322 25.7592 24.7053 23.7078C26.3263 21.3013 28.8403 20.0281 31.973 20.0281C34.4118 20.0281 36.442 20.799 37.9863 22.2305L17.5254 42.7197C18.0884 43.7417 18.7379 44.6932 19.4679 45.5605C19.6152 45.7337 19.7661 45.9007 19.9183 46.0665L19.922 46.0702C20.0977 46.262 20.2771 46.4477 20.459 46.6282L20.5283 46.6975C20.5864 46.7545 20.6421 46.815 20.7015 46.8707L20.7077 46.8657C23.6858 49.703 27.5423 51.2 31.9718 51.2C37.0448 51.2 41.3763 49.25 44.5018 45.5605C47.4428 42.0875 49.0635 37.2707 49.0635 32C49.0635 28.4402 48.3213 25.091 46.9355 22.2193L41.0188 28.1435L41.02 28.1422Z" fill="white"/>
</g>
</g>
<defs>
<clipPath id="clip0_266_23">
<rect width="64" height="64" fill="white"/>
</clipPath>
</defs>
</svg>
