<svg width="64" height="64" viewBox="0 0 64 64" fill="none" xmlns="http://www.w3.org/2000/svg">
<path d="M61.1302 11.3126C60.48 8.80384 58.3885 6.29504 54.6227 3.50208C51.6019 1.27744 48.3942 0 45.8368 0C45.3248 0 44.8614 0.04608 44.3955 0.1408C43.2333 0.37632 42.2118 1.2288 41.559 2.5088C40.768 4.02432 40.5837 6.05952 41.0931 7.29088C41.28 7.66976 41.5104 8.14336 41.7894 8.56832C39.3267 10.0838 37.9315 10.5088 37.7446 10.5574C44.16 12.736 49.5053 17.28 52.8538 23.1962L52.8998 22.6278C53.0381 21.0662 53.504 19.2666 54.1542 17.4208C54.8045 17.6102 55.4547 17.705 56.1075 17.705C57.8278 17.705 59.3152 16.9958 60.2445 15.7158C61.1789 14.4384 61.5501 12.7334 61.1302 11.3126Z" fill="#602F92"/>
<path d="M54.4384 16.0486C58.6676 17.2314 60.3879 13.9187 59.8298 11.6941C59.2256 9.46945 57.2724 7.19617 53.8343 4.64129C50.3936 2.08385 46.9069 1.04449 44.6772 1.51809C42.4448 1.99169 41.7946 5.44769 42.3527 6.77377C42.5856 7.29345 43.0976 8.05121 43.794 8.90369C42.9108 9.51809 42.0736 9.99169 41.3773 10.4192C45.6551 12.3597 49.3722 15.3907 52.1626 19.177C52.4877 17.8995 52.9536 16.7629 53.3709 15.7696C53.6935 15.8106 54.0647 15.9053 54.4384 16.0486Z" fill="url(#paint0_radial_237_47)"/>
<path d="M30.2182 62.4384C44.5696 62.4384 56.2048 50.5907 56.2048 35.9757C56.2048 21.3607 44.5696 9.51553 30.2182 9.51553C15.8669 9.51553 4.23169 21.3632 4.23169 35.9783C4.23169 50.5933 15.8669 62.4384 30.2182 62.4384Z" fill="url(#paint1_radial_237_47)"/>
<path opacity="0.6" d="M57.6921 9.51552C54.1593 5.72928 51.1846 4.73344 47.6057 3.9296C44.8153 3.26656 45.5603 1.65632 48.9548 1.98912C47.3267 1.4208 45.7932 1.28 44.6771 1.51552C42.4447 1.98912 41.7945 5.44512 42.3526 6.7712C42.5855 7.29088 43.0975 8.04864 43.7939 8.90112C42.5395 9.7536 41.4694 10.368 40.5862 10.8416C41.0035 11.031 41.5155 11.2666 42.1196 11.5994C43.6991 12.4518 45.4195 13.8726 45.4195 13.8726C42.8159 11.5994 43.374 10.56 46.9529 8.00256C48.0691 7.19872 50.1145 7.29344 52.0191 8.28672C53.9238 9.28 56.1561 11.7888 56.1561 11.7888L54.0185 15.9539C54.1567 16.0026 54.2975 16.0486 54.4358 16.0973C55.7849 16.4762 56.8524 16.3814 57.6895 16.0486C58.6675 15.4317 61.2249 13.3478 57.6921 9.51552Z" fill="#A98798"/>
<path d="M47.5572 6.20033C48.4864 6.57921 49.6948 7.24225 51.1821 8.23553C52.9485 9.41825 54.482 10.7443 55.4599 11.7863C53.8317 13.9648 52.7642 16.9472 52.114 19.0285C52.4391 19.5021 52.8103 19.9757 53.138 20.4493C53.4631 19.2666 54.0212 17.513 54.7661 15.7619C54.953 15.8106 55.1834 15.8106 55.4164 15.8106C55.9744 15.8106 56.6247 15.7159 57.1367 15.2909C57.5079 15.0067 57.9277 14.4871 57.8816 13.5399C57.8816 12.6413 57.1853 11.5047 55.744 10.1325C54.72 9.13921 53.3274 8.04865 51.9322 7.05537C47.9335 4.35713 45.1456 3.59937 43.8912 4.87681C43.0541 5.72929 43.1463 6.77121 43.4253 7.52897C41.938 8.52225 40.6836 9.23393 39.8464 9.70753C40.4045 9.89697 40.9165 10.1325 41.4746 10.3706C42.9543 9.56161 45.0944 8.18945 47.5572 6.20033ZM56.3431 12.9715C56.4813 13.2071 56.53 13.4451 56.53 13.5859C56.53 14.0109 56.3917 14.1543 56.297 14.249C56.1101 14.3898 55.7389 14.4845 55.4138 14.4845C55.6928 13.9162 56.018 13.4426 56.3431 12.9715ZM44.8615 5.91617C44.9997 5.77537 45.3735 5.68065 45.9776 5.77537C45.5117 6.15425 45.0484 6.48449 44.5824 6.81729C44.5364 6.48449 44.5824 6.15425 44.8615 5.91617Z" fill="#602F92"/>
<path d="M30.2182 7.95135C15.017 7.95135 2.69824 20.4954 2.69824 35.9757C2.69824 51.456 15.017 64 30.2182 64C45.4195 64 57.7382 51.456 57.7382 35.9757C57.7382 20.4979 45.3734 7.95135 30.2182 7.95135ZM30.2182 62.4384C15.8541 62.4384 4.23168 50.6035 4.23168 35.9757C4.23168 21.3478 15.8541 9.51295 30.2182 9.51295C44.5824 9.51295 56.2048 21.3478 56.2048 35.9757C56.2022 50.6035 44.5363 62.4384 30.2182 62.4384Z" fill="#602F92"/>
<path opacity="0.6" d="M30.2182 62.4384C44.5696 62.4384 56.2048 50.5907 56.2048 35.9757C56.2048 21.3607 44.5696 9.51553 30.2182 9.51553C15.8669 9.51553 4.23169 21.3632 4.23169 35.9783C4.23169 50.5933 15.8669 62.4384 30.2182 62.4384Z" fill="url(#paint2_linear_237_47)"/>
<path opacity="0.6" d="M30.0314 59.2179C15.8541 56.8986 6.23106 43.3127 8.55554 28.8743C9.57954 22.4845 12.7386 17.0394 17.2032 13.1098C10.6931 16.9472 5.85986 23.6211 4.55682 31.7645C2.27842 46.2029 11.9015 59.7888 26.0327 62.1082C33.9354 63.4343 41.5591 60.9255 47.1834 56.0026C42.2119 58.9338 36.1677 60.2138 30.0314 59.2179Z" fill="#A98798"/>
<path opacity="0.6" d="M34.3552 9.8944C27.8016 8.8064 21.4323 10.3194 16.2252 13.6806C16.1331 13.7754 16.0384 13.8701 16.0384 13.8701C18.0377 12.6387 20.9664 11.5507 20.9664 11.5507C13.4348 16 11.1104 21.0662 11.1104 21.0662C14.039 15.2909 22.638 11.2205 29.3785 10.9363C36.119 10.6522 40.535 12.6874 45.9264 17.0906C51.3177 21.5398 54.574 30.6278 54.2464 37.824C53.9673 45.0202 50.2476 50.8416 50.2476 50.8416C52.8051 47.4803 54.3385 45.0202 55.3139 42.5114C55.5007 41.7536 55.6851 40.9958 55.7798 40.192C58.1094 25.7997 48.5324 12.2138 34.3552 9.8944Z" fill="url(#paint3_linear_237_47)"/>
<path d="M54.9018 35.7402C54.9018 49.6103 43.8374 60.8768 30.2182 60.8768C16.599 60.8768 5.48865 49.6103 5.48865 35.7402H54.9018Z" fill="url(#paint4_linear_237_47)"/>
<g opacity="0.6">
<path opacity="0.6" d="M52.9485 35.7402C52.9485 49.2775 42.4423 60.3546 29.2404 60.8768C29.5655 60.8768 29.8906 60.8768 30.2157 60.8768C43.8349 60.8768 54.8992 49.6103 54.8992 35.7402H52.9485Z" fill="url(#paint5_linear_237_47)"/>
</g>
<g opacity="0.7">
<path opacity="0.7" d="M8.97537 35.7402H5.48865C5.48865 49.6103 16.553 60.8768 30.1722 60.8768C30.7763 60.8768 31.3344 60.8768 31.8925 60.8282C19.1078 59.881 8.97537 48.9933 8.97537 35.7402Z" fill="url(#paint6_linear_237_47)"/>
</g>
<path d="M54.8557 35.9757C54.8557 33.088 49.9277 31.4317 43.3741 30.8634C38.633 30.4845 33.8458 30.9581 28.3597 32.6631C23.6186 34.0839 19.3408 33.8458 16.2278 33.4669C9.30049 32.6631 5.48865 32.5683 5.48865 35.9757C5.48865 40.8986 15.3446 47.0528 30.1261 44.9229C37.6115 43.8349 41.4694 41.6103 45.8854 40.0947C50.6726 38.4845 54.8557 38.5331 54.8557 35.9757Z" fill="url(#paint7_linear_237_47)"/>
<path d="M38.3052 24.0461C40.6169 24.0461 42.4883 22.1389 42.4883 19.7862C42.4883 17.4336 40.6144 15.5264 38.3052 15.5264C35.9961 15.5264 34.1222 17.4336 34.1222 19.7862C34.1222 22.1389 35.9961 24.0461 38.3052 24.0461Z" fill="white"/>
<path d="M45.1404 27.2179C46.1158 27.2179 46.9068 26.4115 46.9068 25.4182C46.9068 24.425 46.1158 23.6186 45.1404 23.6186C44.1651 23.6186 43.374 24.425 43.374 25.4182C43.374 26.4141 44.1651 27.2179 45.1404 27.2179Z" fill="white"/>
<g opacity="0.6">
<path opacity="0.6" d="M51.4611 16.3789C51.415 16.3789 51.3689 16.3789 51.3689 16.3789C51.0899 16.3302 50.903 16.0486 50.9517 15.7158C51.3689 13.5373 53.1353 11.456 53.2301 11.3613C53.4169 11.1258 53.7881 11.1258 53.975 11.3126C54.208 11.5021 54.208 11.881 54.0211 12.0704C53.975 12.1165 52.3469 14.0595 51.9757 15.9514C51.927 16.2355 51.6941 16.3789 51.4611 16.3789Z" fill="url(#paint8_linear_237_47)"/>
</g>
<path opacity="0.2" d="M28.5004 55.7158C29.2198 55.7158 29.8009 55.1219 29.8009 54.3897C29.8009 53.6576 29.2172 53.0637 28.5004 53.0637C27.7811 53.0637 27.2 53.6576 27.2 54.3897C27.2 55.1219 27.7811 55.7158 28.5004 55.7158Z" fill="white"/>
<g opacity="0.4">
<path opacity="0.6" d="M27.7556 55.2448C27.2436 54.7251 27.2436 53.8726 27.7556 53.3504C27.8477 53.2557 27.9425 53.2096 28.0346 53.1149C27.8477 53.1635 27.7095 53.2557 27.5687 53.399C27.0567 53.9187 27.0567 54.7712 27.5687 55.2934C27.986 55.7184 28.6388 55.8131 29.1482 55.5289C28.6849 55.7184 28.1268 55.6237 27.7556 55.2448Z" fill="url(#paint9_linear_237_47)"/>
</g>
<path opacity="0.3" d="M28.9639 54.0109C29.1175 54.0109 29.2429 53.8829 29.2429 53.7267C29.2429 53.5706 29.1175 53.4426 28.9639 53.4426C28.8103 53.4426 28.6848 53.5706 28.6848 53.7267C28.6848 53.8854 28.8077 54.0109 28.9639 54.0109Z" fill="white"/>
<path opacity="0.2" d="M35.2871 55.0528C36.0064 55.0528 36.5875 54.4589 36.5875 53.7267C36.5875 52.9946 36.0039 52.4006 35.2871 52.4006C34.5677 52.4006 33.9866 52.9946 33.9866 53.7267C33.9866 54.4589 34.5703 55.0528 35.2871 55.0528Z" fill="white"/>
<g opacity="0.4">
<path opacity="0.6" d="M34.5421 54.5818C34.0301 54.0621 34.0301 53.2096 34.5421 52.6874C34.6342 52.5926 34.729 52.5466 34.8211 52.4518C34.6342 52.5005 34.496 52.5926 34.3552 52.736C33.8432 53.2557 33.8432 54.1082 34.3552 54.6304C34.7725 55.0554 35.4253 55.1501 35.9347 54.8659C35.4714 55.0554 34.9133 54.9606 34.5421 54.5818Z" fill="url(#paint10_linear_237_47)"/>
</g>
<path opacity="0.3" d="M35.7504 53.3504C35.904 53.3504 36.0294 53.2224 36.0294 53.0663C36.0294 52.9101 35.904 52.7821 35.7504 52.7821C35.5968 52.7821 35.4713 52.9101 35.4713 53.0663C35.4713 53.2224 35.5968 53.3504 35.7504 53.3504Z" fill="white"/>
<path opacity="0.2" d="M31.9386 58.1299C32.4788 58.1299 32.914 57.6845 32.914 57.1366C32.914 56.5888 32.4762 56.1434 31.9386 56.1434C31.3985 56.1434 30.9633 56.5888 30.9633 57.1366C30.9633 57.6845 31.3985 58.1299 31.9386 58.1299Z" fill="white"/>
<g opacity="0.4">
<path opacity="0.6" d="M31.3805 57.7536C31.0093 57.3747 31.0093 56.7117 31.3805 56.3328C31.4266 56.2842 31.5187 56.2381 31.5674 56.1895C31.4291 56.2381 31.3344 56.3328 31.2423 56.425C30.8711 56.8039 30.8711 57.4669 31.2423 57.8458C31.5674 58.176 32.0333 58.2247 32.4506 57.9891C32.0768 58.1325 31.6595 58.0378 31.3805 57.7536Z" fill="url(#paint11_linear_237_47)"/>
</g>
<path opacity="0.3" d="M32.2637 56.8039C32.3661 56.8039 32.4505 56.7194 32.4505 56.6144C32.4505 56.5095 32.3661 56.425 32.2637 56.425C32.1613 56.425 32.0768 56.5095 32.0768 56.6144C32.0768 56.7194 32.1613 56.8039 32.2637 56.8039Z" fill="white"/>
<path opacity="0.2" d="M37.9341 57.4208C38.4743 57.4208 38.9095 56.9754 38.9095 56.4275C38.9095 55.8797 38.4717 55.4343 37.9341 55.4343C37.3965 55.4343 36.9587 55.8797 36.9587 56.4275C36.9587 56.9754 37.3965 57.4208 37.9341 57.4208Z" fill="white"/>
<g opacity="0.4">
<path opacity="0.6" d="M37.3786 57.0419C37.0074 56.6631 37.0074 56 37.3786 55.6211C37.4246 55.5725 37.5168 55.5264 37.5654 55.4803C37.4272 55.529 37.3325 55.6211 37.2403 55.7159C36.8691 56.0947 36.8691 56.7578 37.2403 57.1367C37.5654 57.4669 38.0314 57.5155 38.4486 57.2775C38.0749 57.4208 37.6576 57.3261 37.3786 57.0419Z" fill="url(#paint12_linear_237_47)"/>
</g>
<path opacity="0.3" d="M38.2591 56.0947C38.3615 56.0947 38.446 56.0102 38.446 55.9053C38.446 55.8003 38.3615 55.7158 38.2591 55.7158C38.1567 55.7158 38.0723 55.8003 38.0723 55.9053C38.0748 56.0102 38.1567 56.0947 38.2591 56.0947Z" fill="white"/>
<path opacity="0.2" d="M22.9657 55.2423C24.1459 55.2423 25.1033 54.2669 25.1033 53.0637C25.1033 51.8605 24.1459 50.8851 22.9657 50.8851C21.7856 50.8851 20.8281 51.8605 20.8281 53.0637C20.8281 54.2669 21.7856 55.2423 22.9657 55.2423Z" fill="white"/>
<g opacity="0.4">
<path opacity="0.6" d="M21.76 54.4384C20.9229 53.5859 20.9229 52.2138 21.76 51.3613C21.8983 51.2205 22.0391 51.1258 22.226 51.0311C21.9469 51.1258 21.7139 51.3152 21.481 51.5047C20.6439 52.3571 20.6439 53.7293 21.481 54.5818C22.1773 55.2909 23.2474 55.4343 24.0845 54.912C23.2935 55.2423 22.3642 55.1015 21.76 54.4384Z" fill="url(#paint13_linear_237_47)"/>
</g>
<path opacity="0.3" d="M23.7107 52.4032C23.9667 52.4032 24.1766 52.1907 24.1766 51.9296C24.1766 51.6685 23.9692 51.456 23.7107 51.456C23.4547 51.456 23.2448 51.6685 23.2448 51.9296C23.2448 52.1907 23.4521 52.4032 23.7107 52.4032Z" fill="white"/>
<path opacity="0.2" d="M42.0736 49.8944C43.2538 49.8944 44.2112 48.9191 44.2112 47.7159C44.2112 46.5127 43.2538 45.5373 42.0736 45.5373C40.8935 45.5373 39.936 46.5127 39.936 47.7159C39.936 48.9191 40.8909 49.8944 42.0736 49.8944Z" fill="white"/>
<g opacity="0.4">
<path opacity="0.6" d="M40.8167 49.088C39.9796 48.2355 39.9796 46.8634 40.8167 46.0109C40.9549 45.8675 41.0957 45.7754 41.2826 45.6807C41.0035 45.7754 40.7706 45.9648 40.5376 46.1543C39.7005 47.0067 39.7005 48.3789 40.5376 49.2314C41.234 49.9405 42.304 50.0839 43.1411 49.5616C42.3501 49.8944 41.4669 49.7511 40.8167 49.088Z" fill="url(#paint14_linear_237_47)"/>
</g>
<path opacity="0.3" d="M42.816 47.0528C43.072 47.0528 43.2819 46.8403 43.2819 46.5792C43.2819 46.3181 43.0746 46.1056 42.816 46.1056C42.56 46.1056 42.3501 46.3181 42.3501 46.5792C42.3501 46.8403 42.5575 47.0528 42.816 47.0528Z" fill="white"/>
<defs>
<radialGradient id="paint0_radial_237_47" cx="0" cy="0" r="1" gradientUnits="userSpaceOnUse" gradientTransform="translate(58.9824 8.71124) scale(20.7767 21.1571)">
<stop stop-color="#FBEAF3" stop-opacity="0.6"/>
<stop offset="0.6807" stop-color="#A087BF"/>
<stop offset="1" stop-color="#17102E"/>
</radialGradient>
<radialGradient id="paint1_radial_237_47" cx="0" cy="0" r="1" gradientUnits="userSpaceOnUse" gradientTransform="translate(47.4233 17.7312) scale(50.8328 51.7638)">
<stop stop-color="#FBEAF3" stop-opacity="0.6"/>
<stop offset="0.6807" stop-color="#A087BF"/>
<stop offset="1" stop-color="#17102E"/>
</radialGradient>
<linearGradient id="paint2_linear_237_47" x1="25.91" y1="62.0761" x2="34.5261" y2="9.87653" gradientUnits="userSpaceOnUse">
<stop stop-color="#9AD9E5"/>
<stop offset="0.6202" stop-color="white" stop-opacity="0"/>
</linearGradient>
<linearGradient id="paint3_linear_237_47" x1="48.7678" y1="18.2685" x2="26.9242" y2="37.9502" gradientUnits="userSpaceOnUse">
<stop offset="0.2888" stop-color="white"/>
<stop offset="0.7796" stop-color="white" stop-opacity="0"/>
</linearGradient>
<linearGradient id="paint4_linear_237_47" x1="5.48773" y1="48.3075" x2="54.9022" y2="48.3075" gradientUnits="userSpaceOnUse">
<stop stop-color="#384EA2"/>
<stop offset="0.9952" stop-color="#D54799"/>
</linearGradient>
<linearGradient id="paint5_linear_237_47" x1="57.3651" y1="38.0935" x2="30.0271" y2="63.4647" gradientUnits="userSpaceOnUse">
<stop offset="0.2888" stop-color="white"/>
<stop offset="0.7796" stop-color="white" stop-opacity="0"/>
</linearGradient>
<linearGradient id="paint6_linear_237_47" x1="5.48773" y1="48.3075" x2="31.8917" y2="48.3075" gradientUnits="userSpaceOnUse">
<stop stop-color="#2B2F82"/>
<stop offset="0.9952" stop-color="#72439A"/>
</linearGradient>
<linearGradient id="paint7_linear_237_47" x1="5.54179" y1="38.0491" x2="54.857" y2="38.0491" gradientUnits="userSpaceOnUse">
<stop stop-color="#2B2F82"/>
<stop offset="0.9952" stop-color="#A14298"/>
</linearGradient>
<linearGradient id="paint8_linear_237_47" x1="54.1127" y1="11.1709" x2="50.4743" y2="16.977" gradientUnits="userSpaceOnUse">
<stop offset="0.2888" stop-color="white"/>
<stop offset="0.7796" stop-color="white" stop-opacity="0"/>
</linearGradient>
<linearGradient id="paint9_linear_237_47" x1="27.185" y1="54.4022" x2="29.1518" y2="54.4022" gradientUnits="userSpaceOnUse">
<stop offset="0.2888" stop-color="white"/>
<stop offset="0.7796" stop-color="white" stop-opacity="0"/>
</linearGradient>
<linearGradient id="paint10_linear_237_47" x1="33.9658" y1="53.7393" x2="35.9326" y2="53.7393" gradientUnits="userSpaceOnUse">
<stop offset="0.2888" stop-color="white"/>
<stop offset="0.7796" stop-color="white" stop-opacity="0"/>
</linearGradient>
<linearGradient id="paint11_linear_237_47" x1="30.9558" y1="57.164" x2="32.4324" y2="57.164" gradientUnits="userSpaceOnUse">
<stop offset="0.2888" stop-color="white"/>
<stop offset="0.7796" stop-color="white" stop-opacity="0"/>
</linearGradient>
<linearGradient id="paint12_linear_237_47" x1="36.9329" y1="56.454" x2="38.4093" y2="56.454" gradientUnits="userSpaceOnUse">
<stop offset="0.2888" stop-color="white"/>
<stop offset="0.7796" stop-color="white" stop-opacity="0"/>
</linearGradient>
<linearGradient id="paint13_linear_237_47" x1="20.8311" y1="53.1271" x2="24.0429" y2="53.1271" gradientUnits="userSpaceOnUse">
<stop offset="0.2888" stop-color="white"/>
<stop offset="0.7796" stop-color="white" stop-opacity="0"/>
</linearGradient>
<linearGradient id="paint14_linear_237_47" x1="39.9067" y1="47.7778" x2="43.1187" y2="47.7778" gradientUnits="userSpaceOnUse">
<stop offset="0.2888" stop-color="white"/>
<stop offset="0.7796" stop-color="white" stop-opacity="0"/>
</linearGradient>
</defs>
</svg>
