<svg width="63" height="64" viewBox="0 0 63 64" fill="none" xmlns="http://www.w3.org/2000/svg">
<g clip-path="url(#clip0_231_1517)">
<path fill-rule="evenodd" clip-rule="evenodd" d="M11.3281 10C10.3344 4.8 14.3091 0 19.4763 0C24.0473 0 27.8233 3.8 27.8233 8.4V18.8C29.0158 18.8 30.2082 18.6 31.4006 18.6C32.5931 18.6 33.5868 18.6 34.7792 18.8V8.4C34.7792 3.8 38.5552 0 43.1262 0C48.2934 0 52.2681 4.8 51.4732 10L49.2871 22.2C57.0379 25.6 63 31.6 63 39V43.6C63 49.8 59.0252 55 53.2618 58.4C47.4984 62 39.9464 64 31.4006 64C22.8549 64 15.3028 62 9.53943 58.4C3.97476 55 0 49.8 0 43.6V39C0 31.6 5.76341 25.6 13.5142 22.2L11.3281 10ZM46.306 23.8L48.8896 9.4C49.4858 5.8 46.9022 2.4 43.1262 2.4C39.9464 2.4 37.3628 5 37.3628 8.2V21.4C36.5678 21.2 35.5741 21.2 34.7792 21.2C33.5868 21.2 32.5931 21 31.4006 21C30.2082 21 29.0158 21 27.8233 21.2C27.0284 21.2 26.0347 21.4 25.2397 21.4V8.4C25.2397 5.2 22.6562 2.6 19.4763 2.6C15.8991 2.6 13.1167 6 13.9117 9.6L16.4953 24C8.14827 27.2 2.5836 32.8 2.5836 39.2V43.8C2.5836 53.6 15.5016 61.6 31.4006 61.6C47.2997 61.6 60.2177 53.6 60.2177 43.8V39.2C60.4164 32.6 54.8517 27 46.306 23.8Z" fill="#633001"/>
<path d="M60.4164 43.6C60.4164 53.4 47.4984 61.4 31.5994 61.4C15.7003 61.4 2.78235 53.4 2.78235 43.6V39H60.6152V43.6H60.4164Z" fill="#FEDC90"/>
<path fill-rule="evenodd" clip-rule="evenodd" d="M13.9117 9.60001C13.1167 6.00001 15.8991 2.60001 19.4764 2.60001C22.6562 2.60001 25.2398 5.20001 25.2398 8.40001V21.6C27.2271 21.4 29.2145 21.2 31.4006 21.2C33.388 21.2 35.3754 21.4 37.3628 21.6V8.40001C37.3628 5.20001 39.9464 2.60001 43.1262 2.60001C46.7035 2.60001 49.4858 6.00001 48.8896 9.60001L46.306 24C54.653 27.2 60.4164 32.8 60.4164 39.2C60.4164 49 47.4984 57 31.5994 57C15.7003 57 2.78235 49 2.78235 39.2C2.78235 32.8 8.34702 27.2 16.694 24L13.9117 9.60001Z" fill="#D1884F"/>
<path d="M23.4511 37.8C23.4511 40.4 22.0599 42.6 20.2712 42.6C18.4826 42.6 17.0914 40.4 17.0914 37.8C17.0914 35.2 18.4826 33 20.2712 33C22.0599 33 23.4511 35.2 23.4511 37.8Z" fill="#633001"/>
<path d="M45.511 37.8C45.511 40.4 44.1198 42.6 42.3312 42.6C40.5425 42.6 39.1514 40.4 39.1514 37.8C39.1514 35.2 40.5425 33 42.3312 33C44.1198 33 45.511 35.2 45.511 37.8Z" fill="#633001"/>
</g>
<defs>
<clipPath id="clip0_231_1517">
<rect width="63" height="64" fill="white"/>
</clipPath>
</defs>
</svg>
