<svg width="64" height="64" viewBox="0 0 64 64" fill="none" xmlns="http://www.w3.org/2000/svg">
<g clip-path="url(#clip0_235_35)">
<path d="M32.5001 0C46.5833 0 58.0001 11.4615 58.0001 25.6C58.0001 38.8901 47.913 49.8139 35.0063 51.0775C35.081 50.1595 35.0646 49.2361 34.9608 48.32C34.2195 41.8176 29.114 36.6848 22.6388 35.9333V2.02057L22.6261 1.99131C25.6624 0.709486 28.9993 0 32.5001 0Z" fill="#DEDEDE"/>
<path d="M19.4495 35.9296V3.6297L19.4367 3.60959C20.4604 2.99519 21.5259 2.45393 22.6242 1.9913L22.637 2.02056V35.9332C29.1122 36.6848 34.2194 41.8176 34.9589 48.32C35.0646 49.2361 35.0792 50.1595 35.0045 51.0775C34.1812 51.1579 33.3452 51.1982 32.5 51.2C23.6479 51.2 15.8485 46.6724 11.2767 39.797C13.4934 37.6393 16.3622 36.2788 19.4313 35.9314H19.4495V35.9296Z" fill="#152E51"/>
<path d="M35.0063 51.0775C34.4744 57.642 29.3854 63.1314 22.6206 63.9085C14.925 64.7917 7.97265 59.2457 7.0929 51.52C6.57744 46.9997 8.25498 42.7337 11.2785 39.797C15.8503 46.6724 23.6497 51.2 32.5018 51.2C33.347 51.1981 34.1812 51.1579 35.0063 51.0775Z" fill="#1E4480"/>
<path d="M19.4495 3.6297V35.9296H19.4313C16.3622 36.277 13.4952 37.6356 11.2767 39.7952C8.57555 35.7321 7.00183 30.8516 7.00183 25.6C7.00183 16.256 11.9889 8.07862 19.4385 3.60959L19.4495 3.6297Z" fill="#DEDEDE"/>
</g>
<defs>
<clipPath id="clip0_235_35">
<rect width="51" height="64" fill="white" transform="translate(7)"/>
</clipPath>
</defs>
</svg>
