<svg width="64" height="64" viewBox="0 0 64 64" fill="none" xmlns="http://www.w3.org/2000/svg">
<path d="M43.9213 6.58845C43.9213 10.2222 38.7941 13.1769 32.4824 13.1769C26.1743 13.1769 21.0472 10.2222 21.0472 6.58845C21.0472 2.95467 26.1959 0 32.4824 0C38.7761 0 43.9213 2.95467 43.9213 6.58845ZM43.9213 57.4116C43.9213 61.0453 38.7941 64 32.4824 64C26.1743 64 21.0472 61.0453 21.0472 57.4116C21.0472 53.7778 26.1959 50.8231 32.4824 50.8231C38.7761 50.8231 43.9213 53.7778 43.9213 57.4116ZM15.9957 22.8693C19.2362 17.3582 19.2542 11.3849 16.0713 9.58222C12.8668 7.75467 7.6821 10.7662 4.44164 16.2809C1.20118 21.7991 1.20118 27.7653 4.36963 29.5716C7.57049 31.3778 12.7552 28.384 15.9957 22.8693ZM60.5629 34.4107C63.7637 36.1991 63.7457 42.0516 60.5233 47.4738C57.2828 52.8924 52.08 55.8293 48.8936 54.0409C45.6747 52.2524 45.6927 46.3964 48.9152 40.9778C52.1557 35.5591 57.3584 32.6222 60.5629 34.4107ZM16.0893 54.08C19.2938 52.2916 19.2758 46.4356 16.0353 41.0169C12.8128 35.5947 7.61009 32.6613 4.40564 34.4462C1.18318 36.2524 1.20118 42.0907 4.44164 47.5093C7.6641 52.9316 12.8668 55.8862 16.0713 54.0978L16.0893 54.08ZM60.5629 16.3022C63.8033 21.8133 63.8033 27.7653 60.6169 29.5716C57.434 31.3991 52.2313 28.4053 48.9908 22.8693C45.7863 17.3582 45.7503 11.4062 48.9332 9.6C52.1377 7.77244 57.3224 10.7662 60.5629 16.3022Z" fill="#E6007A"/>
</svg>
