<svg width="64" height="64" viewBox="0 0 64 64" fill="none" xmlns="http://www.w3.org/2000/svg">
<g clip-path="url(#clip0_142_422)">
<path d="M32 64C49.6732 64 64 49.6732 64 32C64 14.3269 49.6732 0 32 0C14.3269 0 0 14.3269 0 32C0 49.6732 14.3269 64 32 64Z" fill="#6C00F6"/>
<path d="M27.0112 26.2311L23.2584 24.0621L12 30.5689V43.5379L23.2584 50.0224L34.5169 43.5379V23.3689L40.764 19.7689L47.0112 23.3689V30.5689L40.764 34.1689L37.0112 32V37.7689L40.764 39.9379L52.0225 33.4534V20.4845L40.764 14L29.5056 20.4845V40.6534L23.2584 44.2534L17.0112 40.6534V33.4311L23.2584 29.8311L27.0112 32V26.2311Z" fill="white"/>
</g>
<defs>
<clipPath id="clip0_142_422">
<rect width="64" height="64" fill="white"/>
</clipPath>
</defs>
</svg>
