<svg width="64" height="64" viewBox="0 0 64 64" fill="none" xmlns="http://www.w3.org/2000/svg">
<rect width="64" height="64" rx="32" fill="#E9F7FA"/>
<g clip-path="url(#clip0_281_170)">
<path d="M34.6105 12.8C34.7789 12.9684 34.7789 12.9684 34.8079 13.2346C34.774 13.6126 34.6639 13.8564 34.4842 14.1842C34.4561 14.2378 34.428 14.2914 34.399 14.3466C34.3302 14.4772 34.26 14.6071 34.1895 14.7369C34.2634 14.7412 34.2634 14.7412 34.3389 14.7456C37.0788 14.9164 40.5436 15.3213 42.6105 17.3474C42.7312 17.4571 42.7312 17.4571 42.8543 17.5691C43.5113 18.18 43.9993 18.8567 44.4631 19.6211C44.4967 19.6749 44.5303 19.7288 44.5648 19.7843C45.549 21.3725 45.9761 23.0485 45.9914 24.9086C46.0033 26.068 46.1322 26.8111 46.7368 27.7895C47.5963 29.6265 47.6022 31.6449 46.9184 33.5408C46.5357 34.4355 45.922 35.2069 45.221 35.8737C45.3357 36.1321 45.4636 36.3025 45.6681 36.4967C45.7514 36.5772 45.7514 36.5772 45.8363 36.6593C45.8956 36.7162 45.9548 36.773 46.0158 36.8316C47.3155 38.1076 48.2305 39.538 49.0105 41.179C49.0401 41.2405 49.0698 41.3019 49.1003 41.3653C50.6794 44.662 51.2 47.4791 51.2 51.2C38.528 51.2 25.856 51.2 12.8 51.2C12.8 47.0674 12.8 47.0674 13.2263 45.4263C13.2518 45.3269 13.2772 45.2274 13.3035 45.1249C13.703 43.6123 14.215 42.1219 14.9895 40.7579C15.0226 40.6993 15.0558 40.6407 15.09 40.5804C15.5641 39.7537 16.095 38.9813 16.6671 38.2196C17.6649 36.9961 17.6649 36.9961 18.0576 35.5375C17.9329 34.6725 17.4322 33.8427 17.056 33.063C15.6494 30.11 14.8457 26.869 15.8812 23.6523C15.9204 23.5435 15.96 23.4349 16 23.3263C16.0277 23.2498 16.0554 23.1733 16.0839 23.0945C16.7046 21.4027 17.4215 20.0546 18.6947 18.779C18.7405 18.7316 18.7862 18.6843 18.8333 18.6355C21.3474 16.0576 25.3851 14.6533 28.9358 14.5464C30.2331 14.5037 31.0524 14.2355 32.1313 13.5158C32.8961 13.0458 33.7064 12.7377 34.6105 12.8Z" fill="#FEFEFE"/>
<path d="M34.6105 12.8C34.7789 12.9684 34.7789 12.9684 34.8079 13.2346C34.774 13.6126 34.6639 13.8564 34.4842 14.1842C34.4561 14.2378 34.428 14.2914 34.399 14.3466C34.3302 14.4772 34.26 14.6071 34.1895 14.7369C34.2634 14.7412 34.2634 14.7412 34.3389 14.7456C37.0788 14.9164 40.5436 15.3213 42.6105 17.3474C42.7312 17.4571 42.7312 17.4571 42.8543 17.5691C43.5113 18.18 43.9993 18.8567 44.4632 19.6211C44.4967 19.6749 44.5303 19.7288 44.5648 19.7843C45.549 21.3725 45.9761 23.0485 45.9914 24.9086C46.0033 26.068 46.1322 26.8111 46.7368 27.7895C47.5963 29.6265 47.6022 31.6449 46.9184 33.5408C46.5357 34.4355 45.922 35.2069 45.221 35.8737C45.3357 36.1321 45.4636 36.3025 45.6681 36.4967C45.7514 36.5772 45.7514 36.5772 45.8363 36.6593C45.8956 36.7162 45.9548 36.773 46.0158 36.8316C47.3155 38.1076 48.2305 39.538 49.0105 41.179C49.0401 41.2405 49.0698 41.3019 49.1003 41.3653C50.3778 44.0322 51.2411 46.7498 51.2105 49.7158C51.2097 49.8605 51.2089 50.0053 51.2082 50.15C51.2064 50.5 51.2035 50.85 51.2 51.2C51.0055 51.2 50.8109 51.2 50.6105 51.2C50.6072 51.1417 50.6038 51.0834 50.6004 51.0234C50.355 46.9065 49.318 42.8209 46.9053 39.4105C46.8676 39.3566 46.83 39.3026 46.7912 39.247C46.2952 38.5387 45.7599 37.873 45.1898 37.223C45.1523 37.1795 45.1147 37.1359 45.076 37.0911C44.9772 36.9785 44.8741 36.8696 44.7707 36.7612C44.5818 36.4709 44.5825 36.2982 44.6316 35.9579C44.7796 35.7273 44.7796 35.7273 44.9789 35.5105C46.1803 34.13 46.6752 32.3796 46.6056 30.5645C46.5292 29.4766 46.1275 28.5317 45.6257 27.578C45.2499 26.8516 45.1332 26.2319 45.2635 25.4198C45.4096 24.2829 45.5327 22.6823 44.8684 21.7053C44.7628 21.5708 44.6558 21.4375 44.5474 21.3053C44.4992 21.2384 44.451 21.1715 44.4013 21.1027C43.7447 20.199 42.8478 19.7149 41.7684 19.4527C40.5461 19.3509 39.659 19.6038 38.6526 20.2948C38.4916 20.4345 38.3468 20.5787 38.2026 20.7355C37.997 20.9547 37.7689 21.1456 37.5408 21.3408C37.3887 21.4702 37.3887 21.4702 37.2592 21.6119C37.0414 21.8156 36.7674 21.8517 36.4762 21.8467C36.0581 21.7635 35.6998 21.4949 35.3421 21.2737C35.16 21.1647 34.9779 21.0559 34.7957 20.9471C34.6217 20.842 34.4477 20.7368 34.2737 20.6316C32.7909 19.7372 31.2013 19.0211 29.4737 18.779C29.3304 18.7562 29.3304 18.7562 29.1842 18.7329C27.3882 18.5045 25.5759 18.9204 24.0842 19.9579C22.5412 21.2055 21.5927 22.7512 21.1368 24.6737C21.1162 24.754 21.0956 24.8344 21.0743 24.9171C20.8128 26.1426 20.8344 27.6097 21.221 28.8C21.2616 28.9361 21.302 29.0722 21.3424 29.2082C21.6471 30.203 22.0371 31.1062 22.5684 32C22.6123 32.0743 22.6123 32.0743 22.6571 32.15C23.2933 33.2107 24.0592 34.1897 24.8046 35.1747C26.7017 37.6951 28.3474 40.4166 27.9158 43.6875C27.6881 44.7509 27.2185 45.7251 26.7105 46.679C26.6575 46.7798 26.6046 46.8806 26.5517 46.9815C26.4487 47.1782 26.3454 47.3747 26.242 47.5712C25.6173 48.7608 25.0659 49.9768 24.5053 51.2C20.6425 51.2 16.7798 51.2 12.8 51.2C12.8 47.0674 12.8 47.0674 13.2263 45.4263C13.2518 45.3269 13.2772 45.2274 13.3035 45.1249C13.703 43.6123 14.215 42.1219 14.9895 40.7579C15.0226 40.6993 15.0558 40.6407 15.09 40.5804C15.5641 39.7537 16.095 38.9813 16.6671 38.2196C17.6649 36.9961 17.6649 36.9961 18.0576 35.5375C17.9329 34.6725 17.4322 33.8427 17.056 33.063C15.6494 30.11 14.8457 26.869 15.8812 23.6523C15.9204 23.5435 15.96 23.4349 16 23.3263C16.0277 23.2498 16.0554 23.1733 16.0839 23.0945C16.7046 21.4027 17.4215 20.0546 18.6947 18.779C18.7405 18.7316 18.7862 18.6843 18.8333 18.6355C21.3474 16.0576 25.3851 14.6533 28.9358 14.5464C30.2331 14.5037 31.0524 14.2355 32.1313 13.5158C32.8961 13.0458 33.7064 12.7377 34.6105 12.8Z" fill="#8CB3FE"/>
<path d="M34.6105 12.8C34.7789 12.9684 34.7789 12.9684 34.8079 13.2345C34.774 13.6126 34.6639 13.8563 34.4842 14.1842C34.4561 14.2378 34.428 14.2913 34.399 14.3465C34.3302 14.4772 34.26 14.6071 34.1895 14.7368C34.2634 14.7412 34.2634 14.7412 34.3389 14.7456C37.0787 14.9164 40.5435 15.3212 42.6105 17.3474C42.7312 17.4571 42.7312 17.4571 42.8543 17.5691C43.5112 18.18 43.9993 18.8567 44.4631 19.621C44.4967 19.6749 44.5302 19.7288 44.5648 19.7842C45.5489 21.3725 45.9761 23.0484 45.9914 24.9086C46.0033 26.068 46.1322 26.8111 46.7368 27.7895C47.5963 29.6264 47.6022 31.6449 46.9184 33.5408C46.5357 34.4355 45.922 35.2069 45.221 35.8737C45.3357 36.1321 45.4636 36.3025 45.6681 36.4967C45.7514 36.5772 45.7514 36.5772 45.8363 36.6593C45.8955 36.7161 45.9548 36.773 46.0158 36.8316C47.3155 38.1076 48.2305 39.5379 49.0105 41.1789C49.0401 41.2404 49.0697 41.3019 49.1003 41.3652C50.3778 44.0322 51.2411 46.7498 51.2105 49.7158C51.2097 49.8605 51.2089 50.0053 51.2082 50.15C51.2064 50.5 51.2035 50.85 51.2 51.2C51.0055 51.2 50.8109 51.2 50.6105 51.2C50.6072 51.1417 50.6038 51.0834 50.6004 51.0233C50.355 46.9065 49.318 42.8209 46.9052 39.4105C46.8676 39.3566 46.83 39.3026 46.7912 39.247C46.2951 38.5386 45.7599 37.873 45.1898 37.223C45.1522 37.1795 45.1147 37.1359 45.076 37.091C44.9772 36.9784 44.8741 36.8696 44.7707 36.7612C44.5818 36.4709 44.5825 36.2982 44.6316 35.9579C44.7796 35.7273 44.7796 35.7273 44.9789 35.5105C46.1803 34.13 46.6752 32.3795 46.6056 30.5645C46.5292 29.4765 46.1275 28.5317 45.6256 27.578C45.2494 26.8508 45.1342 26.2318 45.2631 25.4187C45.4167 24.237 45.3351 23.0485 45.0526 21.8947C45.0311 21.7876 45.0311 21.7876 45.0092 21.6783C44.7364 20.5286 43.9353 19.4268 43.2 18.5263C43.133 18.4413 43.066 18.3563 42.997 18.2687C41.4285 16.4873 38.5031 15.9269 36.2947 15.4947C36.2895 15.5434 36.2843 15.592 36.2789 15.6421C36.1372 16.0345 35.7155 16.2227 35.3684 16.421C35.407 16.4577 35.4457 16.4944 35.4855 16.5322C35.8012 16.8386 36.0902 17.1239 36.2947 17.5158C36.2895 17.7474 36.2895 17.7474 36.2105 17.9368C35.9422 18.1157 35.8547 18.1266 35.5467 18.0737C35.1848 17.9669 34.8563 17.78 34.5263 17.6C34.5541 17.4888 34.5819 17.3777 34.6105 17.2631C34.8606 17.2909 35.1107 17.3187 35.3684 17.3474C35.3207 17.2975 35.2731 17.2477 35.224 17.1964C35.1622 17.1298 35.1005 17.0633 35.0368 16.9947C34.9753 16.9293 34.9137 16.8638 34.8503 16.7964C34.6864 16.5784 34.6405 16.4363 34.6105 16.1684C34.8956 15.924 35.0934 15.8068 35.4526 15.6631C34.2855 15.6215 34.2855 15.6215 33.0947 15.5789C33.0947 15.1056 33.0947 15.1056 33.273 14.8368C33.3102 14.7793 33.3475 14.7218 33.3858 14.6625C33.4252 14.6037 33.4646 14.5448 33.5052 14.4842C33.8533 13.9622 33.8533 13.9622 34.1052 13.3895C33.9064 13.4778 33.7083 13.5673 33.5105 13.6579C33.4466 13.6868 33.3827 13.7158 33.3169 13.7456C32.9361 13.9232 32.58 14.1171 32.2273 14.3457C31.0467 15.1003 30.1295 15.2809 28.7412 15.3141C25.215 15.4695 21.6383 16.9176 19.1158 19.3684C19.0542 19.4278 18.9927 19.4872 18.9293 19.5483C17.7973 20.7251 17.1052 22.5372 16.6737 24.0842C16.657 24.1436 16.6404 24.2029 16.6232 24.2641C16.1601 25.9961 16.1635 27.9024 16.5894 29.6421C16.6057 29.7179 16.622 29.7936 16.6388 29.8717C16.9729 31.2734 17.6158 32.5965 18.2845 33.8645C18.7215 34.6999 19.0584 35.3835 18.8062 36.3428C18.5065 37.1852 17.9364 37.8998 17.4158 38.6158C14.9547 42.0015 13.7309 45.3892 13.5865 49.5852C13.5679 50.1258 13.5279 50.6618 13.4737 51.2C13.2513 51.2 13.029 51.2 12.8 51.2C12.7957 50.784 12.7927 50.368 12.7907 49.952C12.7899 49.8113 12.7888 49.6705 12.7873 49.5298C12.7729 48.1288 12.8728 46.787 13.2263 45.4263C13.2518 45.3268 13.2772 45.2274 13.3034 45.1249C13.703 43.6123 14.215 42.1218 14.9894 40.7579C15.0226 40.6993 15.0558 40.6407 15.0899 40.5803C15.5641 39.7536 16.095 38.9813 16.667 38.2196C17.6649 36.9961 17.6649 36.9961 18.0575 35.5375C17.9328 34.6725 17.4322 33.8427 17.056 33.0629C15.6494 30.11 14.8457 26.869 15.8812 23.6523C15.9203 23.5435 15.96 23.4348 16 23.3263C16.0277 23.2498 16.0554 23.1733 16.0839 23.0944C16.7045 21.4027 17.4215 20.0546 18.6947 18.7789C18.7404 18.7316 18.7862 18.6843 18.8333 18.6355C21.3473 16.0576 25.3851 14.6532 28.9358 14.5464C30.2331 14.5037 31.0524 14.2355 32.1312 13.5158C32.896 13.0458 33.7064 12.7376 34.6105 12.8Z" fill="#010203"/>
<path d="M44.6316 36.0421C44.6493 36.1422 44.667 36.2423 44.6852 36.3454C44.7881 36.7538 44.9919 36.9666 45.2895 37.2526C45.9394 37.9162 46.4691 38.643 46.9895 39.4105C47.0328 39.474 47.0761 39.5375 47.1208 39.603C49.4041 42.9827 50.6558 47.1239 50.6105 51.2C49.9436 51.2 49.2766 51.2 48.5895 51.2C48.5426 50.8804 48.4957 50.5609 48.4474 50.2316C47.9644 47.0593 47.241 43.6444 45.4763 40.9082C45.3895 40.7579 45.3895 40.7579 45.3895 40.5895C45.3415 40.5843 45.2935 40.5791 45.2441 40.5737C44.6174 40.3497 44.1318 39.374 43.7895 38.8211C43.7374 38.7429 43.6853 38.6647 43.6316 38.5842C43.459 38.0953 43.4191 37.5712 43.6326 37.0892C44.3076 36.0421 44.3076 36.0421 44.6316 36.0421Z" fill="#8BB1FB"/>
<path d="M30.6516 24.2796C31.1148 24.6427 31.3805 25.1076 31.4947 25.6842C31.5547 26.3544 31.5176 26.9544 31.1579 27.5369C30.7187 28.0418 30.2394 28.3338 29.5737 28.4211C28.9669 28.3928 28.4506 28.0689 28.0474 27.6316C27.4996 26.9327 27.4407 26.3138 27.5368 25.4316C27.7163 24.8042 28.0963 24.3628 28.6316 24C29.367 23.6548 30.0073 23.8517 30.6516 24.2796Z" fill="#060606"/>
<path d="M43.0368 24C43.5133 24.3244 43.9141 24.7621 44.0895 25.3201C44.2313 26.0736 44.1738 26.7828 43.7895 27.4526C43.4709 27.8466 43.1242 28.0809 42.621 28.1684C42.1334 28.0904 41.798 27.814 41.4473 27.4789C41.0059 26.8105 40.9081 26.0517 41.0105 25.2631C41.1878 24.7055 41.4578 24.33 41.9368 24C42.2876 23.8246 42.6774 23.8826 43.0368 24Z" fill="#080808"/>
<path d="M38.9052 28.1263C39.3144 28.4125 39.3144 28.4125 39.3894 28.7316C39.2686 29.346 38.7848 29.8271 38.3056 30.2131C37.845 30.5118 37.2595 30.6789 36.7158 30.5684C35.9468 30.3061 35.0427 29.9548 34.6105 29.221C34.5697 28.9691 34.5697 28.9691 34.6105 28.7158C35.7 27.5104 37.5329 27.4 38.9052 28.1263Z" fill="#F2AB40"/>
<path d="M44.8842 39.4948C46.1699 40.0038 47.0539 42.52 47.5608 43.6819C47.8227 44.2978 48.052 44.9195 48.2526 45.5579C48.273 45.6219 48.2933 45.6859 48.3143 45.7518C48.8094 47.33 49.3754 49.1505 49.3526 50.8158C49.3518 50.8886 49.3511 50.9615 49.3503 51.0365C49.3493 51.0905 49.3483 51.1444 49.3473 51.2C49.0972 51.2 48.8471 51.2 48.5894 51.2C48.5814 51.1443 48.5734 51.0885 48.5652 51.0311C48.0266 47.3154 47.2675 43.0277 44.9 39.9714C44.8 39.8316 44.8 39.8316 44.8263 39.6421C44.8454 39.5935 44.8645 39.5449 44.8842 39.4948Z" fill="#060709"/>
<path d="M22.9895 41.6842C23.6224 42.064 23.828 42.8585 24 43.5368C24.0362 43.9624 24.0327 44.3888 24.0316 44.8158C24.0315 44.876 24.0315 44.9363 24.0315 44.9984C24.0288 45.93 23.9464 46.8036 23.7154 47.7077C23.6152 48.1066 23.5297 48.5088 23.4421 48.9105C23.424 48.9918 23.4059 49.0732 23.3873 49.157C23.2608 49.7357 23.1686 50.3107 23.1039 50.8993C23.0737 51.1158 23.0737 51.1158 22.9895 51.2C22.793 51.2034 22.5964 51.2036 22.4 51.2C22.3694 50.5357 22.4849 49.9371 22.6263 49.2895C22.649 49.1826 22.6717 49.0757 22.6951 48.9656C22.855 48.2178 23.0212 47.4713 23.1948 46.7266C23.5261 45.3022 23.4621 43.9496 23.1579 42.5263C23.1244 42.3562 23.0911 42.186 23.0579 42.0158C23.0352 41.9052 23.0125 41.7947 22.9895 41.6842Z" fill="#050609"/>
<path d="M30.2316 24.3369C30.6495 24.5458 30.9198 24.8198 31.0737 25.2632C31.1476 25.7401 31.0952 26.1198 30.8211 26.5263C30.6018 26.7515 30.4652 26.849 30.1579 26.9158C29.7852 26.8413 29.5483 26.6466 29.3053 26.3579C29.087 25.9199 29.0784 25.4905 29.1368 25.0105C29.3944 24.5043 29.6516 24.2686 30.2316 24.3369Z" fill="#F9F9F9"/>
<path d="M42.8526 24.2842C43.215 24.3566 43.3576 24.5005 43.6211 24.7579C43.7859 25.0876 43.7359 25.4923 43.7053 25.8526C43.6065 26.0672 43.5316 26.1947 43.3684 26.3579C43.0947 26.3894 43.0947 26.3894 42.779 26.3579C42.5129 26.1439 42.3819 26.0087 42.2737 25.6842C42.2329 25.2518 42.2107 24.8814 42.4105 24.4894C42.6105 24.3368 42.6105 24.3368 42.8526 24.2842Z" fill="#F9F9F9"/>
<path d="M36.2947 27.9579C36.2267 27.9895 36.1586 28.0211 36.0885 28.0536C35.3934 28.3641 35.3934 28.3641 34.8632 28.8842C34.816 29.0989 34.816 29.0989 34.9474 29.3053C35.4174 29.7728 36.0407 30.0356 36.6316 30.3158C36.744 30.3716 36.8564 30.4277 36.9684 30.4842C36.4998 30.526 36.1954 30.3932 35.7895 30.1842C35.7298 30.1537 35.6701 30.1232 35.6086 30.0918C35.1738 29.8606 34.8665 29.653 34.6105 29.2211C34.5727 28.973 34.5727 28.973 34.6105 28.7158C34.7984 28.525 34.7984 28.525 35.0474 28.3579C35.1285 28.3019 35.2095 28.2459 35.2931 28.1882C35.9132 27.8166 35.9132 27.8166 36.2947 27.9579Z" fill="#262018"/>
<path d="M28.7263 26.7158C28.9684 26.779 28.9684 26.779 29.0526 26.8632C29.0737 27.1526 29.0737 27.1526 29.0526 27.4526C28.8 27.6211 28.8 27.6211 28.5842 27.6C28.3789 27.5368 28.3789 27.5368 28.2105 27.3684C28.1799 27.1298 28.1804 26.9975 28.3052 26.7895C28.4631 26.6947 28.4631 26.6947 28.7263 26.7158Z" fill="#F4F4F4"/>
<path d="M38.6526 29.0526C37.6091 29.4651 36.5325 29.3408 35.4526 29.1368C35.4526 29.109 35.4526 29.0812 35.4526 29.0526C35.8542 29.0385 36.2558 29.025 36.6574 29.012C36.794 29.0075 36.9305 29.0029 37.0671 28.998C37.2636 28.9911 37.4601 28.9848 37.6566 28.9786C37.7175 28.9763 37.7784 28.974 37.8411 28.9717C38.1256 28.9633 38.3809 28.9613 38.6526 29.0526Z" fill="#4F3714"/>
<path d="M41.6842 26.4421C42.0678 26.4889 42.0678 26.4889 42.1895 26.6105C42.2053 26.8579 42.2053 26.8579 42.1895 27.1158C42.1339 27.1713 42.0783 27.2269 42.0211 27.2842C41.7434 27.2564 41.6318 27.2317 41.4316 27.0316C41.4593 26.7539 41.484 26.6423 41.6842 26.4421Z" fill="#EFEFEF"/>
<path d="M38.3158 27.9579C38.7245 27.995 39.0476 28.1652 39.3263 28.4631C39.4 28.7368 39.4 28.7368 39.3263 29.0526C39.0685 29.4644 38.7458 29.8085 38.4 30.1474C38.3444 30.1196 38.2888 30.0918 38.2316 30.0631C38.2712 30.0255 38.3108 29.9878 38.3516 29.949C38.7149 29.5963 39.0085 29.3079 39.1368 28.8053C39.058 28.4835 38.9655 28.4464 38.6947 28.2684C38.6244 28.2271 38.554 28.1857 38.4816 28.1431C38.4269 28.1098 38.3721 28.0764 38.3158 28.0421C38.3158 28.0143 38.3158 27.9865 38.3158 27.9579Z" fill="#31291D"/>
<path d="M36.2947 27.9579C36.2277 27.9894 36.1606 28.021 36.0915 28.0536C35.5998 28.291 35.1851 28.5208 34.779 28.8842C34.7234 28.8842 34.6678 28.8842 34.6105 28.8842C34.7371 28.545 34.9335 28.4225 35.2369 28.2368C35.3184 28.1861 35.3999 28.1354 35.4839 28.0832C35.7942 27.9075 35.9568 27.853 36.2947 27.9579Z" fill="#2B261D"/>
<path d="M38.3158 27.9579C38.7391 27.9964 39.002 28.2099 39.3263 28.4631C39.2985 28.6021 39.2707 28.741 39.2421 28.8842C39.2125 28.8091 39.2125 28.8091 39.1822 28.7326C39.0484 28.5043 38.9082 28.4172 38.6842 28.2789C38.5603 28.2017 38.4372 28.1233 38.3158 28.0421C38.3158 28.0143 38.3158 27.9865 38.3158 27.9579Z" fill="#3D3222"/>
<path d="M34.6947 28.8C34.7173 28.8469 34.7399 28.8938 34.7631 28.9421C34.8717 29.1534 34.9919 29.3552 35.1158 29.5579C34.8631 29.5579 34.8631 29.5579 34.7158 29.4158C34.6105 29.221 34.6105 29.221 34.6368 28.9895C34.6559 28.9269 34.675 28.8644 34.6947 28.8Z" fill="#0B0906"/>
</g>
<defs>
<clipPath id="clip0_281_170">
<rect width="38.4" height="38.4" fill="white" transform="translate(12.8 12.8)"/>
</clipPath>
</defs>
</svg>
