<svg width="64" height="64" viewBox="0 0 64 64" fill="none" xmlns="http://www.w3.org/2000/svg">
<g clip-path="url(#clip0_229_6)">
<path d="M32 64C49.6731 64 64 49.6731 64 32C64 14.3269 49.6731 0 32 0C14.3269 0 0 14.3269 0 32C0 49.6731 14.3269 64 32 64Z" fill="#E6DAFE"/>
<path d="M37.925 28.5625C37.925 31.15 35.8375 33.25 33.25 33.25V37.9375C38.4125 37.9375 42.5875 33.75 42.5875 28.575C42.5875 23.4 38.4 19.2125 33.25 19.2125C31.55 19.2125 29.95 19.6625 28.575 20.4625C25.7875 22.075 23.9 25.1125 23.9 28.575V51.9875L28.1 56.2L28.575 56.675V28.5625C28.575 25.975 30.6625 23.875 33.25 23.875C35.8375 23.875 37.925 25.9875 37.925 28.5625Z" fill="black"/>
<path d="M33.25 9.83749C29.85 9.83749 26.6625 10.75 23.9125 12.35C22.15 13.3625 20.575 14.6625 19.2375 16.1875C16.3375 19.4875 14.5625 23.825 14.5625 28.575V42.625L19.2375 47.3125V28.5625C19.2375 24.4 21.0375 20.6625 23.9125 18.0875C25.2625 16.875 26.8375 15.925 28.5875 15.3125C30.05 14.7875 31.625 14.5125 33.2625 14.5125C41 14.5125 47.275 20.8 47.275 28.5625C47.275 36.325 40.9875 42.6125 33.25 42.6125V47.3C43.5625 47.3 51.925 38.9125 51.925 28.575C51.925 18.2375 43.5625 9.83749 33.25 9.83749Z" fill="black"/>
</g>
<defs>
<clipPath id="clip0_229_6">
<rect width="64" height="64" fill="white"/>
</clipPath>
</defs>
</svg>
