<svg width="64" height="64" viewBox="0 0 64 64" fill="none" xmlns="http://www.w3.org/2000/svg">
<g clip-path="url(#clip0_193_108)">
<path d="M32 64C49.6732 64 64 49.6732 64 32C64 14.3269 49.6732 0 32 0C14.3269 0 0 14.3269 0 32C0 49.6732 14.3269 64 32 64Z" fill="white"/>
<g clip-path="url(#clip1_193_108)">
<path d="M20.5205 11.7303L32.0698 25.4192L39.8221 20.806C39.8221 20.806 30.4691 8.15268 27.975 9.04708C25.6297 9.95088 20.5205 11.7303 20.5205 11.7303Z" fill="black"/>
<path d="M40.1106 20.806C40.1106 20.806 41.8695 17.6803 42.7443 13.5096C42.7443 13.5096 51.5203 17.0778 48.1514 26.0123L40.1106 20.806Z" fill="black"/>
<path d="M48.1514 26.0217L48.8866 35.3987L52.2462 34.9562C52.2462 34.9562 53.121 34.6549 52.9814 33.0262C52.8325 31.2374 52.544 27.5186 52.544 27.5186C52.544 27.5186 52.6929 26.6242 50.6455 26.3324C48.1514 25.871 48.1514 26.0217 48.1514 26.0217Z" fill="black"/>
<path d="M48.8772 35.3987L42.1487 40.9063L45.2198 47.007C45.2198 47.007 45.955 49.3889 48.142 46.7057C50.1895 44.0225 51.0643 43.58 50.9154 41.9419C50.7851 40.3037 50.3384 36.4343 48.8772 35.3987Z" fill="black"/>
<path d="M42.009 40.8969L32.7956 36.7262L24.7549 53.2489C24.7549 53.2489 24.1686 54.4351 26.216 54.5858C28.2634 54.887 31.623 55.6308 33.382 53.842C35.1409 52.2133 42.009 40.8969 42.009 40.8969Z" fill="black"/>
<path d="M32.7957 36.5849L31.9209 25.5698L12.033 26.9161C12.033 26.9161 10.8604 27.0667 11.0093 29.298C11.1582 32.273 11.4467 35.5493 11.4467 35.5493C11.4467 35.5493 11.2978 36.8862 13.9315 37.0368C16.5652 37.1781 32.5072 37.1781 32.7957 36.5849Z" fill="black"/>
</g>
</g>
<defs>
<clipPath id="clip0_193_108">
<rect width="64" height="64" fill="white"/>
</clipPath>
<clipPath id="clip1_193_108">
<rect width="42" height="46" fill="white" transform="translate(11 9)"/>
</clipPath>
</defs>
</svg>
