<svg width="39" height="64" viewBox="0 0 39 64" fill="none" xmlns="http://www.w3.org/2000/svg">
<g clip-path="url(#clip0_288_6)">
<path d="M16.907 51.9292L0 64L10.7331 14.8855L16.907 51.9292ZM17.2489 51.8158L27.5451 51.948L11.132 15.0744L17.2489 51.8158ZM28.5139 51.0035L36.3975 21.9504L33.415 18.3235L28.5139 51.0035ZM24.7146 5.45926L11.7399 14.1488L30.6985 8.04722L24.7146 5.45926ZM23.0809 5.45926L15.0263 5.72372L13.8485 9.06729L23.0809 5.45926Z" fill="#384182"/>
<path d="M32.8451 17.209L12.0818 14.3754L30.7934 8.51949L32.8451 17.209ZM27.9249 6.29044L29.0647 3.21134L23.0808 0.623383L27.9249 6.29044ZM29.6536 2.9091L31.0024 7.74499L38.981 5.64818L29.6536 2.9091Z" fill="#F79534"/>
<path d="M28.001 51.7591L11.36 14.7344L33.0541 17.7568L28.001 51.7591ZM24.0877 5.45927L13.8295 9.4451L11.36 13.9787L24.0877 5.45927ZM17.7238 2.43684L15.1593 5.25148L23.6698 5.04368L17.7238 2.43684ZM22.207 0.245573L18.1418 2.1157L27.4121 6.1771L22.207 0.245573ZM26.8422 0H22.473L29.2358 2.60685L26.8422 0ZM29.3688 3.45691L28.3239 6.5549L30.4136 7.55608L29.3688 3.45691Z" fill="#F0513A"/>
</g>
<defs>
<clipPath id="clip0_288_6">
<rect width="39" height="64" fill="white"/>
</clipPath>
</defs>
</svg>
