<svg width="64" height="64" viewBox="0 0 64 64" fill="none" xmlns="http://www.w3.org/2000/svg">
<path d="M20 61.3988C21.9488 62.1345 23.9488 62.6682 26 63L23.6777 58L20 61.3988Z" fill="#7EC34E"/>
<path d="M52.1781 22H52.516C58.8466 22 64 17.0557 64 11.0326C63.919 8.03198 62.6647 5.18621 60.5121 3.11896C58.3594 1.0517 55.484 -0.0684158 52.516 0.00408186C49.6105 -0.0746387 46.7878 0.987832 44.6405 2.96844C42.4933 4.94904 41.1884 7.69373 41 10.6263C43.224 12.1437 45.2892 13.8578 47.1955 15.7684C49.2831 17.8791 51.0009 20.2272 52.1781 21.9964" fill="#ED1C24"/>
<path d="M27.9581 62.8654C28.9098 62.9596 29.8639 63.0044 30.8203 62.9997H30.8523C33.9552 62.9906 37.039 62.5165 40 61.5933L38.1818 45L25 56.6429L27.9581 62.8654Z" fill="#EF534E"/>
<path d="M39 43.739L40.8435 60.9645V61C47.9318 58.4543 53.8261 53.364 57.3859 46.714C60.9458 40.064 61.9181 32.327 60.1147 25L39 43.739Z" fill="#FFCB03"/>
<path d="M39.0986 6.62354C39.4949 5.5977 39.9915 4.62737 40.5883 3.71256H40.6233C38.482 2.89475 36.2612 2.32052 34 2L38.3013 43L59 24.075L58.4055 22.1922C57.4567 22.6919 56.474 23.1022 55.4575 23.4233C55.6744 23.795 55.8609 24.1836 56.0171 24.5891C56.0926 24.7693 56.1042 24.9713 56.0498 25.1594C55.9954 25.3476 55.8785 25.5098 55.7198 25.6174L53.7335 27.0584C53.5845 27.1576 53.4137 27.2161 53.237 27.2285H53.0376C52.9204 27.1967 52.8105 27.1409 52.7144 27.0644C52.6183 26.9879 52.538 26.8923 52.4781 26.7832C51.4815 25.0706 48.9322 20.715 45.1904 16.841C41.4836 12.9307 37.5075 10.3962 36.0178 9.46936C35.8502 9.37004 35.7237 9.21037 35.6624 9.02076C35.6012 8.83115 35.6094 8.62484 35.6856 8.4411L36.4164 6.31579C36.4929 6.0949 36.6463 5.91154 36.8466 5.80166C36.9495 5.74759 37.0633 5.71941 37.1788 5.71941C37.2942 5.71941 37.408 5.74759 37.511 5.80166C37.7628 5.89218 38.0705 6.06235 38.4342 6.2651L39.0986 6.62354Z" fill="#F5811F"/>
<path d="M23.5509 56L36.9649 44.1319H37L34.3382 20L10 27.6915L23.5509 56Z" fill="#EC1C24"/>
<path d="M0.0988644 29.8598L0 32.2874C3.30068e-05 38.1824 1.73515 43.9482 4.99111 48.873C8.24707 53.7979 12.8813 57.6661 18.3216 60L23 55.8438L9.12726 27L0.0988644 29.8598Z" fill="#00A74F"/>
<path d="M4.30038 17C1.97691 20.6629 0.51047 24.7549 0 29L9 26.2717L4.30038 17Z" fill="#0059A9"/>
<path d="M33.3051 2.10448C32.4152 2.03607 31.523 2.00125 30.6305 2.00007C25.5503 1.98951 20.5473 3.25238 16.0728 5.67477C11.5983 8.09716 7.79295 11.6029 5 15.8758L9.84505 26L35 17.9208L33.3051 2.10448Z" fill="#0077C0"/>
</svg>
