<svg width="64" height="64" viewBox="0 0 64 64" fill="none" xmlns="http://www.w3.org/2000/svg">
<g clip-path="url(#clip0_250_432)">
<path d="M32 64C49.6731 64 64 49.6731 64 32C64 14.3269 49.6731 0 32 0C14.3269 0 0 14.3269 0 32C0 49.6731 14.3269 64 32 64Z" fill="url(#paint0_linear_250_432)"/>
<path d="M18 18.6L21.4 16.8L21.8 17.6L34.2 10.4L33.4 9.8L32.4 9.2L32 9L11.6 20.8V21.2L17.4 18L18 18.6ZM18 26.2L27.8 20.4L28.2 21.2L40.8 14L39.8 13.4L38.8 13L38.4 12.8L11.6 28.2V28.6L17.4 25.4L18 26.2ZM18 29.8L31 22.4L31.4 23L44 15.8L43 15.4L42 14.8L41.6 14.6L11.6 31.8V32.4L17.4 29L18 29.8ZM18 33.4L34.2 24.2L34.6 24.8L47.2 17.8L46.2 17.2L45.2 16.6L44.8 16.4L11.6 35.6V36L17.4 32.8L18 33.4ZM18 37.2L37.4 26L37.8 26.8L50.4 19.6L49.4 19L48.6 18.6L48 18.2L11.6 39.2V39.8L17.4 36.4L18 37.2ZM51.6 20.4L51.2 20L11.6 43V43.4L17.4 40.2L18 41L37.4 29.6L37.8 30.4L52.4 22.2V20.8L51.6 20.4ZM14.2 45.8L17.4 43.8L17.8 44.6L37.4 33.4L37.8 34.2L52.4 25.8V23.2L13.6 45.4L14.2 45.8ZM37.4 37.2L37.8 38L52.4 29.4V26.8L16.8 47.4L17.4 47.6L20.6 45.6L21.2 46.4M20.6 49.4L24 47.6L24.4 48.4L37.4 40.8L37.8 41.6L52.4 33.2V30.6L20 49.2L20.6 49.4ZM23.8 51.2L27.2 49.4L27.6 50.2L37.4 44.6L37.8 45.4L52.4 37V34.2L23.2 51L23.8 51.2ZM26.4 52.8L27 53.2L30.4 51.2L30.8 52L37.4 48.2L37.8 49L52.4 40.6V38L26.4 52.8ZM30.2 55L33.4 53L34 53.8L37.4 52L37.8 52.8L52.4 44.4V41.6L29.8 54.8L30.2 55ZM37.6 12.2L36.6 11.6L35.6 11.2L35.2 10.8L11.6 24.4V25L17.4 21.6L18 22.4L24.6 18.6L25 19.4L37.6 12.2Z" fill="white"/>
</g>
<defs>
<linearGradient id="paint0_linear_250_432" x1="0" y1="32" x2="64" y2="32" gradientUnits="userSpaceOnUse">
<stop stop-color="#001C3A"/>
<stop offset="0.6" stop-color="#001E3D"/>
<stop offset="0.7" stop-color="#001F3F"/>
<stop offset="1" stop-color="#002042"/>
</linearGradient>
<clipPath id="clip0_250_432">
<rect width="64" height="64" fill="white"/>
</clipPath>
</defs>
</svg>
