<svg width="64" height="64" viewBox="0 0 64 64" fill="none" xmlns="http://www.w3.org/2000/svg">
<g clip-path="url(#clip0_196_67)">
<path fill-rule="evenodd" clip-rule="evenodd" d="M32 0C49.664 0 64 14.336 64 32C64 49.664 49.664 64 32 64C14.336 64 0 49.664 0 32C0 14.336 14.336 0 32 0Z" fill="#CF1011"/>
<path fill-rule="evenodd" clip-rule="evenodd" d="M32 24.4224C36.1728 24.4224 39.5776 27.8016 39.5776 32C39.5776 36.1728 36.1984 39.5776 32 39.5776C27.8272 39.5776 24.4224 36.1984 24.4224 32C24.4224 27.8272 27.8016 24.4224 32 24.4224Z" fill="white"/>
<path fill-rule="evenodd" clip-rule="evenodd" d="M32.1792 12.1856C34.56 12.2112 36.9152 12.672 39.1168 13.5168C41.3184 14.3616 43.3664 15.5904 45.1584 17.1776L45.2096 17.2288C49.28 20.864 51.5072 25.7792 51.7888 30.8224C52.096 35.8912 50.4576 41.0624 46.848 45.1584L46.7968 45.2096C43.1616 49.28 38.2464 51.5072 33.2032 51.7888C28.1344 52.096 22.9632 50.4576 18.8672 46.848C14.7712 43.2128 12.5184 38.272 12.2368 33.2032C11.9296 28.1344 13.568 22.9632 17.1776 18.8672L18.8928 20.3776C15.6928 23.9872 14.2592 28.5696 14.5152 33.0496C14.7968 37.5296 16.768 41.9072 20.3776 45.1072C23.9872 48.3072 28.5696 49.7408 33.0496 49.4848C37.5296 49.2032 41.9072 47.232 45.1072 43.6224L45.1584 43.5712C48.3328 39.9616 49.7664 35.4048 49.4848 30.9504C49.2032 26.4704 47.232 22.0928 43.6224 18.8928L43.5712 18.8416C42.0096 17.4592 40.2176 16.384 38.2976 15.6416C36.352 14.8992 34.2784 14.4896 32.1792 14.464L32.2048 12.16L32.1792 12.1856Z" fill="white"/>
<path d="M20.7359 12.3136C22.1183 12.3136 23.3471 12.8768 24.2431 13.7728C25.1391 14.6688 25.7023 15.9232 25.7023 17.28C25.7023 18.6624 25.1391 19.8912 24.2431 20.7872C23.3471 21.6832 22.0927 22.2464 20.7359 22.2464C19.3535 22.2464 18.1247 21.6832 17.2287 20.7872C16.3327 19.8912 15.7695 18.6368 15.7695 17.28C15.7695 15.8976 16.3327 14.6688 17.2287 13.7728C18.1247 12.8768 19.3791 12.3136 20.7359 12.3136ZM22.6303 15.4112C22.1439 14.9248 21.4783 14.6176 20.7359 14.6176C19.9935 14.6176 19.3279 14.9248 18.8415 15.4112C18.3551 15.8976 18.0479 16.5632 18.0479 17.3056C18.0479 18.048 18.3551 18.7136 18.8415 19.2C19.3279 19.6864 19.9935 19.9936 20.7359 19.9936C21.4783 19.9936 22.1439 19.6864 22.6303 19.2C23.1167 18.7136 23.4239 18.048 23.4239 17.3056C23.4239 16.5632 23.1167 15.8976 22.6303 15.4112Z" fill="white"/>
</g>
<defs>
<clipPath id="clip0_196_67">
<rect width="64" height="64" fill="white"/>
</clipPath>
</defs>
</svg>
