<svg width="64" height="64" viewBox="0 0 64 64" fill="none" xmlns="http://www.w3.org/2000/svg">
<g clip-path="url(#clip0_257_2)">
<path fill-rule="evenodd" clip-rule="evenodd" d="M32.0016 63.9992C49.6272 63.9992 64.0016 49.6248 64.0016 31.9992C64.0016 14.3768 49.6272 -0.000823975 32.0016 -0.000823975C14.3792 -0.000823975 0.00158745 14.3768 0.00158745 31.9992C-0.00161255 49.6248 14.376 63.9992 32.0016 63.9992Z" fill="#0151AF"/>
<path fill-rule="evenodd" clip-rule="evenodd" d="M23.7936 15.4136H28.4016C28.5776 15.4136 28.7184 15.5576 28.7184 15.7336V22.4664C28.7184 22.6456 28.8624 22.7864 29.0384 22.7864H34.9552C35.1312 22.7864 35.2752 22.6456 35.2752 22.4664V15.7336C35.2752 15.5576 35.416 15.4136 35.5952 15.4136H40.2C40.376 15.4136 40.52 15.5576 40.52 15.7336V22.4664C40.52 22.6456 40.6608 22.7864 40.84 22.7864H46.472C46.6512 22.7864 46.792 22.9304 46.792 23.1064V27.7016C46.792 27.8808 46.6512 28.0216 46.472 28.0216H40.84C40.6608 28.0216 40.52 28.1656 40.52 28.3416V35.4936C40.52 35.6696 40.6608 35.8136 40.84 35.8136H46.472C46.6512 35.8136 46.792 35.9544 46.792 36.1336V40.7288C46.792 40.9048 46.6512 41.0488 46.472 41.0488H40.84C40.6608 41.0488 40.52 41.1928 40.52 41.3688V48.1016C40.52 48.2776 40.376 48.4216 40.2 48.4216H35.5952C35.416 48.4216 35.2752 48.2776 35.2752 48.1016V41.3688C35.2752 41.1896 35.1312 41.0488 34.9552 41.0488H29.0416C28.8656 41.0488 28.7216 41.1928 28.7216 41.3688V48.1016C28.7216 48.2776 28.5808 48.4216 28.4048 48.4216H23.7968C23.6208 48.4216 23.4768 48.2776 23.4768 48.1016V41.3688C23.4768 41.1896 23.336 41.0488 23.1568 41.0488H17.5248C17.3456 41.0488 17.2048 40.9048 17.2048 40.7288V36.1336C17.2048 35.9544 17.3456 35.8136 17.5248 35.8136H23.1568C23.336 35.8136 23.4768 35.6696 23.4768 35.4936V28.3416C23.4768 28.1656 23.336 28.0216 23.1568 28.0216H17.5248C17.3456 28.0216 17.2048 27.8808 17.2048 27.7016V23.1064C17.2048 22.9304 17.3456 22.7864 17.5248 22.7864H23.1568C23.336 22.7864 23.4768 22.6456 23.4768 22.4664V15.7336C23.4704 15.5576 23.6176 15.4136 23.7936 15.4136ZM35.2784 35.4968V28.3416C35.2784 28.1656 35.1344 28.0216 34.9584 28.0216H29.0416C28.8656 28.0216 28.7216 28.1656 28.7216 28.3416V35.4936C28.7216 35.6696 28.8656 35.8136 29.0416 35.8136H34.9584C35.1344 35.8168 35.2784 35.6696 35.2784 35.4968Z" fill="white"/>
</g>
<defs>
<clipPath id="clip0_257_2">
<rect width="64" height="64" fill="white"/>
</clipPath>
</defs>
</svg>
