<svg width="64" height="64" viewBox="0 0 64 64" fill="none" xmlns="http://www.w3.org/2000/svg">
<g clip-path="url(#clip0_231_1505)">
<path d="M31.6727 61.9982C35.6396 62.0415 39.5758 61.2975 43.2533 59.8094C46.9308 58.3213 50.2767 56.1185 53.0972 53.3286C55.9177 50.5387 58.1568 47.2171 59.685 43.5561C61.2131 39.895 62 35.9672 62 32C62 28.0328 61.2131 24.105 59.685 20.4439C58.1568 16.7829 55.9177 13.4613 53.0972 10.6714C50.2767 7.88149 46.9308 5.67873 43.2533 4.19059C39.5758 2.70245 35.6396 1.9585 31.6727 2.00179C23.7733 2.08798 16.2268 5.28646 10.6714 10.9028C5.11594 16.5192 2 24.1002 2 32C2 39.8998 5.11594 47.4808 10.6714 53.0972C16.2268 58.7135 23.7733 61.912 31.6727 61.9982Z" fill="url(#paint0_linear_231_1505)"/>
<path fill-rule="evenodd" clip-rule="evenodd" d="M32 62C35.9401 62.0005 39.8417 61.2247 43.4819 59.717C47.1221 58.2093 50.4296 55.9992 53.2155 53.213C56.0014 50.4268 58.2111 47.119 59.7184 43.4786C61.2256 39.8382 62.0009 35.9365 62 31.9965C61.9993 26.0632 60.2392 20.2633 56.9424 15.3303C53.6455 10.3973 48.9599 6.55269 43.4781 4.28261C37.9962 2.01252 31.9643 1.41893 26.1451 2.57689C20.3259 3.73484 14.9808 6.59235 10.7856 10.7881C6.59034 14.9838 3.73346 20.3293 2.5762 26.1486C1.41893 31.9679 2.01323 37.9998 4.28397 43.4813C6.5547 48.9629 10.3999 53.6481 15.3333 56.9443C20.2667 60.2406 26.0667 62 32 62ZM32 60.1662C39.4702 60.1662 46.6343 57.1987 51.9165 51.9165C57.1987 46.6343 60.1662 39.4702 60.1662 32C60.1662 24.5299 57.1987 17.3657 51.9165 12.0835C46.6343 6.80129 39.4702 3.83378 32 3.83378C24.5299 3.83378 17.3657 6.80129 12.0835 12.0835C6.80129 17.3657 3.83378 24.5299 3.83378 32C3.83378 39.4702 6.80129 46.6343 12.0835 51.9165C17.3657 57.1987 24.5299 60.1662 32 60.1662Z" fill="#FF7534"/>
<path fill-rule="evenodd" clip-rule="evenodd" d="M32 64C36.2023 64 40.3635 63.1723 44.2459 61.5641C48.1283 59.956 51.6559 57.5989 54.6274 54.6274C57.5989 51.6559 59.956 48.1283 61.5641 44.2459C63.1723 40.3635 64 36.2023 64 32C64 27.7977 63.1723 23.6365 61.5641 19.7541C59.956 15.8717 57.5989 12.3441 54.6274 9.37258C51.6559 6.40111 48.1283 4.04401 44.2459 2.43585C40.3635 0.827704 36.2023 -6.26191e-08 32 0C23.5131 1.26465e-07 15.3737 3.37142 9.37258 9.37258C3.37142 15.3737 0 23.5131 0 32C0 40.4869 3.37142 48.6263 9.37258 54.6274C15.3737 60.6286 23.5131 64 32 64ZM32 62.1156C39.9871 62.1156 47.6472 58.9427 53.2949 53.2949C58.9427 47.6472 62.1156 39.9871 62.1156 32C62.1156 24.0129 58.9427 16.3528 53.2949 10.7051C47.6472 5.05732 39.9871 1.88444 32 1.88444C24.0129 1.88444 16.3528 5.05732 10.7051 10.7051C5.05732 16.3528 1.88444 24.0129 1.88444 32C1.88444 39.9871 5.05732 47.6472 10.7051 53.2949C16.3528 58.9427 24.0129 62.1156 32 62.1156Z" fill="#FFD58D"/>
<path fill-rule="evenodd" clip-rule="evenodd" d="M24.0838 28.3645L21.01 32.0682L25.3289 33.698C25.3894 35.3421 25.7808 36.0263 25.9693 36.166L24.3221 37.6955L25.9693 39.3898L27.588 37.6955C28.4845 38.0286 29.4486 38.1468 30.3985 38.0394L31.9176 42.4846L35.7242 38.9958L36.6776 34.726C45.4755 26.6702 46.4609 20.2441 45.8561 18.0341C38.0651 17.4753 31.0922 23.93 28.5841 27.229L24.0838 28.3645ZM24.2688 40.9443L11.216 53.0693L9.83926 51.5649L22.892 39.4399L24.2688 40.9443ZM20.0851 41.2273L9.37678 51.0849L8 49.5733L18.7119 39.7122L20.0851 41.2273ZM23.9557 44.9991L13.1514 55L11.7781 53.492L22.5789 43.4947L23.9557 44.9991ZM35.6139 30.4026C35.9442 30.4026 36.2713 30.3371 36.5764 30.2098C36.8816 30.0826 37.1588 29.896 37.3924 29.6609C37.626 29.4257 37.8112 29.1465 37.9376 28.8393C38.064 28.532 38.1291 28.2027 38.1291 27.8702C38.1291 27.5376 38.064 27.2083 37.9376 26.901C37.8112 26.5938 37.626 26.3146 37.3924 26.0794C37.1588 25.8443 36.8816 25.6577 36.5764 25.5305C36.2713 25.4032 35.9442 25.3377 35.6139 25.3377C34.9468 25.3377 34.3071 25.6045 33.8354 26.0794C33.3637 26.5544 33.0987 27.1985 33.0987 27.8702C33.0987 28.5418 33.3637 29.1859 33.8354 29.6609C34.3071 30.1358 34.9468 30.4026 35.6139 30.4026Z" fill="white"/>
</g>
<defs>
<linearGradient id="paint0_linear_231_1505" x1="4.70873" y1="53.7615" x2="63.8193" y2="10.2349" gradientUnits="userSpaceOnUse">
<stop stop-color="#FB9533"/>
<stop offset="0.261" stop-color="#FEBA67"/>
<stop offset="0.747" stop-color="#FF9976"/>
<stop offset="1" stop-color="#FF6350"/>
</linearGradient>
<clipPath id="clip0_231_1505">
<rect width="64" height="64" fill="white"/>
</clipPath>
</defs>
</svg>
