<svg width="64" height="64" viewBox="0 0 64 64" fill="none" xmlns="http://www.w3.org/2000/svg">
<g clip-path="url(#clip0_235_85)">
<mask id="mask0_235_85" style="mask-type:luminance" maskUnits="userSpaceOnUse" x="0" y="0" width="64" height="64">
<path d="M0 0H64V64H0V0Z" fill="white"/>
</mask>
<g mask="url(#mask0_235_85)">
<path d="M64 0H0V64H64V0Z" fill="#004DE5"/>
<path d="M29.5093 27.3067H32.7093C32.9895 27.3058 33.2667 27.2498 33.5253 27.1419C33.7838 27.0339 34.0185 26.876 34.216 26.6773C34.4153 26.4778 34.5731 26.2407 34.6802 25.9798C34.7873 25.7189 34.8416 25.4394 34.84 25.1573V20.496C34.8393 20.4019 34.8018 20.3118 34.7355 20.245C34.6692 20.1782 34.5794 20.1401 34.4853 20.1387H29.5093C29.4152 20.1401 29.3254 20.1782 29.2591 20.245C29.1929 20.3118 29.1553 20.4019 29.1547 20.496V26.9493C29.1547 27.0439 29.1919 27.1347 29.2582 27.202C29.3246 27.2694 29.4148 27.3079 29.5093 27.3093" fill="white"/>
<path fill-rule="evenodd" clip-rule="evenodd" d="M16.7627 40.272V13.9467C16.7627 13.0747 17.1093 12.24 17.728 11.6267C18.3467 11.0133 19.1813 10.6667 20.0533 10.6667H43.9413C44.3734 10.6646 44.8017 10.7478 45.2015 10.9117C45.6013 11.0756 45.9647 11.3169 46.271 11.6217C46.5773 11.9265 46.8203 12.2888 46.9861 12.6878C47.152 13.0868 47.2373 13.5146 47.2373 13.9467V40.272C47.2364 40.7642 47.1247 41.2499 46.9105 41.693C46.6963 42.1362 46.3851 42.5255 46 42.832L33.5413 52.792C33.1025 53.1412 32.5582 53.3313 31.9973 53.3313C31.4365 53.3313 30.8922 53.1412 30.4533 52.792L17.9947 42.832C17.6101 42.5252 17.2994 42.1358 17.0857 41.6927C16.8719 41.2495 16.7633 40.764 16.7627 40.272ZM40.88 20.1387V25.8747C40.88 26.6347 40.5813 27.3653 40.0507 27.9013C39.5173 28.44 38.7973 28.744 38.0427 28.744C38.7973 28.744 39.52 29.0453 40.0533 29.584C40.5867 30.1227 40.8853 30.8507 40.8853 31.6107V36.784C40.8857 37.2133 40.7901 37.6372 40.6056 38.0247C40.421 38.4123 40.1522 38.7537 39.8187 39.024L35.4187 42.5867C35.3663 42.6285 35.3031 42.6546 35.2365 42.662C35.1699 42.6694 35.1026 42.6578 35.0423 42.6285C34.982 42.5992 34.9312 42.5534 34.8959 42.4965C34.8606 42.4395 34.8421 42.3737 34.8427 42.3067V32.3307C34.844 32.0484 34.7892 31.7688 34.6817 31.5079C34.5741 31.247 34.4158 31.01 34.216 30.8107C34.0187 30.6115 33.7841 30.4532 33.5256 30.3447C33.2671 30.2363 32.9897 30.1798 32.7093 30.1787H29.5093C29.4625 30.1787 29.4162 30.1879 29.373 30.2059C29.3298 30.2239 29.2906 30.2503 29.2576 30.2835C29.2246 30.3167 29.1986 30.3561 29.1809 30.3995C29.1632 30.4428 29.1543 30.4892 29.1547 30.536V42.3067C29.1535 42.3741 29.134 42.44 29.0983 42.4973C29.0626 42.5546 29.012 42.6012 28.952 42.632C28.8917 42.6617 28.824 42.6733 28.7573 42.6652C28.6905 42.6572 28.6275 42.6299 28.576 42.5867L24.176 39.0213C23.8414 38.7526 23.5717 38.4119 23.3871 38.0245C23.2024 37.6372 23.1074 37.2131 23.1093 36.784V20.1387C23.1093 19.3787 23.408 18.648 23.9413 18.112C24.4747 17.5733 25.1973 17.2693 25.952 17.2693H38.0373C38.792 17.2693 39.5147 17.5733 40.048 18.1093C40.5813 18.648 40.88 19.3813 40.88 20.1387Z" fill="white"/>
</g>
</g>
<defs>
<clipPath id="clip0_235_85">
<rect width="64" height="64" rx="32" fill="white"/>
</clipPath>
</defs>
</svg>
