<svg width="64" height="64" viewBox="0 0 64 64" fill="none" xmlns="http://www.w3.org/2000/svg">
<g clip-path="url(#clip0_197_234)">
<path fill-rule="evenodd" clip-rule="evenodd" d="M31.8816 63.9191C41.377 63.9191 49.9078 59.8002 55.7755 53.2559C53.0461 50.8898 48.9324 50.7461 46.0265 53.0847L45.4714 53.5315C40.1507 57.8134 32.3979 57.1811 27.8455 52.0938C25.3626 49.3194 21.1104 49.0361 18.2796 51.4566L11.8787 56.9295C17.3609 61.3036 24.315 63.9191 31.8816 63.9191ZM42.2713 48.4432C47.3391 44.3648 54.4623 44.511 59.3365 48.4502C62.2498 43.6357 63.9261 37.9929 63.9261 31.9596C63.9261 25.2555 61.8565 19.0337 58.3196 13.8947C56.0396 13.4105 53.5682 13.976 51.6922 15.6341L51.1583 16.106C46.0414 20.6283 38.2676 20.3534 33.4847 15.4813C30.876 12.824 26.6151 12.7367 23.8993 15.285L16.4508 22.2739L12.3532 17.93L19.8019 10.9412C24.8892 6.16764 32.8708 6.3311 37.7575 11.3089C40.3108 13.9098 44.4607 14.0566 47.1922 11.6423L47.7261 11.1704C49.3843 9.70502 51.3027 8.7171 53.3112 8.19751C47.634 3.10139 40.1209 0 31.8816 0C15.6146 0 2.17855 12.0889 0.112535 27.7503C5.05347 25.3855 11.1481 26.2955 15.1767 30.41C17.7201 33.0075 21.8151 33.2817 24.6837 31.0466L28.8484 27.8016C34.0823 23.7234 41.4812 23.9208 46.489 28.2723L54.5972 35.3177L50.6689 39.8145L42.5608 32.7691C39.7133 30.2947 35.5061 30.1824 32.5299 32.5015L28.3653 35.7463C23.0949 39.853 15.5711 39.3492 10.8984 34.5769C8.18121 31.8018 3.73729 31.7049 0.901223 34.359L0 35.2024C0.674451 41.8776 3.40846 47.9465 7.5586 52.7676L14.3873 46.9287C19.6902 42.3946 27.6558 42.9251 32.3069 48.1226C34.7371 50.8382 38.8758 51.1758 41.7161 48.89L42.2713 48.4432Z" fill="#9E1F19"/>
</g>
<defs>
<clipPath id="clip0_197_234">
<rect width="64" height="64" fill="white"/>
</clipPath>
</defs>
</svg>
