<svg width="64" height="64" viewBox="0 0 64 64" fill="none" xmlns="http://www.w3.org/2000/svg">
<rect width="64" height="64" rx="32" fill="#EA3922"/>
<path d="M11.3226 39.456C11.3226 35.0453 13.5066 29.8027 14.5973 27.7307C12.9306 22.4933 10.224 11.5333 12.7226 9.59735C15.224 7.66135 21.256 14.096 23.96 17.5547C25.0666 16.9707 28.1973 15.8053 31.8906 15.8053C35.584 15.8053 39.0533 16.9707 40.3306 17.5547C47.6026 9.41602 50.6453 8.86135 51.256 9.59735C53.8266 12.8453 51.1493 23.0373 49.4853 27.7307C50.56 29.448 52.6986 34.2 52.6986 39.4587C52.6986 46.0267 43.2586 55.4453 31.8506 55.4453C20.44 55.4453 11.3226 44.9707 11.3226 39.456Z" fill="#EB9A2E"/>
<path fill-rule="evenodd" clip-rule="evenodd" d="M15.2534 24.992C14.2747 21.6934 12.6187 14.6427 13.7867 12.8214C14.96 11 19.6507 15.56 21.848 18.0667C20.5814 19.08 17.4907 21.88 15.2534 24.992ZM48.9867 24.992C49.9627 21.6934 51.6214 14.6427 50.4507 12.8214C49.2774 11 44.5894 15.56 42.3894 18.0667C43.656 19.08 46.752 21.88 48.9867 24.992Z" fill="#E58014"/>
<path d="M24.5067 29.5494C23.4098 29.7485 22.3058 29.8196 21.1947 29.7627C20.9895 29.7577 20.7934 29.6775 20.6434 29.5374C20.4935 29.3973 20.4002 29.207 20.3813 29.0027C20.2747 27.6534 20.7867 25.8507 22.3173 25.9227C24.1547 26.008 24.9573 27.368 25.2373 28.4854C25.3627 28.9894 25.0107 29.456 24.5067 29.5494ZM39.5733 29.552C40.88 29.792 42.0853 29.8107 42.888 29.7654C43.093 29.7598 43.2888 29.6794 43.4386 29.5394C43.5885 29.3994 43.6819 29.2095 43.7013 29.0054C43.8053 27.656 43.2933 25.8534 41.7627 25.9254C39.928 26.0107 39.1253 27.3707 38.8453 28.488C38.72 28.992 39.0693 29.4614 39.5733 29.5547" fill="#FEFFF7"/>
<path d="M30.7361 55.1734C15.0374 52.7814 11.2561 43.68 11.3254 39.4294C19.4374 38.8294 22.2187 41.968 22.5947 43.6107C22.8107 41.1094 24.9227 36.0987 31.6321 36.0987C38.3414 36.0987 40.4507 41.1067 40.6667 43.6107C42.0893 41.8058 44.0361 40.4859 46.2394 39.8326C48.4427 39.1794 50.7943 39.2248 52.9707 39.9627C49.1307 52.728 36.5467 55.424 30.7361 55.1734Z" fill="#EAEAE8"/>
<path fill-rule="evenodd" clip-rule="evenodd" d="M34.0747 38.512H29.72C29.5754 38.5131 29.4324 38.5426 29.2992 38.5989C29.1659 38.6552 29.0451 38.7372 28.9436 38.8402C28.8421 38.9433 28.7618 39.0653 28.7075 39.1993C28.6531 39.3333 28.6256 39.4767 28.6267 39.6214V41.7707C28.6907 42.464 29.3334 43.7974 31.3547 44.0214V46.1547C31.2228 46.2814 31.1184 46.4339 31.048 46.6027H28.4427V46.6294C28.1681 46.3753 27.8647 46.1543 27.5387 45.9707C27.491 45.9454 27.4368 45.9348 27.3831 45.9402C27.3294 45.9455 27.2784 45.9666 27.2366 46.0007C27.1948 46.0349 27.1639 46.0806 27.1479 46.1322C27.132 46.1837 27.1315 46.2389 27.1467 46.2907C27.1561 46.3264 27.1728 46.3598 27.1957 46.3887C27.2187 46.4176 27.2474 46.4414 27.28 46.4587C27.4534 46.5547 27.7227 46.7254 27.952 46.9254C28.0556 47.0173 28.1519 47.1171 28.24 47.224C28.3111 47.3236 28.3502 47.3982 28.3574 47.448C28.368 47.5049 28.3911 47.5529 28.4267 47.592V48.784C28.4267 48.936 28.5494 49.0614 28.6987 49.0614C28.7348 49.061 28.7704 49.0536 28.8036 49.0394C28.8368 49.0253 28.8669 49.0048 28.8921 48.979C28.9174 48.9533 28.9373 48.9228 28.9508 48.8893C28.9643 48.8559 28.971 48.8201 28.9707 48.784V47.1547H34.8267V48.7814C34.8267 48.936 34.9494 49.0614 35.0987 49.0614C35.1351 49.0616 35.1711 49.0544 35.2046 49.0401C35.238 49.0259 35.2683 49.005 35.2934 48.9787C35.3192 48.9534 35.3396 48.9231 35.3534 48.8896C35.3671 48.8561 35.3739 48.8202 35.3734 48.784V47.4507L35.3814 47.4027L35.3867 47.392C35.4055 47.3586 35.4278 47.3273 35.4534 47.2987C35.5473 47.1976 35.6489 47.104 35.7574 47.0187C36.0012 46.8281 36.2558 46.6518 36.52 46.4907C36.566 46.4622 36.6027 46.4209 36.6257 46.372C36.6487 46.323 36.6571 46.2685 36.6497 46.2149C36.6424 46.1613 36.6197 46.111 36.5844 46.07C36.549 46.029 36.5026 45.9992 36.4507 45.984C36.416 45.9742 36.3797 45.9715 36.344 45.9761C36.3082 45.9806 36.2738 45.9924 36.2427 46.0107C35.9554 46.1843 35.6793 46.3758 35.416 46.584L35.3947 46.6H32.6614C32.6062 46.4955 32.5342 46.4009 32.448 46.32V44.032C34.544 43.8454 35.1387 42.4774 35.168 41.7707V39.6214C35.1691 39.4767 35.1416 39.3333 35.0873 39.1993C35.0329 39.0653 34.9526 38.9433 34.8511 38.8402C34.7496 38.7372 34.6288 38.6552 34.4955 38.5989C34.3623 38.5426 34.2193 38.5131 34.0747 38.512ZM30.072 47.952L30.648 48.6587L31.0907 48.24L31.8907 49.0134L32.7174 48.24L33.104 48.6587L33.6374 47.9494L30.072 47.952Z" fill="#000001"/>
<path d="M20.0186 31.376C19.2133 31.0613 19.2053 31.8027 19.3013 32.208V32.8267C19.3017 33.3857 19.4709 33.9315 19.7869 34.3926C20.1029 34.8537 20.5508 35.2086 21.072 35.4107C23.5066 36.3253 27.6213 37.592 27.1706 36.264C26.576 34.5173 21.0213 31.7733 20.0186 31.376ZM43.8453 31.376C44.6453 31.0613 44.656 31.8027 44.56 32.208V32.8267C44.5596 33.3857 44.3904 33.9315 44.0744 34.3926C43.7584 34.8537 43.3105 35.2086 42.7893 35.4107C40.3546 36.3253 36.24 37.592 36.6906 36.264C37.2853 34.5173 42.84 31.7733 43.8453 31.376Z" fill="black"/>
<path fill-rule="evenodd" clip-rule="evenodd" d="M23.9494 16.2827C21.5867 13.3574 18.6614 10.08 15.048 8.64536C6.6107 5.29336 12.5894 24.5974 13.4747 27.3814C12.3147 29.6267 10.1254 34.8854 10.1254 39.328C10.1254 48.944 24.016 56 32.0134 56C40.3654 56 53.8747 49.1734 53.8747 39.328C53.8747 34.1147 51.8934 29.5174 50.728 27.5574C52.5227 22.448 55.8347 13.144 52.256 8.55469C49.8454 5.66935 41.296 14.9414 40.256 16.0827C38.696 15.4427 35.4347 14.68 31.888 14.68C28.4054 14.68 25.3787 15.6347 23.9494 16.2827ZM12.704 9.66402C12.504 9.81602 12.32 10.0907 12.1734 10.528C12.0147 11.0683 11.9251 11.6265 11.9067 12.1894C11.8347 13.5227 11.9867 15.208 12.28 17.0267C12.8534 20.6534 13.96 24.7067 14.8 27.3307L14.8747 27.5574L14.7627 27.7654C13.6667 29.8294 11.496 35.0187 11.496 39.328C11.496 40.576 12.0214 42.176 13.048 43.904C14.0694 45.6214 15.5547 47.4187 17.4 49.0534C21.0987 52.3227 26.368 54.5094 32.0134 54.5094C37.6747 54.5094 42.6987 52.576 46.472 49.4427C50.2694 46.288 52.5307 42.4 52.5307 39.328C52.5307 34.16 50.3947 29.4694 49.344 27.8L49.2 27.5707L49.2907 27.3147C50.128 24.9707 51.2214 21.2534 51.7814 17.728C52.0614 15.9654 52.2054 14.2694 52.1227 12.8267C52.0374 11.3787 51.7334 10.2667 51.1947 9.58402C51.1787 9.57336 51.072 9.50402 50.7307 9.55736C50.3334 9.61602 49.7254 9.83469 48.8667 10.3547C47.1547 11.3867 44.5734 13.5334 40.8827 17.6187L40.616 17.912L40.256 17.752C39.0134 17.1867 35.552 16.0347 31.888 16.0347C29.0774 16.0347 26.1707 16.6347 23.6694 17.9467C21.8694 15.6667 19.9174 13.4747 17.672 11.624C16.6854 10.808 14.1254 8.57336 12.704 9.66402Z" fill="black"/>
</svg>
