<svg width="64" height="64" viewBox="0 0 64 64" fill="none" xmlns="http://www.w3.org/2000/svg">
<rect width="64" height="64" rx="32" fill="black"/>
<path d="M14.75 16.9062H19.0625V47.0937H14.75V16.9062Z" fill="white"/>
<path d="M41.7041 15.8291V20.1416H14.75V15.8291H41.7041ZM42.7812 43.8584V48.1709H14.75V43.8584H42.7812ZM41.7041 22.2959C46.0166 22.2959 48.7114 25.5312 48.7114 27.6875H44.9375C44.9375 27.1489 43.7185 25.5312 41.7041 25.5312C39.2776 25.5312 38.4687 26.6084 38.4687 27.6875C38.4687 28.7666 39.0073 29.3052 41.7041 29.8437C44.1938 30.3402 49.25 31.4614 49.25 35.7739C49.25 39.2239 45.4761 41.7041 41.7041 41.7041C38.6853 41.7041 34.1562 40.0864 34.1562 35.2353H37.3916C37.3916 36.8511 39.5459 38.4687 41.7041 38.4687C42.9978 38.4687 45.4761 37.9302 45.4761 35.7739C45.4761 33.6177 42.9978 33.2937 41.7041 33.0772C38.4687 32.5405 34.6948 31.4614 34.6948 27.6875C34.6948 24.9927 37.3897 22.2978 41.7022 22.2978" fill="white"/>
</svg>
