<svg width="64" height="64" viewBox="0 0 64 64" fill="none" xmlns="http://www.w3.org/2000/svg">
<g clip-path="url(#clip0_146_490)">
<path d="M32 64C49.6732 64 64 49.6732 64 32C64 14.3269 49.6732 0 32 0C14.3269 0 0 14.3269 0 32C0 49.6732 14.3269 64 32 64Z" fill="black"/>
<path d="M51.3165 41.1482L44.7925 47.9643C44.6507 48.1124 44.4791 48.2304 44.2884 48.3111C44.0978 48.3918 43.892 48.4334 43.6842 48.4333H12.7574C12.6098 48.4333 12.4655 48.3912 12.3421 48.3124C12.2187 48.2336 12.1216 48.1214 12.0628 47.9895C12.0039 47.8577 11.9859 47.712 12.011 47.5703C12.036 47.4286 12.103 47.2971 12.2036 47.192L18.7325 40.3759C18.874 40.2282 19.045 40.1104 19.2351 40.0297C19.4251 39.9491 19.6302 39.9073 19.8375 39.9069H50.7626C50.9102 39.9069 51.0545 39.9489 51.178 40.0278C51.3013 40.1066 51.3983 40.2189 51.4574 40.3507C51.5161 40.4825 51.5341 40.6282 51.509 40.7699C51.484 40.9116 51.4171 41.0431 51.3165 41.1482ZM44.7925 27.4224C44.6507 27.2743 44.4791 27.1563 44.2884 27.0756C44.0978 26.995 43.892 26.9534 43.6842 26.9535H12.7574C12.6098 26.9535 12.4655 26.9955 12.3421 27.0743C12.2187 27.1532 12.1216 27.2654 12.0628 27.3972C12.0039 27.5291 11.9859 27.6748 12.011 27.8165C12.036 27.9581 12.103 28.0896 12.2036 28.1947L18.7325 35.0109C18.874 35.1585 19.045 35.2763 19.2351 35.357C19.4251 35.4376 19.6302 35.4795 19.8375 35.4798H50.7626C50.9102 35.4798 51.0545 35.4378 51.178 35.359C51.3013 35.2801 51.3983 35.1679 51.4574 35.0361C51.5161 34.9042 51.5341 34.7585 51.509 34.6168C51.484 34.4752 51.4171 34.3437 51.3165 34.2385L44.7925 27.4224ZM12.7574 22.5263H43.6842C43.892 22.5264 44.0978 22.4849 44.2884 22.4042C44.4791 22.3235 44.6507 22.2054 44.7925 22.0574L51.3165 15.2412C51.4171 15.1361 51.484 15.0047 51.509 14.863C51.5341 14.7213 51.5161 14.5756 51.4574 14.4438C51.3983 14.3119 51.3013 14.1997 51.178 14.1208C51.0545 14.042 50.9102 14 50.7626 14H19.8375C19.6302 14.0003 19.4251 14.0421 19.2351 14.1228C19.045 14.2035 18.874 14.3213 18.7325 14.4689L12.2053 21.2851C12.1047 21.3901 12.0378 21.5214 12.0127 21.6629C11.9876 21.8045 12.0055 21.9501 12.0641 22.0818C12.1227 22.2136 12.2195 22.3258 12.3427 22.4048C12.4658 22.4838 12.61 22.526 12.7574 22.5263Z" fill="url(#paint0_linear_146_490)"/>
</g>
<defs>
<linearGradient id="paint0_linear_146_490" x1="15.3359" y1="49.2539" x2="46.8219" y2="12.8198" gradientUnits="userSpaceOnUse">
<stop offset="0.08" stop-color="#9945FF"/>
<stop offset="0.3" stop-color="#8752F3"/>
<stop offset="0.5" stop-color="#5497D5"/>
<stop offset="0.6" stop-color="#43B4CA"/>
<stop offset="0.72" stop-color="#28E0B9"/>
<stop offset="0.97" stop-color="#19FB9B"/>
</linearGradient>
<clipPath id="clip0_146_490">
<rect width="64" height="64" fill="white"/>
</clipPath>
</defs>
</svg>
