<svg width="64" height="64" viewBox="0 0 64 64" fill="none" xmlns="http://www.w3.org/2000/svg">
<g clip-path="url(#clip0_203_103)">
<path fill-rule="evenodd" clip-rule="evenodd" d="M32 0C49.6128 0 64 14.4128 64 32C64 49.6128 49.5872 64 32 64C14.3872 64 0 49.5872 0 32C0 14.3872 14.4128 0 32 0Z" fill="#FC6432"/>
<path d="M38.3488 37.9904L45.2608 48.768H40.0896L31.9744 36.096L23.8848 48.768H18.7392L25.6512 38.016H15.744V33.92H48.256V37.9904H38.3488Z" fill="white"/>
<path d="M48.256 25.8816V29.952V29.9776H15.744V25.8816H25.472L18.6368 15.232H23.808L31.9744 28.0832L40.192 15.232H45.3632L38.528 25.8816H48.256Z" fill="white"/>
</g>
<defs>
<clipPath id="clip0_203_103">
<rect width="64" height="64" fill="white"/>
</clipPath>
</defs>
</svg>
