<svg width="64" height="64" viewBox="0 0 64 64" fill="none" xmlns="http://www.w3.org/2000/svg">
<g clip-path="url(#clip0_229_38)">
<path fill-rule="evenodd" clip-rule="evenodd" d="M64 32C64 49.6701 49.6701 64 32 64C14.3299 64 0 49.6701 0 32C0 14.3299 14.3299 0 32 0C49.6701 0 64 14.3299 64 32Z" fill="#29296E"/>
<path fill-rule="evenodd" clip-rule="evenodd" d="M46.9927 23.4582L46.1768 20.9594C46.0238 20.4494 45.6158 20.0669 45.1059 19.8884L42.6071 19.1235C42.2501 19.0215 42.2501 18.537 42.6071 18.4096L45.1059 17.5936C45.6158 17.4406 45.9983 17.0327 46.1768 16.5227L46.9417 14.0239C47.0437 13.6669 47.5282 13.6669 47.6557 14.0239L48.4716 16.5227C48.6246 17.0327 49.0326 17.4151 49.5425 17.5936L52.0413 18.3586C52.3983 18.4605 52.3983 18.945 52.0413 19.0725L49.5425 19.8884C49.0326 20.0414 48.6501 20.4494 48.4716 20.9594L47.7067 23.4582C47.5792 23.7896 47.0947 23.7896 46.9927 23.4582Z" fill="#FAFAFA"/>
<path fill-rule="evenodd" clip-rule="evenodd" d="M2.80469 31.49C3.56963 29.9857 5.07401 28.8383 6.65489 28.1243C8.23576 27.4104 9.96963 26.9769 11.678 26.8494C15.1202 26.5434 18.486 27.1044 21.5457 28.1243C23.1266 28.6088 24.529 29.2462 25.9824 29.9092C26.6963 30.2406 27.3593 30.6486 28.0477 31.0311L29.9346 32.1275C32.0254 33.4024 34.0397 34.5498 35.9266 35.4422C37.8389 36.3092 39.5473 36.9211 41.1537 37.2271C42.7601 37.5331 44.4174 37.5331 46.4318 37.0741C48.4461 36.6151 50.6899 35.6207 53.0613 34.3713C55.4326 33.0964 57.8804 31.541 60.6597 30.0367C60.3792 33.1984 59.4868 36.1817 58.1099 39.063C56.682 41.8932 54.6931 44.6725 51.8119 46.9163C48.9816 49.1857 45.0804 50.741 41.1282 50.996C37.1505 51.2765 33.4023 50.3841 30.1895 49.0582C26.9768 47.7068 24.172 45.9474 21.7242 44.0096C21.0358 43.4741 20.6788 43.1681 20.1688 42.7347L18.7664 41.4853C17.823 40.7458 16.9051 39.8534 15.9617 39.1139C14.1003 37.4821 12.2389 35.9012 10.1991 34.5498C9.17919 33.8614 8.13377 33.1984 6.93536 32.6375C6.34891 32.357 5.71146 32.102 5.02301 31.898C4.33457 31.6685 3.64612 31.541 2.80469 31.49Z" fill="#FF4F0A"/>
<path fill-rule="evenodd" clip-rule="evenodd" d="M2.80469 31.541C3.18716 28.3028 4.69154 25.2685 7.11385 22.6932C9.51066 20.1434 13.2844 18.1546 17.4405 17.8996C19.5059 17.7721 21.5967 18.0016 23.5091 18.5115C25.4214 19.047 27.2063 19.8119 28.8382 20.7299C29.6541 21.1888 30.3935 21.6988 31.1585 22.1833L33.1728 23.7131L36.3091 26.1864C38.3489 27.7928 40.2868 29.2972 42.0716 30.5466C43.882 31.796 45.4119 32.6884 46.8907 33.2239C48.3441 33.8103 50.18 33.9378 52.6278 33.3259C53.8262 33.0454 55.1011 32.5354 56.4525 31.9745C57.7784 31.4135 59.1808 30.7251 60.7107 30.0621C60.5322 31.694 60.2007 33.3004 59.5633 34.8303C58.9513 36.3601 58.1609 37.8645 57.0645 39.2669C56.5035 39.9554 55.8915 40.6438 55.1776 41.2558C54.4637 41.8677 53.6732 42.4542 52.8063 42.9641C51.0724 43.9586 49.0071 44.698 46.8907 44.9785C44.7744 45.2335 42.6581 45.106 40.7202 44.698C38.7824 44.29 37.023 43.6526 35.3911 42.9131C32.1529 41.4088 29.4501 39.5219 27.0533 37.5076C25.8549 36.5131 24.733 35.4677 23.6621 34.3968L22.4127 33.1219C22.0302 32.7649 21.6477 32.3825 21.2652 32.051C19.7354 30.6996 18.3075 29.6542 16.7521 29.0167C15.1967 28.3283 13.2079 28.0733 10.7601 28.5323C8.31226 29.0167 5.66046 30.0621 2.80469 31.541Z" fill="#FAFAFA"/>
<path fill-rule="evenodd" clip-rule="evenodd" d="M15.8087 48.1912C15.8087 49.1857 15.0183 49.9761 14.0239 49.9761C13.0295 49.9761 12.239 49.1857 12.239 48.1912C12.239 47.1968 13.0295 46.4064 14.0239 46.4064C15.0183 46.4064 15.8087 47.1968 15.8087 48.1912Z" fill="#FAFAFA"/>
<path fill-rule="evenodd" clip-rule="evenodd" d="M15.8087 48.1912C15.8087 49.1857 15.0183 49.9761 14.0239 49.9761C13.0295 49.9761 12.239 49.1857 12.239 48.1912C12.239 47.1968 13.0295 46.4064 14.0239 46.4064C15.0183 46.4064 15.8087 47.1968 15.8087 48.1912Z" fill="#FAFAFA"/>
</g>
<defs>
<clipPath id="clip0_229_38">
<rect width="64" height="64" fill="white"/>
</clipPath>
</defs>
</svg>
