<svg width="64" height="64" viewBox="0 0 64 64" fill="none" xmlns="http://www.w3.org/2000/svg">
<g clip-path="url(#clip0_310_678)">
<path d="M32 64C49.6731 64 64 49.6731 64 32C64 14.3269 49.6731 0 32 0C14.3269 0 0 14.3269 0 32C0 49.6731 14.3269 64 32 64Z" fill="#5B6DEE"/>
<path d="M26.6 30.04C25.4842 30.0343 24.3702 30.1307 23.272 30.328C24.176 21.968 31.144 15.636 39.44 15.636C44.52 15.636 48 18.124 48 23.272C48 28.422 43.822 30.91 37.728 30.91C33.228 30.91 31.1 30.04 26.6 30.04ZM26.272 33.09C20.178 33.09 16 35.58 16 40.728C16 45.876 19.48 48.364 24.56 48.364C32.856 48.364 39.824 42.034 40.728 33.672C39.6298 33.8693 38.5158 33.9657 37.4 33.96C32.9 33.96 30.77 33.09 26.272 33.09Z" fill="white"/>
</g>
<defs>
<clipPath id="clip0_310_678">
<rect width="64" height="64" fill="white"/>
</clipPath>
</defs>
</svg>
