<svg width="64" height="64" viewBox="0 0 64 64" fill="none" xmlns="http://www.w3.org/2000/svg">
<g clip-path="url(#clip0_369_884)">
<path d="M32.0054 0C14.3293 0 0 14.3293 0 32.0054C0 49.6815 14.3293 64.0108 32.0054 64.0108C49.6815 64.0108 64.0108 49.6815 64.0108 32.0054C64.0108 14.3293 49.6815 0 32.0054 0ZM24.0014 43.0638L23.6981 43.3671C23.0699 43.9953 22.3984 44.591 21.7052 45.1433L20.9037 45.7715C20.8496 45.8149 20.7846 45.8365 20.7196 45.8365C20.6654 45.8365 20.6113 45.8257 20.5679 45.7932C20.4596 45.7282 20.4055 45.6091 20.438 45.4791L20.7521 44.0602C21.0987 42.5222 21.0228 40.9084 20.5355 39.4029L20.3622 38.8831C20.1672 38.2765 19.9289 37.6808 19.6798 37.096L15.9865 28.377L15.5857 27.1856C15.4666 26.8174 15.3799 26.4383 15.3366 26.0484L15.2716 25.4527C15.0875 23.7739 15.6615 22.1276 16.8529 20.9362L17.1562 20.6329C17.7844 20.0047 18.4559 19.409 19.1491 18.8567L19.9506 18.2285C20.0481 18.1526 20.178 18.1418 20.2863 18.2068C20.3947 18.2718 20.4488 18.3909 20.4163 18.5209L20.1022 19.9398C19.7556 21.4777 19.8314 23.0916 20.3188 24.5971L20.4921 25.1169C20.6871 25.7235 20.9254 26.3192 21.1745 26.904L24.8787 35.6229L25.2794 36.8143C25.3985 37.1826 25.4852 37.5617 25.5285 37.9516L25.5935 38.5473C25.7668 40.2153 25.1928 41.8724 24.0014 43.0638ZM36.5003 45.9232L36.1103 46.3131C35.3197 47.1037 34.4749 47.8619 33.5976 48.5443L32.5578 49.3674C32.5036 49.4107 32.4278 49.4324 32.3628 49.4324C32.3087 49.4324 32.2437 49.4107 32.1895 49.3782C32.0704 49.3024 32.0162 49.1724 32.0487 49.0425L32.4603 47.212C32.8936 45.2625 32.7961 43.2263 32.1787 41.3308L31.9621 40.6702C31.713 39.9012 31.4205 39.143 31.0956 38.4065L26.4275 27.4131L25.9293 25.9184C25.7776 25.4635 25.6693 24.9761 25.6152 24.4996L25.5285 23.7414C25.2902 21.6402 26.0159 19.5823 27.4997 18.0768L27.8897 17.6869C28.6803 16.8963 29.5251 16.1381 30.4024 15.4557L31.4422 14.6326C31.5505 14.5459 31.6913 14.5351 31.8105 14.6109C31.9296 14.6867 31.9838 14.8167 31.9513 14.9467L31.5397 16.7771C31.1064 18.7267 31.2039 20.7629 31.8213 22.6583L32.0379 23.319C32.287 24.0772 32.5795 24.8462 32.9044 25.5827L37.5725 36.5869L38.0707 38.0816C38.2224 38.5365 38.3307 39.0239 38.3848 39.5004L38.4715 40.2586C38.7098 42.3598 37.9841 44.4285 36.5003 45.9232ZM47.1579 43.0638L46.8546 43.3671C46.2264 43.9953 45.5549 44.591 44.8617 45.1433L44.0602 45.7715C44.0061 45.8149 43.9411 45.8365 43.8761 45.8365C43.822 45.8365 43.7678 45.8257 43.7245 45.7932C43.6162 45.7282 43.562 45.6091 43.5945 45.4791L43.9086 44.0602C44.2552 42.5222 44.1794 40.9084 43.692 39.4029L43.5187 38.8831C43.3237 38.2765 43.0855 37.6808 42.8363 37.096L39.1322 28.377L38.7314 27.1856C38.6123 26.8174 38.5256 26.4383 38.4823 26.0484L38.4173 25.4527C38.2332 23.7739 38.8072 22.1276 39.9986 20.9362L40.3019 20.6329C40.9301 20.0047 41.6016 19.409 42.2948 18.8567L43.0963 18.2285C43.1938 18.1526 43.3237 18.1418 43.432 18.2068C43.5404 18.2718 43.5945 18.3909 43.562 18.5209L43.2479 19.9398C42.9013 21.4777 42.9771 23.0916 43.4645 24.5971L43.6378 25.1169C43.8328 25.7235 44.0711 26.3192 44.3202 26.904L48.0244 35.6229L48.4251 36.8143C48.5443 37.1826 48.6309 37.5617 48.6742 37.9516L48.7392 38.5473C48.9233 40.2153 48.3493 41.8724 47.1579 43.0638Z" fill="#171FC9"/>
</g>
<defs>
<clipPath id="clip0_369_884">
<rect width="64" height="64" fill="white"/>
</clipPath>
</defs>
</svg>
