<svg width="64" height="64" viewBox="0 0 64 64" fill="none" xmlns="http://www.w3.org/2000/svg">
<g clip-path="url(#clip0_160_162)">
<path d="M32 64C49.6732 64 64 49.6732 64 32C64 14.3269 49.6732 0 32 0C14.3269 0 0 14.3269 0 32C0 49.6732 14.3269 64 32 64Z" fill="black"/>
<path d="M47.7898 18.3415L42.4918 21.024L16.9083 33.974C16.8218 33.3183 16.7782 32.6577 16.778 31.9964C16.7815 29.3577 17.4786 26.7657 18.8002 24.4772C20.1219 22.1886 22.0222 20.2829 24.313 18.9488C26.6039 17.6147 29.2056 16.8985 31.8607 16.8712C34.5157 16.8438 37.1319 17.5063 39.45 18.7929L42.4825 17.2574L42.9348 17.028C40.1569 15.0243 36.8755 13.8228 33.4535 13.5565C30.0314 13.2901 26.6018 13.9693 23.5439 15.5188C20.4859 17.0684 17.9186 19.428 16.1256 22.3369C14.3327 25.2458 13.384 28.5907 13.3843 32.0019C13.3843 32.4731 13.4023 32.9423 13.4383 33.4098C13.4887 34.0717 13.341 34.7337 13.0137 35.3124C12.6865 35.8911 12.1943 36.3607 11.5991 36.6621L10 37.4724V41.2519L14.7079 38.8673L16.2325 38.094L17.7348 37.3336L44.7052 23.6769L47.7358 22.1433L54 18.9705V15.1928L47.7898 18.3415Z" fill="white"/>
<path d="M54 22.7519L19.2669 40.3269L16.2362 41.8643L10 45.0222V48.7981L16.1934 45.6623L21.4915 42.9798L47.101 30.0113C47.1876 30.6714 47.2311 31.3363 47.2313 32.0019C47.2297 34.6436 46.5328 37.239 45.2099 39.5303C43.8869 41.8217 41.9839 43.7293 39.6898 45.0638C37.3957 46.3983 34.7902 47.1133 32.1321 47.1378C29.474 47.1623 26.8556 46.4955 24.537 45.2035L24.3508 45.3016L21.0633 46.9666C23.8406 48.9704 27.1213 50.1722 30.5428 50.4392C33.9644 50.7061 37.3936 50.0279 40.4516 48.4794C43.5096 46.9309 46.0773 44.5725 47.871 41.6646C49.6647 38.7567 50.6146 35.4127 50.6157 32.0019C50.6157 31.5265 50.5971 31.051 50.5617 30.5811C50.5114 29.9194 50.6589 29.2577 50.9858 28.679C51.3127 28.1004 51.8044 27.6307 52.3991 27.3288L54 26.5185V22.7519Z" fill="white"/>
</g>
<defs>
<clipPath id="clip0_160_162">
<rect width="64" height="64" fill="white"/>
</clipPath>
</defs>
</svg>
