<svg width="64" height="64" viewBox="0 0 64 64" fill="none" xmlns="http://www.w3.org/2000/svg">
<path d="M32 64C49.6732 64 64 49.6732 64 32C64 14.3269 49.6732 0 32 0C14.3269 0 0 14.3269 0 32C0 49.6732 14.3269 64 32 64Z" fill="#4DA2FF"/>
<path fill-rule="evenodd" clip-rule="evenodd" d="M42.8566 28.3235C44.6553 30.5738 45.731 33.4197 45.731 36.5154C45.731 39.6111 44.6226 42.5438 42.7766 44.8068L42.6167 45.0023L42.5749 44.7543C42.5386 44.5442 42.4968 44.3307 42.4477 44.1171C41.5229 40.0691 38.5105 36.5987 33.552 33.7872C30.2033 31.8936 28.2865 29.6161 27.7833 27.0255C27.4581 25.351 27.6997 23.6691 28.1666 22.228C28.6336 20.7888 29.3276 19.5813 29.9181 18.8554L31.8477 16.5055C32.1857 16.0928 32.8198 16.0928 33.1577 16.5055L42.8584 28.3235H42.8566ZM45.9072 25.9754L32.9778 10.2254C32.7308 9.92487 32.2692 9.92487 32.0222 10.2254L19.0946 25.9754L19.0529 26.028C16.6745 28.9698 15.25 32.7082 15.25 36.7779C15.25 46.2551 22.9738 53.9382 32.5 53.9382C42.0263 53.9382 49.75 46.2551 49.75 36.7779C49.75 32.7082 48.3255 28.9698 45.9472 26.0297L45.9053 25.9773L45.9072 25.9754ZM22.1889 28.2728L23.3445 26.8625L23.379 27.1232C23.4062 27.3296 23.4407 27.5359 23.4807 27.7441C24.2293 31.6564 26.902 34.9168 31.3699 37.4423C35.2545 39.6455 37.5165 42.1782 38.167 44.9553C38.4395 46.1139 38.4868 47.2544 38.3687 48.2519L38.3614 48.3135L38.3051 48.3406C36.5518 49.1932 34.5803 49.673 32.4982 49.673C25.1923 49.673 19.2691 43.7821 19.2691 36.5136C19.2691 33.3925 20.361 30.5267 22.1852 28.2692L22.1889 28.2728Z" fill="white"/>
</svg>
