<svg width="64" height="64" viewBox="0 0 64 64" fill="none" xmlns="http://www.w3.org/2000/svg">
<g clip-path="url(#clip0_240_553)">
<mask id="mask0_240_553" style="mask-type:luminance" maskUnits="userSpaceOnUse" x="0" y="0" width="64" height="64">
<path d="M64 0H0V64H64V0Z" fill="white"/>
</mask>
<g mask="url(#mask0_240_553)">
<path d="M13.3333 6.13336L62.9333 40L50.6667 58.1334L1.06665 24L13.3333 6.13336Z" fill="url(#paint0_linear_240_553)"/>
<path d="M62.9333 40C58.6666 46.1333 44.2666 43.7334 30.6666 34.1334C16.7999 24.8 9.33326 12.2667 13.3333 6.13335C17.5999 1.51765e-05 31.9999 2.40002 45.5999 12C59.4666 21.0667 66.9333 33.8667 62.9333 40Z" fill="url(#paint1_linear_240_553)"/>
<path d="M50.6666 57.8667C46.3999 64 31.9999 61.6 18.3999 52C4.79994 42.4 -2.93339 30.1334 1.33327 23.7334C5.59994 17.6 19.9999 20 33.5999 29.6C47.1999 39.2 54.6666 51.7334 50.6666 57.8667Z" fill="url(#paint2_linear_240_553)"/>
<path d="M62.9332 40L50.6666 58.1333C46.3999 64.2667 31.9999 61.6 18.3999 52.2667C15.7332 50.4 13.3332 48.5333 10.9332 46.4C12.7999 46.1333 15.1999 45.0667 17.5999 42.4C21.8666 37.8667 23.9999 36.8 25.8666 37.0667C27.7332 37.0667 29.8666 38.9333 33.3332 43.4667C36.7999 48 41.5999 49.3333 44.5332 46.9333C44.7999 46.6667 45.0666 46.6667 45.3332 46.4C47.7332 44.5333 48.5332 43.7333 53.0666 35.2C54.1332 33.0667 57.8666 29.6 62.9332 31.2C64.2666 34.6667 64.2666 37.6 62.9332 40Z" fill="#0E0F23"/>
<path fill-rule="evenodd" clip-rule="evenodd" d="M61.0667 38.9334C57.3333 44.2667 44.2667 41.6 31.7333 32.8C18.9333 24 11.4667 12.8 15.2 7.46668C18.9333 2.13335 32 4.80002 44.5333 13.6C57.0667 22.4 64.5333 33.6 61.0667 38.9334ZM49.3333 30.9334C47.4667 33.6 41.0667 32.2667 34.6667 28C28.5333 23.7333 24.8 18.1333 26.6667 15.4667C28.5333 12.8 34.9333 14.1333 41.3333 18.4C47.4667 22.6667 51.2 28.2667 49.3333 30.9334Z" fill="white"/>
<path d="M12.2666 12.2667C12.2666 12 12 11.7333 11.7333 12C11.4666 12.2667 11.2 12.2667 11.2 12.5333C11.4666 13.3333 11.7333 13.8667 11.7333 14.4C11.7333 14.6667 12 14.9333 12.2666 14.6667C12.5333 14.6667 12.8 14.4 12.5333 14.1333C12.5333 13.6 12.5333 13.0667 12.2666 12.2667Z" fill="white"/>
<path d="M13.5999 16.5333C13.5999 16.2667 13.3333 16 13.0666 16.2667C12.7999 16.5333 12.7999 16.5333 12.7999 16.8C15.7333 23.4667 21.8666 30.6667 29.8666 36C30.1333 36.2667 30.3999 36 30.6666 36C30.9333 35.7333 30.6666 35.4667 30.6666 35.2C22.3999 29.8667 16.5333 22.9333 13.5999 16.5333Z" fill="white"/>
<path d="M45.8666 42.6667C45.5999 42.6667 45.3333 42.6667 45.3333 42.9334C45.3333 43.2 45.3333 43.4667 45.5999 43.4667C46.3999 43.7334 47.4666 44 48.2666 44.2667C48.5333 44.2667 48.7999 44.2667 48.7999 44C48.7999 43.7334 48.7999 43.4667 48.5333 43.4667C47.7333 43.2 46.6666 42.9334 45.8666 42.6667Z" fill="white"/>
<path d="M50.6666 43.7333C50.4 43.7333 50.1333 44 50.1333 44.2667C50.1333 44.5333 50.4 44.8 50.6666 44.8C52.8 45.0667 55.2 45.3333 57.0666 45.0667C57.3333 45.0667 57.6 44.8 57.6 44.5333C57.6 44.2667 57.3333 44 57.0666 44C54.9333 44.2667 52.8 44 50.6666 43.7333Z" fill="white"/>
</g>
</g>
<defs>
<linearGradient id="paint0_linear_240_553" x1="23.0512" y1="1.31816" x2="32.8875" y2="35.0947" gradientUnits="userSpaceOnUse">
<stop stop-color="#03B8FF"/>
<stop offset="1" stop-color="#FA52A0"/>
</linearGradient>
<linearGradient id="paint1_linear_240_553" x1="31.1514" y1="-1.04105" x2="40.9879" y2="32.7358" gradientUnits="userSpaceOnUse">
<stop stop-color="#03B8FF"/>
<stop offset="1" stop-color="#FA52A0"/>
</linearGradient>
<linearGradient id="paint2_linear_240_553" x1="14.9759" y1="3.66962" x2="24.8125" y2="37.4464" gradientUnits="userSpaceOnUse">
<stop stop-color="#03B8FF"/>
<stop offset="1" stop-color="#FA52A0"/>
</linearGradient>
<clipPath id="clip0_240_553">
<rect width="64" height="64" fill="white"/>
</clipPath>
</defs>
</svg>
