<svg width="64" height="64" viewBox="0 0 64 64" fill="none" xmlns="http://www.w3.org/2000/svg">
<g clip-path="url(#clip0_191_8)">
<path d="M31.9965 63.9931C49.6677 63.9931 63.9931 49.6677 63.9931 31.9965C63.9931 14.3253 49.6677 0 31.9965 0C14.3253 0 0 14.3253 0 31.9965C0 49.6677 14.3253 63.9931 31.9965 63.9931Z" fill="url(#paint0_linear_191_8)"/>
<path d="M21.4574 24.0415C21.2017 23.724 20.8136 23.5476 20.3991 23.5476H11.8532C11.7826 23.5476 11.7209 23.5212 11.668 23.4771C11.6239 23.433 11.5974 23.38 11.5974 23.3183V17.5593C11.5974 17.4976 11.6239 17.4446 11.668 17.4005C11.7209 17.3476 11.7826 17.3212 11.8532 17.33H20.8842C23.1596 17.33 25.1263 18.2648 26.7843 20.1257L28.9803 22.8068L24.7029 28.019L21.4574 24.0415ZM37.244 20.0993C38.8932 18.256 40.8688 17.33 43.1706 17.33H52.1752C52.2369 17.3212 52.2986 17.3476 52.3427 17.3829C52.3868 17.427 52.4045 17.4887 52.3956 17.5593V23.3183C52.3956 23.38 52.378 23.433 52.3427 23.4771C52.2986 23.53 52.2369 23.5564 52.1752 23.5476H43.6292C43.2235 23.5388 42.8355 23.724 42.5709 24.0415L36.2739 31.7055L42.5974 39.4224C42.8531 39.7135 43.2324 39.8898 43.6204 39.881H52.1663C52.2281 39.8722 52.2986 39.9075 52.3339 39.9516C52.3692 40.0045 52.3956 40.075 52.3868 40.1368V45.8958C52.3868 45.9575 52.3692 46.0105 52.3339 46.0546C52.2898 46.1075 52.2281 46.1339 52.1663 46.1251H43.1706C40.8688 46.1251 38.9109 45.1903 37.2705 43.3294L32.0318 36.9354L26.7931 43.3294C25.1439 45.1903 23.1684 46.1251 20.8665 46.1251H11.8532C11.7914 46.1339 11.7209 46.0987 11.6856 46.0546C11.6415 46.0016 11.6239 45.9311 11.6327 45.8693V40.1103C11.6327 40.0486 11.6503 39.9957 11.6856 39.9516C11.7297 39.8987 11.7914 39.8722 11.8532 39.881H20.3991C20.8048 39.881 21.1928 39.6958 21.4574 39.3871L27.6398 31.8378L37.244 20.0993Z" fill="#00D1FF"/>
</g>
<defs>
<linearGradient id="paint0_linear_191_8" x1="32.0009" y1="-0.000185206" x2="32.0009" y2="16.9329" gradientUnits="userSpaceOnUse">
<stop stop-color="#090220"/>
<stop offset="1" stop-color="#170659"/>
</linearGradient>
<clipPath id="clip0_191_8">
<rect width="64" height="64" fill="white"/>
</clipPath>
</defs>
</svg>
