<svg width="64" height="64" viewBox="0 0 64 64" fill="none" xmlns="http://www.w3.org/2000/svg">
<g clip-path="url(#clip0_369_941)">
<mask id="mask0_369_941" style="mask-type:luminance" maskUnits="userSpaceOnUse" x="0" y="0" width="64" height="64">
<path d="M0 0H64V64H0V0Z" fill="white"/>
</mask>
<g mask="url(#mask0_369_941)">
<path d="M64 0H0V64H64V0Z" fill="#20468F"/>
<path d="M47.9733 46.3413C46.784 47.3695 45.4898 48.2695 44.112 49.0267C44.3787 48.8187 43.5467 47.9413 43.7973 47.7173C50.0853 42.2427 51.52 35.1947 48.984 28.9947C48.64 28.1573 49.3627 27.8213 49.3653 27.0533C55.1573 32.5333 54.5307 40.6293 47.9733 46.3413Z" fill="white"/>
<path d="M49.3653 27.056C47.24 25.0427 44.2587 23.384 40.3867 22.3253L40.3387 22.312L40.392 22.3253C41.664 22.6587 41.7627 24.1307 42.6373 24.8747C44.5093 26.4667 45.0213 28.504 45.2133 31.1973C45.5013 35.2027 45.48 39.1653 42.5573 42.6907C41.024 44.544 39.0853 46.2267 36.7973 47.216L36.288 47.4373L36.2133 47.464C35.024 47.9387 33.8 48.2907 32.5413 48.52C27.8 49.416 21.5333 49.0427 13.9493 46.6293C16.7871 48.837 20.0306 50.466 23.496 51.424C26.9547 52.368 30.5627 52.6347 34.1227 52.2053C34.1298 52.2053 34.1387 52.2027 34.1493 52.1973C36.6129 51.9077 39.0264 51.2888 41.3253 50.3573H41.3333C42.2845 49.9698 43.2098 49.5271 44.1093 49.0293C44.376 48.8178 44.6365 48.6 44.8907 48.376C52.024 42.1627 53.6427 33.7333 49.3653 27.056Z" fill="white"/>
<path d="M36.288 47.4347C45.152 43.8187 45.6293 34.6507 35.328 29.4907C27.8427 25.7414 31.1493 19.792 40.3893 22.3254C50.7147 25.04 47.6613 43.04 36.288 47.4347Z" fill="white"/>
<path d="M50.0533 17.3733C40.3093 14.272 32.752 14.5387 27.792 16.5387L27.72 16.5653C20.3467 19.576 18.7733 26.4213 24.3813 31.6053C22.904 30.3787 21.216 29.0773 20.488 27.4187C19.5651 25.2288 19.2741 22.8241 19.648 20.4773C20.1547 17.4987 22.0347 14.8107 25.1307 13.1707C26.3627 12.5147 28.216 12.048 29.888 11.7973C37.082 10.908 44.3347 12.9128 50.0507 17.3707" fill="white"/>
<path d="M26.0266 42.1707C25.3866 41.9653 24.6666 41.8667 24.0746 41.6267C16.552 38.5973 12.5306 32.96 12.6746 27.3973C12.7786 23.4453 15.0933 19.44 18.8826 16.1413C19.9546 15.208 21.368 14.4213 22.6693 13.648L22.6773 13.6427C24.986 12.7057 27.4105 12.0841 29.8853 11.7947C29.2951 11.8836 28.7137 12.0062 28.1413 12.1627C18.4053 14.816 17.8213 26.1627 24.3813 31.608L24.3866 31.6107C25.52 32.6587 26.9466 33.6427 28.68 34.5067C35.464 37.9093 33.3733 43.1227 26.0266 42.1707Z" fill="white"/>
<path d="M26.024 42.176C25.2087 42.065 24.4016 41.9002 23.608 41.6827C9.18136 37.7333 7.06403 25.464 16.024 17.6587C18.0036 15.9683 20.2478 14.6151 22.6667 13.6533C21.3991 14.4 20.208 15.256 19.0934 16.2213C9.54669 24.5307 11.448 37.4533 26.0267 42.1787" fill="white"/>
</g>
</g>
<defs>
<clipPath id="clip0_369_941">
<rect width="64" height="64" rx="32" fill="white"/>
</clipPath>
</defs>
</svg>
