<svg width="64" height="64" viewBox="0 0 64 64" fill="none" xmlns="http://www.w3.org/2000/svg">
<g clip-path="url(#clip0_310_714)">
<mask id="mask0_310_714" style="mask-type:luminance" maskUnits="userSpaceOnUse" x="0" y="0" width="64" height="64">
<path d="M64 0H0V64H64V0Z" fill="white"/>
</mask>
<g mask="url(#mask0_310_714)">
<path d="M32 64C49.6731 64 64 49.6731 64 32C64 14.3269 49.6731 0 32 0C14.3269 0 0 14.3269 0 32C0 49.6731 14.3269 64 32 64Z" fill="black"/>
<path d="M52.736 24.8C54.144 30.304 26.4 43.904 13.824 47.136C1.24798 50.368 38.144 34.432 36.704 28.928C35.264 23.424 5.85598 27.936 18.432 24.704C31.008 21.472 51.328 19.296 52.736 24.8Z" fill="url(#paint0_linear_310_714)"/>
</g>
</g>
<defs>
<linearGradient id="paint0_linear_310_714" x1="28.3584" y1="22.1408" x2="33.504" y2="42.0512" gradientUnits="userSpaceOnUse">
<stop stop-color="#00FF8F"/>
<stop offset="0.43" stop-color="#53FDB2"/>
<stop offset="1" stop-color="#68FCBB"/>
</linearGradient>
<clipPath id="clip0_310_714">
<rect width="64" height="64" fill="white"/>
</clipPath>
</defs>
</svg>
