<svg width="64" height="64" viewBox="0 0 64 64" fill="none" xmlns="http://www.w3.org/2000/svg">
<g clip-path="url(#clip0_172_109)">
<path d="M32 64C49.6732 64 64 49.6732 64 32C64 14.3269 49.6732 0 32 0C14.3269 0 0 14.3269 0 32C0 49.6732 14.3269 64 32 64Z" fill="#0D61FF"/>
<path d="M37.0241 52.9999C34.012 52.9999 31.8134 52.2781 30.4285 50.8343C29.1455 49.6122 28.401 47.9344 28.3576 46.1676C28.342 45.6309 28.4671 45.0994 28.7204 44.6253C28.9567 44.2156 29.298 43.8757 29.7096 43.6403C30.1879 43.4029 30.7151 43.2793 31.2496 43.2793C31.7842 43.2793 32.3114 43.4029 32.7897 43.6403C33.2005 43.8748 33.5403 44.215 33.7733 44.6253C34.034 45.0971 34.1637 45.6294 34.1491 46.1676C34.176 46.8104 33.9907 47.4442 33.6215 47.9723C33.3137 48.4034 32.8739 48.7237 32.3679 48.8851C32.8627 49.512 33.5629 49.9463 34.3465 50.1124C35.2232 50.3658 36.1311 50.496 37.044 50.4995C38.2526 50.5099 39.4363 50.1578 40.4408 49.4889C41.4828 48.7564 42.2599 47.7094 42.6568 46.503C43.1601 45.0672 43.4056 43.5545 43.3824 42.0341C43.4229 40.4489 43.1541 38.871 42.5909 37.3877C42.1672 36.2014 41.3629 35.1867 40.3022 34.5002C39.3163 33.8794 38.1718 33.5537 37.005 33.5619C35.9884 33.6476 35.0081 33.9787 34.1491 34.5266L32.0313 35.583V34.5266L41.5487 21.823H28.3576V35.0056C28.3204 35.9569 28.5733 36.8972 29.0832 37.7028C29.3298 38.0538 29.6635 38.3356 30.0517 38.5206C30.44 38.7057 30.8697 38.7879 31.2992 38.7592C32.0929 38.7433 32.8604 38.4741 33.4887 37.9915C34.201 37.4721 34.8208 36.8377 35.3224 36.1145C35.3676 35.9877 35.4508 35.8778 35.5609 35.7997C35.6492 35.7237 35.7621 35.6818 35.8789 35.6816C36.108 35.7024 36.3249 35.7942 36.4989 35.944C36.7194 36.1891 36.8394 36.5075 36.8352 36.8364C36.8097 37.0575 36.7701 37.2767 36.7165 37.4927C36.2479 38.6212 35.4624 39.5914 34.4541 40.2874C33.5175 40.9179 32.4114 41.2522 31.2806 41.2465C28.4247 41.2465 26.4461 40.6865 25.3451 39.5666C24.7791 38.9475 24.3429 38.2224 24.0621 37.4336C23.7812 36.6448 23.6613 35.8081 23.7093 34.9727V21.823H17V19.3736H23.7406V13.7889L22.1973 12.2524V11H26.6755L28.3576 11.8664V19.3736L45.7828 19.3209L47.5177 21.0534L36.8328 31.7363C37.4783 31.478 38.1581 31.3144 38.8509 31.2507C40.2221 31.3104 41.5599 31.6904 42.7562 32.3599C44.1415 33.015 45.3089 34.0516 46.1201 35.3468C46.847 36.4432 47.3615 37.6651 47.6372 38.9496C47.8638 39.9628 47.9853 40.9965 47.9999 42.0343C48.007 44.0151 47.5556 45.9708 46.6808 47.7501C45.8512 49.473 44.455 50.8623 42.7233 51.6877C40.9508 52.5568 39.0002 53.0059 37.0241 52.9999Z" fill="white"/>
</g>
<defs>
<clipPath id="clip0_172_109">
<rect width="64" height="64" fill="white"/>
</clipPath>
</defs>
</svg>
