<svg width="64" height="64" viewBox="0 0 64 64" fill="none" xmlns="http://www.w3.org/2000/svg">
<g clip-path="url(#clip0_182_7)">
<path d="M32 64C49.6731 64 64 49.6731 64 32C64 14.3269 49.6731 0 32 0C14.3269 0 0 14.3269 0 32C0 49.6731 14.3269 64 32 64Z" fill="#6747ED"/>
<path fill-rule="evenodd" clip-rule="evenodd" d="M31.5333 36.1333C26.8 36.1333 23 32.3333 23 27.6C23 22.8667 26.8 19.0667 31.5333 19.0667C36.2667 19.0667 40.0667 22.8667 40.0667 27.6C40.0667 32.3333 36.2667 36.1333 31.5333 36.1333ZM31.5333 14.8C38.6 14.8 44.3333 20.5333 44.3333 27.6C44.3333 34.6667 38.6 40.4 31.5333 40.4C24.4667 40.4 18.7333 34.6667 18.7333 27.6C18.7333 20.5333 24.4667 14.8 31.5333 14.8ZM43.7333 41.0667C44.6 41.9333 44.6 43.2667 43.7333 44.0667L35.2 52.6C34.3333 53.4667 33 53.4667 32.2 52.6C31.3333 51.7333 31.3333 50.4 32.2 49.6L40.7333 41.0667C41.5333 40.2 42.9333 40.2 43.7333 41.0667ZM48.6667 16.9333C48.6667 18.1333 47.7333 19.0667 46.5333 19.0667C45.3333 19.0667 44.4 18.1333 44.4 16.9333C44.4 15.7333 45.3333 14.8 46.5333 14.8C47.6667 14.8 48.6667 15.7333 48.6667 16.9333Z" fill="white"/>
</g>
<defs>
<clipPath id="clip0_182_7">
<rect width="64" height="64" fill="white"/>
</clipPath>
</defs>
</svg>
