<svg width="64" height="64" viewBox="0 0 64 64" fill="none" xmlns="http://www.w3.org/2000/svg">
<g clip-path="url(#clip0_218_150)">
<path d="M32 0C49.6704 0 64 14.3296 64 32C64 49.6704 49.6704 64 32 64C14.3296 64 0 49.6704 0 32C0 14.3296 14.3296 0 32 0Z" fill="url(#paint0_linear_218_150)"/>
<path d="M44.288 22.208C43.8848 22.688 43.9104 23.7504 43.264 23.424C43.264 23.424 38.7648 21.7024 41.536 16.64C42.2848 15.4688 43.0592 15.392 42.944 12.544C43.6352 13.5936 45.9008 15.6992 46.08 19.008C46.2592 21.216 44.9408 21.5104 44.288 22.208Z" fill="white"/>
<path d="M40.7039 30.08C41.8111 29.7088 43.6031 29.12 43.7119 25.344C45.4207 27.9616 51.2191 31.6352 48.4479 42.88C47.3215 47.264 43.1231 49.3952 39.1679 51.008C36.6975 52.0576 34.1759 53.8112 33.1519 56.448C33.1519 56.448 14.4575 54.0864 15.0399 35.52C15.5071 25.888 24.5311 22.208 28.3519 15.168C30.3871 10.7264 29.6959 6.272 29.6959 6.272C29.6959 6.272 41.5999 13.6768 36.2239 25.088C34.4767 29.12 38.6495 30.4832 40.7039 30.08Z" fill="white"/>
<path d="M22.3359 33.408V39.616H28.9279V46.208H35.1359V39.616H41.7279V33.408H22.3359Z" fill="url(#paint1_linear_218_150)"/>
</g>
<defs>
<linearGradient id="paint0_linear_218_150" x1="0" y1="32" x2="64" y2="32" gradientUnits="userSpaceOnUse">
<stop stop-color="#FFA50D"/>
<stop offset="1" stop-color="#FE5413"/>
</linearGradient>
<linearGradient id="paint1_linear_218_150" x1="22.3359" y1="39.808" x2="41.7279" y2="39.808" gradientUnits="userSpaceOnUse">
<stop stop-color="#FFA50D"/>
<stop offset="1" stop-color="#FE5413"/>
</linearGradient>
<clipPath id="clip0_218_150">
<rect width="64" height="64" fill="white"/>
</clipPath>
</defs>
</svg>
