<svg width="64" height="64" viewBox="0 0 64 64" fill="none" xmlns="http://www.w3.org/2000/svg">
<rect width="64" height="64" rx="32" fill="black"/>
<g clip-path="url(#clip0_227_4918)">
<path d="M37.6739 27.8247C37.4654 27.8992 37.2466 27.8639 37.0317 27.8652C34.407 27.8679 31.7811 27.8666 29.1563 27.8666C29.069 27.8666 28.9818 27.8575 28.8959 27.8679C28.5675 27.9071 28.4073 27.7948 28.4386 27.4344C28.4646 27.1326 28.4438 26.8257 28.4438 26.5215C28.4438 24.978 28.4438 23.433 28.4411 21.8895C28.44 21.1883 28.5102 21.277 27.8056 21.277C24.4645 21.2718 21.1234 21.2679 17.7823 21.2718C16.6321 21.2718 15.8154 20.8239 15.3074 19.7335C14.3435 17.6676 13.3118 15.633 12.3089 13.584C12.2424 13.4469 12.1721 13.3124 12.1122 13.1727C11.8373 12.5315 12.0731 12.1032 12.7583 12.0183C12.951 11.9948 13.1477 12.0052 13.3431 12.0052C26.4482 12.0052 39.5522 12.0052 52.6574 12.0052C52.9166 12.0052 53.1797 11.9765 53.4336 12.0535C53.9392 12.2077 54.1136 12.5668 53.9273 13.0617C53.8895 13.1623 53.8349 13.2576 53.7866 13.3555C52.7263 15.5207 51.6517 17.6793 50.6135 19.8549C50.1433 20.8422 49.3631 21.2614 48.3249 21.264C45.1363 21.2744 41.9462 21.2718 38.7563 21.2744C38.6259 21.2744 38.4957 21.2731 38.3655 21.2744C37.6687 21.2823 37.7403 21.1909 37.739 21.8974C37.7352 23.7242 37.7376 25.5499 37.7338 27.3769C37.7338 27.5271 37.7676 27.6838 37.6739 27.8247Z" fill="white"/>
<path d="M33.1146 37.154C34.4812 37.154 35.8475 37.1514 37.2138 37.154C37.7218 37.154 37.731 37.1606 37.731 37.6319C37.7337 40.0439 37.731 42.4572 37.7283 44.8691C37.7283 45.3119 37.6176 45.7233 37.421 46.1216C36.3061 48.3794 35.2001 50.6412 34.0852 52.8991C33.904 53.2661 33.7412 53.6736 33.228 53.6813C32.7122 53.6892 32.5415 53.2883 32.3592 52.9187C31.136 50.4479 29.9169 47.9759 28.6989 45.5025C28.5231 45.1461 28.4528 44.7635 28.4528 44.3665C28.4515 42.106 28.4555 39.8455 28.4358 37.585C28.4333 37.2245 28.5557 37.1436 28.8866 37.1463C30.2959 37.1606 31.7053 37.154 33.1146 37.154Z" fill="white"/>
<path d="M37.744 32.4569C37.744 31.087 37.7415 29.7172 37.7453 28.3485C37.7466 27.8888 37.7545 27.8785 38.2012 27.8785C40.6526 27.8732 43.1041 27.8745 45.5542 27.8732C45.6623 27.8732 45.7705 27.8809 45.8786 27.8862C46.4855 27.9163 46.9427 28.3538 46.5584 29.1085C45.6245 30.9472 44.7362 32.8107 43.8296 34.6637C43.6381 35.0543 43.4376 35.4395 43.2578 35.8338C42.897 36.6266 42.2523 37.0484 41.4251 37.0953C40.301 37.1593 39.1702 37.1175 38.0437 37.1358C37.6893 37.1411 37.7453 36.9073 37.7453 36.697C37.744 35.2841 37.744 33.87 37.744 32.4569Z" fill="white"/>
</g>
<defs>
<clipPath id="clip0_227_4918">
<rect width="42" height="42" fill="white" transform="translate(12 12)"/>
</clipPath>
</defs>
</svg>
