<svg width="64" height="64" viewBox="0 0 64 64" fill="none" xmlns="http://www.w3.org/2000/svg">
<g clip-path="url(#clip0_203_75)">
<path d="M32 64C49.7143 64 64 49.7143 64 32C64 14.2857 49.7143 0 32 0C14.2857 0 0 14.2857 0 32C0 49.7143 14.2857 64 32 64Z" fill="#0098EA"/>
<path d="M42.9714 17.8286H21.0285C17.0285 17.8286 14.5142 22.1714 16.4571 25.7143L29.9428 49.1429C30.8571 50.6286 33.0285 50.6286 33.9428 49.1429L47.4285 25.7143C49.4857 22.1714 46.9714 17.8286 42.9714 17.8286ZM30.0571 42.0572L27.0857 36.3429L20 23.6572C19.5428 22.8572 20.1142 21.8286 21.1428 21.8286H30.0571V42.0572ZM44 23.6572L36.9142 36.3429L33.9428 42.0572V21.8286H42.8571C43.8857 21.8286 44.4571 22.8572 44 23.6572Z" fill="white"/>
</g>
<defs>
<clipPath id="clip0_203_75">
<rect width="64" height="64" fill="white"/>
</clipPath>
</defs>
</svg>
