<svg width="64" height="64" viewBox="0 0 64 64" fill="none" xmlns="http://www.w3.org/2000/svg">
<g clip-path="url(#clip0_249_347)">
<path d="M7 19.95V44.0623C7 48.0543 9.12448 51.7362 12.5583 53.7197L28.393 62.8936C30.9375 64.3688 34.0625 64.3688 36.6069 62.8936L52.4418 53.7197C55.8755 51.7238 58 48.0418 58 44.0623V19.95C58 15.9582 55.8755 12.2762 52.4418 10.2927L36.6069 1.10644C34.0625 -0.368812 30.9375 -0.368812 28.393 1.10644L12.5583 10.2803C9.12448 12.2762 7 15.9582 7 19.95Z" fill="#DC2626"/>
<path d="M51.8352 31.367L46.0175 29.3836C43.8806 28.6521 42.2874 26.8422 41.8427 24.6231L39.3847 12.4491C39.323 12.1392 39.0513 11.916 38.7301 11.916C38.409 11.916 38.1372 12.1392 38.0754 12.4491L35.6175 24.6231C35.1729 26.8422 33.5794 28.6521 31.4425 29.3836L25.625 31.367C25.3533 31.4539 25.1804 31.7143 25.1804 31.9993C25.1804 32.2845 25.3656 32.5324 25.625 32.6316L31.4425 34.6152C33.5794 35.3466 35.1729 37.1566 35.6175 39.3756L38.0754 51.5496C38.1372 51.8595 38.409 52.0826 38.7301 52.0826C39.0513 52.0826 39.323 51.8595 39.3847 51.5496L41.8427 39.3756C42.2874 37.1566 43.8806 35.3466 46.0175 34.6152L51.8352 32.6316C52.107 32.5448 52.2799 32.2845 52.2799 31.9993C52.2799 31.7143 52.0945 31.4663 51.8352 31.367Z" fill="#FFFDF7"/>
<path d="M20.5362 20.1981L22.5867 20.8923C23.34 21.1527 23.9082 21.7848 24.0564 22.5783L24.921 26.8801C24.9457 26.9917 25.0446 27.066 25.1558 27.066C25.2669 27.066 25.3657 26.9917 25.3904 26.8801L26.255 22.5783C26.4157 21.7972 26.9714 21.1527 27.7372 20.8923L29.7877 20.1981C29.8865 20.1609 29.9482 20.0741 29.9482 19.975C29.9482 19.8757 29.8865 19.789 29.7877 19.7518L27.7372 19.0575C26.9838 18.7972 26.4157 18.1649 26.255 17.3715L25.3904 13.0698C25.3657 12.9582 25.2669 12.8838 25.1558 12.8838C25.0446 12.8838 24.9457 12.9582 24.921 13.0698L24.0564 17.3715C23.8959 18.1525 23.34 18.7972 22.5867 19.0575L20.5362 19.7518C20.4374 19.789 20.3757 19.8757 20.3757 19.975C20.3757 20.0741 20.4374 20.1609 20.5362 20.1981Z" fill="#FFFDF7"/>
<path d="M25.3292 41.3227L22.5748 40.393C21.562 40.0459 20.8085 39.1904 20.5986 38.1366L19.4375 32.372C19.4128 32.2233 19.2769 32.124 19.1287 32.124C18.9805 32.124 18.8446 32.2233 18.8199 32.372L17.6589 38.1366C17.4489 39.1904 16.6954 40.0459 15.6826 40.393L12.9282 41.3227C12.8047 41.3599 12.7182 41.4838 12.7182 41.6202C12.7182 41.7566 12.8047 41.8806 12.9282 41.9178L15.6826 42.8475C16.6954 43.1946 17.4489 44.0501 17.6589 45.1039L18.8199 50.8685C18.8446 51.0172 18.9805 51.1165 19.1287 51.1165C19.2769 51.1165 19.4005 51.0048 19.4375 50.8685L20.5986 45.1039C20.8085 44.0501 21.562 43.1946 22.5748 42.8475L25.3292 41.9178C25.4527 41.8806 25.5393 41.7566 25.5393 41.6202C25.5393 41.4838 25.4527 41.3599 25.3292 41.3227Z" fill="#FFFDF7"/>
</g>
<defs>
<clipPath id="clip0_249_347">
<rect width="51" height="64" fill="white" transform="translate(7)"/>
</clipPath>
</defs>
</svg>
