<svg width="64" height="64" viewBox="0 0 64 64" fill="none" xmlns="http://www.w3.org/2000/svg">
<g clip-path="url(#clip0_142_419)">
<path d="M32 64C49.6732 64 64 49.6732 64 32C64 14.3269 49.6732 0 32 0C14.3269 0 0 14.3269 0 32C0 49.6732 14.3269 64 32 64Z" fill="#FF060A"/>
<path d="M43.864 19.8262L15 14.5142L30.19 52.7382L51.356 26.9502L43.864 19.8262ZM43.4 22.1662L47.816 26.3642L35.74 28.5502L43.4 22.1662ZM33.116 28.1122L20.388 17.5562L41.192 21.3842L33.116 28.1122ZM32.21 29.9802L30.134 47.1402L18.944 18.9742L32.21 29.9802ZM34.13 30.8902L47.504 28.4702L32.164 47.1562L34.13 30.8902Z" fill="white"/>
</g>
<defs>
<clipPath id="clip0_142_419">
<rect width="64" height="64" fill="white"/>
</clipPath>
</defs>
</svg>
