<svg width="64" height="64" viewBox="0 0 64 64" fill="none" xmlns="http://www.w3.org/2000/svg">
<g clip-path="url(#clip0_250_425)">
<mask id="mask0_250_425" style="mask-type:luminance" maskUnits="userSpaceOnUse" x="0" y="0" width="64" height="64">
<path d="M0 0H64V64H0V0Z" fill="white"/>
</mask>
<g mask="url(#mask0_250_425)">
<path d="M64 0H0V64H64V0Z" fill="#FF4A4A"/>
<path d="M41.68 26.6667H52.5413C52.7524 26.6697 52.9536 26.7559 53.1013 26.9067C53.1764 26.9824 53.2357 27.0723 53.2755 27.1712C53.3153 27.2702 53.335 27.376 53.3333 27.4827V36.72C53.3333 36.88 53.2693 37.0373 53.16 37.1547C53.1056 37.2108 53.0406 37.2556 52.9687 37.2863C52.8968 37.317 52.8195 37.333 52.7413 37.3333H50.4213C50.1013 37.3333 49.7787 37.0533 49.7787 36.72V30.5787C49.7787 30.3627 49.64 30.2213 49.432 30.2213H44.76C44.5493 30.2213 44.4453 30.3627 44.4453 30.5787V36.72C44.4453 37.048 44.0933 37.3333 43.7707 37.3333H41.4827C41.4045 37.333 41.3272 37.317 41.2553 37.2863C41.1834 37.2556 41.1184 37.2108 41.064 37.1547C40.9501 37.0388 40.8868 36.8825 40.888 36.72V27.4853C40.888 27.2693 40.9733 27.0613 41.12 26.9067C41.2677 26.7559 41.469 26.6697 41.68 26.6667ZM35.28 37.3333H37.6453C37.7999 37.329 37.9466 37.2639 38.0533 37.152C38.1598 37.032 38.2194 36.8777 38.2213 36.7173V27.4907C38.2255 27.341 38.1877 27.1932 38.112 27.064C38.041 26.9372 37.9369 26.8321 37.8107 26.76C37.6883 26.6909 37.5483 26.6591 37.408 26.6686C37.2678 26.678 37.1333 26.7284 37.0213 26.8133L32.3253 30.2533C32.2304 30.3211 32.1167 30.3575 32 30.3575C31.8834 30.3575 31.7696 30.3211 31.6747 30.2533L26.9787 26.8133C26.8664 26.7278 26.7315 26.6772 26.5907 26.6677C26.4499 26.6582 26.3094 26.6903 26.1867 26.76C26.0615 26.8325 25.9582 26.9375 25.888 27.064C25.8124 27.1932 25.7745 27.341 25.7787 27.4907V36.7173C25.7787 36.8773 25.84 37.0347 25.9467 37.152C25.9975 37.2099 26.0603 37.2561 26.1308 37.2874C26.2012 37.3187 26.2776 37.3344 26.3547 37.3333H28.704C29.0267 37.3333 29.3333 37.04 29.3333 36.72V32.888L31.6 34.5547C31.7188 34.632 31.8584 34.6711 32 34.6667C32.144 34.6667 32.2933 34.6373 32.416 34.5547L34.6667 32.888V36.7173C34.6667 37.04 34.96 37.3333 35.28 37.3333ZM11.4587 37.3333H22.32C22.531 37.3303 22.7323 37.2441 22.88 37.0933C22.9551 37.0176 23.0143 36.9277 23.0542 36.8288C23.094 36.7299 23.1137 36.624 23.112 36.5173V27.28C23.1104 27.1181 23.0476 26.9627 22.936 26.8453C22.8816 26.7892 22.8166 26.7444 22.7447 26.7137C22.6728 26.6831 22.5955 26.6671 22.5173 26.6667L20.224 26.712C19.904 26.712 19.5573 26.9947 19.5573 27.3253V33.7787H14.224V27.28C14.224 26.952 13.8587 26.6667 13.5333 26.6667H11.2613C11.1827 26.6667 11.1049 26.6825 11.0325 26.7132C10.9602 26.7439 10.8947 26.7889 10.84 26.8453C10.7271 26.9616 10.6647 27.1179 10.6667 27.28V36.5147C10.6667 36.7307 10.7493 36.9387 10.8987 37.0933C11.0464 37.2441 11.2477 37.3303 11.4587 37.3333ZM46.2507 33.56C46.2295 33.517 46.2203 33.4691 46.224 33.4213V32.3573C46.2247 32.2628 46.2626 32.1723 46.3294 32.1054C46.3963 32.0386 46.4868 32.0007 46.5813 32H47.64C47.6872 31.9997 47.7339 32.0086 47.7776 32.0264C47.8212 32.0442 47.8609 32.0705 47.8944 32.1037C47.9279 32.1369 47.9544 32.1765 47.9725 32.22C47.9907 32.2635 48 32.3102 48 32.3573V33.424C47.9986 33.5186 47.9601 33.6088 47.8927 33.6751C47.8253 33.7415 47.7346 33.7787 47.64 33.7787H46.5813C46.5105 33.7804 46.4408 33.7604 46.3817 33.7213C46.3225 33.6822 46.2768 33.6259 46.2507 33.56Z" fill="white"/>
</g>
</g>
<defs>
<clipPath id="clip0_250_425">
<rect width="64" height="64" rx="32" fill="white"/>
</clipPath>
</defs>
</svg>
