<svg width="64" height="64" viewBox="0 0 64 64" fill="none" xmlns="http://www.w3.org/2000/svg">
<g clip-path="url(#clip0_266_42)">
<mask id="mask0_266_42" style="mask-type:luminance" maskUnits="userSpaceOnUse" x="0" y="0" width="64" height="64">
<path d="M0 0H64V64H0V0Z" fill="white"/>
</mask>
<g mask="url(#mask0_266_42)">
<path d="M64 0H0V64H64V0Z" fill="#FF0A6F"/>
<path fill-rule="evenodd" clip-rule="evenodd" d="M22.6134 22L22.6188 22.0053C23.0312 22.3502 23.3352 22.6124 23.5308 22.792L23.6508 22.9093L23.7334 23.0027C24.1441 23.5413 23.9894 24.024 23.2881 24.4027C22.787 24.6404 22.2465 24.7841 21.6934 24.8267C21.2401 24.8267 21.0801 24.6613 21.0801 24.6613L20.9894 24.5813C20.7654 24.4 20.5068 24.1893 19.3174 22.1867C18.4748 20.9458 17.6303 19.7075 16.7841 18.472C16.4702 18.0056 16.1502 17.5433 15.8241 17.0853C15.7228 16.9973 15.7254 17 19.1254 22.7733C19.5628 23.7307 19.3734 24.2053 19.2774 24.4453C19.2565 24.4911 19.2421 24.5395 19.2348 24.5893C19.2348 24.936 19.1334 25.12 18.6801 25.6027C17.9254 26.4 17.5868 27.2987 17.3441 29.16C17.0721 31.2453 16.3041 32.7173 14.1708 35.24C12.9254 36.7147 12.7228 36.984 12.4081 37.5787C12.0108 38.3253 11.9014 38.7467 11.8588 39.6907C11.8108 40.6933 11.9014 41.3387 12.2241 42.2933C12.5041 43.1307 12.8001 43.6853 13.5521 44.7893C14.2001 45.744 14.5734 46.4533 14.5734 46.7307C14.5734 46.9493 14.6188 46.952 15.6241 46.736C18.0321 46.2187 19.9841 45.312 21.0854 44.2027C21.7654 43.512 21.9254 43.1333 21.9308 42.1893C21.9308 41.5733 21.9094 41.4427 21.7334 41.088C21.4481 40.512 20.9281 40.032 19.7814 39.288C18.2774 38.3093 17.6348 37.528 17.4588 36.448C17.3121 35.56 17.4801 34.936 18.3121 33.2827C19.1734 31.5707 19.3868 30.84 19.5308 29.1147C19.6241 28 19.7548 27.56 20.0908 27.208C20.4428 26.8373 20.7574 26.7147 21.6321 26.6C23.0534 26.416 23.9574 26.0667 24.6988 25.4187C25.3441 24.8533 25.6161 24.3093 25.6588 23.4907L25.6854 22.872L25.3281 22.472C24.0214 21.0293 11.4134 10.6667 11.3334 10.6667C11.3174 10.6667 11.7468 11.176 12.2881 11.8027C17.1201 17.368 20.8321 20.496 22.6134 22ZM15.3068 40.8267C15.4485 40.5868 15.4907 40.301 15.4244 40.0304C15.3581 39.7598 15.1886 39.5259 14.9521 39.3787C14.4854 39.0853 13.7601 39.224 13.7601 39.6053C13.7601 39.6444 13.769 39.6818 13.7868 39.7173L13.8054 39.7467C13.8232 39.7733 13.8454 39.7964 13.8721 39.816L13.9308 39.856L13.9841 39.8827C14.2428 40.0107 14.2614 40.152 14.0561 40.4427C13.8508 40.736 13.8694 40.9973 14.1041 41.1707C14.4854 41.456 15.0241 41.2987 15.3041 40.824" fill="white"/>
<path d="M23.7174 13.6987C23.6454 13.6773 23.704 13.664 23.856 13.6453C24.3814 13.5653 25.6214 13.672 26.4747 13.864C28.472 14.3147 30.288 15.464 32.224 17.5147L32.7387 18.0587L33.4747 17.9467C36.576 17.472 39.7334 17.848 42.3734 19.0053C43.0987 19.3253 44.2454 19.9573 44.3867 20.12C44.4347 20.1733 44.5174 20.5067 44.5734 20.864C44.768 22.096 44.672 23.0427 44.272 23.7493C44.2225 23.8374 44.1779 23.9282 44.1387 24.0213L44.112 24.1013C44.072 24.256 44.0987 24.3787 44.192 24.5813C44.3067 24.848 44.632 25.04 44.952 25.04C45.6054 25.04 46.312 24.032 46.64 22.632L46.7707 22.0747L47.0294 22.352C48.44 23.872 49.5494 25.9413 49.7387 27.416L49.7867 27.8L49.552 27.4507C49.2037 26.9137 48.7457 26.4566 48.208 26.1093C47.2614 25.5147 46.256 25.312 43.6054 25.1787C41.208 25.0587 39.8534 24.8667 38.5094 24.4507C36.2187 23.7413 35.0694 22.7973 32.3494 19.416C31.1414 17.912 30.3947 17.08 29.6534 16.4107C27.968 14.8907 26.3094 14.0907 24.1867 13.7787C24.0291 13.759 23.8725 13.7323 23.7174 13.6987Z" fill="white"/>
<path d="M44.9333 17.1333C44.992 16.1253 45.136 15.4613 45.424 14.8533C45.4901 14.7004 45.5705 14.554 45.664 14.416C45.6437 14.5518 45.6061 14.6845 45.552 14.8107C45.344 15.3973 45.3066 16.2053 45.4533 17.1413C45.64 18.3307 45.7413 18.5013 47.0666 19.7867C47.6853 20.3893 48.4106 21.1467 48.672 21.4747L49.1466 22.0667L48.672 21.6453C48.088 21.1253 46.752 20.1147 46.4533 19.9707C46.3983 19.9418 46.3401 19.9194 46.28 19.904H46.232C46.192 19.912 46.1573 19.9413 46.104 19.992C45.992 20.0987 45.968 20.2587 45.952 21.0133C45.9253 22.192 45.7573 22.9493 45.3493 23.7067C45.128 24.1147 45.0933 24.0267 45.2933 23.5653C45.4426 23.2187 45.4586 23.0693 45.456 21.928C45.456 19.6347 45.168 19.0827 43.4826 18.1413C42.9757 17.8613 42.456 17.6051 41.9253 17.3733C41.6621 17.2754 41.4071 17.1568 41.1626 17.0187C41.2106 16.9733 42.8506 17.4293 43.5093 17.6693C44.4933 18.0293 44.656 18.0747 44.7733 18.032C44.8533 18.0053 44.8933 17.7813 44.9333 17.1333ZM23.568 15.3733C23.408 17.1413 24.1413 19.5093 25.3253 21.0533C26.24 22.2533 27.6613 23.1813 28.712 23.272C29.3973 23.3307 29.6026 23.1253 29.2933 22.696C28.8613 22.0987 28.3306 21.176 28.1893 20.784C28.0293 20.2542 27.8889 19.7182 27.768 19.176C27.2746 16.9947 26.792 16.1467 25.672 15.5013C25.1081 15.2099 24.507 14.9972 23.8853 14.8693L23.6186 14.824L23.568 15.3733ZM43.4986 32.5494C37.9733 30.44 36.0266 28.608 36.0266 25.5147C36.0266 25.0613 36.0426 24.688 36.064 24.688C36.0853 24.688 36.2986 24.8373 36.5386 25.0213C37.6586 25.8747 38.912 26.2374 42.3866 26.72C44.4293 27.0027 45.5813 27.232 46.64 27.5653C50.0133 28.6267 52.1013 30.7787 52.5973 33.7147C52.7413 34.568 52.656 36.1653 52.424 37.008C52.2373 37.6747 51.672 38.872 51.5226 38.9173C51.5013 38.9209 51.4835 38.8942 51.4693 38.8373C51.4472 38.7509 51.4338 38.6625 51.4293 38.5733C51.376 37.472 50.7893 36.4 49.8026 35.5973C48.6826 34.6827 47.176 33.9574 43.4986 32.5494ZM39.352 32.3174C39.432 32.536 39.5493 33.0373 39.6186 33.4267C40.0613 35.9253 38.68 37.9467 35.992 38.728C35.7929 38.7802 35.5918 38.8247 35.3893 38.8613L34.6346 39L34.1386 39.0853L33.4986 39.192C31.3013 39.5387 30.32 39.784 29.3333 40.2347C28.6346 40.5547 27.7866 41.0347 27.84 41.08C27.8471 41.0889 27.8782 41.0862 27.9333 41.072C28.0207 41.0524 28.107 41.0283 28.192 41C29.4346 40.5867 30.8186 40.3707 32.92 40.2667C33.224 40.2534 33.5413 40.2347 33.84 40.2133L34.2373 40.1867L34.6373 40.16L34.8186 40.144L35.0293 40.1227C36.9013 39.8987 38.2 39.36 39.208 38.384C39.768 37.8427 40.104 37.336 40.3733 36.624C40.544 36.1707 40.568 36.0053 40.5706 35.2027C40.5706 34.3867 40.5493 34.2373 40.3653 33.736C40.1729 33.1694 39.8702 32.6464 39.4746 32.1974L39.2106 31.92L39.352 32.3174Z" fill="white"/>
<path d="M42.1493 37.6933C41.416 36.1973 41.248 34.752 41.648 33.4C41.6906 33.2587 41.76 33.1413 41.8053 33.1413C41.8648 33.1547 41.9217 33.1781 41.9733 33.2107C42.0391 33.2462 42.1102 33.2889 42.1866 33.3387C42.5253 33.552 43.2053 33.9173 45.0133 34.8533C47.2666 36.0213 48.5546 36.9227 49.4266 37.9573C50.1946 38.8613 50.6666 39.8907 50.896 41.1467C51.0266 41.856 50.9493 43.568 50.7573 44.2853C50.152 46.544 48.7413 48.3173 46.7306 49.352C46.5404 49.4569 46.3448 49.5493 46.144 49.6293C46.1368 49.6293 46.1386 49.6107 46.1493 49.5733L46.176 49.504C46.216 49.3973 46.2906 49.2373 46.3813 49.0533C47.0586 47.712 47.1333 46.408 46.6213 44.9547C46.3093 44.064 45.672 42.9813 44.3813 41.1467C42.8853 39.0133 42.5146 38.4453 42.1493 37.6933ZM28.3226 42.6053C26 42.9653 23.448 44.1307 21.3973 45.7733L20.7866 46.264L21.3226 46.344C24.1226 46.7573 24.8773 47.1253 26.8186 49.024C27.9386 50.1173 28.312 50.3573 29.2426 50.584C30.6026 50.912 31.944 50.3067 32.4053 49.1547C32.608 48.64 32.584 47.7867 32.3466 47.36C31.7866 46.3387 30.1493 46.0107 29.36 46.7573C28.7013 47.3787 28.8933 48.3173 29.712 48.4773C29.8986 48.5147 29.896 48.504 29.664 48.408C29.304 48.2533 29.1493 48.04 29.1466 47.7013C29.144 46.9067 30.1013 46.4587 30.9973 46.84C31.648 47.12 31.9093 47.4853 31.9093 48.128C31.9093 49.1147 31.024 49.8613 29.9946 49.736C29.3964 49.644 28.8412 49.3692 28.4053 48.9493C27.4986 47.976 27.8533 46.4373 29.1226 45.8453C30.088 45.3973 31.3706 45.5067 32.368 46.1253C33.5093 46.8373 33.9973 47.4853 34.9813 49.6187C35.304 50.312 35.7146 51.096 35.9013 51.3573C36.8346 52.6827 37.952 53.3307 39.3013 53.3307C39.9956 53.3419 40.6821 53.1836 41.3013 52.8693C41.8266 52.624 42.5653 52.152 42.5146 52.1013C42.3486 52.1301 42.1866 52.1784 42.032 52.2453C40.56 52.7893 39.0666 52.752 38.1973 52.1467C37.6506 51.768 37.2106 51.0107 36.984 50.0667C36.877 49.5327 36.781 48.9966 36.696 48.4587C36.3946 46.632 36.104 45.8133 35.4266 44.872C34.736 43.9067 33.4053 43.0987 31.92 42.7387C30.7345 42.5048 29.5195 42.4598 28.32 42.6053" fill="white"/>
<path fill-rule="evenodd" clip-rule="evenodd" d="M25.0666 28.496C25.2693 27.792 25.9199 27.12 26.5839 26.928C27.0079 26.8027 27.8853 26.88 28.2959 27.08C29.0959 27.4667 29.6746 28.344 29.5493 28.976C29.3973 29.7493 28.0746 30.368 26.5573 30.3787C25.7813 30.384 25.4933 30.2827 25.1973 29.9093C25.0159 29.6773 24.9466 28.9227 25.0693 28.496M28.0959 27.3547C28.4933 27.5867 28.5973 27.9307 28.3626 28.2453C28.1999 28.4613 27.7013 28.6693 27.3359 28.6693C26.7893 28.6693 26.1893 28.2987 26.1893 27.96C26.1893 27.28 27.3359 26.912 28.0959 27.3547Z" fill="white"/>
</g>
</g>
<defs>
<clipPath id="clip0_266_42">
<rect width="64" height="64" rx="32" fill="white"/>
</clipPath>
</defs>
</svg>
