<svg width="64" height="64" viewBox="0 0 64 64" fill="none" xmlns="http://www.w3.org/2000/svg">
<g clip-path="url(#clip0_170_11)">
<path d="M32 64C49.6732 64 64 49.6732 64 32C64 14.3269 49.6732 0 32 0C14.3269 0 0 14.3269 0 32C0 49.6732 14.3269 64 32 64Z" fill="#6042DD"/>
<path d="M51 15H47.6089C46.782 15 46.0234 15.4694 45.6668 16.1996L36.7453 34.4328L36.7377 34.4105L34.3631 39.2687L34.3707 39.291L31.9962 44.1492L20.1312 19.8657H23.5147C24.3416 19.8657 25.1002 20.3351 25.4568 21.0653L33.2024 36.8172L35.577 31.959L29.3258 19.2472C28.0589 16.6542 25.3885 15 22.4602 15H13L15.3669 19.8657H15.3745L29.6141 49H34.3631L51 15Z" fill="white"/>
</g>
<defs>
<clipPath id="clip0_170_11">
<rect width="64" height="64" fill="white"/>
</clipPath>
</defs>
</svg>
