<svg width="64" height="64" viewBox="0 0 64 64" fill="none" xmlns="http://www.w3.org/2000/svg">
<g clip-path="url(#clip0_203_53)">
<path fill-rule="evenodd" clip-rule="evenodd" d="M32 0C49.6691 0 64 14.3258 64 32C64 49.6691 49.6691 64 32 64C14.3258 64 0 49.6717 0 32C0 14.3258 14.3258 0 32 0Z" fill="white"/>
<path fill-rule="evenodd" clip-rule="evenodd" d="M52.1856 13.4323L50.4294 15.1885C59.1206 24.6963 59.1206 39.2602 50.4294 48.7654L52.1856 50.5216C61.8547 40.0307 61.8547 23.8797 52.1856 13.3888V13.4323Z" fill="#5A5564"/>
<path fill-rule="evenodd" clip-rule="evenodd" d="M15.2244 13.5859C24.7271 4.89472 39.296 4.89472 48.8013 13.5859L50.5575 11.8298C40.0692 2.15552 23.9104 2.15552 13.4247 11.8272L15.2244 13.5859Z" fill="#5A5564"/>
<path fill-rule="evenodd" clip-rule="evenodd" d="M13.586 48.7808C4.90501 39.2806 4.90501 24.727 13.586 15.2218L11.8272 13.4656C2.15557 23.9565 2.15557 40.1101 11.8272 50.5958L13.586 48.7808Z" fill="#5A5564"/>
<path fill-rule="evenodd" clip-rule="evenodd" d="M48.7808 50.4038C39.278 59.0976 24.7116 59.0976 15.2064 50.4038L13.4476 52.1651C23.936 61.8342 40.0947 61.8342 50.5804 52.1651L48.7808 50.4038Z" fill="#5A5564"/>
<path fill-rule="evenodd" clip-rule="evenodd" d="M37.3248 27.5251C37.3248 31.0374 31.831 30.6125 30.0825 30.6125V24.4224C31.831 24.4224 37.3248 23.872 37.3248 27.5251ZM38.7584 37.1379C38.7584 40.9779 32.1766 40.5401 30.0774 40.5401V33.7254C32.1766 33.7254 38.7584 33.1264 38.7584 37.1379ZM43.095 26.1376C42.7443 22.4691 39.5827 21.2403 35.5788 20.864V15.8105H32.4864V20.7667C31.6697 20.7667 30.8403 20.7667 30.0134 20.7923V15.8105H26.9388V20.8947H24.9702H20.672V24.2048C20.672 24.2048 22.9555 24.1638 22.9222 24.2048C23.7772 24.1126 24.5529 24.7142 24.6784 25.5641V39.488C24.6579 39.7798 24.5248 40.0512 24.3072 40.2457C24.087 40.4352 23.7977 40.5299 23.5084 40.5145C23.5468 40.5453 21.2582 40.5145 21.2582 40.5145L20.6438 44.2061H24.6732H26.8876V49.3747H29.9827V44.2829H32.4531V49.3491H35.5507V44.2445C40.7756 43.9245 44.4211 42.6393 44.8768 37.7446C45.248 33.8099 43.3945 32.0512 40.4377 31.3421C42.2348 30.4307 43.3638 28.8179 43.095 26.1376Z" fill="#F09242"/>
<path fill-rule="evenodd" clip-rule="evenodd" d="M31.9949 2.496C15.7107 2.50624 2.5216 15.7082 2.52416 31.9898C2.52672 48.2714 15.7261 61.4682 32.0102 61.4682C48.2918 61.4707 61.4963 48.2739 61.5014 31.9923C61.4784 15.7107 48.279 2.51648 31.9949 2.51136V2.496ZM31.9949 64C14.3232 63.9974 -0.00255966 49.6691 3.43049e-07 32C3.43049e-07 14.3258 14.3258 0.00256 31.9974 0C49.6666 0 63.9974 14.3232 64 31.9949C63.9795 49.664 49.6614 63.9795 31.9949 64Z" fill="#282138"/>
</g>
<defs>
<clipPath id="clip0_203_53">
<rect width="64" height="64" fill="white"/>
</clipPath>
</defs>
</svg>
