<svg width="64" height="64" viewBox="0 0 64 64" fill="none" xmlns="http://www.w3.org/2000/svg">
<g clip-path="url(#clip0_240_531)">
<path fill-rule="evenodd" clip-rule="evenodd" d="M64 32C64 27.84 63.168 23.616 61.568 19.776C59.968 15.936 57.6 12.352 54.656 9.344C51.648 6.4 48.128 4.032 44.224 2.432C40.32 0.832 36.16 0 32 0C27.84 0 23.616 0.832 19.776 2.432C15.936 4.032 12.352 6.4 9.344 9.344C6.4 12.352 4.032 15.872 2.432 19.776C0.832 23.68 0 27.84 0 32C0 36.16 0.832 40.384 2.432 44.224C4.032 48.064 6.4 51.648 9.344 54.656C12.288 57.6 15.872 59.968 19.712 61.568C23.552 63.168 27.84 64 32 64C36.16 64 40.384 63.168 44.224 61.568C48.064 59.968 51.648 57.6 54.656 54.656C57.6 51.712 59.968 48.128 61.568 44.288C63.168 40.448 64 36.16 64 32Z" fill="url(#paint0_linear_240_531)"/>
<path fill-rule="evenodd" clip-rule="evenodd" d="M30.3361 17.536H33.6641V46.464H30.3361V17.536Z" fill="white"/>
<path fill-rule="evenodd" clip-rule="evenodd" d="M28.48 31.168V27.712C25.856 26.432 24 23.68 24 20.544C24 16.128 27.584 12.544 32 12.544C36.992 12.544 40.576 16.128 40.576 20.544C40.576 21.632 40.32 22.72 39.808 24L38.4 19.392L35.584 20.288L38.08 29.824L47.808 26.24L46.592 23.424L42.944 24.64C43.584 23.232 43.712 22.144 43.712 20.48C43.712 14.272 38.72 9.28 31.936 9.28C25.728 9.28 20.736 14.272 20.736 20.48C20.8 25.472 24 29.696 28.48 31.168Z" fill="white"/>
<path fill-rule="evenodd" clip-rule="evenodd" d="M35.52 32.832V36.288C38.144 37.568 40 40.32 40 43.456C40 47.872 36.416 51.456 32 51.456C27.008 51.456 23.424 47.872 23.424 43.456C23.424 42.368 23.68 41.28 24.192 40L25.6 44.608L28.416 43.712L25.92 34.176L16.192 37.76L17.408 40.576L21.056 39.36C20.416 40.768 20.288 41.856 20.288 43.52C20.288 49.728 25.28 54.72 32.064 54.72C38.272 54.72 43.264 49.728 43.264 43.52C43.2 38.528 40 34.304 35.52 32.832Z" fill="white"/>
</g>
<defs>
<linearGradient id="paint0_linear_240_531" x1="0" y1="0" x2="64" y2="64" gradientUnits="userSpaceOnUse">
<stop stop-color="#0077FC"/>
<stop offset="1" stop-color="#095EB5"/>
</linearGradient>
<clipPath id="clip0_240_531">
<rect width="64" height="64" fill="white"/>
</clipPath>
</defs>
</svg>
