<svg width="64" height="64" viewBox="0 0 64 64" fill="none" xmlns="http://www.w3.org/2000/svg">
<g clip-path="url(#clip0_161_203)">
<path d="M32 64C49.6732 64 64 49.6732 64 32C64 14.3269 49.6732 0 32 0C14.3269 0 0 14.3269 0 32C0 49.6732 14.3269 64 32 64Z" fill="white"/>
<path fill-rule="evenodd" clip-rule="evenodd" d="M0 32C0 14.3526 14.3526 0 32 0C49.6474 0 64 14.3526 64 32C64 49.6474 49.6474 64 32 64C14.3526 64 0 49.6474 0 32ZM43.4145 17.1496V22.0196L29.8702 40.3899H43.4145V46.8492H34.6833V52.2015H29.3167V46.8492H20.5855V41.9793L34.1156 23.6089H20.5855V17.1496H29.3167V11.7831H34.6833V17.1496H43.4145Z" fill="#F4B728"/>
</g>
<defs>
<clipPath id="clip0_161_203">
<rect width="64" height="64" rx="32" fill="white"/>
</clipPath>
</defs>
</svg>
