<svg width="64" height="64" viewBox="0 0 64 64" fill="none" xmlns="http://www.w3.org/2000/svg">
<g clip-path="url(#clip0_371_958)">
<path d="M32 0C49.6747 0 64 14.3281 64 32C64 49.6747 49.6747 64 32 64C14.3281 64 0 49.6733 0 32C0 14.3281 14.3281 0 32 0Z" fill="#F5AC37"/>
<path d="M33.1794 34.2594H45.3389C45.5981 34.2594 45.7205 34.2594 45.7392 33.9196C45.8386 32.6826 45.8386 31.4384 45.7392 30.2C45.7392 29.9595 45.6197 29.8602 45.359 29.8602H21.1596C20.8601 29.8602 20.7794 29.9595 20.7794 30.2403V33.8C20.7794 34.2594 20.7794 34.2594 21.259 34.2594H33.1794ZM44.3813 25.7C44.4158 25.6092 44.4158 25.5099 44.3813 25.4206C44.1782 24.9785 43.9377 24.5566 43.6584 24.1606C43.2379 23.4838 42.7425 22.8602 42.178 22.3001C41.9116 21.9617 41.6035 21.6578 41.2579 21.4001C39.527 19.9269 37.4692 18.8844 35.2573 18.3602C34.1413 18.1096 33.0008 17.9901 31.8575 18.0002H21.1178C20.8183 18.0002 20.778 18.1197 20.778 18.3804V25.4796C20.778 25.7792 20.778 25.8598 21.1582 25.8598H44.2373C44.2373 25.8598 44.4374 25.8195 44.4777 25.7H44.3798H44.3813ZM44.3813 38.4196C44.0414 38.3822 43.6987 38.3822 43.3589 38.4196H21.1798C20.8802 38.4196 20.7794 38.4196 20.7794 38.8199V45.7608C20.7794 46.0805 20.7794 46.1611 21.1798 46.1611H31.4197C31.9093 46.1986 32.3989 46.164 32.8784 46.0618C34.3645 45.9552 35.8261 45.6326 37.2201 45.1013C37.727 44.9256 38.2166 44.6966 38.6788 44.4216H38.8185C41.219 43.1731 43.1688 41.2118 44.3985 38.8041C44.3985 38.8041 44.5382 38.5017 44.3813 38.4225V38.4196ZM16.7604 49.7597V49.6402V44.9803V43.4006V38.7004C16.7604 38.4398 16.7604 38.4009 16.4407 38.4009H12.1005C11.86 38.4009 11.7606 38.4009 11.7606 38.0812V34.281H16.4003C16.6595 34.281 16.7604 34.281 16.7604 33.9412V30.1813C16.7604 29.9408 16.7604 29.8818 16.4407 29.8818H12.1005C11.86 29.8818 11.7606 29.8818 11.7606 29.5621V26.0427C11.7606 25.8224 11.7606 25.7633 12.0803 25.7633H16.3802C16.6797 25.7633 16.7604 25.7633 16.7604 25.3832V14.6032C16.7604 14.2835 16.7604 14.2029 17.1607 14.2029H32.1599C33.2485 14.2461 34.33 14.3656 35.3999 14.5629C37.6046 14.9704 39.7228 15.7581 41.6596 16.8827C42.9441 17.6388 44.1264 18.5517 45.179 19.6029C45.971 20.4252 46.6853 21.3151 47.3189 22.2626C47.9482 23.2231 48.4709 24.2499 48.8813 25.3227C48.9317 25.602 49.1996 25.7907 49.4789 25.7432H53.0588C53.5182 25.7432 53.5182 25.7432 53.5383 26.1838V29.4642C53.5383 29.7838 53.4188 29.8645 53.0977 29.8645H50.3372C50.0578 29.8645 49.9772 29.8645 49.9973 30.2245C50.1068 31.4427 50.1068 32.6653 49.9973 33.8836C49.9973 34.2234 49.9973 34.2637 50.3789 34.2637H53.5369C53.6766 34.4437 53.5369 34.6237 53.5369 34.8052C53.557 35.037 53.557 35.2717 53.5369 35.5036V37.9242C53.5369 38.2641 53.4375 38.3649 53.1366 38.3649H49.3565C49.093 38.3145 48.8367 38.483 48.7762 38.745C47.8762 41.0851 46.4362 43.1832 44.5757 44.8651C43.896 45.4771 43.1817 46.0531 42.4358 46.5845C41.6352 47.0453 40.8561 47.5248 40.0353 47.905C38.5247 48.5847 36.9407 49.0858 35.3149 49.404C33.7712 49.6805 32.2059 49.8058 30.6349 49.7842H16.7546V49.764L16.7604 49.7597Z" fill="#FEFEFD"/>
</g>
<defs>
<clipPath id="clip0_371_958">
<rect width="64" height="64" fill="white"/>
</clipPath>
</defs>
</svg>
