<svg width="64" height="64" viewBox="0 0 64 64" fill="none" xmlns="http://www.w3.org/2000/svg">
<g clip-path="url(#clip0_161_217)">
<path d="M32.008 1.1443C49.0597 1.1443 62.8718 14.9564 62.8718 32.0081C62.8718 49.0436 49.0597 62.8718 32.008 62.8718C14.9564 62.8718 1.14429 49.0436 1.14429 32.0081C1.14429 14.9564 14.9564 1.1443 32.008 1.1443Z" fill="#111111" stroke="#111111" stroke-width="7.0536"/>
<path d="M32.0081 0.5802C14.6502 0.5802 0.5802 14.6502 0.5802 32.0081C0.5802 49.3659 14.6502 63.4359 32.0081 63.4359C49.3659 63.4359 63.4359 49.3659 63.4359 32.0081C63.4359 14.6502 49.3659 0.5802 32.0081 0.5802Z" fill="url(#paint0_radial_161_217)" fill-opacity="0.7"/>
<path d="M32.0081 0.5802C14.6502 0.5802 0.5802 14.6502 0.5802 32.0081C0.5802 49.3659 14.6502 63.4359 32.0081 63.4359C49.3659 63.4359 63.4359 49.3659 63.4359 32.0081C63.4359 14.6502 49.3659 0.5802 32.0081 0.5802Z" stroke="url(#paint1_linear_161_217)" stroke-width="2"/>
<path fill-rule="evenodd" clip-rule="evenodd" d="M26.9796 6.14052C14.8436 8.47746 5.67316 19.1629 5.67316 31.9758C5.67316 44.7887 14.8436 55.4742 26.9796 57.8111V55.3453C16.1813 53.0405 8.09068 43.451 8.09068 31.9758C8.09068 20.5006 16.1813 10.9111 26.9796 8.6064V6.14052ZM37.0365 8.62251V6.15664C49.1564 8.5097 58.2947 19.179 58.2947 31.9758C58.2947 44.7726 49.1564 55.442 37.0365 57.795V55.3291C47.8026 53.0083 55.8771 43.4349 55.8771 31.9758C55.8771 20.5167 47.8026 10.9433 37.0365 8.62251Z" fill="white"/>
<path d="M35.7311 31.1055C37.7457 31.4923 39.2929 32.2337 40.405 33.3135C41.517 34.3772 42.065 35.7472 42.065 37.4072V40.0343C42.065 42.0327 41.3397 43.6444 39.9053 44.8693C38.4709 46.0781 36.5691 46.6744 34.2322 46.6744H33.4264V50.8487H30.6543V46.6744H29.8001C28.2529 46.6744 26.899 46.3359 25.7064 45.6429C24.5299 44.9338 23.5951 43.9506 22.9343 42.6935C22.2896 41.4042 21.9673 39.9375 21.9673 38.2614H24.7394C24.7394 39.9537 25.2068 41.3397 26.1254 42.4034C27.0763 43.4349 28.3334 43.9668 29.8645 43.9668H34.1516C35.6666 43.9668 36.8915 43.6122 37.8263 42.9031C38.7449 42.1617 39.2123 41.2108 39.2123 40.0343V37.4072C39.2123 36.4724 38.8577 35.6827 38.1647 35.0219C37.4878 34.3611 36.5691 33.9421 35.3926 33.7487L28.4463 32.5238C26.4961 32.1692 24.965 31.4279 23.8852 30.3158C22.8054 29.1876 22.2574 27.7854 22.2574 26.0932V23.8852C22.2574 21.8867 22.9504 20.3072 24.3365 19.1307C25.7547 17.9219 27.6243 17.3256 29.929 17.3256H30.622V13.1514H33.3941V17.3256H34.2806C36.4724 17.3256 38.2292 18.0348 39.5669 19.453C40.9046 20.8391 41.5815 22.6925 41.5815 24.9811H38.8094C38.8094 23.4823 38.3904 22.2735 37.5684 21.3709C36.7464 20.4684 35.6505 20.0171 34.2806 20.0171H29.9129C28.4463 20.0171 27.2697 20.3717 26.3994 21.0808C25.5291 21.7577 25.094 22.6925 25.094 23.8691V26.0771C25.094 27.028 25.4163 27.8338 26.061 28.4946C26.7379 29.1554 27.6404 29.5905 28.8008 29.8001L35.7311 31.1055Z" fill="white"/>
</g>
<defs>
<radialGradient id="paint0_radial_161_217" cx="0" cy="0" r="1" gradientUnits="userSpaceOnUse" gradientTransform="translate(32.0699 9.75134) rotate(90) scale(66.2646 46.6436)">
<stop offset="0.03125" stop-color="#3A3A3A"/>
<stop offset="1" stop-color="#1C1C1C"/>
</radialGradient>
<linearGradient id="paint1_linear_161_217" x1="32.0039" y1="-6.29847e-06" x2="32.0039" y2="64.0079" gradientUnits="userSpaceOnUse">
<stop stop-color="white"/>
<stop offset="1" stop-color="#111111"/>
</linearGradient>
<clipPath id="clip0_161_217">
<rect width="64" height="64" rx="32" fill="white"/>
</clipPath>
</defs>
</svg>
