<svg width="64" height="64" viewBox="0 0 64 64" fill="none" xmlns="http://www.w3.org/2000/svg">
<g clip-path="url(#clip0_247_307)">
<path d="M32 64C27.6808 64 23.4903 63.1533 19.5436 61.4848C15.7324 59.8727 12.3119 57.5652 9.37219 54.6278C6.43477 51.6904 4.12728 48.2676 2.51521 44.4564C0.84668 40.5097 0 36.3192 0 32C0 27.6808 0.84668 23.4903 2.51521 19.5436C4.12728 15.7324 6.43477 12.3119 9.37219 9.37219C12.3119 6.43477 15.7324 4.12728 19.5436 2.51521C23.4903 0.84668 27.6808 0 32 0C36.3192 0 40.5097 0.84668 44.4564 2.51521C48.2676 4.12728 51.6881 6.43477 54.6278 9.37219C57.5652 12.3096 59.8727 15.7324 61.4848 19.5436C63.1533 23.4903 64 27.6808 64 32C64 36.3192 63.1533 40.5097 61.4848 44.4564C59.8727 48.2676 57.5652 51.6881 54.6278 54.6278C51.6904 57.5652 48.2676 59.8727 44.4564 61.4848C40.5097 63.1556 36.3192 64 32 64Z" fill="white"/>
<path d="M32 62.3044C48.7366 62.3044 62.3044 48.7366 62.3044 32C62.3044 15.2634 48.7366 1.69562 32 1.69562C15.2634 1.69562 1.69562 15.2634 1.69562 32C1.69562 48.7366 15.2634 62.3044 32 62.3044Z" fill="black"/>
<path d="M47.9628 32C47.9628 28.7533 46.9874 25.7323 45.3166 23.2081L50.2725 18.2522L45.8156 13.7952L40.8732 18.7376C38.3355 17.0329 35.2829 16.0373 32.0023 16.0373C28.7556 16.0373 25.7346 17.0126 23.2104 18.6834L18.2522 13.7275L13.7953 18.1844L18.7376 23.1268C17.033 25.6646 16.0373 28.7171 16.0373 31.9977C16.0373 35.2445 17.0127 38.2654 18.6834 40.7897L13.7275 45.7478L18.1845 50.2048L23.1268 45.2624C25.6646 46.967 28.7172 47.9627 31.9978 47.9627C35.2445 47.9627 38.2655 46.9874 40.7897 45.3166L45.7479 50.2747L50.2048 45.8178L45.2624 40.8755C46.9671 38.3332 47.9628 35.2806 47.9628 32ZM22.3434 32C22.3434 26.6738 26.6761 22.3411 32.0023 22.3411C37.3285 22.3411 41.6612 26.6738 41.6612 32C41.6612 37.3262 37.3285 41.6589 32.0023 41.6589C26.6761 41.6589 22.3434 37.3262 22.3434 32Z" fill="white"/>
</g>
<defs>
<clipPath id="clip0_247_307">
<rect width="64" height="64" fill="white"/>
</clipPath>
</defs>
</svg>
