<svg width="64" height="64" viewBox="0 0 64 64" fill="none" xmlns="http://www.w3.org/2000/svg">
<g clip-path="url(#clip0_188_93)">
<path d="M32 64C49.6731 64 64 49.6731 64 32C64 14.3269 49.6731 0 32 0C14.3269 0 0 14.3269 0 32C0 49.6731 14.3269 64 32 64Z" fill="black"/>
<g clip-path="url(#clip1_188_93)">
<path d="M20.5454 47.1136C21.791 48.5495 23.3059 49.7208 25.0024 50.5596C26.6988 51.3984 28.5429 51.888 30.4278 52C32.6797 51.879 34.8043 50.9055 36.3796 49.2727C39.487 46.5796 42.7494 44.0752 46.1497 41.7727L48.0588 40.9773C48.8449 40.6364 50.1925 39.8409 51.4278 38.3636C52.7754 36.5455 53 34.6136 53 33.9318C52.8506 31.7815 52.1543 29.7067 50.9786 27.9091C47.9105 33.4411 43.5134 38.1009 38.194 41.4577C32.8746 44.8144 26.8046 46.7597 20.5454 47.1136Z" fill="#0293D6"/>
<path d="M24.8129 14.8409C25.6512 13.9449 26.661 13.2309 27.7808 12.7425C28.9005 12.2541 30.1069 12.0014 31.3262 12C32.0988 11.9476 32.8739 12.0513 33.6066 12.3049C34.3392 12.5585 35.0146 12.957 35.5936 13.4773C38.8148 15.7865 42.6517 17.0543 46.599 17.1136C47.6097 17.2273 49.631 17.5682 50.9786 19.2727C51.9893 20.6364 52.1016 22.1136 52.1016 22.7954C52.0112 24.5514 51.6316 26.2797 50.9786 27.9091L24.8129 14.8409Z" fill="#EBE638"/>
<path d="M20.5455 47.1136C19.5348 47 18.1872 46.6591 16.615 45.9773C15.0428 45.2955 13.1337 44.5 11.8984 42.3409C11.1123 40.9773 11 39.6136 11 38.7046C11.0274 36.2936 11.6038 33.9216 12.6845 31.7727C13.7596 29.1168 14.4773 26.3266 14.8182 23.4773L15.3797 21.2046C15.7166 20.0682 15.9412 18.9318 16.7273 17.7955L17.9626 16.4318C20.0029 15.1338 22.4174 14.573 24.8128 14.8409C21.6053 19.484 19.5439 24.8372 18.8015 30.4523C18.059 36.0673 18.657 41.7806 20.5455 47.1136Z" fill="#BAD147"/>
<path d="M24.8128 14.8409C24.7005 14.8409 30.877 15.1818 34.6952 16.5455L37.8396 17.9091C36.6043 17.7955 28.7433 17.4545 22.7914 23.4773C15.2674 31.2045 17.738 41.7727 17.8503 42.3409C16.1066 40.1211 15.2277 37.3315 15.3797 34.5C15.5275 30.7421 16.4418 27.0557 18.0652 23.6725C19.6886 20.2894 21.9859 17.2825 24.8128 14.8409Z" fill="#78B650"/>
<path d="M39.861 42.9091C41.9856 39.0011 42.9268 34.5468 42.5673 30.1013C42.2079 25.6559 40.5637 21.4157 37.8396 17.9091C41.0924 18.4594 44.0844 20.0529 46.3744 22.4545C47.722 23.5909 49.4064 25.2955 50.9786 27.9091C48.7582 33.8774 44.9014 39.0809 39.861 42.9091Z" fill="#2F8260"/>
<path d="M43.4546 22.9091C41.6578 19.8409 39.0749 18.4773 37.9519 17.9091C37.0535 17.6818 28.631 16.3182 22.23 22.5682C17.0642 27.5682 16.7273 34.0455 16.7273 35.2955C16.7511 39.578 18.1723 43.7327 20.7701 47.1136C24.1084 47.7641 27.5387 47.7641 30.877 47.1136C32.5615 46.7727 36.492 46.0909 39.861 43.1364C40.3102 42.6818 45.2514 38.0227 45.5883 30.6364C45.5883 29.3864 45.5883 26.2046 43.4546 22.9091ZM39.4118 39.3864C38.369 40.5343 37.1017 41.4503 35.6905 42.0763C34.2792 42.7023 32.7548 43.0246 31.2139 43.0227C30.5401 43.0227 26.0482 42.9091 22.9038 39.1591C22.4546 38.5909 20.2086 35.8636 20.3209 31.7727C20.5455 26.3182 24.8129 23.1364 25.7113 22.4546C26.4973 21.8864 28.4064 20.6364 31.2139 20.5227C31.8877 20.4091 34.246 20.2955 36.6043 21.6591C41.7701 24.5 41.9947 31.3182 41.9947 31.7727C41.9947 33.0227 41.9947 36.4318 39.4118 39.3864Z" fill="#085229"/>
</g>
</g>
<defs>
<clipPath id="clip0_188_93">
<rect width="64" height="64" fill="white"/>
</clipPath>
<clipPath id="clip1_188_93">
<rect width="42" height="40" fill="white" transform="translate(11 12)"/>
</clipPath>
</defs>
</svg>
