<svg width="64" height="64" viewBox="0 0 64 64" fill="none" xmlns="http://www.w3.org/2000/svg">
<g clip-path="url(#clip0_371_1808)">
<mask id="mask0_371_1808" style="mask-type:luminance" maskUnits="userSpaceOnUse" x="0" y="0" width="64" height="64">
<path d="M0 0H64V64H0V0Z" fill="white"/>
</mask>
<g mask="url(#mask0_371_1808)">
<path d="M64 0H0V64H64V0Z" fill="#3B6FEF"/>
<path fill-rule="evenodd" clip-rule="evenodd" d="M20.5467 12.2027C20.5987 11.7794 20.8036 11.3896 21.1228 11.1068C21.442 10.8239 21.8535 10.6674 22.28 10.6667H38.2667C40.0188 10.7832 41.7295 11.2509 43.2972 12.042C44.8648 12.8331 46.2573 13.9315 47.3918 15.2717C48.5263 16.612 49.3796 18.1667 49.901 19.8435C50.4224 21.5203 50.6011 23.2848 50.4267 25.032C49.6454 35.3707 41.4934 39.112 37.2427 39.112H31.6694L29.2934 51.8854C29.2232 52.2931 29.0103 52.6626 28.6928 52.9278C28.3752 53.1931 27.9737 53.3368 27.56 53.3334H17.0027C16.7503 53.3302 16.5015 53.2737 16.2726 53.1674C16.0437 53.0612 15.8399 52.9076 15.6747 52.7169C15.5094 52.5262 15.3864 52.3026 15.3138 52.0609C15.2412 51.8192 15.2206 51.5649 15.2534 51.3147L17.888 32H15.2694C15.0364 32.0004 14.8057 31.9545 14.5907 31.8651C14.3756 31.7756 14.1804 31.6443 14.0165 31.4789C13.8525 31.3134 13.723 31.1171 13.6355 30.9012C13.548 30.6854 13.5042 30.4543 13.5067 30.2214C13.5067 29.24 14.288 28.4454 15.2694 28.4454H18.3734L19.3227 21.3334H15.2694C15.0364 21.3337 14.8057 21.2878 14.5907 21.1984C14.3756 21.1089 14.1804 20.9777 14.0165 20.8122C13.8525 20.6468 13.723 20.4504 13.6355 20.2346C13.548 20.0187 13.5042 19.7876 13.5067 19.5547C13.5067 18.5734 14.2747 17.7787 15.256 17.7787H19.792L20.5467 12.2027ZM22.8667 21.3334L21.8987 28.4454H34.5974C35.0675 28.4616 35.536 28.3805 35.9733 28.207C36.4107 28.0336 36.8074 27.7717 37.1387 27.4376C37.47 27.1036 37.7287 26.7047 37.8984 26.2659C38.0682 25.8272 38.1455 25.3581 38.1254 24.888C38.1451 24.4182 38.0676 23.9494 37.8976 23.5109C37.7277 23.0725 37.4689 22.6739 37.1377 22.3402C36.8065 22.0064 36.4098 21.7447 35.9727 21.5715C35.5355 21.3982 35.0673 21.3171 34.5974 21.3334H22.8667ZM21.4267 32H34.6C35.5334 32.0099 36.4592 31.8321 37.3225 31.4773C38.1858 31.1224 38.969 30.5978 39.6256 29.9344C40.2823 29.271 40.799 28.4825 41.145 27.6156C41.491 26.7488 41.6594 25.8212 41.64 24.888C41.64 20.9067 38.5947 17.7787 34.6 17.7787H23.3467L23.8187 14.2214H38.04C39.324 14.3022 40.5782 14.6423 41.7272 15.221C42.8761 15.7997 43.896 16.6051 44.7253 17.5886C45.5546 18.5722 46.1761 19.7134 46.5524 20.9437C46.9286 22.1739 47.0519 23.4675 46.9147 24.7467C46.3014 32.896 40.016 35.5547 37.2427 35.5547H30.2027C29.3494 35.5547 28.6374 36.168 28.4694 37.0054L26.1067 49.7787H19.024L21.4267 32Z" fill="white"/>
</g>
</g>
<defs>
<clipPath id="clip0_371_1808">
<rect width="64" height="64" rx="32" fill="white"/>
</clipPath>
</defs>
</svg>
