<svg width="64" height="64" viewBox="0 0 64 64" fill="none" xmlns="http://www.w3.org/2000/svg">
<g clip-path="url(#clip0_142_412)">
<path d="M32 0C49.6723 0 64 14.3277 64 32C64 49.6723 49.6717 64 32 64C14.3283 64 0 49.6762 0 32C0 14.3238 14.3258 0 32 0Z" fill="#53AE94"/>
<path d="M35.9495 27.7363V22.976H46.8352V15.7229H17.193V22.976H28.08V27.7325C19.232 28.1389 12.5792 29.8912 12.5792 31.9904C12.5792 34.0896 19.2352 35.8419 28.08 36.2509V51.4989H35.952V36.2496C44.784 35.8419 51.4234 34.0909 51.4234 31.9936C51.4234 29.8963 44.784 28.1453 35.952 27.7376M35.952 34.9581V34.9542C35.7299 34.9683 34.5888 35.0368 32.048 35.0368C30.0167 35.0368 28.5875 34.9792 28.0839 34.953V34.9594C20.2669 34.6131 14.432 33.2518 14.432 31.623C14.432 29.9942 20.2675 28.6349 28.0839 28.288V33.6032C28.5959 33.6384 30.0602 33.7248 32.0813 33.7248C34.5088 33.7248 35.7293 33.6237 35.9533 33.6032V28.288C43.7549 28.6355 49.5763 29.9981 49.5763 31.6211C49.5763 33.2442 43.7523 34.6074 35.9533 34.9549" fill="white"/>
</g>
<defs>
<clipPath id="clip0_142_412">
<rect width="64" height="64" fill="white"/>
</clipPath>
</defs>
</svg>
