<svg width="64" height="64" viewBox="0 0 64 64" fill="none" xmlns="http://www.w3.org/2000/svg">
<rect width="64" height="64" rx="32" fill="black"/>
<path d="M32 31C40.2848 31 47 29.8806 47 28.5C47 27.1194 40.2848 26 32 26C23.7152 26 17 27.1194 17 28.5C17 29.8806 23.7152 31 32 31Z" fill="white"/>
<path fill-rule="evenodd" clip-rule="evenodd" d="M48.2673 8H15.6576L6 29.2893L32 55L58 29.2893L48.2673 8ZM34.6 32.7533C41.9811 32.4429 47.6058 30.8327 47.6058 28.8889C47.6058 26.7275 40.6204 24.9722 32.0058 24.9722C23.3911 24.9722 16.4058 26.7275 16.4058 28.8889C16.4058 30.8327 22.0247 32.44 29.4 32.7504V44.5585H34.6V32.7533Z" fill="white"/>
<path d="M44 15H21V20.4545H29.9444V30H35.0556V20.4545H44V15Z" fill="#DDA85B"/>
</svg>
