<svg width="64" height="64" viewBox="0 0 64 64" fill="none" xmlns="http://www.w3.org/2000/svg">
<g clip-path="url(#clip0_267_65)">
<path fill-rule="evenodd" clip-rule="evenodd" d="M32 60.8C47.9058 60.8 60.8 47.9058 60.8 32C60.8 16.0942 47.9058 3.2 32 3.2C16.0942 3.2 3.2 16.0942 3.2 32C3.2 47.9058 16.0942 60.8 32 60.8ZM32 64C49.6731 64 64 49.6731 64 32C64 14.3269 49.6731 0 32 0C14.3269 0 0 14.3269 0 32C0 49.6731 14.3269 64 32 64Z" fill="#EAAC08"/>
<path d="M32 58.752C46.7747 58.752 58.752 46.7747 58.752 32C58.752 17.2253 46.7747 5.24799 32 5.24799C17.2253 5.24799 5.24799 17.2253 5.24799 32C5.24799 46.7747 17.2253 58.752 32 58.752Z" fill="url(#paint0_linear_267_65)"/>
<path d="M5.91103 37.9458L17.6779 31.2562L5.42426 28.9115C6.0871 23.1452 8.5834 17.9366 12.3154 13.8836C15.2701 15.5109 18.2249 17.1387 21.1796 18.7663C24.7931 20.7571 28.4067 22.7478 32.0201 24.7373L47.428 33.221L48.005 33.5397C48.6326 34.02 49.0117 34.8365 48.9823 35.7185C51.1136 36.4389 52.0486 39.2552 51.5432 41.6828C50.6712 40.172 49.2686 39.1284 47.6681 38.8229C45.2376 38.8927 42.8157 38.4692 40.516 37.5785C37.142 37.0939 34.4463 37.7663 32.0243 39.0848C29.0484 40.7071 25.7501 43.8022 22.7672 46.6015C21.8322 47.479 20.9281 48.3274 20.0746 49.0923C18.4619 50.4224 16.3404 51.3782 14.1458 51.9227C13.2694 51.1366 12.4451 50.2937 11.6788 49.3997L19.0637 43.0189C19.4092 42.7176 19.4765 42.1587 19.2069 41.7701C18.9416 41.3815 18.4403 41.3073 18.0948 41.6086L10.6134 48.0738C9.61862 46.7524 8.74345 45.3357 8.00402 43.84L9.87711 42.5341C10.2478 42.2722 10.3615 41.7265 10.1298 41.3073C9.89817 40.8924 9.40535 40.7658 9.03469 41.0235L7.28035 42.2463C6.70808 40.8672 6.24786 39.43 5.91103 37.9458Z" fill="#CA8404"/>
<path d="M56.7796 21.9C57.5058 23.6798 58.0458 25.5551 58.3754 27.5021C57.9776 27.5733 57.58 27.6443 57.1825 27.7153L57.1814 27.7155C53.218 28.4234 49.2554 29.1313 45.1241 29.9681L30.5165 22.0085L48.123 12.4158C48.5754 12.1693 49.0139 11.9363 49.4423 11.7156C52.1411 14.0383 54.3711 16.8904 55.9713 20.1106L53.3376 20.5894C52.8827 20.668 52.571 21.157 52.6427 21.6809C52.71 22.2049 53.1355 22.5586 53.5904 22.48L56.7796 21.9Z" fill="#CA8404"/>
<path fill-rule="evenodd" clip-rule="evenodd" d="M32 58.752C46.7748 58.752 58.752 46.7748 58.752 32C58.752 17.2252 46.7748 5.24801 32 5.24801C17.2252 5.24801 5.24801 17.2252 5.24801 32C5.24801 46.7748 17.2252 58.752 32 58.752ZM32 60.8C47.9058 60.8 60.8 47.9058 60.8 32C60.8 16.0942 47.9058 3.20001 32 3.20001C16.0942 3.20001 3.20001 16.0942 3.20001 32C3.20001 47.9058 16.0942 60.8 32 60.8Z" fill="#EAAC08"/>
<path fill-rule="evenodd" clip-rule="evenodd" d="M32 58.752C46.7748 58.752 58.752 46.7748 58.752 32C58.752 17.2252 46.7748 5.24801 32 5.24801C17.2252 5.24801 5.24801 17.2252 5.24801 32C5.24801 46.7748 17.2252 58.752 32 58.752ZM32 60.8C47.9058 60.8 60.8 47.9058 60.8 32C60.8 16.0942 47.9058 3.20001 32 3.20001C16.0942 3.20001 3.20001 16.0942 3.20001 32C3.20001 47.9058 16.0942 60.8 32 60.8Z" fill="url(#paint1_linear_267_65)"/>
<path fill-rule="evenodd" clip-rule="evenodd" d="M32 58.752C46.7748 58.752 58.752 46.7748 58.752 32C58.752 17.2252 46.7748 5.24801 32 5.24801C17.2252 5.24801 5.24801 17.2252 5.24801 32C5.24801 46.7748 17.2252 58.752 32 58.752ZM32 60.8C47.9058 60.8 60.8 47.9058 60.8 32C60.8 16.0942 47.9058 3.20001 32 3.20001C16.0942 3.20001 3.20001 16.0942 3.20001 32C3.20001 47.9058 16.0942 60.8 32 60.8Z" fill="url(#paint2_linear_267_65)"/>
<path d="M29.7984 19.1974V20.9626C28.7258 21.7549 27.639 22.4039 26.5408 22.9107C25.353 23.4253 24.1638 23.6838 22.976 23.6838C22.9018 23.6838 22.8262 23.6838 22.752 23.6813V23.6506C22.7418 23.6506 22.7302 23.6506 22.72 23.6493V23.6186C22.7098 23.6186 22.6982 23.6186 22.688 23.6173V23.5866C22.6778 23.5866 22.6662 23.5866 22.656 23.5853V23.5546C22.6458 23.5546 22.6342 23.5546 22.624 23.5533V23.5226C22.6138 23.5226 22.6022 23.5226 22.592 23.5213V23.4906C22.5818 23.4906 22.5702 23.4906 22.56 23.4893V23.4586C22.5498 23.4586 22.5382 23.4586 22.528 23.4573V23.4266C22.5178 23.4266 22.5062 23.4266 22.496 23.4253V23.3946C22.4858 23.3946 22.4742 23.3946 22.464 23.3933V23.3626C22.4538 23.3626 22.4422 23.3626 22.432 23.3613V23.3306C22.4218 23.3306 22.4102 23.3306 22.4 23.3293V23.2986C22.3898 23.2986 22.3782 23.2986 22.368 23.2973V23.2666C22.3578 23.2666 22.3462 23.2666 22.336 23.2653V23.2346C22.3258 23.2346 22.3142 23.2346 22.304 23.2333V23.2026C22.2938 23.2026 22.2822 23.2026 22.272 23.2013V23.1706C22.2618 23.1706 22.2502 23.1706 22.24 23.1693V23.1386C22.2298 23.1386 22.2182 23.1386 22.208 23.1373V23.1066C22.1978 23.1066 22.1862 23.1066 22.176 23.1053V23.0746C22.1658 23.0746 22.1542 23.0746 22.144 23.0733V23.0426C22.1338 23.0426 22.1222 23.0426 22.112 23.0413V23.0106C22.1018 23.0106 22.0902 23.0106 22.08 23.0093V22.9786C22.0698 22.9786 22.0582 22.9786 22.048 22.9773V22.9466C22.0378 22.9466 22.0262 22.9466 22.016 22.9453V22.9146C22.0058 22.9146 21.9942 22.9146 21.984 22.9133V22.8826C21.9738 22.8826 21.9622 22.8826 21.952 22.8813V22.8506C21.9418 22.8506 21.9302 22.8506 21.92 22.8493V22.8186C21.9098 22.8186 21.8982 22.8186 21.888 22.8173V22.7866C21.8778 22.7866 21.8662 22.7866 21.856 22.7853V22.7546C21.8458 22.7546 21.8342 22.7546 21.824 22.7533V22.7226C21.8138 22.7226 21.8022 22.7226 21.792 22.7213V22.6893C21.856 22.6918 21.92 22.6918 21.984 22.6918C23.1718 22.6918 24.361 22.4333 25.5488 21.9187C26.8122 21.3363 28.0576 20.5658 29.2864 19.6058C29.4579 19.4714 29.6294 19.3357 29.7984 19.1974Z" fill="#85490E"/>
<path d="M35.04 14.432V50.4H30.7904V50.368H30.7584V50.336H30.7264V50.304H30.6944V50.272H30.6624V50.24H30.6304V50.208H30.5984V50.176H30.5664V50.144H30.5344V50.112H30.5024V50.08H30.4704V50.048H30.4384V50.016H30.4064V49.984H30.3744V49.952H30.3424V49.92H30.3104V49.888H30.2784V49.856H30.2464V49.824H30.2144V49.792H30.1824V49.76H30.1504V49.728H30.1184V49.696H30.0864V49.664H30.0544V49.632H30.0224V49.6H29.9904V49.568H29.9584V49.536H29.9264V49.504H29.8944V49.472H29.8624V49.44H29.8304V49.408H34.048V13.472H34.08V13.504H34.112V13.536H34.144V13.568H34.176V13.6H34.208V13.632H34.24V13.664H34.272V13.696H34.304V13.728H34.336V13.76H34.368V13.792H34.4V13.824H34.432V13.856H34.464V13.888H34.496V13.92H34.528V13.952H34.56V13.984H34.592V14.016H34.624V14.048H34.656V14.08H34.688V14.112H34.72V14.144H34.752V14.176H34.784V14.208H34.816V14.24H34.848V14.272H34.88V14.304H34.912V14.336H34.944V14.368H34.976V14.4H35.008V14.432H35.04Z" fill="#85490E"/>
<path d="M34.048 13.44V49.408H29.7984V20.9626C29.8087 20.9549 29.7882 20.9702 29.7984 20.9626V19.1974C29.6295 19.3357 29.4579 19.4714 29.2864 19.6058C28.0576 20.5658 26.8122 21.3363 25.5488 21.9187C24.361 22.4333 23.1718 22.6918 21.984 22.6918C21.92 22.6918 21.856 22.6918 21.792 22.6893C21.7818 22.6906 21.7702 22.6893 21.76 22.6893V18.7328C21.8048 18.7366 21.8509 18.7366 21.897 18.7366C22.5843 18.7366 23.3933 18.4947 24.32 18.0134C25.3107 17.5002 26.3347 16.832 27.392 16.009C28.4506 15.1872 29.3722 14.3309 30.1568 13.44H34.048Z" fill="url(#paint3_linear_267_65)"/>
</g>
<defs>
<linearGradient id="paint0_linear_267_65" x1="32" y1="5.24799" x2="32" y2="58.752" gradientUnits="userSpaceOnUse">
<stop stop-color="#CA8404"/>
<stop offset="1" stop-color="#A15D07"/>
</linearGradient>
<linearGradient id="paint1_linear_267_65" x1="60.8" y1="3.20001" x2="3.20001" y2="60.8" gradientUnits="userSpaceOnUse">
<stop stop-color="#44403C"/>
<stop offset="0.4" stop-color="#44403C" stop-opacity="0"/>
</linearGradient>
<linearGradient id="paint2_linear_267_65" x1="60.8" y1="3.20001" x2="3.20001" y2="60.8" gradientUnits="userSpaceOnUse">
<stop offset="0.6" stop-color="#F5F5F4" stop-opacity="0"/>
<stop offset="1" stop-color="#F5F5F4"/>
</linearGradient>
<linearGradient id="paint3_linear_267_65" x1="27.904" y1="13.44" x2="27.904" y2="49.408" gradientUnits="userSpaceOnUse">
<stop stop-color="#FEF7C3"/>
<stop offset="1" stop-color="#FDDA47"/>
</linearGradient>
<clipPath id="clip0_267_65">
<rect width="64" height="64" fill="white"/>
</clipPath>
</defs>
</svg>
