<svg width="64" height="64" viewBox="0 0 64 64" fill="none" xmlns="http://www.w3.org/2000/svg">
<g clip-path="url(#clip0_142_415)">
<path d="M32 64C49.7334 64 64 49.7334 64 32C64 14.2666 49.7334 0 32 0C14.2666 0 0 14.2666 0 32C0 49.7334 14.2666 64 32 64Z" fill="#2775CA"/>
<path d="M40.8 37.0666C40.8 32.4 38 30.8 32.4 30.1334C28.4 29.6 27.6 28.5334 27.6 26.6666C27.6 24.7997 28.9335 23.6 31.6 23.6C34 23.6 35.3335 24.4 36 26.4C36.1335 26.8 36.5335 27.0666 36.9335 27.0666H39.0666C39.6 27.0666 40 26.6666 40 26.1334V26C39.4666 23.0666 37.0666 20.8 34 20.5334V17.3334C34 16.8 33.6 16.4 32.9335 16.2666H30.9335C30.4 16.2666 30 16.6666 29.8666 17.3334V20.4C25.8666 20.9334 23.3335 23.6 23.3335 26.9334C23.3335 31.3334 26 33.0666 31.6 33.7334C35.3335 34.4 36.5335 35.2 36.5335 37.3334C36.5335 39.4669 34.6666 40.9334 32.1335 40.9334C28.6666 40.9334 27.4666 39.4666 27.0666 37.4666C26.9335 36.9334 26.5335 36.6666 26.1335 36.6666H23.8666C23.3335 36.6666 22.9335 37.0666 22.9335 37.6V37.7334C23.4666 41.0666 25.6 43.4666 30 44.1334V47.3334C30 47.8666 30.4 48.2666 31.0666 48.4H33.0666C33.6 48.4 34 48 34.1335 47.3334V44.1334C38.1335 43.4666 40.8 40.6666 40.8 37.0666Z" fill="white"/>
<path d="M25.2 51.0666C14.8 47.3334 9.4666 35.7334 13.3335 25.4666C15.3335 19.8666 19.7335 15.6 25.2 13.6C25.7335 13.3334 26 12.9334 26 12.2666V10.4C26 9.86655 25.7335 9.46656 25.2 9.33344C25.0666 9.33344 24.8 9.33343 24.6666 9.46655C12 13.4666 5.0666 26.9334 9.0666 39.6C11.4666 47.0666 17.2 52.8 24.6666 55.2C25.2 55.4665 25.7335 55.2 25.8666 54.6665C26 54.5334 26 54.4 26 54.1334V52.2665C26 51.8666 25.6 51.3334 25.2 51.0666ZM39.3335 9.46655C38.8 9.19999 38.2666 9.46655 38.1335 9.99999C38 10.1334 38 10.2666 38 10.5334V12.4C38 12.9334 38.4 13.4666 38.8 13.7334C49.2 17.4666 54.5335 29.0666 50.6666 39.3334C48.6666 44.9334 44.2666 49.2 38.8 51.2C38.2666 51.4665 38 51.8666 38 52.5334V54.4C38 54.9334 38.2666 55.3334 38.8 55.4665C38.9335 55.4665 39.2 55.4666 39.3335 55.3334C52 51.3334 58.9335 37.8666 54.9335 25.2C52.5335 17.6 46.6666 11.8666 39.3335 9.46655Z" fill="white"/>
</g>
<defs>
<clipPath id="clip0_142_415">
<rect width="64" height="64" fill="white"/>
</clipPath>
</defs>
</svg>
